<svg width="234" height="42" viewBox="0 0 234 42" fill="none" xmlns="http://www.w3.org/2000/svg">
<path d="M233.4 0.799805H0V41.9998H233.4V0.799805Z" fill="white"/>
<path d="M232.4 1.7998H41.9004V41.0998H232.4V1.7998Z" fill="black"/>
<path d="M57.8008 10.8998C58.6008 10.6998 59.3008 10.5998 59.9008 10.5998C60.9008 10.5998 61.7008 10.7998 62.5008 11.2998C63.2008 11.6998 63.8008 12.3998 64.2008 13.2998C64.6008 14.1998 64.8008 15.1998 64.8008 16.1998C64.8008 17.6998 64.4008 18.9998 63.5008 19.8998C62.6008 20.8998 61.6008 21.2998 60.4008 21.2998C60.1008 21.2998 59.6008 21.2998 59.2008 21.1998C58.8008 21.1998 58.3008 21.0998 57.8008 20.9998V10.8998ZM65.0008 8.99982C63.7008 8.49982 61.8008 8.2998 59.5008 8.2998H49.8008V9.69983H51.1008C52.0008 9.69983 52.6008 9.89978 53.0008 10.3998C53.2008 10.5998 53.4008 11.1998 53.4008 13.1998V29.7998C53.4008 31.5998 53.2008 32.1998 53.1008 32.3998C52.7008 32.9998 52.0008 33.2998 51.1008 33.2998H49.8008V34.6998H61.5008V33.2998H60.2008C59.3008 33.2998 58.7008 33.0998 58.3008 32.5998C58.1008 32.3998 57.9008 31.7998 57.9008 29.7998V22.7998C58.6008 22.8998 59.2008 22.9998 59.8008 23.0998C60.5008 23.1998 61.2008 23.1998 61.8008 23.1998C64.4008 23.1998 66.4008 22.4998 67.8008 21.0998C69.2008 19.6998 70.0008 17.8998 70.0008 15.6998C70.0008 14.0998 69.5008 12.6998 68.6008 11.4998C67.5008 10.3998 66.4008 9.49982 65.0008 8.99982Z" fill="white"/>
<path d="M93.5992 8.09961V9.49963H94.8992C95.7992 9.49963 96.3992 9.69965 96.7992 10.1996C96.9992 10.3996 97.1992 10.9996 97.1992 12.9996V23.3996C97.1992 26.0996 96.9992 27.9996 96.4992 29.0996C96.0992 30.0996 95.1992 30.9996 93.8992 31.6996C92.5992 32.3996 91.1992 32.7996 89.5992 32.7996C88.3992 32.7996 87.2992 32.5996 86.3992 32.0996C85.5992 31.6996 84.8992 31.0996 84.4992 30.3996C83.9992 29.6996 83.6992 28.7996 83.5992 27.5996C83.3992 26.2996 83.2992 25.1996 83.2992 24.1996V12.9996C83.2992 11.2996 83.4992 10.5996 83.6992 10.3996C84.0992 9.7996 84.6992 9.59961 85.5992 9.59961H86.8992V8.19965H75.1992V9.59961H76.4992C77.2992 9.59961 77.8992 9.79965 78.2992 10.1996C78.5992 10.4996 78.7992 11.1996 78.7992 13.0996V23.0996C78.7992 26.2996 78.9992 28.3996 79.3992 29.4996C79.9992 31.1996 81.0992 32.5996 82.5992 33.5996C84.0992 34.5996 86.2992 35.0996 89.1992 35.0996C91.7992 35.0996 93.9992 34.5996 95.4992 33.4996C97.0992 32.4996 98.0992 31.1996 98.5992 29.6996C99.0992 28.1996 99.3992 26.1996 99.3992 23.5996V13.1996C99.3992 11.3996 99.5992 10.7996 99.6992 10.6996C100.199 9.89965 100.799 9.59961 101.699 9.59961H102.999V8.19965H93.5992V8.09961Z" fill="white"/>
<path d="M117.799 10.8C118.899 10.6 119.699 10.5 120.399 10.5C121.899 10.5 123.199 11 124.099 11.9C124.999 12.8 125.499 14 125.499 15.5C125.499 17 124.899 18.3 123.799 19.3C122.599 20.3 120.899 20.8 118.599 20.8C118.499 20.8 117.999 20.8 117.899 20.8V10.8H117.799ZM132.399 32.3C131.599 31.8 130.599 30.7 129.399 29C129.399 29 125.499 23.7 124.399 22.1C126.399 21.6 127.899 20.8 128.799 19.7C129.899 18.5 130.399 17 130.399 15.4C130.399 13.8 129.899 12.5 128.999 11.4C128.099 10.3 126.899 9.49998 125.499 9.09998C124.199 8.69998 122.099 8.5 119.399 8.5H109.699V9.89996H110.999C111.899 9.89996 112.499 10.1 112.899 10.6C113.099 10.8 113.299 11.4 113.299 13.4V30C113.299 31.8 113.099 32.4 112.999 32.6C112.599 33.2 111.999 33.5 110.999 33.5H109.699V34.9H121.499V33.3H120.099C119.299 33.3 118.699 33.1 118.199 32.6C117.999 32.4 117.799 31.8 117.799 29.8V22.7H117.999C118.199 22.7 118.299 22.7 118.499 22.7C118.899 22.7 119.299 22.7 119.899 22.7L128.599 34.7H135.999V33.3H135.699C134.399 33.1 133.299 32.8 132.399 32.3Z" fill="white"/>
<path d="M142.6 8.2998V9.69983H143.9C144.4 9.69983 145 9.79979 145.4 10.0998C145.7 10.2998 145.9 10.4998 146 10.6998C146.1 10.9998 146.2 11.5998 146.2 13.0998V29.6998C146.2 31.5998 146 32.1998 145.8 32.3998C145.4 32.8998 144.7 33.1998 143.8 33.1998H142.5V34.5998H154.2V33.2998H152.9C152.4 33.2998 151.9 33.1998 151.4 32.8998C151.1 32.6998 150.9 32.4998 150.8 32.2998C150.7 31.9998 150.6 31.3998 150.6 29.8998V13.2998C150.6 11.3998 150.8 10.7998 151 10.5998C151.4 10.0998 152.1 9.7998 153 9.7998H154.3V8.2998H142.6Z" fill="white"/>
<path d="M191.8 8.2998H182.1V9.69983H183.4C184.3 9.69983 185 9.89978 185.4 10.3998C185.6 10.5998 185.8 11.1998 185.8 13.0998V26.7998L170.5 8.2998H163V9.69983H163.4C164.1 9.69983 164.6 9.79978 165 9.89978C165.7 10.0998 166.2 10.3998 166.6 10.5998C166.9 10.7998 167.5 11.3998 168.1 12.1998V29.8998C168.1 31.6998 167.9 32.2998 167.8 32.4998C167.4 33.0998 166.8 33.2998 165.8 33.2998H164.5V34.6998H174.2V33.2998H172.9C172 33.2998 171.4 33.0998 171 32.5998C170.8 32.3998 170.6 31.7998 170.6 29.8998V15.0998L187.1 35.0998H188.3V13.0998C188.3 11.2998 188.5 10.6998 188.7 10.4998C189.1 9.89982 189.7 9.69983 190.7 9.69983H192V8.2998H191.8Z" fill="white"/>
<path d="M209.5 14.8998L213.2 23.8998H205.6L209.5 14.8998ZM224.2 33.2998C223.2 33.1998 222.5 32.9998 222 32.4998C221.5 31.9998 220.8 30.9998 220.1 29.2998L211.3 7.7998H210.1L200.8 29.0998C200 30.8998 199.3 32.0998 198.7 32.6998C198.6 32.7998 198.1 33.0998 196.8 33.3998L196.5 33.2998V34.6998H205.3V33.2998H205C203.6 33.1998 203 32.9998 202.8 32.7998C202.5 32.5998 202.4 32.2998 202.4 32.0998C202.4 31.7998 202.5 31.1998 203 29.9998C203 29.9998 204.3 27.0998 204.7 26.1998H214.2C214.5 26.9998 215.6 29.6998 215.6 29.6998C216.1 30.7998 216.3 31.6998 216.3 32.1998C216.3 32.4998 216.2 32.6998 215.9 32.9998C215.7 33.1998 215.2 33.3998 214 33.3998H213.7V34.7998H224.6V33.2998H224.2Z" fill="white"/>
<path d="M40.3996 1.7998H1.09961V41.0998H40.3996V1.7998Z" fill="#ED1C24"/>
<path d="M39.0996 3.2002H2.59961V39.7002H39.0996V3.2002Z" fill="white"/>
<path d="M15.2 27.0996H4V38.2996H15.2V27.0996Z" fill="#ED1C24"/>
<path d="M37.6003 27.0996H26.4004V38.2996H37.6003V27.0996Z" fill="#ED1C24"/>
<path d="M26.3992 15.7998H15.1992V26.9998H26.3992V15.7998Z" fill="#ED1C24"/>
<path d="M15.2 4.59961H4V15.7996H15.2V4.59961Z" fill="#ED1C24"/>
<path d="M37.6003 4.59961H26.4004V15.7996H37.6003V4.59961Z" fill="#ED1C24"/>
</svg>
