<svg width="99" height="17" viewBox="0 0 99 17" fill="none" xmlns="http://www.w3.org/2000/svg">
<path d="M95.6903 0H0V16.8914H95.6903V0Z" fill="white"/>
<path d="M95.2797 0.410156H17.1777V16.5225H95.2797V0.410156Z" fill="black"/>
<path d="M23.6978 4.14114C24.0258 4.05915 24.3128 4.01815 24.5588 4.01815C24.9688 4.01815 25.2968 4.10016 25.6248 4.30515C25.9118 4.46914 26.1578 4.75613 26.3218 5.12512C26.4857 5.4941 26.5677 5.9041 26.5677 6.31408C26.5677 6.92906 26.4037 7.46202 26.0348 7.831C25.6658 8.24099 25.2558 8.40499 24.7638 8.40499C24.6408 8.40499 24.4358 8.405 24.2718 8.364C24.1078 8.364 23.9028 8.323 23.6978 8.282V4.14114ZM26.6497 3.36219C26.1168 3.1572 25.3378 3.0752 24.3948 3.0752H20.418V3.64918H20.9509C21.3199 3.64918 21.5659 3.73116 21.7299 3.93615C21.8119 4.01815 21.8939 4.26416 21.8939 5.08413V11.8899C21.8939 12.6278 21.8119 12.8738 21.7709 12.9558C21.6069 13.2018 21.3199 13.3248 20.9509 13.3248H20.418V13.8988H25.2148V13.3248H24.6818C24.3128 13.3248 24.0668 13.2428 23.9028 13.0378C23.8208 12.9558 23.7389 12.7098 23.7389 11.8899V9.01997C24.0258 9.06096 24.2718 9.10196 24.5178 9.14296C24.8048 9.18395 25.0918 9.18397 25.3378 9.18397C26.4037 9.18397 27.2237 8.89697 27.7977 8.32299C28.3717 7.74901 28.6997 7.01105 28.6997 6.10909C28.6997 5.45311 28.4947 4.87913 28.1257 4.38715C27.6747 3.93617 27.2237 3.56718 26.6497 3.36219Z" fill="white"/>
<path d="M38.3738 2.99316V3.56715H38.9068C39.2758 3.56715 39.5217 3.64915 39.6857 3.85415C39.7677 3.93614 39.8497 4.18213 39.8497 5.0021V9.26592C39.8497 10.3729 39.7677 11.1518 39.5627 11.6028C39.3987 12.0128 39.0298 12.3818 38.4968 12.6688C37.9638 12.9558 37.3898 13.1198 36.7338 13.1198C36.2419 13.1198 35.7909 13.0378 35.4219 12.8328C35.0939 12.6688 34.8069 12.4228 34.6429 12.1358C34.4379 11.8488 34.3149 11.4798 34.2739 10.9879C34.1919 10.4549 34.1509 10.0039 34.1509 9.59392V5.0021C34.1509 4.30512 34.2329 4.01812 34.3149 3.93612C34.4789 3.69013 34.7249 3.60814 35.0939 3.60814H35.6269V3.03418H30.8301V3.60814H31.3631C31.691 3.60814 31.937 3.69015 32.101 3.85415C32.224 3.97714 32.306 4.26411 32.306 5.04308V9.14293C32.306 10.4549 32.388 11.3159 32.552 11.7668C32.798 12.4638 33.249 13.0378 33.8639 13.4478C34.4789 13.8577 35.3809 14.0627 36.5699 14.0627C37.6358 14.0627 38.5378 13.8578 39.1528 13.4068C39.8087 12.9968 40.2187 12.4638 40.4237 11.8488C40.6287 11.2339 40.7517 10.4139 40.7517 9.34792V5.0841C40.7517 4.34613 40.8337 4.10014 40.8747 4.05914C41.0797 3.73115 41.3257 3.60814 41.6947 3.60814H42.2276V3.03418H38.3738V2.99316Z" fill="white"/>
<path d="M48.2955 4.10019C48.7465 4.01819 49.0745 3.97719 49.3614 3.97719C49.9764 3.97719 50.5094 4.18217 50.8784 4.55116C51.2474 4.92014 51.4524 5.41214 51.4524 6.02712C51.4524 6.64209 51.2064 7.17507 50.7554 7.58505C50.2634 7.99503 49.5664 8.20003 48.6235 8.20003C48.5825 8.20003 48.3775 8.20003 48.3365 8.20003V4.10019H48.2955ZM54.2813 12.9148C53.9533 12.7099 53.5433 12.2589 53.0513 11.5619C53.0513 11.5619 51.4524 9.38898 51.0014 8.733C51.8214 8.52801 52.4363 8.20004 52.8053 7.74905C53.2563 7.25707 53.4613 6.64208 53.4613 5.9861C53.4613 5.33013 53.2563 4.79715 52.8873 4.34617C52.5183 3.89518 52.0263 3.5672 51.4524 3.40321C50.9194 3.23921 50.0584 3.15723 48.9515 3.15723H44.9746V3.73119H45.5076C45.8766 3.73119 46.1226 3.81319 46.2866 4.01818C46.3686 4.10018 46.4505 4.34617 46.4505 5.16613V11.9719C46.4505 12.7099 46.3686 12.9558 46.3276 13.0378C46.1636 13.2838 45.9176 13.4068 45.5076 13.4068H44.9746V13.9808H49.8124V13.3248H49.2384C48.9104 13.3248 48.6645 13.2428 48.4595 13.0378C48.3775 12.9558 48.2955 12.7099 48.2955 11.8899V8.97901H48.3775C48.4595 8.97901 48.5005 8.97901 48.5825 8.97901C48.7465 8.97901 48.9105 8.97901 49.1565 8.97901L52.7233 13.8988H55.7572V13.3248H55.6342C55.1012 13.2428 54.6502 13.1198 54.2813 12.9148Z" fill="white"/>
<path d="M58.4629 3.0752V3.64918H58.9959C59.2009 3.64918 59.4468 3.69017 59.6108 3.81316C59.7338 3.89516 59.8158 3.97717 59.8568 4.05917C59.8978 4.18216 59.9388 4.42814 59.9388 5.04311V11.8489C59.9388 12.6278 59.8568 12.8738 59.7748 12.9558C59.6108 13.1608 59.3238 13.2838 58.9548 13.2838H58.4219V13.8578H63.2187V13.3248H62.6857C62.4807 13.3248 62.2757 13.2838 62.0707 13.1608C61.9477 13.0788 61.8657 12.9968 61.8247 12.9148C61.7837 12.7918 61.7427 12.5458 61.7427 11.9308V5.12512C61.7427 4.34615 61.8247 4.10015 61.9067 4.01815C62.0707 3.81316 62.3577 3.69017 62.7267 3.69017H63.2597V3.0752H58.4629Z" fill="white"/>
<path d="M78.6357 3.0752H74.6588V3.64918H75.1918C75.5608 3.64918 75.8478 3.73116 76.0118 3.93615C76.0938 4.01815 76.1758 4.26414 76.1758 5.04311V10.6599L69.903 3.0752H66.8281V3.64918H66.9921C67.2791 3.64918 67.4841 3.69016 67.6481 3.73116C67.9351 3.81316 68.1401 3.93616 68.3041 4.01815C68.4271 4.10015 68.673 4.34616 68.919 4.67414V11.9308C68.919 12.6688 68.837 12.9148 68.796 12.9968C68.6321 13.2428 68.3861 13.3248 67.9761 13.3248H67.4431V13.8988H71.42V13.3248H70.887C70.518 13.3248 70.272 13.2428 70.108 13.0378C70.026 12.9558 69.944 12.7098 69.944 11.9308V5.86308L76.7087 14.0628H77.2007V5.04311C77.2007 4.30514 77.2827 4.05916 77.3647 3.97717C77.5287 3.73118 77.7747 3.64918 78.1847 3.64918H78.7177V3.0752H78.6357Z" fill="white"/>
<path d="M85.8923 5.78099L87.4092 9.47085H84.2933L85.8923 5.78099ZM91.9191 13.3247C91.5091 13.2837 91.2221 13.2017 91.0171 12.9967C90.8121 12.7917 90.5251 12.3818 90.2381 11.6848L86.6303 2.87012H86.1383L82.3254 11.6028C81.9974 12.3407 81.7105 12.8327 81.4645 13.0787C81.4235 13.1197 81.2185 13.2427 80.6855 13.3657L80.5625 13.3247V13.8987H84.1704V13.3247H84.0474C83.4734 13.2837 83.2274 13.2017 83.1454 13.1197C83.0224 13.0377 82.9814 12.9147 82.9814 12.8327C82.9814 12.7097 83.0224 12.4638 83.2274 11.9718C83.2274 11.9718 83.7604 10.7828 83.9244 10.4138H87.8192C87.9422 10.7418 88.3932 11.8488 88.3932 11.8488C88.5982 12.2998 88.6802 12.6687 88.6802 12.8737C88.6802 12.9967 88.6392 13.0787 88.5162 13.2017C88.4342 13.2837 88.2292 13.3657 87.7372 13.3657H87.6142V13.9397H92.083V13.3247H91.9191Z" fill="white"/>
<path d="M16.5636 0.410156H0.451172V16.5225H16.5636V0.410156Z" fill="#ED1C24"/>
<path d="M16.0308 0.984375H1.06641V15.9488H16.0308V0.984375Z" fill="white"/>
<path d="M6.23245 10.7822H1.64062V15.3741H6.23245V10.7822Z" fill="#ED1C24"/>
<path d="M15.416 10.7822H10.8242V15.3741H15.416V10.7822Z" fill="#ED1C24"/>
<path d="M10.8242 6.14941H6.23242V10.7412H10.8242V6.14941Z" fill="#ED1C24"/>
<path d="M6.23245 1.55762H1.64062V6.14944H6.23245V1.55762Z" fill="#ED1C24"/>
<path d="M15.416 1.55762H10.8242V6.14944H15.416V1.55762Z" fill="#ED1C24"/>
<path d="M97.2067 1.2301H97.3297C97.4527 1.2301 97.5347 1.1891 97.5347 1.1071C97.5347 1.02511 97.4527 0.943101 97.3297 0.943101C97.2887 0.943101 97.2477 0.943101 97.2067 0.943101V1.2301ZM97.2067 1.76307H97.0017V0.820111C97.0837 0.820111 97.2067 0.779123 97.3707 0.779123C97.5347 0.779123 97.6167 0.820101 97.6987 0.861099C97.7397 0.902098 97.7807 0.984095 97.7807 1.06609C97.7807 1.18909 97.6987 1.2711 97.5757 1.3121C97.6577 1.3531 97.6987 1.43508 97.7397 1.55808C97.7807 1.72207 97.7807 1.76308 97.8217 1.80408H97.5757C97.5347 1.76308 97.5347 1.68107 97.4937 1.55808C97.4937 1.47608 97.4117 1.3941 97.2887 1.3941H97.1657V1.76307H97.2067ZM96.6327 1.27108C96.6327 1.68107 96.9607 2.05006 97.3707 2.05006C97.7807 2.05006 98.1087 1.72208 98.1087 1.3121C98.1087 0.902113 97.7807 0.533117 97.3707 0.533117C96.9197 0.492119 96.6327 0.861099 96.6327 1.27108ZM98.3547 1.27108C98.3547 1.80406 97.9037 2.21407 97.3707 2.21407C96.8377 2.21407 96.3867 1.80406 96.3867 1.27108C96.3867 0.738104 96.8377 0.328125 97.3707 0.328125C97.9037 0.328125 98.3547 0.738104 98.3547 1.27108Z" fill="white"/>
</svg>
