<svg width="429" height="323" viewBox="0 0 429 323" fill="none" xmlns="http://www.w3.org/2000/svg">
<path fill-rule="evenodd" clip-rule="evenodd" d="M51.1 207.099H40.5V206.399H42.4V183.899H40.5V183.199H50.4C54.5 183.199 57.3 185.599 57.3 189.099C57.3 191.499 55.2 193.599 52.3 194.299V194.499C56.2 194.899 58.7 197.199 58.7 200.599C58.7 204.399 55.5 207.099 51.1 207.099ZM48.8 183.899H45.6V193.999H49C51.8 193.999 53.8 191.699 53.8 189.099C53.9 186.599 52.1 183.899 48.8 183.899ZM49.8 194.899H45.6V206.399H50.3C53.1 206.399 55.2 203.799 55.2 200.499C55.2 197.599 53 194.899 49.8 194.899Z" fill="#F39100"/>
<path fill-rule="evenodd" clip-rule="evenodd" d="M67.1008 196.799C67.0008 197.499 67.0008 197.999 67.0008 197.999C67.0008 204.299 68.7008 206.699 71.2008 206.699C74.2008 206.699 76.3008 203.999 76.3008 201.099V200.599H77.1008V201.099C77.1008 204.799 74.8008 207.599 71.0008 207.599C66.8008 207.599 63.8008 203.699 63.8008 198.299C63.8008 192.799 66.6008 189.199 70.6008 189.199C74.5008 189.199 77.1008 191.299 77.1008 196.799H67.1008ZM70.4008 189.999C68.6008 189.999 67.3008 191.599 67.0008 196.099H73.8008C73.8008 191.399 72.3008 189.999 70.4008 189.999Z" fill="#F39100"/>
<path fill-rule="evenodd" clip-rule="evenodd" d="M94.2 196.1C94 194.6 93.6 192.5 93 191.4C92.6 190.6 92.1 190.2 91.5 190.2H89.8V206.4H92.5V207.1H84V206.4H86.7V190.2H85C84.5 190.2 83.9 190.6 83.5 191.4C83 192.5 82.5 194.7 82.4 196.1H81.5V189.5H94.9V196.1H94.2Z" fill="#F39100"/>
<path fill-rule="evenodd" clip-rule="evenodd" d="M103.101 196.799C103.001 197.499 103.001 197.999 103.001 197.999C103.001 204.299 104.701 206.699 107.201 206.699C110.201 206.699 112.301 203.999 112.301 201.099V200.599H113.101V201.099C113.101 204.799 110.801 207.599 107.001 207.599C102.801 207.599 99.8008 203.699 99.8008 198.299C99.8008 192.799 102.601 189.199 106.601 189.199C110.401 189.199 113.101 191.299 113.101 196.799H103.101ZM106.501 189.999C104.701 189.999 103.401 191.599 103.101 196.099H109.901C109.901 191.399 108.301 189.999 106.501 189.999Z" fill="#F39100"/>
<path fill-rule="evenodd" clip-rule="evenodd" d="M126.402 207.499C124.702 207.499 123.402 206.399 122.702 204.899V212.399H124.802V213.099H118.102V212.399H119.602V190.299H118.102V189.599H122.402V191.999C123.302 190.299 124.402 189.199 126.602 189.199C130.702 189.199 133.302 193.299 133.302 198.299C133.302 203.699 130.302 207.499 126.402 207.499ZM122.702 200.699C122.702 204.099 124.202 206.599 126.302 206.599C128.602 206.599 130.002 204.099 130.002 198.199C130.002 192.899 128.502 189.999 126.302 189.999C124.402 189.999 122.602 191.699 122.602 195.499V200.699H122.702Z" fill="#F39100"/>
<path fill-rule="evenodd" clip-rule="evenodd" d="M147.801 207.1V206.4H149.201V194L142.901 204V206.4H144.301V207.1H138.301V206.4H139.801V190.2H138.301V189.5H144.301V190.2H142.901V202.2L149.201 192.3V190.2H147.801V189.5H153.701V190.2H152.201V206.4H153.701V207.1H147.801Z" fill="#F39100"/>
<path fill-rule="evenodd" clip-rule="evenodd" d="M169.599 198.2H163.299V206.4H164.799V207.1H158.699V206.4H160.199V190.2H158.699V189.5H164.799V190.2H163.299V197.4H169.599V190.2H168.099V189.5H174.099V190.2H172.599V206.4H174.099V207.1H168.099V206.4H169.599V198.2Z" fill="#F39100"/>
<path fill-rule="evenodd" clip-rule="evenodd" d="M189.1 207.1V204.3C188 206.4 187 207.5 183.5 207.5C180.8 207.5 179 205.7 179 203.1C179 197.1 186.5 198.2 188.8 195.9V193.1C188.8 191.3 187.4 189.9 185.5 189.9C184.4 189.9 183.5 190.1 183 191C182.3 191.9 181.7 193.8 181.5 195.9H180.6V190.7C181.8 189.5 183.9 189.1 185.7 189.1C188.8 189.1 191.9 190.2 191.9 194.1V206.4H193.4V207.1H189.1ZM184.6 198.8C183.2 199.5 182.1 200.7 182.1 203C182.1 204.9 183 206.7 184.7 206.7C186.4 206.7 188.9 204.7 188.9 201.4V197C187.6 197.7 186 198.1 184.6 198.8Z" fill="#F39100"/>
<path fill-rule="evenodd" clip-rule="evenodd" d="M206.698 207.499C204.998 207.499 203.698 206.399 202.998 204.899V212.399H205.098V213.099H198.398V212.399H199.898V190.299H198.398V189.599H202.698V191.999C203.598 190.299 204.698 189.199 206.898 189.199C210.998 189.199 213.598 193.299 213.598 198.299C213.598 203.699 210.598 207.499 206.698 207.499ZM202.998 200.699C202.998 204.099 204.498 206.599 206.598 206.599C208.898 206.599 210.298 204.099 210.298 198.199C210.298 192.899 208.798 189.999 206.598 189.999C204.698 189.999 202.898 191.699 202.898 195.499V200.699H202.998Z" fill="#F39100"/>
<path fill-rule="evenodd" clip-rule="evenodd" d="M229.402 198.2H223.202V206.4H224.702V207.1H218.602V206.4H220.102V190.2H218.602V189.5H224.702V190.2H223.202V197.4H229.402V190.2H227.902V189.5H234.002V190.2H232.502V206.4H234.002V207.1H227.902V206.4H229.402V198.2Z" fill="#F39100"/>
<path fill-rule="evenodd" clip-rule="evenodd" d="M247.1 207.1H239.1V206.4H240.6V190.2H239V189.5H245.5V190.2H243.6V196.7H247.1C250.3 196.7 252.9 199.1 252.9 202C252.9 204.8 250.3 207.1 247.1 207.1ZM245.8 197.6H243.6V206.5H245.8C248 206.5 249.7 204.5 249.7 202.1C249.7 199.6 248 197.6 245.8 197.6ZM254.4 190.2H252.9V189.5H259V190.2H257.5V206.4H259V207.1H252.9V206.4H254.4V190.2Z" fill="#F39100"/>
<path fill-rule="evenodd" clip-rule="evenodd" d="M273.201 207.1V206.4H274.601V194L268.401 203.9V206.3H269.801V207H263.801V206.3H265.301V190.1H263.801V189.4H269.801V190.1H268.401V202L274.601 192.1V190.1H273.201V189.4H279.201V190.1H277.701V206.3H279.201V207H273.201V207.1ZM271.501 187.4C268.501 187.4 266.201 186.2 266.201 184.6C266.201 183.6 267.001 182.8 267.901 182.8C268.901 182.8 269.601 183.6 269.601 184.6C269.601 185.2 269.201 185.8 268.701 185.9C269.001 186.4 270.501 186.8 271.401 186.8C272.401 186.8 273.601 186.4 274.101 185.9C273.601 185.8 273.201 185.2 273.201 184.6C273.201 183.6 273.901 182.8 274.901 182.8C275.901 182.8 276.601 183.6 276.601 184.6C276.801 186.3 274.501 187.4 271.501 187.4Z" fill="#F39100"/>
<path fill-rule="evenodd" clip-rule="evenodd" d="M310.2 183.899H308.3V183.199H315.4V183.899H313.5V206.399H316.3V213.099H315.4C315.1 211.399 314.6 209.699 313.9 208.299C313.6 207.599 312.8 207.099 312 207.099H296V206.399H297.9V183.899H296V183.199H303.1V183.899H301.2V206.399H310.3V183.899H310.2Z" fill="#F39100"/>
<path fill-rule="evenodd" clip-rule="evenodd" d="M324.402 196.799C324.302 197.499 324.302 197.999 324.302 197.999C324.302 204.299 326.002 206.699 328.502 206.699C331.502 206.699 333.602 203.999 333.602 201.099V200.599H334.402V201.099C334.402 204.799 332.002 207.599 328.302 207.599C324.102 207.599 321.102 203.699 321.102 198.299C321.102 192.799 323.902 189.199 327.902 189.199C331.802 189.199 334.402 191.299 334.402 196.799H324.402ZM327.802 189.999C326.002 189.999 324.702 191.599 324.402 196.099H331.202C331.202 191.399 329.702 189.999 327.802 189.999Z" fill="#F39100"/>
<path fill-rule="evenodd" clip-rule="evenodd" d="M350.198 198.2H343.998V206.4H345.498V207.1H339.398V206.4H340.898V190.2H339.398V189.5H345.498V190.2H343.998V197.4H350.198V190.2H348.698V189.5H354.798V190.2H353.298V206.4H354.798V207.1H348.698V206.4H350.198V198.2Z" fill="#F39100"/>
<path fill-rule="evenodd" clip-rule="evenodd" d="M372.001 196.1C371.801 194.6 371.401 192.5 370.801 191.4C370.401 190.6 369.901 190.2 369.301 190.2H367.601V206.4H370.301V207.1H361.801V206.4H364.501V190.2H362.801C362.301 190.2 361.701 190.6 361.301 191.4C360.801 192.5 360.301 194.7 360.201 196.1H359.301V189.5H372.701V196.1H372.001Z" fill="#F39100"/>
<path fill-rule="evenodd" clip-rule="evenodd" d="M385.8 207.499C384.1 207.499 382.8 206.399 382.1 204.899V212.399H384.2V213.099H377.5V212.399H379V190.299H377.5V189.599H381.8V191.999C382.7 190.299 383.8 189.199 386 189.199C390.1 189.199 392.7 193.299 392.7 198.299C392.7 203.699 389.7 207.499 385.8 207.499ZM382.1 200.699C382.1 204.099 383.6 206.599 385.7 206.599C388 206.599 389.4 204.099 389.4 198.199C389.4 192.899 387.9 189.999 385.7 189.999C383.8 189.999 382 191.699 382 195.499V200.699H382.1Z" fill="#F39100"/>
<path d="M371.2 149C365.5 67.2 296.9 2 214.4 2C131.9 2 63.2 67.2 57.6 149H2V321.2H427.2V149H371.2Z" stroke="#F39100" stroke-width="2.1875" stroke-miterlimit="22.9256"/>
<path d="M214.301 23.9004C288.901 23.9004 349.701 84.9004 349.701 159.9V170.9H405.401V299.3H23.8008V170.9H79.0008V159.9C79.0008 85.0004 139.701 23.9004 214.301 23.9004Z" stroke="#F39100" stroke-width="2.1875" stroke-miterlimit="22.9256"/>
<path fill-rule="evenodd" clip-rule="evenodd" d="M364.9 155.6C362.6 74.2996 295.5 8.59961 214.3 8.59961C133.1 8.59961 66 74.2996 63.7 155.6H8.5V314.7H420.6V155.6H364.9ZM214.3 17.3996C292.6 17.3996 356.2 81.3996 356.2 160V164.4H411.9V305.9H17.3V164.3H72.4V159.9C72.4 81.2996 136.1 17.3996 214.3 17.3996Z" fill="#F39100"/>
<path fill-rule="evenodd" clip-rule="evenodd" d="M116.699 163.9C116.699 163.4 116.699 163 116.699 162.5C117.399 161.7 117.599 159.9 118.099 159.2C118.599 158.4 119.699 158.1 120.899 157.3C125.399 154.6 132.399 154.2 138.099 151.7C141.399 150.3 145.399 146.5 149.199 144.7C151.999 143.3 154.799 142.8 157.099 141.4C159.699 139.8 161.899 137.9 162.699 135.3C163.899 131.5 162.799 128.2 162.199 124.1C161.499 118.6 160.899 112.4 161.699 107.8C162.299 104.4 164.399 101.1 164.499 98.5C164.599 96 163.199 93.5 163.099 90.6C162.999 88.5 163.899 86.6 163.599 84.1C161.999 83.3 160.399 82.8 158.999 81.8C158.699 81.6 158.799 80.6 158.499 80.4C157.699 79.8 155.999 80 155.599 79.2C154.999 77.9 155.699 76.5 156.299 75.3C156.499 75 158.399 71.6 157.999 71.5C155.299 71.3 154.799 68.8 153.799 66.8C151.399 65.6 150.399 62.6 150.999 60.3C151.699 57.7 156.599 56.5 160.299 54.7C161.199 54.3 161.899 53.7 162.599 53.3C164.899 52 168.299 50.8 169.099 48.6C170.899 48.2 169.399 46.7 169.599 45.3C171.499 36.4 187.899 33.4 197.499 36.9C198.899 37.4 200.199 38.8 201.199 39.7C204.099 42.2 206.499 45.2 207.699 48.6C213.199 51 214.899 56.9 216.099 63.1C216.799 67 216.799 72.9 217.999 75.7C219.699 79.7 224.799 82.1 230.099 84.1C234.499 85.8 241.399 87.9 246.799 88.3C255.199 88.9 263.499 87.6 270.899 88.3C276.599 88.8 283.899 91.5 287.199 93.9C288.499 94.9 290.099 95.8 290.899 96.7C291.299 97.1 291.299 97.9 291.799 98.6C292.699 99.8 293.499 100.4 294.099 101.4C295.699 104.2 297.399 107.4 298.299 110.3C300.799 117.9 300.799 124.6 299.199 130.8C298.299 134.3 297.699 135.9 295.999 138.7C293.999 141.9 290.399 144.9 287.199 146.6C283.199 148.8 275.199 151.6 269.099 151.3C265.999 151.1 265.799 150.3 264.499 149.9C263.799 149.7 262.899 149.9 262.199 149.9C259.699 149.8 256.799 150.4 254.299 150.8C243.499 152.5 234.899 156.9 222.699 155C223.099 158.4 221.999 162.6 219.899 163.9C217.499 165.4 207.099 165.4 203.199 165.8C202.399 165.9 201.599 165.8 200.899 165.8C187.399 166 173.099 166.6 160.999 168.1C156.599 168.7 154.999 169.7 152.199 170.9C150.499 171.6 148.699 172.4 147.099 172.8C140.699 174.1 133.099 172.8 130.399 170.5C129.799 169.7 130.599 167.5 128.999 167.7C124.399 168.3 118.599 167.4 116.699 163.9Z" fill="#F39100"/>
<path d="M116.699 163.9C116.699 163.4 116.699 163 116.699 162.5C117.399 161.7 117.599 159.9 118.099 159.2C118.599 158.4 119.699 158.1 120.899 157.3C125.399 154.6 132.399 154.2 138.099 151.7C141.399 150.3 145.399 146.5 149.199 144.7C151.999 143.3 154.799 142.8 157.099 141.4C159.699 139.8 161.899 137.9 162.699 135.3C163.899 131.5 162.799 128.2 162.199 124.1C161.499 118.6 160.899 112.4 161.699 107.8C162.299 104.4 164.399 101.1 164.499 98.5C164.599 96 163.199 93.5 163.099 90.6C163.099 88.5 163.899 86.6 163.599 84.1C161.999 83.3 160.399 82.8 158.999 81.8C158.699 81.6 158.799 80.6 158.499 80.4C157.799 79.8 155.999 80 155.599 79.2C154.999 77.9 155.699 76.5 156.299 75.3C156.499 75 158.399 71.6 157.999 71.5C155.299 71.3 154.799 68.8 153.799 66.8C151.399 65.6 150.399 62.6 150.999 60.3C151.699 57.7 156.599 56.5 160.299 54.7C161.199 54.3 161.899 53.7 162.599 53.3C164.899 52 168.299 50.8 169.099 48.6C170.899 48.2 169.399 46.7 169.599 45.3C171.499 36.4 187.899 33.4 197.499 36.9C198.899 37.4 200.199 38.8 201.199 39.7C204.099 42.2 206.499 45.2 207.699 48.6C213.199 51 214.899 56.9 216.099 63.1C216.799 67 216.799 72.9 217.999 75.7C219.699 79.7 224.799 82.1 230.099 84.1C234.499 85.8 241.399 87.9 246.799 88.3C255.199 88.9 263.499 87.6 270.899 88.3C276.599 88.8 283.899 91.5 287.199 93.9C288.499 94.9 290.099 95.8 290.899 96.7C291.299 97.1 291.299 97.9 291.799 98.6C292.699 99.8 293.499 100.4 294.099 101.4C295.699 104.2 297.399 107.4 298.299 110.3C300.799 117.9 300.799 124.6 299.199 130.8C298.299 134.3 297.699 135.9 295.999 138.7C293.999 141.9 290.399 144.9 287.199 146.6C283.199 148.8 275.099 151.6 269.099 151.3C265.999 151.1 265.799 150.3 264.499 149.9C263.799 149.7 262.899 149.9 262.199 149.9C259.699 149.8 256.799 150.4 254.299 150.8C243.499 152.5 234.899 156.9 222.699 155C223.099 158.4 221.999 162.6 219.899 163.9C217.499 165.4 207.099 165.4 203.199 165.8C202.399 165.9 201.599 165.8 200.899 165.8C187.399 166 173.099 166.6 160.999 168.1C156.599 168.7 154.999 169.7 152.199 170.9C150.499 171.6 148.699 172.4 147.099 172.8C140.699 174.1 133.099 172.8 130.399 170.5C129.799 169.7 130.599 167.5 128.999 167.7C124.399 168.3 118.599 167.4 116.699 163.9Z" stroke="black" stroke-width="2.1873" stroke-miterlimit="22.9256"/>
<path fill-rule="evenodd" clip-rule="evenodd" d="M155.799 170.799C156.699 168.799 158.299 166.599 159.299 165.499C160.799 163.899 167.699 161.699 168.099 159.899C171.999 143.299 176.999 133.299 179.199 129.699C177.499 124.799 178.099 120.799 179.199 116.799C167.599 106.299 171.899 94.1992 171.899 94.1992C171.899 94.1992 168.999 78.8992 169.799 74.6992C177.099 75.6992 178.799 81.5992 181.199 83.6992C193.199 81.9992 197.099 83.8992 199.199 84.6992C204.899 76.4992 210.899 77.3992 210.899 77.3992C210.899 77.3992 211.299 89.7992 210.899 92.2992C211.299 105.299 208.699 106.399 207.799 107.899C215.199 111.799 217.599 117.699 217.799 120.699C262.399 124.799 274.399 138.999 278.599 143.599C290.899 159.099 320.999 161.399 325.299 162.299C329.499 163.299 327.599 169.099 325.299 168.899C322.999 168.799 312.299 166.999 309.399 167.899C308.799 171.599 302.899 166.599 300.799 165.799C293.299 168.499 274.199 151.699 269.299 154.999C264.499 158.299 277.199 158.699 278.999 160.199C287.799 166.099 276.099 170.699 274.199 170.599C269.199 168.899 269.999 168.299 270.699 165.699C258.999 166.299 247.599 165.199 244.799 165.399C241.999 165.599 240.999 164.699 240.799 163.299C224.499 166.999 206.399 180.599 189.199 175.299C187.499 174.799 185.599 174.099 184.099 173.099C181.199 171.099 183.099 170.799 183.199 168.099C183.499 162.999 172.799 170.099 171.399 170.899C168.599 172.499 157.499 179.299 155.299 173.499C154.999 173.199 155.299 171.999 155.799 170.799Z" fill="black"/>
<path d="M155.799 170.799C156.699 168.799 158.299 166.599 159.299 165.499C160.799 163.899 167.699 161.699 168.099 159.899C171.999 143.299 176.999 133.299 179.199 129.699C177.499 124.799 178.099 120.799 179.199 116.799C167.599 106.299 171.899 94.1992 171.899 94.1992C171.899 94.1992 168.999 78.8992 169.799 74.6992C177.099 75.6992 178.799 81.5992 181.199 83.6992C193.199 81.9992 197.099 83.8992 199.199 84.6992C204.899 76.4992 210.899 77.3992 210.899 77.3992C210.899 77.3992 211.299 89.7992 210.899 92.2992C211.299 105.299 208.699 106.399 207.799 107.899C215.199 111.799 217.599 117.699 217.799 120.699C262.399 124.799 274.399 138.999 278.599 143.599C290.899 159.099 320.999 161.399 325.299 162.299C329.499 163.299 327.599 169.099 325.299 168.899C322.999 168.799 312.299 166.999 309.399 167.899C308.799 171.599 302.899 166.599 300.799 165.799C293.299 168.499 274.199 151.699 269.299 154.999C264.499 158.299 277.199 158.699 278.999 160.199C287.799 166.099 276.099 170.699 274.199 170.599C269.199 168.899 269.999 168.299 270.699 165.699C258.999 166.299 247.599 165.199 244.799 165.399C241.999 165.599 240.999 164.699 240.799 163.299C224.499 166.999 206.399 180.599 189.199 175.399C187.499 174.899 185.599 174.199 184.099 173.199C181.199 171.199 183.099 170.899 183.199 168.199C183.499 163.099 172.799 170.199 171.399 170.999C168.599 172.599 157.499 179.399 155.299 173.599C154.999 173.199 155.299 171.999 155.799 170.799Z" stroke="#F39100" stroke-width="2.1873" stroke-miterlimit="22.9256"/>
<path fill-rule="evenodd" clip-rule="evenodd" d="M80.1008 277.2V275.5H87.6008V223.7L68.0008 277.2H64.6008L44.8008 223.8V275.5H52.2008V277.2H37.3008V275.5H42.5008V220.7H37.3008V219H52.4008L69.8008 265.6L86.5008 219H101.801V220.7H96.5008V275.5H101.801V277.2H80.1008Z" fill="#F39100"/>
<path fill-rule="evenodd" clip-rule="evenodd" d="M112.898 277.2V275.5H118.098V220.8H112.898V219.1H157.098V237.7H154.598C153.798 232.9 152.698 228 150.398 223.9C149.498 222.3 146.998 220.9 144.798 220.9H127.098V246H133.798C135.998 246 137.698 245.3 138.498 244C139.998 241.7 140.998 237.7 141.398 234.6H143.698V259.2H141.398C140.998 256 139.698 252.4 138.498 250.1C137.698 248.7 136.098 247.8 133.798 247.8H127.098V275.7H146.298C149.298 275.7 151.398 274.1 152.398 271.1C153.798 267.3 154.798 262.4 155.698 256.5H158.298V277.4H112.898V277.2Z" fill="#F39100"/>
<path fill-rule="evenodd" clip-rule="evenodd" d="M192.698 219H198.098L218.098 275.4H223.098V291.6H220.798C219.998 287.4 218.398 283.2 216.498 279.9C215.398 277.9 213.198 277.1 210.998 277.1H180.198C177.998 277.1 176.098 278 174.998 279.9C172.998 283.2 171.598 287.3 170.798 291.6H168.398V275.4H173.398L192.698 219ZM192.298 228.1L176.498 275.5H208.598L192.298 228.1Z" fill="#F39100"/>
<path fill-rule="evenodd" clip-rule="evenodd" d="M262.5 277.2H233.5V275.5H238.7V220.8H233.5V219.1H260.6C271.9 219.1 279.5 225 279.5 233.5C279.5 239.3 273.8 244.4 265.8 246.2V246.6C276.3 247.5 283.2 253.2 283.2 261.4C283.2 270.5 274.5 277.2 262.5 277.2ZM256.4 220.7H247.7V245.3H256.9C264.6 245.3 270 239.7 270 233.4C270.1 227.2 265.3 220.7 256.4 220.7ZM259.1 247.4H247.7V275.4H260.5C268.2 275.4 273.8 269 273.8 261.1C273.9 254 267.7 247.4 259.1 247.4Z" fill="#F39100"/>
<path fill-rule="evenodd" clip-rule="evenodd" d="M294.398 277.2V275.5H299.598V220.8H294.398V219.1H338.598V237.7H336.098C335.298 232.9 334.198 228 331.898 223.9C330.998 222.3 328.498 220.9 326.298 220.9H308.598V246H315.298C317.498 246 319.198 245.3 319.998 244C321.498 241.7 322.498 237.7 322.898 234.6H325.198V259.2H322.898C322.498 256 321.198 252.4 319.998 250.1C319.198 248.7 317.598 247.8 315.298 247.8H308.598V275.7H327.698C330.698 275.7 332.798 274.1 333.798 271.1C335.198 267.3 336.198 262.4 337.098 256.5H339.698V277.4H294.398V277.2Z" fill="#F39100"/>
<path fill-rule="evenodd" clip-rule="evenodd" d="M366.8 220.7H361.5C358.8 220.7 356.6 222.4 355.6 224.7C353.8 228.5 353.2 233.4 352.5 237.6H350V219H392.6V237.6H390.2C389.5 233.4 388.9 228.4 387.1 224.7C385.9 222.4 384 220.7 381.2 220.7H375.9V275.4H381.9V277.1H360.9V275.4H366.9V220.7H366.8Z" fill="#F39100"/>
</svg>
