<svg width="108" height="220" viewBox="0 0 108 220" fill="none" xmlns="http://www.w3.org/2000/svg">
<path fill-rule="evenodd" clip-rule="evenodd" d="M93.8436 179.186V175.701H107.899V179.186L105.576 179.65V190.918C104.995 190.918 104.182 191.034 103.369 191.267C102.44 191.499 101.51 191.731 100.349 192.08C99.187 192.312 97.9092 192.66 96.6315 192.777C95.2375 193.009 93.8436 193.125 92.2173 193.125C89.5456 193.125 87.2223 192.777 85.1314 191.964C83.0405 191.15 81.2981 189.989 79.9041 188.595C78.5102 187.085 77.3486 185.458 76.6516 183.368C75.9546 181.393 75.49 179.186 75.49 176.746C75.49 174.075 75.9546 171.635 76.8839 169.544C77.8132 167.453 79.091 165.595 80.7173 164.085C82.3435 162.574 84.3183 161.413 86.5254 160.716C88.7325 159.903 91.1718 159.554 93.7274 159.554C95.0052 159.554 96.1668 159.554 97.4446 159.67C98.6062 159.787 99.7678 159.903 100.813 160.019C101.859 160.135 102.788 160.367 103.601 160.484C104.414 160.6 104.995 160.716 105.46 160.832L104.995 169.08H100.116L98.7224 163.736C98.6062 163.62 98.3739 163.388 98.1416 163.271C97.9093 163.155 97.5608 163.039 97.2123 162.807C96.8638 162.691 96.283 162.574 95.7022 162.458C95.1214 162.342 94.4244 162.342 93.4951 162.342C91.985 162.342 90.7072 162.574 89.5456 163.155C88.384 163.736 87.3385 164.549 86.4092 165.595C85.5961 166.64 84.8991 168.034 84.4344 169.66C83.9698 171.287 83.7375 173.261 83.7375 175.468C83.7375 176.746 83.8536 177.908 83.9698 179.186C84.086 180.347 84.3183 181.509 84.6668 182.554C85.0153 183.6 85.3638 184.645 85.9446 185.458C86.4092 186.388 87.1062 187.085 87.687 187.782C88.384 188.479 89.1971 188.943 90.0102 189.292C90.9395 189.64 91.8688 189.873 92.9143 189.873C94.1921 189.873 95.3537 189.756 96.283 189.408C97.2123 189.176 98.0254 188.711 98.4901 188.246V179.302L93.8436 179.186ZM24.8433 170.473C24.3786 168.731 23.7978 167.337 22.9847 166.176C22.1715 165.014 21.0099 164.085 19.7321 163.504C18.4544 162.923 16.8281 162.574 14.9695 162.574C14.1564 162.574 13.3432 162.574 12.8786 162.691C12.2978 162.807 11.8331 162.807 11.6008 162.807V189.524C12.1816 189.756 12.8786 189.873 13.5755 189.873C14.2725 189.873 15.0857 189.873 15.8988 189.873C17.2927 189.873 18.6867 189.524 19.8483 188.943C21.0099 188.363 22.0554 187.549 22.8685 186.388C23.6817 185.226 24.3786 183.832 24.8433 182.09C25.3079 180.347 25.5402 178.373 25.5402 176.165C25.4241 174.075 25.1918 172.216 24.8433 170.473ZM31.813 182.554C30.9999 184.761 29.8382 186.62 28.3281 188.246C26.818 189.873 24.9594 191.034 22.8685 191.847C20.7776 192.661 18.3382 193.125 15.7826 193.009C15.2018 193.009 14.621 193.009 13.924 192.893C13.2271 192.893 12.5301 192.777 11.8331 192.777C11.1361 192.777 10.4392 192.66 9.74219 192.66C9.04522 192.66 8.34825 192.66 7.76744 192.66H0.449219V189.756L4.1664 189.176V163.504L0.565388 162.807V159.903H7.65127C8.4644 159.903 9.27754 159.903 9.97451 159.903C10.6715 159.903 11.3685 159.787 11.9493 159.787C12.6462 159.787 13.3432 159.67 14.0402 159.67C14.7372 159.67 15.5503 159.67 16.4796 159.67C19.3837 159.67 21.823 160.019 23.914 160.716C26.0049 161.413 27.7473 162.458 29.0251 163.736C30.4191 165.014 31.3484 166.64 31.9292 168.615C32.51 170.474 32.8585 172.681 32.8585 175.12C33.0908 177.792 32.6261 180.347 31.813 182.554ZM90.5911 119.478C90.1264 119.478 89.7779 119.478 89.4294 119.478C89.0809 119.478 88.7324 119.478 88.5001 119.594C88.2678 119.594 87.9193 119.711 87.687 119.711C87.4547 119.711 87.3385 120.059 87.2224 120.059V135.276C87.5708 135.393 87.9193 135.741 88.384 135.857C88.8486 135.857 89.5456 135.857 90.4749 135.857C91.4042 135.857 92.2173 135.741 93.0305 135.393C93.8436 135.044 94.5406 134.579 95.2375 133.882C95.8183 133.185 96.3991 132.256 96.7476 131.095C97.0961 129.933 97.3284 128.539 97.3284 126.797C97.3284 121.918 95.1214 119.478 90.5911 119.478ZM104.298 132.024C103.601 133.534 102.672 134.812 101.394 135.857C100.116 136.903 98.6062 137.716 96.7476 138.18C94.889 138.761 92.9143 138.994 90.5911 138.994C90.2426 138.994 89.7779 138.994 89.4294 138.994C89.0809 138.994 88.7325 138.994 88.384 138.994C88.0355 138.994 87.8032 138.994 87.5708 138.877C87.3385 138.877 87.3385 138.529 87.2224 138.529V148.287L92.1011 149.332V152.004H75.8384V149.332L79.6718 148.287V120.64L75.8384 119.943V116.923H83.5052C84.2021 116.923 84.8991 116.923 85.5961 116.923C86.1769 116.923 86.8738 116.807 87.4547 116.807C88.1516 116.807 88.8486 116.69 89.5456 116.69C90.2426 116.69 91.1719 116.69 92.2173 116.69C94.6567 116.69 96.7476 116.923 98.4901 117.387C100.232 117.852 101.51 118.433 102.556 119.246C103.601 120.059 104.298 121.105 104.763 122.382C105.227 123.66 105.46 125.17 105.46 126.797C105.344 128.771 104.995 130.514 104.298 132.024ZM31.813 123.776L29.2574 120.059H21.1261V148.17L26.0049 149.797V152.004H8.58057V149.797L13.4594 148.17V120.059H5.90884L2.88863 123.776H0.565388L1.26235 116.807H33.3231L34.0201 123.776H31.813Z" fill="white"/>
<path fill-rule="evenodd" clip-rule="evenodd" d="M70.3779 141.433C69.5647 143.64 68.4031 145.615 66.893 147.125C65.3829 148.751 63.6404 149.913 61.5495 150.842C59.4586 151.655 57.1353 152.12 54.6959 152.12C54.4636 152.12 54.2313 152.12 53.999 152.12V148.983C54.3475 148.983 54.5798 148.983 54.9283 148.983C56.206 148.983 57.3677 148.635 58.4131 148.054C59.4586 147.473 60.2717 146.544 61.0849 145.266C61.7819 143.988 62.3627 142.478 62.7111 140.62C63.0596 138.761 63.292 136.554 63.292 133.998C63.292 131.443 63.0596 129.352 62.7111 127.493C62.3627 125.635 61.7819 124.125 61.0849 122.963C60.3879 121.801 59.4586 120.988 58.5293 120.408C57.4838 119.827 56.3222 119.594 55.0444 119.594C54.6959 119.594 54.2313 119.594 53.8828 119.711V116.574C54.3475 116.574 54.9283 116.458 55.3929 116.458C58.1808 116.458 60.6202 116.923 62.7111 117.736C64.8021 118.549 66.4283 119.711 67.7061 121.221C68.9839 122.731 70.0293 124.589 70.6102 126.68C71.191 128.887 71.5395 131.211 71.5395 133.882C71.5395 136.67 71.191 139.11 70.3779 141.433Z" fill="white"/>
<path fill-rule="evenodd" clip-rule="evenodd" d="M55.1597 119.594C54.9274 119.594 54.6951 119.594 54.4627 119.594C53.185 119.594 52.0233 119.827 50.9779 120.408C49.9324 120.988 49.1193 121.802 48.4223 122.963C47.7253 124.125 47.1445 125.635 46.796 127.493C46.4476 129.352 46.2152 131.443 46.2152 133.999C46.2152 136.554 46.4476 138.761 46.796 140.62C47.1445 142.478 47.7253 144.105 48.4223 145.266C49.1193 146.544 50.0486 147.473 51.0941 148.054C52.1395 148.635 53.3011 148.983 54.5789 148.983C54.8112 148.983 55.0436 148.983 55.1597 148.983V152.12C55.0436 152.12 54.9274 152.12 54.8112 152.12C52.2557 152.12 49.9324 151.655 47.9577 150.842C45.8667 150.029 44.1243 148.751 42.6142 147.125C41.1041 145.499 39.9425 143.64 39.1294 141.433C38.3162 139.226 37.8516 136.67 37.8516 133.999C37.8516 131.327 38.2001 128.887 38.7809 126.796C39.3617 124.589 40.4071 122.847 41.6849 121.337C42.9627 119.827 44.7051 118.665 46.6799 117.852C48.7708 117.039 51.0941 116.574 53.9981 116.574C54.3466 116.574 54.6951 116.574 55.0436 116.574V119.594H55.1597Z" fill="white"/>
<path fill-rule="evenodd" clip-rule="evenodd" d="M70.376 140.271C69.5628 142.479 68.4012 144.453 66.8911 145.963C65.381 147.59 63.6386 148.751 61.5477 149.681C59.4567 150.494 57.1335 150.958 54.6941 150.958C54.4618 150.958 54.2294 150.958 54.1133 150.958V147.822C54.3456 147.822 54.6941 147.822 54.9264 147.822C56.2042 147.822 57.3658 147.474 58.4113 146.893C59.4567 146.312 60.2699 145.383 61.083 144.105C61.78 142.827 62.3608 141.317 62.7093 139.458C63.0578 137.6 63.2901 137.019 63.2901 134.463C63.2901 131.908 63.0578 129.817 62.7093 127.958C62.3608 126.1 61.78 124.706 61.083 123.428C60.386 122.266 59.4567 121.453 58.5274 120.872C57.482 120.292 56.3204 120.059 55.0426 120.059C54.6941 120.059 54.4618 120.059 54.1133 120.059V116.923C54.5779 116.923 55.0426 116.923 55.3911 116.923C58.179 116.923 60.6184 117.388 62.7093 118.201C64.8002 119.014 66.4264 120.175 67.7042 121.686C68.982 123.196 70.0275 125.054 70.6083 127.145C71.1891 129.352 71.5376 131.675 71.5376 134.347C71.5376 137.135 71.1891 138.064 70.376 140.271Z" fill="white"/>
<path fill-rule="evenodd" clip-rule="evenodd" d="M54.6951 120.059C54.5789 120.059 54.5789 120.059 54.4627 120.059C53.185 120.059 52.0233 120.292 50.9779 120.872C49.9324 121.453 49.1193 122.266 48.4223 123.428C47.7253 124.59 47.1445 126.1 46.796 127.958C46.4476 129.817 46.2152 131.908 46.2152 134.463C46.2152 137.019 46.4476 139.226 46.796 141.085C47.1445 142.943 47.7253 142.943 48.4223 144.105C49.1193 145.383 50.0486 146.312 51.0941 146.893C52.1395 147.474 53.3011 147.822 54.5789 147.822C54.6951 147.822 54.6951 147.822 54.8112 147.822V150.958C52.2557 150.958 50.0486 150.494 47.9577 149.681C45.8667 148.867 44.1243 147.59 42.6142 145.963C41.1041 144.337 39.9425 142.479 39.1294 140.271C38.3162 138.064 37.8516 137.135 37.8516 134.347C37.8516 131.675 38.2001 129.236 38.7809 127.145C39.3617 124.938 40.4071 123.196 41.6849 121.686C42.9627 120.175 44.7051 119.014 46.6799 118.201C48.7708 117.388 51.0941 116.923 53.9981 116.923C54.2304 116.923 54.4627 116.923 54.6951 116.923V120.059V120.059Z" fill="white"/>
<path fill-rule="evenodd" clip-rule="evenodd" d="M69.3323 183.367C68.5192 185.458 67.4738 187.317 66.0798 188.71C64.6859 190.221 62.9435 191.382 60.9687 192.195C58.9939 193.008 56.7869 193.473 54.3475 193.473C54.2313 193.473 54.1151 193.473 53.999 193.473V190.453C54.2313 190.453 54.4636 190.453 54.5798 190.453C55.7414 190.453 56.903 190.104 57.8323 189.524C58.7616 188.943 59.6909 188.014 60.3879 186.852C61.0849 185.69 61.6657 184.18 62.0142 182.438C62.3626 180.695 62.595 178.604 62.595 176.165C62.595 173.842 62.3626 171.751 62.0142 170.008C61.6657 168.266 61.0849 166.872 60.5041 165.827C59.8071 164.781 58.9939 163.968 58.0647 163.387C57.1354 162.806 55.9737 162.574 54.6959 162.574C54.4636 162.574 54.1151 162.574 53.8828 162.574V159.67C54.3475 159.67 54.696 159.67 55.1606 159.67C57.8323 159.67 60.1556 160.018 62.1303 160.832C64.1051 161.645 65.7314 162.69 66.893 164.084C68.1708 165.478 69.1 167.22 69.6809 169.311C70.2617 171.286 70.6101 173.609 70.6101 176.165C70.494 178.837 70.1455 181.276 69.3323 183.367Z" fill="white"/>
<path fill-rule="evenodd" clip-rule="evenodd" d="M54.6975 162.806C53.5359 162.806 52.3743 163.039 51.445 163.62C50.5157 164.2 49.5864 164.897 49.0056 166.059C48.3086 167.104 47.844 168.615 47.4955 170.241C47.147 171.983 46.9147 173.958 46.9147 176.397C46.9147 178.721 47.147 180.812 47.4955 182.67C47.844 184.413 48.4248 185.923 49.1217 187.084C49.8187 188.246 50.6319 189.175 51.6773 189.756C52.6066 190.337 53.6521 190.569 54.8137 190.685V193.706C52.4904 193.706 50.3995 193.241 48.5409 192.428C46.5662 191.615 44.8237 190.453 43.4298 188.943C42.0358 187.433 40.8742 185.69 40.1772 183.6C39.3641 181.509 39.0156 179.185 39.0156 176.514C39.0156 173.958 39.3641 171.751 39.9449 169.66C40.5257 167.685 41.455 165.943 42.7328 164.433C44.0106 163.039 45.6369 161.877 47.4955 161.18C49.4702 160.367 51.7935 160.019 54.4652 160.019C54.5814 160.019 54.6975 160.019 54.8137 160.019V162.806H54.6975Z" fill="white"/>
<path fill-rule="evenodd" clip-rule="evenodd" d="M14.7355 100.428C14.7355 100.428 13.5739 102.635 11.8314 105.655H1.14453V96.943C1.37686 97.1753 1.60917 97.2915 1.84149 97.5238C6.25565 100.079 14.7355 100.428 14.7355 100.428ZM57.7155 105.655C55.2761 99.8471 52.8367 92.8773 50.7458 84.6298C49.1195 78.0086 48.4225 71.9682 48.3063 66.7409C49.5841 68.251 50.0488 68.8318 50.0488 68.8318L48.3063 66.3924C48.074 57.564 49.2356 51.6398 49.2356 51.6398C49.2356 51.6398 53.8821 50.8266 62.7105 50.9428C69.9125 51.059 73.3974 51.5236 77.6954 50.9428C80.9479 50.4781 85.5944 47.5741 86.756 40.4882C87.9176 32.9377 87.5692 23.18 88.9631 17.9527C88.7308 18.7659 76.0691 22.8316 64.2206 25.5033C54.6953 27.5942 45.4023 28.5235 45.4023 28.5235C45.4023 28.5235 41.8013 26.8972 39.3619 17.2558C39.2457 16.9073 38.6649 25.5033 38.6649 25.5033C38.6649 25.5033 34.9477 19.8113 33.4376 15.0487C32.6245 12.4931 33.5538 27.7104 32.0436 43.6246L31.9275 43.5084C31.9275 43.5084 31.9275 43.5084 32.0436 43.6246C31.6952 47.3418 31.2305 51.1751 30.5335 54.7762C25.1901 82.7712 16.2456 96.7107 16.2456 96.7107C16.2456 96.7107 8.23041 97.4077 1.26068 94.8521V0.760742H106.387V105.771H57.7155V105.655Z" fill="white"/>
<path fill-rule="evenodd" clip-rule="evenodd" d="M104.877 215.312V216.009H101.741V215.312L102.67 215.08V211.595C102.67 211.363 102.67 211.13 102.67 211.014C102.554 211.247 102.438 211.479 102.322 211.595L99.6499 215.08V215.312L100.579 215.428V216.125H97.4428V215.428L98.3721 215.196V209.62L97.4428 209.504V208.807H100.579V209.504L99.6499 209.736V213.221C99.6499 213.454 99.6499 213.686 99.6499 213.802C99.766 213.57 99.8822 213.337 99.9984 213.221L102.67 209.736V209.504L101.741 209.388V208.691H104.877V209.388L103.948 209.62V215.196L104.877 215.312ZM96.3973 215.312V216.009H94.5387L92.3317 212.757H91.5185V215.196L92.4478 215.312V216.009H89.3114V215.312L90.2407 215.08V209.504L89.3114 209.388V208.691H92.4478V209.388L91.5185 209.62V211.827L92.564 211.711L94.3064 209.504L93.4933 209.388V208.691H96.3973V209.388L95.468 209.62L93.4933 212.06L95.5842 215.196L96.3973 215.312ZM86.0589 212.641L83.5033 213.105C83.5033 213.105 83.1549 213.454 83.1549 214.151C83.1549 214.731 83.5033 215.196 84.3165 215.196C85.1296 215.196 85.8266 214.731 86.0589 214.499V212.641ZM87.3367 216.009C86.6397 216.009 86.2912 215.777 86.0589 215.196C85.7104 215.545 84.8973 216.009 83.7357 216.009C82.4579 216.009 81.7609 215.312 81.7609 214.151C81.7609 212.989 82.4579 212.176 83.968 211.944L85.9427 211.711V210.898C85.9427 209.853 85.5942 209.388 84.5488 209.388C83.8518 209.388 83.3872 209.62 83.3872 209.62L83.1549 210.782H82.1094V209.039C82.1094 209.039 82.9225 208.459 84.5488 208.459C86.6397 208.459 87.3367 209.388 87.3367 211.014V214.383C87.3367 214.731 87.4529 214.848 87.8013 214.848H88.266L88.3822 215.545C88.4983 215.777 88.1498 216.009 87.3367 216.009ZM77.3467 215.08C77.9276 215.08 78.3922 214.848 78.3922 214.848C78.3922 214.848 78.973 214.151 78.973 212.292C78.973 210.317 78.276 209.504 77.2306 209.504C76.3013 209.504 75.7205 210.085 75.4881 210.433C75.4881 210.666 75.4881 211.014 75.4881 211.479C75.4881 214.267 76.3013 215.08 77.3467 215.08ZM75.4881 207.994C75.4881 207.994 75.2558 208.691 75.2558 209.969C75.6043 209.504 76.3013 208.691 77.6952 208.691C79.2053 208.691 80.7154 209.853 80.7154 212.408C80.7154 214.731 79.5538 216.125 77.3467 216.125C75.2558 216.125 74.0942 214.848 74.0942 211.014C74.0942 205.671 76.3013 206.252 78.8568 205.787C78.8568 205.787 79.0891 205.555 79.2053 205.322L79.9023 205.671C79.4376 207.529 76.4174 206.832 75.4881 207.994ZM69.3315 209.62C68.6346 209.62 68.1699 209.853 68.1699 209.853C68.1699 209.853 67.5891 210.55 67.5891 212.292C67.5891 214.151 68.1699 215.08 69.4477 215.08C70.1447 215.08 70.6093 214.848 70.6093 214.848C70.6093 214.848 71.1901 214.151 71.1901 212.292C71.1901 210.433 70.6093 209.62 69.3315 209.62ZM69.4477 216.125C67.4729 216.125 66.079 214.731 66.079 212.408C66.079 210.085 67.4729 208.691 69.4477 208.691C71.4225 208.691 72.7003 210.085 72.7003 212.408C72.7003 214.731 71.4225 216.125 69.4477 216.125ZM63.7558 209.853C63.7558 209.853 63.4073 209.62 62.5941 209.62C61.781 209.62 61.3163 209.853 61.3163 209.853C61.3163 209.853 60.7355 210.55 60.7355 212.176C60.7355 214.499 61.6649 215.08 62.8265 215.08C63.8719 215.08 64.685 214.615 64.685 214.615L64.9174 215.428C64.9174 215.428 63.9881 216.125 62.478 216.125C60.5032 216.125 59.1093 214.731 59.1093 212.408C59.1093 210.201 60.2709 208.691 62.5941 208.691C63.8719 208.691 64.8012 209.272 64.8012 209.272V211.13H63.7558V209.853ZM51.791 209.62C51.0941 209.62 50.6294 209.853 50.6294 209.853C50.6294 209.853 50.0486 210.55 50.0486 211.827L53.4173 211.595C53.4173 210.201 52.7203 209.62 51.791 209.62ZM54.579 212.292L54.1143 212.641H49.9325C49.9325 214.383 50.8618 215.196 52.1395 215.196C53.185 215.196 53.9981 214.731 53.9981 214.731L54.2305 215.545C54.2305 215.545 53.3012 216.242 51.791 216.242C49.7001 216.242 48.3062 214.848 48.3062 212.524C48.3062 210.201 49.7001 208.691 51.6749 208.691C53.6497 208.575 54.8113 209.853 54.579 212.292ZM47.3769 215.312V216.009H44.2405V215.312L45.1698 215.08V211.595C45.1698 211.363 45.1698 211.13 45.1698 211.014C45.0536 211.247 44.9375 211.479 44.8213 211.595L42.1496 215.08V215.312L43.0789 215.428V216.125H39.9425V215.428L40.8718 215.196V209.62L39.9425 209.504V208.807H43.0789V209.504L42.1496 209.736V213.221C42.1496 213.454 42.1496 213.686 42.1496 213.802C42.2657 213.57 42.3819 213.337 42.4981 213.221L45.1698 209.736V209.504L44.2405 209.388V208.691H47.3769V209.388L46.4476 209.62V215.196L47.3769 215.312ZM38.6647 215.312V216.009H27.397V215.312L28.3263 215.08V209.504L27.397 209.388V208.691H30.5334V209.388L29.7202 209.62V215.08H32.2758V209.504L31.4627 209.388V208.691H34.599V209.388L33.7859 209.62V215.08H36.3415V209.504L35.5283 209.388V208.691H38.6647V209.388L37.7354 209.62V215.196L38.6647 215.312ZM26.2354 215.312V216.009H22.9828V215.312L23.9121 215.08V212.757C23.5636 212.989 22.7505 213.337 21.705 213.337C20.4273 213.337 19.6141 212.64 19.6141 211.247V209.62L18.6848 209.504V208.807H21.9374V209.504L21.0081 209.736V211.247C21.0081 212.06 21.3566 212.408 22.2859 212.408C23.099 212.408 23.6798 212.176 23.9121 212.06V209.736L22.9828 209.62V208.923H26.2354V209.62L25.3061 209.853V215.428L26.2354 215.312ZM17.5232 209.62L15.0838 216.009C14.1545 218.565 13.5737 219.378 12.0636 219.378C11.3666 219.378 10.7858 219.146 10.7858 219.146L11.0181 217.868C11.0181 217.868 11.5989 218.1 12.8767 218.1C12.8767 218.1 13.4575 217.403 13.806 216.125L11.1343 209.388L10.3212 209.272V208.575H13.6898V209.272L12.7606 209.504L14.3868 213.57C14.503 213.802 14.503 214.151 14.6191 214.499C14.7353 214.151 14.8515 213.802 14.8515 213.57L16.2454 209.388L15.3161 209.272V208.575H18.2202V209.272L17.5232 209.62ZM9.74034 215.312V216.009H6.25548V215.312L7.30093 215.08V207.297H4.39687C4.39687 215.08 3.46759 216.242 1.95748 216.242C1.26051 216.242 0.679688 216.009 0.679688 216.009L0.912008 214.848C0.912008 214.848 1.49283 215.196 2.53829 215.196C2.53829 215.196 3.35142 214.267 3.35142 207.297L2.30597 207.181V206.484H9.85651V207.181L8.81104 207.413V215.428L9.74034 215.312Z" fill="white"/>
</svg>
