<svg width="350" height="350" viewBox="0 0 350 350" fill="none" xmlns="http://www.w3.org/2000/svg">
<path fill-rule="evenodd" clip-rule="evenodd" d="M214.844 244.186V240.701H228.899V244.186L226.576 244.65V255.918C225.995 255.918 225.182 256.034 224.369 256.267C223.44 256.499 222.51 256.731 221.349 257.08C220.187 257.312 218.909 257.66 217.631 257.777C216.238 258.009 214.844 258.125 213.217 258.125C210.546 258.125 208.222 257.777 206.131 256.964C204.04 256.15 202.298 254.989 200.904 253.595C199.51 252.085 198.349 250.458 197.652 248.368C196.955 246.393 196.49 244.186 196.49 241.746C196.49 239.075 196.955 236.635 197.884 234.544C198.813 232.453 200.091 230.595 201.717 229.085C203.344 227.574 205.318 226.413 207.525 225.716C209.732 224.903 212.172 224.554 214.727 224.554C216.005 224.554 217.167 224.554 218.445 224.67C219.606 224.787 220.768 224.903 221.813 225.019C222.859 225.135 223.788 225.367 224.601 225.484C225.414 225.6 225.995 225.716 226.46 225.832L225.995 234.08H221.116L219.722 228.736C219.606 228.62 219.374 228.388 219.142 228.271C218.909 228.155 218.561 228.039 218.212 227.807C217.864 227.691 217.283 227.574 216.702 227.458C216.121 227.342 215.424 227.342 214.495 227.342C212.985 227.342 211.707 227.574 210.546 228.155C209.384 228.736 208.339 229.549 207.409 230.595C206.596 231.64 205.899 233.034 205.434 234.66C204.97 236.287 204.737 238.261 204.737 240.468C204.737 241.746 204.854 242.908 204.97 244.186C205.086 245.347 205.318 246.509 205.667 247.554C206.015 248.6 206.364 249.645 206.945 250.458C207.409 251.388 208.106 252.085 208.687 252.782C209.384 253.479 210.197 253.943 211.01 254.292C211.94 254.64 212.869 254.873 213.914 254.873C215.192 254.873 216.354 254.756 217.283 254.408C218.212 254.176 219.025 253.711 219.49 253.246V244.302L214.844 244.186ZM145.843 235.473C145.379 233.731 144.798 232.337 143.985 231.176C143.172 230.014 142.01 229.085 140.732 228.504C139.454 227.923 137.828 227.574 135.969 227.574C135.156 227.574 134.343 227.574 133.879 227.691C133.298 227.807 132.833 227.807 132.601 227.807V254.524C133.182 254.756 133.879 254.873 134.576 254.873C135.273 254.873 136.086 254.873 136.899 254.873C138.293 254.873 139.687 254.524 140.848 253.943C142.01 253.363 143.055 252.549 143.869 251.388C144.682 250.226 145.379 248.832 145.843 247.09C146.308 245.347 146.54 243.373 146.54 241.165C146.424 239.075 146.192 237.216 145.843 235.473ZM152.813 247.554C152 249.761 150.838 251.62 149.328 253.246C147.818 254.873 145.959 256.034 143.869 256.847C141.778 257.66 139.338 258.125 136.783 258.009C136.202 258.009 135.621 258.009 134.924 257.893C134.227 257.893 133.53 257.777 132.833 257.777C132.136 257.777 131.439 257.66 130.742 257.66C130.045 257.66 129.348 257.66 128.767 257.66H121.449V254.756L125.166 254.176V228.504L121.565 227.807V224.903H128.651C129.464 224.903 130.278 224.903 130.975 224.903C131.671 224.903 132.368 224.787 132.949 224.787C133.646 224.787 134.343 224.67 135.04 224.67C135.737 224.67 136.55 224.67 137.48 224.67C140.384 224.67 142.823 225.019 144.914 225.716C147.005 226.413 148.747 227.458 150.025 228.736C151.419 230.014 152.348 231.64 152.929 233.615C153.51 235.474 153.858 237.681 153.858 240.12C154.091 242.792 153.626 245.347 152.813 247.554ZM211.591 184.478C211.126 184.478 210.778 184.478 210.429 184.478C210.081 184.478 209.732 184.478 209.5 184.594C209.268 184.594 208.919 184.711 208.687 184.711C208.455 184.711 208.339 185.059 208.222 185.059V200.276C208.571 200.393 208.919 200.741 209.384 200.857C209.849 200.857 210.546 200.857 211.475 200.857C212.404 200.857 213.217 200.741 214.03 200.393C214.844 200.044 215.541 199.579 216.238 198.882C216.818 198.185 217.399 197.256 217.748 196.095C218.096 194.933 218.328 193.539 218.328 191.797C218.328 186.918 216.121 184.478 211.591 184.478ZM225.298 197.024C224.601 198.534 223.672 199.812 222.394 200.857C221.116 201.903 219.606 202.716 217.748 203.18C215.889 203.761 213.914 203.994 211.591 203.994C211.243 203.994 210.778 203.994 210.429 203.994C210.081 203.994 209.732 203.994 209.384 203.994C209.035 203.994 208.803 203.994 208.571 203.877C208.339 203.877 208.339 203.529 208.222 203.529V213.287L213.101 214.332V217.004H196.838V214.332L200.672 213.287V185.64L196.838 184.943V181.923H204.505C205.202 181.923 205.899 181.923 206.596 181.923C207.177 181.923 207.874 181.807 208.455 181.807C209.152 181.807 209.849 181.69 210.546 181.69C211.243 181.69 212.172 181.69 213.217 181.69C215.657 181.69 217.748 181.923 219.49 182.387C221.232 182.852 222.51 183.433 223.556 184.246C224.601 185.059 225.298 186.105 225.763 187.382C226.227 188.66 226.46 190.17 226.46 191.797C226.344 193.771 225.995 195.514 225.298 197.024ZM152.813 188.776L150.257 185.059H142.126V213.17L147.005 214.797V217.004H129.581V214.797L134.459 213.17V185.059H126.909L123.889 188.776H121.565L122.262 181.807H154.323L155.02 188.776H152.813Z" fill="white"/>
<path fill-rule="evenodd" clip-rule="evenodd" d="M191.378 206.433C190.565 208.64 189.403 210.615 187.893 212.125C186.383 213.751 184.64 214.913 182.55 215.842C180.459 216.655 178.135 217.12 175.696 217.12C175.464 217.12 175.231 217.12 174.999 217.12V213.983C175.347 213.983 175.58 213.983 175.928 213.983C177.206 213.983 178.368 213.635 179.413 213.054C180.459 212.473 181.272 211.544 182.085 210.266C182.782 208.988 183.363 207.478 183.711 205.62C184.06 203.761 184.292 201.554 184.292 198.998C184.292 196.443 184.06 194.352 183.711 192.493C183.363 190.635 182.782 189.125 182.085 187.963C181.388 186.801 180.459 185.988 179.529 185.408C178.484 184.827 177.322 184.594 176.044 184.594C175.696 184.594 175.231 184.594 174.883 184.711V181.574C175.347 181.574 175.928 181.458 176.393 181.458C179.181 181.458 181.62 181.923 183.711 182.736C185.802 183.549 187.428 184.711 188.706 186.221C189.984 187.731 191.029 189.589 191.61 191.68C192.191 193.887 192.539 196.211 192.539 198.882C192.539 201.67 192.191 204.11 191.378 206.433Z" fill="white"/>
<path fill-rule="evenodd" clip-rule="evenodd" d="M176.16 184.594C175.927 184.594 175.695 184.594 175.463 184.594C174.185 184.594 173.023 184.827 171.978 185.408C170.932 185.988 170.119 186.802 169.422 187.963C168.725 189.125 168.145 190.635 167.796 192.493C167.448 194.352 167.215 196.443 167.215 198.999C167.215 201.554 167.448 203.761 167.796 205.62C168.145 207.478 168.725 209.105 169.422 210.266C170.119 211.544 171.049 212.473 172.094 213.054C173.14 213.635 174.301 213.983 175.579 213.983C175.811 213.983 176.044 213.983 176.16 213.983V217.12C176.044 217.12 175.927 217.12 175.811 217.12C173.256 217.12 170.932 216.655 168.958 215.842C166.867 215.029 165.124 213.751 163.614 212.125C162.104 210.499 160.942 208.64 160.129 206.433C159.316 204.226 158.852 201.67 158.852 198.999C158.852 196.327 159.2 193.887 159.781 191.796C160.362 189.589 161.407 187.847 162.685 186.337C163.963 184.827 165.705 183.665 167.68 182.852C169.771 182.039 172.094 181.574 174.998 181.574C175.347 181.574 175.695 181.574 176.044 181.574V184.594H176.16Z" fill="white"/>
<path fill-rule="evenodd" clip-rule="evenodd" d="M191.378 205.271C190.565 207.479 189.403 209.453 187.893 210.963C186.383 212.59 184.641 213.751 182.55 214.681C180.459 215.494 178.135 215.958 175.696 215.958C175.464 215.958 175.231 215.958 175.115 215.958V212.822C175.348 212.822 175.696 212.822 175.928 212.822C177.206 212.822 178.368 212.474 179.413 211.893C180.459 211.312 181.272 210.383 182.085 209.105C182.782 207.827 183.363 206.317 183.711 204.458C184.06 202.6 184.292 202.019 184.292 199.463C184.292 196.908 184.06 194.817 183.711 192.958C183.363 191.1 182.782 189.706 182.085 188.428C181.388 187.266 180.459 186.453 179.529 185.872C178.484 185.292 177.322 185.059 176.045 185.059C175.696 185.059 175.464 185.059 175.115 185.059V181.923C175.58 181.923 176.045 181.923 176.393 181.923C179.181 181.923 181.62 182.388 183.711 183.201C185.802 184.014 187.428 185.175 188.706 186.686C189.984 188.196 191.029 190.054 191.61 192.145C192.191 194.352 192.54 196.675 192.54 199.347C192.54 202.135 192.191 203.064 191.378 205.271Z" fill="white"/>
<path fill-rule="evenodd" clip-rule="evenodd" d="M175.695 185.059C175.579 185.059 175.579 185.059 175.463 185.059C174.185 185.059 173.023 185.292 171.978 185.872C170.932 186.453 170.119 187.266 169.422 188.428C168.725 189.59 168.145 191.1 167.796 192.958C167.448 194.817 167.215 196.908 167.215 199.463C167.215 202.019 167.448 204.226 167.796 206.085C168.145 207.943 168.725 207.943 169.422 209.105C170.119 210.383 171.049 211.312 172.094 211.893C173.14 212.474 174.301 212.822 175.579 212.822C175.695 212.822 175.695 212.822 175.811 212.822V215.958C173.256 215.958 171.049 215.494 168.958 214.681C166.867 213.867 165.124 212.59 163.614 210.963C162.104 209.337 160.942 207.479 160.129 205.271C159.316 203.064 158.852 202.135 158.852 199.347C158.852 196.675 159.2 194.236 159.781 192.145C160.362 189.938 161.407 188.196 162.685 186.686C163.963 185.175 165.705 184.014 167.68 183.201C169.771 182.388 172.094 181.923 174.998 181.923C175.23 181.923 175.463 181.923 175.695 181.923V185.059Z" fill="white"/>
<path fill-rule="evenodd" clip-rule="evenodd" d="M190.332 248.367C189.519 250.458 188.474 252.317 187.08 253.71C185.686 255.221 183.943 256.382 181.969 257.195C179.994 258.008 177.787 258.473 175.347 258.473C175.231 258.473 175.115 258.473 174.999 258.473V255.453C175.231 255.453 175.464 255.453 175.58 255.453C176.741 255.453 177.903 255.104 178.832 254.524C179.762 253.943 180.691 253.014 181.388 251.852C182.085 250.69 182.666 249.18 183.014 247.438C183.363 245.695 183.595 243.604 183.595 241.165C183.595 238.842 183.363 236.751 183.014 235.008C182.666 233.266 182.085 231.872 181.504 230.827C180.807 229.781 179.994 228.968 179.065 228.387C178.135 227.806 176.974 227.574 175.696 227.574C175.464 227.574 175.115 227.574 174.883 227.574V224.67C175.347 224.67 175.696 224.67 176.161 224.67C178.832 224.67 181.156 225.018 183.13 225.832C185.105 226.645 186.731 227.69 187.893 229.084C189.171 230.478 190.1 232.22 190.681 234.311C191.262 236.286 191.61 238.609 191.61 241.165C191.494 243.837 191.145 246.276 190.332 248.367Z" fill="white"/>
<path fill-rule="evenodd" clip-rule="evenodd" d="M175.696 227.806C174.534 227.806 173.372 228.039 172.443 228.62C171.514 229.2 170.584 229.897 170.004 231.059C169.307 232.104 168.842 233.615 168.494 235.241C168.145 236.983 167.913 238.958 167.913 241.397C167.913 243.721 168.145 245.812 168.494 247.67C168.842 249.413 169.423 250.923 170.12 252.084C170.817 253.246 171.63 254.175 172.675 254.756C173.605 255.337 174.65 255.569 175.812 255.685V258.706C173.488 258.706 171.398 258.241 169.539 257.428C167.564 256.615 165.822 255.453 164.428 253.943C163.034 252.433 161.872 250.69 161.175 248.6C160.362 246.509 160.014 244.185 160.014 241.514C160.014 238.958 160.362 236.751 160.943 234.66C161.524 232.685 162.453 230.943 163.731 229.433C165.009 228.039 166.635 226.877 168.494 226.18C170.468 225.367 172.792 225.019 175.463 225.019C175.579 225.019 175.696 225.019 175.812 225.019V227.806H175.696Z" fill="white"/>
<path fill-rule="evenodd" clip-rule="evenodd" d="M135.737 165.428C135.737 165.428 134.576 167.635 132.833 170.655H122.146V161.943C122.379 162.175 122.611 162.292 122.843 162.524C127.258 165.079 135.737 165.428 135.737 165.428ZM178.717 170.655C176.278 164.847 173.839 157.877 171.748 149.63C170.121 143.009 169.424 136.968 169.308 131.741C170.586 133.251 171.051 133.832 171.051 133.832L169.308 131.392C169.076 122.564 170.238 116.64 170.238 116.64C170.238 116.64 174.884 115.827 183.712 115.943C190.914 116.059 194.399 116.524 198.697 115.943C201.95 115.478 206.596 112.574 207.758 105.488C208.92 97.9377 208.571 88.18 209.965 82.9527C209.733 83.7659 197.071 87.8316 185.223 90.5033C175.697 92.5942 166.404 93.5235 166.404 93.5235C166.404 93.5235 162.803 91.8972 160.364 82.2558C160.248 81.9073 159.667 90.5033 159.667 90.5033C159.667 90.5033 155.95 84.8113 154.44 80.0487C153.626 77.4931 154.556 92.7104 153.046 108.625L152.929 108.508C152.929 108.508 152.929 108.508 153.046 108.625C152.697 112.342 152.232 116.175 151.535 119.776C146.192 147.771 137.248 161.711 137.248 161.711C137.248 161.711 129.232 162.408 122.263 159.852V65.7607H227.389V170.771H178.717V170.655Z" fill="white"/>
<path fill-rule="evenodd" clip-rule="evenodd" d="M225.879 280.312V281.009H222.743V280.312L223.672 280.08V276.595C223.672 276.363 223.672 276.13 223.672 276.014C223.556 276.247 223.44 276.479 223.324 276.595L220.652 280.08V280.312L221.581 280.428V281.125H218.445V280.428L219.374 280.196V274.62L218.445 274.504V273.807H221.581V274.504L220.652 274.736V278.221C220.652 278.454 220.652 278.686 220.652 278.802C220.768 278.57 220.884 278.337 221 278.221L223.672 274.736V274.504L222.743 274.388V273.691H225.879V274.388L224.95 274.62V280.196L225.879 280.312ZM217.399 280.312V281.009H215.541L213.334 277.757H212.52V280.196L213.45 280.312V281.009H210.313V280.312L211.243 280.08V274.504L210.313 274.388V273.691H213.45V274.388L212.52 274.62V276.827L213.566 276.711L215.308 274.504L214.495 274.388V273.691H217.399V274.388L216.47 274.62L214.495 277.06L216.586 280.196L217.399 280.312ZM207.061 277.641L204.505 278.105C204.505 278.105 204.157 278.454 204.157 279.151C204.157 279.731 204.505 280.196 205.318 280.196C206.132 280.196 206.829 279.731 207.061 279.499V277.641ZM208.339 281.009C207.642 281.009 207.293 280.777 207.061 280.196C206.712 280.545 205.899 281.009 204.738 281.009C203.46 281.009 202.763 280.312 202.763 279.151C202.763 277.989 203.46 277.176 204.97 276.944L206.945 276.711V275.898C206.945 274.853 206.596 274.388 205.551 274.388C204.854 274.388 204.389 274.62 204.389 274.62L204.157 275.782H203.111V274.039C203.111 274.039 203.924 273.459 205.551 273.459C207.642 273.459 208.339 274.388 208.339 276.014V279.383C208.339 279.731 208.455 279.848 208.803 279.848H209.268L209.384 280.545C209.5 280.777 209.152 281.009 208.339 281.009ZM198.349 280.08C198.93 280.08 199.394 279.848 199.394 279.848C199.394 279.848 199.975 279.151 199.975 277.292C199.975 275.317 199.278 274.504 198.233 274.504C197.303 274.504 196.722 275.085 196.49 275.433C196.49 275.666 196.49 276.014 196.49 276.479C196.49 279.267 197.303 280.08 198.349 280.08ZM196.49 272.994C196.49 272.994 196.258 273.691 196.258 274.969C196.606 274.504 197.303 273.691 198.697 273.691C200.207 273.691 201.717 274.853 201.717 277.408C201.717 279.731 200.556 281.125 198.349 281.125C196.258 281.125 195.096 279.848 195.096 276.014C195.096 270.671 197.303 271.252 199.859 270.787C199.859 270.787 200.091 270.555 200.207 270.322L200.904 270.671C200.44 272.529 197.419 271.832 196.49 272.994ZM190.333 274.62C189.637 274.62 189.172 274.853 189.172 274.853C189.172 274.853 188.591 275.55 188.591 277.292C188.591 279.151 189.172 280.08 190.45 280.08C191.147 280.08 191.611 279.848 191.611 279.848C191.611 279.848 192.192 279.151 192.192 277.292C192.192 275.433 191.611 274.62 190.333 274.62ZM190.45 281.125C188.475 281.125 187.081 279.731 187.081 277.408C187.081 275.085 188.475 273.691 190.45 273.691C192.424 273.691 193.702 275.085 193.702 277.408C193.702 279.731 192.424 281.125 190.45 281.125ZM184.758 274.853C184.758 274.853 184.409 274.62 183.596 274.62C182.783 274.62 182.318 274.853 182.318 274.853C182.318 274.853 181.737 275.55 181.737 277.176C181.737 279.499 182.667 280.08 183.828 280.08C184.874 280.08 185.687 279.615 185.687 279.615L185.919 280.428C185.919 280.428 184.99 281.125 183.48 281.125C181.505 281.125 180.111 279.731 180.111 277.408C180.111 275.201 181.273 273.691 183.596 273.691C184.874 273.691 185.803 274.272 185.803 274.272V276.13H184.758V274.853ZM172.793 274.62C172.096 274.62 171.631 274.853 171.631 274.853C171.631 274.853 171.051 275.55 171.051 276.827L174.419 276.595C174.419 275.201 173.722 274.62 172.793 274.62ZM175.581 277.292L175.116 277.641H170.934C170.934 279.383 171.864 280.196 173.141 280.196C174.187 280.196 175 279.731 175 279.731L175.232 280.545C175.232 280.545 174.303 281.242 172.793 281.242C170.702 281.242 169.308 279.848 169.308 277.524C169.308 275.201 170.702 273.691 172.677 273.691C174.652 273.575 175.813 274.853 175.581 277.292ZM168.379 280.312V281.009H165.242V280.312L166.172 280.08V276.595C166.172 276.363 166.172 276.13 166.172 276.014C166.056 276.247 165.939 276.479 165.823 276.595L163.152 280.08V280.312L164.081 280.428V281.125H160.944V280.428L161.874 280.196V274.62L160.944 274.504V273.807H164.081V274.504L163.152 274.736V278.221C163.152 278.454 163.152 278.686 163.152 278.802C163.268 278.57 163.384 278.337 163.5 278.221L166.172 274.736V274.504L165.242 274.388V273.691H168.379V274.388L167.45 274.62V280.196L168.379 280.312ZM159.667 280.312V281.009H148.399V280.312L149.328 280.08V274.504L148.399 274.388V273.691H151.535V274.388L150.722 274.62V280.08H153.278V274.504L152.465 274.388V273.691H155.601V274.388L154.788 274.62V280.08H157.343V274.504L156.53 274.388V273.691H159.667V274.388L158.737 274.62V280.196L159.667 280.312ZM147.237 280.312V281.009H143.985V280.312L144.914 280.08V277.757C144.566 277.989 143.752 278.337 142.707 278.337C141.429 278.337 140.616 277.64 140.616 276.247V274.62L139.687 274.504V273.807H142.939V274.504L142.01 274.736V276.247C142.01 277.06 142.359 277.408 143.288 277.408C144.101 277.408 144.682 277.176 144.914 277.06V274.736L143.985 274.62V273.923H147.237V274.62L146.308 274.853V280.428L147.237 280.312ZM138.525 274.62L136.086 281.009C135.156 283.565 134.576 284.378 133.066 284.378C132.369 284.378 131.788 284.146 131.788 284.146L132.02 282.868C132.02 282.868 132.601 283.1 133.879 283.1C133.879 283.1 134.459 282.403 134.808 281.125L132.136 274.388L131.323 274.272V273.575H134.692V274.272L133.763 274.504L135.389 278.57C135.505 278.802 135.505 279.151 135.621 279.499C135.737 279.151 135.853 278.802 135.853 278.57L137.247 274.388L136.318 274.272V273.575H139.222V274.272L138.525 274.62ZM130.742 280.312V281.009H127.257V280.312L128.303 280.08V272.297H125.399C125.399 280.08 124.47 281.242 122.959 281.242C122.262 281.242 121.682 281.009 121.682 281.009L121.914 279.848C121.914 279.848 122.495 280.196 123.54 280.196C123.54 280.196 124.353 279.267 124.353 272.297L123.308 272.181V271.484H130.858V272.181L129.813 272.413V280.428L130.742 280.312Z" fill="white"/>
</svg>
