<svg width="350" height="350" viewBox="0 0 350 350" fill="none" xmlns="http://www.w3.org/2000/svg">
<path fill-rule="evenodd" clip-rule="evenodd" d="M213.779 162.189C213.192 161.505 210.016 158.914 210.016 158.914C210.016 158.914 209.673 158.328 209.673 158.083C209.673 157.79 208.696 156.324 207.425 155.591C206.106 154.858 202.489 153.734 201.365 153.147C200.241 152.561 197.406 147.233 196.624 146.06C195.842 144.887 192.567 140.635 192.421 145.669C192.225 150.703 193.007 154.858 193.007 154.858C193.007 154.858 190.319 156.275 189.439 158.377C188.608 160.478 186.556 166.588 185.627 170.302L185.578 170.4C187.191 172.355 191.785 173.772 193.545 174.163C196.673 174.799 199.898 174.799 203.075 174.75C203.124 174.017 203.32 173.381 203.76 172.648C205.226 169.96 209.282 171.182 210.113 170.644C210.944 170.156 211.726 169.569 211.873 168.738C212.019 167.907 211.873 167.907 211.873 167.907C211.873 167.907 213.143 167.321 213.143 166.148C213.143 164.975 213.192 164.584 213.632 164.437C214.121 164.242 214.365 162.873 213.779 162.189ZM198.188 153.294C198.041 153.734 198.579 154.858 198.383 154.907C197.943 155.102 196.673 153.978 195.988 151.388C195.304 148.748 194.913 146.549 194.522 146.158C194.131 145.767 193.789 145.865 194.082 147.966C194.327 150.068 195.304 152.121 195.06 153.245C194.767 154.369 195.158 155.395 195.549 156.275C195.94 157.155 196.673 159.256 195.597 157.937C194.522 156.617 194.131 155.542 194.033 154.858C193.985 154.125 194.229 152.805 193.985 151.974C193.056 149.286 192.763 144.301 193.691 144.252C194.082 144.252 194.913 145.132 195.06 145.474C195.5 146.5 196.722 147.869 197.259 149.335C197.846 150.801 198.383 151.681 198.872 152.414C199.165 152.805 198.334 152.756 198.188 153.294ZM210.651 169.129C210.211 169.031 208.891 168.347 207.718 168.396C206.497 168.445 205.617 168.494 205.47 168.396C205.324 168.298 206.008 167.419 206.692 167.37C207.621 167.321 208.403 167.663 209.087 167.907C210.064 168.201 211.091 168.005 211.286 168.103C211.384 168.152 211.433 168.249 211.433 168.445C211.384 168.787 210.895 169.227 210.651 169.129ZM213.046 163.997C212.704 164.046 212.019 163.166 211.873 162.873C211.677 162.629 211.237 161.505 211.482 161.26C211.726 161.065 212.704 161.993 212.997 162.14C213.241 162.287 213.437 162.531 213.437 162.824C213.437 163.166 213.388 163.948 213.046 163.997Z" fill="white"/>
<path fill-rule="evenodd" clip-rule="evenodd" d="M188.265 176.069C189.78 176.704 191.393 177.193 193.006 177.486C196.476 178.122 203.221 178.122 203.221 178.122C203.318 178.122 203.416 178.024 203.367 177.926L203.123 176.118C203.123 176.02 203.025 175.922 202.927 175.922C202.927 175.922 194.325 176.02 190.22 174.31C188.851 173.723 185.479 171.866 185.479 171.866C185.381 171.817 185.284 171.866 185.284 171.964L184.893 173.821C184.893 173.919 184.941 174.065 185.039 174.114C184.99 174.114 187.825 175.874 188.265 176.069Z" fill="white"/>
<path fill-rule="evenodd" clip-rule="evenodd" d="M201.95 183.792C201.852 183.792 201.755 183.89 201.706 183.988L201.168 186.187C201.168 186.285 201.119 186.48 201.119 186.578L200.924 189.755C200.924 189.852 200.924 190.048 200.924 190.146L201.315 192.834C201.315 192.932 201.364 193.127 201.413 193.225L202.439 195.766C202.488 195.864 202.537 195.864 202.586 195.766C202.586 195.766 204.98 190.097 204.541 186.04C204.443 185.258 204.296 184.134 204.296 184.134C204.296 184.036 204.198 183.939 204.101 183.939L201.95 183.792Z" fill="white"/>
<path fill-rule="evenodd" clip-rule="evenodd" d="M193.446 183.059C193.251 183.01 193.055 182.961 193.055 182.961C192.958 182.961 192.86 182.961 192.86 182.961V183.01C192.762 183.596 192.42 185.551 192.42 185.551C192.42 185.649 192.371 185.845 192.371 185.942C192.371 185.942 192.42 187.115 192.762 187.653C193.397 188.728 194.522 188.337 195.01 187.506C195.108 187.36 195.401 186.382 195.401 186.382C195.45 186.284 195.499 186.089 195.499 185.991L195.939 183.645C195.988 183.547 195.89 183.45 195.792 183.45C195.89 183.45 194.326 183.254 193.446 183.059Z" fill="white"/>
<path fill-rule="evenodd" clip-rule="evenodd" d="M191.783 182.716C191.783 182.716 191.686 182.668 191.588 182.619L189.193 181.837C189.095 181.788 188.997 181.837 188.949 181.983C188.949 181.983 188.509 184.378 188.802 185.405C188.997 185.991 189.682 187.066 190.513 186.529C190.952 186.235 191.246 185.6 191.246 185.6C191.295 185.502 191.343 185.356 191.343 185.209C191.392 185.16 191.637 183.45 191.783 182.716Z" fill="white"/>
<path fill-rule="evenodd" clip-rule="evenodd" d="M187.923 181.299C187.923 181.299 187.825 181.25 187.727 181.201L186.359 180.566C186.261 180.517 186.115 180.468 185.968 180.468C185.968 180.468 185.724 180.419 185.724 180.566C185.675 181.103 185.675 181.69 185.626 182.227C185.577 182.716 185.479 183.303 185.577 183.84C186.017 185.649 187.385 184.036 187.581 183.058C187.581 183.009 187.581 183.009 187.581 183.009C187.63 182.96 187.63 182.814 187.679 182.716L187.825 181.543C187.923 181.396 187.923 181.299 187.923 181.299Z" fill="white"/>
<path fill-rule="evenodd" clip-rule="evenodd" d="M200.192 181.006C200.24 181.592 200.192 182.521 200.192 182.521C200.192 182.619 200.289 182.716 200.387 182.716C200.387 182.716 201.218 182.716 201.707 182.667C202.538 182.618 204.004 182.618 204.004 182.618C204.101 182.618 204.199 182.521 204.15 182.423L203.71 179.393C203.71 179.295 203.613 179.197 203.466 179.197H200.289C200.192 179.197 200.094 179.295 200.094 179.393C200.094 179.442 200.143 180.419 200.192 181.006Z" fill="white"/>
<path fill-rule="evenodd" clip-rule="evenodd" d="M194.081 181.983C194.179 182.032 194.277 181.934 194.326 181.836L194.766 179.148C194.766 179.051 194.717 178.953 194.619 178.904L191.442 178.317C191.344 178.317 191.198 178.366 191.149 178.464L190.22 180.712C190.171 180.81 190.22 180.908 190.318 180.957L194.081 181.983Z" fill="white"/>
<path fill-rule="evenodd" clip-rule="evenodd" d="M188.851 180.419C188.949 180.468 189.047 180.419 189.096 180.321L189.975 178.122C190.024 178.024 189.975 177.926 189.878 177.877L187.825 177.095C187.727 177.046 187.581 177.095 187.581 177.193L186.701 179.148C186.652 179.246 186.701 179.344 186.799 179.392L188.851 180.419Z" fill="white"/>
<path fill-rule="evenodd" clip-rule="evenodd" d="M184.698 178.268C184.747 178.317 184.747 178.317 184.747 178.317C184.795 178.366 184.844 178.415 184.844 178.415C185.089 178.562 185.333 178.708 185.333 178.708C185.431 178.757 185.529 178.708 185.577 178.611L186.408 176.753C186.457 176.656 186.408 176.509 186.311 176.46L184.453 175.189C184.356 175.14 184.258 175.14 184.16 175.238L183.036 176.9C182.987 176.998 182.987 177.144 183.085 177.193C183.183 177.144 184.062 177.926 184.698 178.268Z" fill="white"/>
<path fill-rule="evenodd" clip-rule="evenodd" d="M196.133 179.1C196.036 179.1 195.938 179.148 195.889 179.295L195.449 182.081C195.449 182.179 195.498 182.276 195.547 182.276C195.547 182.276 195.547 182.276 195.596 182.276C196.72 182.423 198.822 182.667 198.822 182.667C198.919 182.667 199.017 182.619 199.017 182.472C199.017 182.472 199.066 181.397 198.968 180.761C198.919 180.273 198.87 179.442 198.87 179.442C198.87 179.344 198.773 179.246 198.675 179.246L196.133 179.1Z" fill="white"/>
<path fill-rule="evenodd" clip-rule="evenodd" d="M199.702 189.901C199.702 189.803 199.751 189.607 199.751 189.509L199.849 187.164C199.849 187.066 199.897 186.87 199.897 186.773L200.484 184.036C200.533 183.938 200.435 183.84 200.337 183.84L197.454 183.645C197.356 183.645 197.258 183.693 197.209 183.84C197.209 183.84 196.525 186.382 196.623 187.75C196.721 189.119 197.649 192.295 199.653 190.194C199.653 190.145 199.702 189.901 199.702 189.901Z" fill="white"/>
<path fill-rule="evenodd" clip-rule="evenodd" d="M204.297 237.505C203.955 237.162 202.586 236.82 201.462 236.674C200.338 236.527 198.774 236.234 198.774 236.234C198.774 236.234 197.308 228.658 197.503 217.515C197.699 206.371 198.578 200.848 198.578 200.848C198.578 200.848 200.289 199.48 201.902 196.938L201.804 196.841C200.729 195.277 200.142 193.419 199.898 191.464C198.529 192.442 196.917 192.051 196.086 190.291C195.841 189.754 195.695 189.216 195.597 188.679C194.815 189.412 193.691 189.705 192.664 189.07C191.931 188.63 191.589 187.945 191.443 187.163C190.758 187.701 189.83 187.848 188.852 187.212C188.168 186.772 187.826 186.088 187.679 185.257C187.093 185.746 186.408 185.99 185.675 185.502C184.698 184.915 184.454 183.84 184.502 182.716C184.405 182.814 184.307 182.96 184.258 183.058C184.111 183.351 183.476 184.426 182.499 185.502C180.935 187.163 179.077 188.776 179.077 188.776C178.98 188.874 178.833 189.021 178.735 189.118C178.735 189.118 176.194 191.562 173.994 193.371C171.795 195.179 171.502 192.491 171.111 191.562C170.72 190.634 170.426 190.438 169.889 190.78C169.351 191.122 167.689 192.198 166.516 192.833C165.343 193.468 165.295 192.442 165.05 191.22C164.806 190.047 164.952 189.509 164.952 188.776C159.185 194.739 155.324 208.62 154.542 213.8C153.711 219.176 153.271 224.553 152.44 228.805C151.61 233.057 151.365 234.181 150.681 237.651C149.899 241.512 148.922 242.441 156.839 242.392C158.452 242.392 176.927 242.832 177.073 241.659C177.122 241.366 184.502 241.023 186.653 240.877C188.852 240.73 194.913 240.535 195.646 240.535C196.379 240.535 196.33 240.29 196.33 241.121C196.33 241.952 196.868 242.392 197.747 242.441C198.578 242.49 199.458 242.441 200.338 242.49C200.924 242.539 200.484 240.486 200.484 240.486C200.484 240.486 204.052 240.535 204.688 240.193C205.323 239.851 204.639 237.896 204.297 237.505ZM168.765 238.677C165.832 238.824 161.776 238.238 166.272 237.944C170.769 237.651 178.589 237.944 178.589 237.944C178.589 237.944 171.697 238.531 168.765 238.677ZM190.954 236.576C188.021 236.82 180.69 236.771 178.686 236.771C176.682 236.771 175.412 236.82 175.363 236.332C175.314 235.843 176.878 231.004 180.153 223.82C183.427 216.684 186.017 212.334 186.897 211.014C187.728 209.695 188.852 207.74 189.146 210.574C189.488 213.409 190.318 219.079 190.514 222.695C190.709 226.312 190.416 231.395 190.807 232.422C191.198 233.497 193.886 236.332 190.954 236.576ZM194.962 202.461C195.206 200.115 196.379 197.183 197.405 194.837C197.992 193.566 196.77 197.72 196.379 201.63C195.988 205.54 195.841 213.067 195.939 215.022C196.037 216.977 196.721 225.775 196.721 228.756C196.721 231.786 196.917 235.696 196.526 235.745C196.135 235.794 195.304 226.312 195.304 223.82C195.304 221.327 194.815 212.676 194.766 210.721C194.766 208.815 194.571 206.078 194.962 202.461ZM201.902 238.824C200.68 238.531 199.654 238.189 198.09 238.091C196.477 237.993 195.353 237.847 195.304 237.651C195.255 237.456 200.289 237.358 201.706 237.602C203.173 237.847 203.759 238.335 203.71 238.775C203.661 239.215 203.124 239.117 201.902 238.824Z" fill="white"/>
<path d="M184.502 180.077C184.99 181.25 184.697 181.934 184.697 181.934C182.253 180.028 178.637 174.603 177.512 169.324C176.388 164.046 178.441 159.843 179.712 156.764C179.81 156.568 179.956 156.324 180.152 156.519C180.592 156.959 181.96 158.425 181.862 159.11C181.813 159.354 180.64 160.331 179.907 161.993C179.125 163.801 178.783 166.441 179.272 169.227C179.712 172.061 181.031 175.189 182.253 176.753C182.742 177.34 184.013 178.953 184.502 180.077Z" fill="white"/>
<path d="M178.198 154.369C177.905 154.124 175.314 151.29 175.314 151.29C175.217 151.192 175.168 151.241 175.217 151.338C175.217 151.338 175.461 152.658 175.461 153.489C175.461 153.684 175.314 153.929 175.119 153.978C174.581 154.124 174.044 154.124 173.457 154.124C173.31 154.124 173.262 154.124 173.262 154.124C173.115 154.124 173.115 154.173 173.213 154.271L177.905 157.692C178.002 157.79 178.149 157.741 178.198 157.594C178.198 157.594 178.491 156.812 178.638 156.519C179.322 154.955 178.638 154.76 178.198 154.369Z" fill="white"/>
<path d="M174.189 150.116C174.189 150.067 174.189 150.067 174.189 150.067C174.189 150.018 174.14 149.872 174.091 149.774C174.091 149.774 173.212 148.699 172.723 147.966C172.088 147.135 171.061 145.082 171.061 145.082C171.012 144.984 170.915 144.984 170.915 145.082C170.915 145.082 170.524 147.526 170.67 148.845C170.719 149.188 170.328 149.383 170.035 149.334C168.764 149.09 166.125 148.65 166.125 148.65C165.978 148.65 165.978 148.699 166.076 148.748C166.076 148.748 168.226 150.458 169.302 151.289C170.181 151.973 171.697 153.146 171.697 153.146C171.794 153.244 171.892 153.293 171.892 153.293C172.674 153 174.238 153.098 174.238 153.098C174.385 153.098 174.482 153 174.434 152.853C174.482 152.902 174.14 151.143 174.189 150.116Z" fill="white"/>
<path d="M164.464 147.184C165.344 147.477 166.321 147.575 167.201 147.771C168.032 147.917 168.863 148.113 169.694 148.259C169.645 146.793 169.84 145.278 170.182 143.861C170.231 143.714 170.182 143.03 170.085 142.834C169.742 141.955 169.449 141.075 169.156 140.244C168.374 137.898 166.077 135.65 163.682 139.951C161.287 144.203 162.656 145.767 163.389 146.402C163.486 146.5 163.535 146.549 163.633 146.647C163.78 146.793 164.317 147.135 164.464 147.184Z" fill="white"/>
<path d="M163.437 154.417C164.023 154.368 164.561 154.319 165.148 154.173C165.783 153.977 166.418 153.782 167.054 153.586C166.516 152.462 166.027 151.289 165.734 150.116C165.685 149.97 165.392 149.383 165.245 149.285C164.757 148.894 164.268 148.454 163.779 148.063C162.802 147.184 160.602 145.815 159.82 149.432C159.038 153 160.651 153.293 161.384 153.684C161.775 153.88 162.215 154.124 162.606 154.319C162.704 154.368 163.241 154.417 163.437 154.417Z" fill="white"/>
<path d="M171.745 154.662C171.745 154.515 171.648 154.369 171.55 154.271C171.55 154.271 169.008 152.267 167.64 151.192C167.396 150.996 167.053 150.752 167.053 150.752C166.956 150.654 166.907 150.703 166.956 150.85C166.956 150.85 167.689 152.658 168.129 153.636C168.275 153.929 168.177 154.271 167.835 154.369C167.004 154.613 166.222 154.955 165.392 155.151C165.147 155.2 164.952 155.249 164.952 155.249C164.805 155.249 164.805 155.346 164.952 155.395C164.952 155.395 167.053 156.373 168.226 156.91C168.911 157.204 170.035 157.79 170.035 157.79C170.132 157.839 170.279 157.888 170.279 157.888C170.866 157.497 171.99 157.057 171.99 157.057C172.136 157.008 172.185 156.861 172.136 156.715L171.745 154.662Z" fill="white"/>
<path d="M172.918 155.346C172.82 155.248 172.771 155.297 172.771 155.444C172.771 155.444 173.016 156.421 173.211 157.008C173.309 157.203 173.162 157.447 172.967 157.545C172.429 157.887 171.452 158.278 171.452 158.278C171.305 158.327 171.305 158.425 171.452 158.474L176.926 160.624C177.072 160.673 177.17 160.624 177.219 160.478L177.659 159.011C177.708 158.865 177.659 158.718 177.512 158.62L172.918 155.346Z" fill="white"/>
<path d="M164.023 156.226C163.925 156.079 163.485 155.737 163.339 155.689C163.045 155.542 162.752 155.444 162.459 155.297C161.286 154.711 158.549 154.613 158.5 157.546C158.5 160.429 160.211 161.26 160.944 161.407C161.041 161.407 161.139 161.456 161.237 161.456C161.286 161.407 162.263 161.407 162.996 161.162C164.169 160.771 165.391 159.989 166.027 159.598C166.173 159.501 164.707 157.252 164.023 156.226Z" fill="white"/>
<path d="M170.572 159.94C170.377 159.598 170.181 159.06 170.181 159.06C170.132 158.914 169.986 158.767 169.888 158.718C169.888 158.718 169.008 158.278 168.422 158.034C167.444 157.594 165.733 156.763 165.733 156.763C165.636 156.714 165.587 156.763 165.636 156.861C165.636 156.861 166.173 157.839 166.515 158.425C166.76 158.865 167.395 159.549 166.955 160.087C166.515 160.624 165.489 160.918 164.903 161.26C164.463 161.504 163.778 161.797 163.778 161.797C163.681 161.846 163.681 161.944 163.778 161.944L169.155 162.922C169.301 162.922 169.399 162.922 169.448 162.873L169.497 162.824C170.083 162.335 171.061 161.406 171.061 161.406C171.159 161.309 171.207 161.113 171.159 161.015C171.061 161.015 170.816 160.38 170.572 159.94Z" fill="white"/>
<path d="M171.697 159.647C171.55 159.598 171.55 159.647 171.599 159.745C171.599 159.745 171.648 159.843 171.746 159.989C171.941 160.38 172.039 160.722 172.234 161.113C172.332 161.309 172.332 161.553 172.137 161.7C171.599 162.14 170.768 162.971 170.768 162.971C170.67 163.068 170.719 163.166 170.817 163.166L176.193 163.948C176.34 163.948 176.438 163.85 176.486 163.753L176.877 161.846C176.926 161.7 176.829 161.553 176.682 161.553L171.697 159.647Z" fill="white"/>
<path d="M169.987 164.192C169.889 164.094 169.694 163.997 169.596 163.997L165.588 163.312C165.442 163.312 165.442 163.361 165.49 163.459C165.49 163.459 165.637 163.655 165.784 163.85C166.077 164.241 166.517 164.632 166.663 165.121C166.761 165.561 166.37 165.903 166.126 166.196C165.784 166.587 165.295 167.222 165.295 167.222C165.197 167.32 165.246 167.418 165.393 167.418C165.393 167.418 167.788 167.222 169.009 167.174C169.303 167.174 169.596 167.125 169.596 167.125C169.743 167.125 169.84 167.076 169.84 167.027V166.978C170.182 166.392 170.916 165.658 170.916 165.658C171.013 165.561 171.013 165.414 170.916 165.316L169.987 164.192Z" fill="white"/>
<path d="M164.122 167.125C164.611 166.539 165.735 165.268 165.54 165.024C165.002 164.437 164.562 163.753 164.024 163.166C163.927 163.069 163.585 162.873 163.487 162.873C162.803 162.726 162.118 162.58 161.385 162.433C160.554 162.238 159.088 162.287 159.479 164.73C159.87 167.174 161.434 167.467 162.118 167.467C162.509 167.467 162.851 167.467 163.242 167.467C163.34 167.467 164.024 167.272 164.122 167.125Z" fill="white"/>
<path d="M176.243 165.854C176.243 165.61 176.341 165.219 176.341 165.219C176.341 165.072 176.243 164.974 176.145 164.925L171.502 164.29C171.356 164.29 171.356 164.339 171.453 164.437C171.453 164.437 172.04 164.974 172.284 165.414C172.431 165.659 172.333 165.952 172.089 166.098C171.698 166.343 171.209 166.929 171.209 166.929C171.111 167.027 171.16 167.125 171.307 167.125L176.048 166.832C176.194 166.832 176.292 166.685 176.292 166.587C176.243 166.489 176.194 166.098 176.243 165.854Z" fill="white"/>
<path d="M173.114 168.934C173.407 169.129 173.407 169.423 173.212 169.716C172.87 170.107 172.576 170.791 172.576 170.791C172.527 170.889 172.576 170.986 172.723 170.938L176.389 169.911C176.535 169.862 176.584 169.716 176.584 169.618L176.34 167.956C176.34 167.81 176.193 167.712 176.046 167.712L172.185 168.005C172.039 168.005 172.039 168.103 172.136 168.152C172.136 168.201 172.723 168.641 173.114 168.934Z" fill="white"/>
<path d="M165.391 172.697C165.978 172.306 166.369 171.524 166.76 170.937C167.004 170.546 167.297 170.204 167.542 169.813C167.151 169.569 166.76 169.324 166.32 169.129C165.88 168.933 165.44 168.738 165.049 168.493C164.951 168.444 164.56 168.347 164.463 168.347C163.827 168.396 163.192 168.396 162.605 168.444C161.872 168.444 160.846 169.471 161.139 170.546C161.384 171.23 161.481 171.572 161.677 172.012C162.166 173.234 163.485 173.43 164.072 173.234C164.365 173.136 164.609 173.088 164.903 172.99C165 172.941 165.294 172.745 165.391 172.697Z" fill="white"/>
<path d="M170.572 168.249C170.474 168.2 170.474 168.2 170.474 168.2C170.425 168.151 170.279 168.053 170.132 168.102C170.132 168.102 168.91 168.151 168.177 168.151C167.688 168.151 166.906 168.2 166.906 168.2C166.76 168.2 166.711 168.249 166.809 168.249C166.809 168.249 166.809 168.249 166.858 168.298C167.444 168.591 167.982 168.982 168.519 169.275C168.764 169.373 168.813 169.715 168.715 169.959C168.226 170.693 167.2 172.257 167.2 172.257C167.102 172.354 167.151 172.452 167.297 172.403L171.061 171.426C171.207 171.377 171.305 171.328 171.305 171.279C171.305 171.279 171.305 171.279 171.354 171.23C171.696 170.644 172.185 169.715 172.185 169.715C172.234 169.617 172.234 169.422 172.136 169.324C172.038 169.324 171.159 168.591 170.572 168.249Z" fill="white"/>
<path d="M174.972 172.893C175.216 172.99 175.265 173.332 175.167 173.577C174.923 174.066 174.581 174.799 174.581 174.799C174.532 174.945 174.581 174.994 174.679 174.896L177.465 173.43C177.562 173.381 177.66 173.186 177.611 173.088L176.976 171.084C176.927 170.938 176.829 170.889 176.683 170.889L173.457 171.768C173.31 171.817 173.31 171.866 173.408 171.964C173.408 171.964 174.385 172.599 174.972 172.893Z" fill="white"/>
<path d="M168.325 177.535C168.911 176.753 169.302 175.776 169.791 174.896C168.862 174.505 168.032 173.967 167.103 173.625C167.005 173.576 166.761 173.527 166.663 173.527C166.37 173.625 166.028 173.674 165.734 173.772C164.024 174.26 163.633 175.922 164.073 176.558C164.268 176.851 164.464 177.095 164.659 177.388C165.001 177.877 166.028 178.659 167.201 178.219C167.689 178.073 167.885 177.926 168.129 177.828C168.129 177.828 168.276 177.633 168.325 177.535Z" fill="white"/>
<path d="M171.941 172.257C171.892 172.208 171.795 172.257 171.648 172.257L168.569 173.039C168.422 173.088 168.422 173.137 168.569 173.235C168.569 173.235 169.84 173.919 170.622 174.163C170.915 174.261 171.062 174.603 170.915 174.896C170.524 175.581 169.889 176.9 169.889 176.9C169.84 176.998 169.791 177.096 169.84 177.096C169.889 177.096 170.084 177.047 170.182 176.998L173.212 175.678C173.359 175.629 173.456 175.483 173.505 175.336L174.043 173.772C174.092 173.674 174.043 173.479 173.945 173.43C173.945 173.381 172.723 172.599 171.941 172.257Z" fill="white"/>
<path d="M176.975 181.445C177.268 181.494 177.366 181.788 177.317 182.032C177.219 182.618 177.17 183.498 177.17 183.498C177.17 183.645 177.219 183.645 177.317 183.596L181.227 179.881C181.325 179.784 181.325 179.637 181.227 179.539C181.227 179.539 181.129 179.393 180.982 179.197C180.64 178.757 180.201 178.024 180.201 178.024C180.152 177.926 179.956 177.878 179.858 177.926L174.531 181.25C174.433 181.299 174.433 181.397 174.58 181.397C174.58 181.348 176.095 181.348 176.975 181.445Z" fill="white"/>
<path d="M176.143 183.889C176.192 183.352 176.241 182.863 176.29 182.325C175.41 182.276 174.531 182.325 173.651 182.228C173.455 182.228 172.722 182.325 172.576 182.423C172.331 182.57 172.087 182.716 171.842 182.863C171.354 183.156 170.572 183.889 171.207 184.378C171.745 184.818 172.331 185.209 172.967 185.551C174.042 186.235 174.824 185.795 175.117 185.551C175.313 185.356 175.508 185.209 175.704 185.013C175.899 184.916 176.143 184.134 176.143 183.889Z" fill="white"/>
<path d="M180.835 185.795C180.835 185.111 180.835 184.378 180.738 183.693C180.395 183.742 180.004 183.791 179.662 183.84C179.271 183.889 178.929 183.938 178.538 183.987C178.44 183.987 178.001 184.231 177.903 184.329C177.219 184.964 176.534 185.648 175.85 186.284C175.655 186.43 175.801 186.968 175.997 187.066C177.463 187.652 178.636 187.897 179.027 187.75C179.32 187.652 179.907 187.066 180.591 186.333C180.689 186.284 180.835 185.893 180.835 185.795Z" fill="white"/>
<path d="M183.72 182.227C183.622 182.129 182.254 180.614 182.254 180.614C182.156 180.517 182.009 180.517 181.911 180.614L179.614 182.765C179.517 182.863 179.517 182.911 179.614 182.911C179.614 182.911 179.614 182.911 179.712 182.911C180.201 182.863 180.69 182.716 181.227 182.716C181.423 182.716 181.667 182.863 181.716 183.058C181.814 183.742 181.863 184.818 181.863 184.818C181.863 184.964 181.96 184.964 182.009 184.866C182.009 184.866 183.28 183.351 183.427 183.156C183.72 182.765 183.866 182.374 183.72 182.227Z" fill="white"/>
<path d="M176.339 175.728C176.73 175.825 177.121 175.923 177.415 176.216C177.708 176.461 177.61 176.949 177.512 177.292C177.415 177.634 177.415 178.074 177.415 178.074C177.415 178.22 177.512 178.269 177.61 178.171L179.419 177.047C179.516 176.998 179.565 176.803 179.516 176.705L178.343 174.359C178.294 174.261 178.148 174.212 178.001 174.261L175.802 175.434C175.704 175.483 175.704 175.581 175.802 175.63C175.851 175.581 176.095 175.63 176.339 175.728Z" fill="white"/>
<path d="M171.598 181.934C172.527 181.396 172.527 179.832 172.82 178.757C171.94 178.415 170.23 177.975 170.034 178.122C169.496 178.366 169.008 178.562 168.47 178.806C167.053 179.344 167.346 180.859 167.835 181.396C168.03 181.592 168.177 181.738 168.372 181.934C169.35 182.911 170.621 182.716 171.012 182.423C171.158 182.178 171.354 182.081 171.598 181.934C171.598 181.934 170.669 182.472 171.598 181.934Z" fill="white"/>
<path d="M174.628 176.167C174.482 176.118 174.286 176.167 174.189 176.216L171.794 177.291C171.647 177.34 171.696 177.437 171.794 177.437C171.794 177.437 172.967 177.682 173.651 177.975C173.846 178.073 173.944 178.317 173.895 178.513C173.651 179.295 173.309 180.614 173.309 180.614C173.26 180.761 173.358 180.81 173.455 180.712L176.241 178.953C176.339 178.904 176.437 178.806 176.437 178.757V178.708C176.437 178.268 176.437 177.877 176.486 177.437C176.535 177.242 176.535 177.144 176.535 177.144C176.583 176.998 176.583 176.9 176.583 176.851C176.583 176.802 176.486 176.704 176.388 176.656L174.628 176.167Z" fill="white"/>
<path d="M149.165 135.797C149.263 135.895 149.459 135.992 149.605 135.992L153.515 136.139C153.662 136.139 153.76 135.992 153.711 135.895C153.711 135.895 153.124 131.3 153.173 128.906C153.173 128.759 153.027 128.075 152.929 127.928C152.391 127.293 151.56 126.217 150.974 124.996C150.094 123.089 148.383 118.788 148.041 117.958C147.699 117.127 147.357 116.98 147.259 117.958C147.162 118.935 146.868 122.992 147.064 125.582C147.259 128.221 147.944 133.255 148.677 135.21C148.774 135.406 149.165 135.797 149.165 135.797Z" fill="white"/>
<path d="M158.452 138.142C158.354 138.044 158.256 137.849 158.159 137.751L154.493 131.202C154.444 131.104 154.395 131.104 154.395 131.251C154.395 131.251 154.737 134.77 154.933 136.627C154.982 136.871 154.737 137.116 154.493 137.214C152.88 137.653 149.899 137.36 149.899 137.36C149.752 137.36 149.654 137.36 149.654 137.36C149.654 137.36 149.752 137.458 149.85 137.556C149.948 137.653 150.094 138.044 150.192 138.142L154.249 142.785C154.346 142.883 154.493 143.03 154.591 143.127L158.941 146.5C159.038 146.597 159.185 146.549 159.234 146.402L161.042 142.541C161.091 142.443 161.091 142.248 160.993 142.101L158.452 138.142Z" fill="white"/>
<path d="M154.297 126.95C154.346 127.097 154.444 127.292 154.493 127.39L154.688 127.634C154.786 127.732 154.932 127.879 155.079 127.927L158.403 129.736C158.5 129.785 158.647 129.736 158.696 129.638L160.846 125.044C160.895 124.946 160.993 124.702 161.042 124.604L161.14 124.164C161.14 124.018 161.188 123.822 161.188 123.675V122.747C161.188 122.6 161.14 122.405 161.091 122.258C161.091 122.258 160.651 120.841 160.309 119.765C159.087 115.855 158.696 112.043 158.451 109.746C158.158 107.449 157.327 108.866 157.083 109.453C156.887 110.039 155.959 112.336 155.275 115.22C154.59 118.006 154.102 125.679 154.102 125.679C154.102 125.826 154.102 126.021 154.15 126.168L154.297 126.95Z" fill="white"/>
<path d="M162.509 132.717C162.069 131.495 161.727 130.273 161.531 128.954C161.434 128.221 161.336 126.999 161.336 126.999C161.336 126.852 161.238 126.852 161.189 126.95C161.189 126.95 159.918 129.345 159.527 130.811C159.43 131.104 159.088 131.3 158.794 131.202C157.377 130.762 155.08 129.247 155.08 129.247C154.982 129.149 154.933 129.198 154.982 129.345L158.452 136.138C158.501 136.236 158.648 136.432 158.697 136.529L161.678 140.83C161.776 140.928 161.873 140.928 161.922 140.83L164.073 137.458C164.171 137.36 164.171 137.165 164.122 137.018C164.219 137.067 163.046 134.232 162.509 132.717Z" fill="white"/>
<path d="M162.459 123.431L162.508 123.48V123.529C162.508 123.577 162.606 123.675 162.655 123.773L164.61 126.314C164.707 126.412 164.805 126.412 164.903 126.314L167.249 122.844C167.347 122.747 167.444 122.551 167.493 122.404C167.493 122.404 167.689 121.867 167.738 121.622C167.933 118.69 168.324 112.776 168.471 110.039C168.666 106.422 167.786 108.133 167.395 108.72C167.004 109.306 165.929 111.066 164.561 113.607C163.192 116.149 162.703 119.814 162.312 122.649V122.698C162.312 122.747 162.313 122.893 162.361 122.991C162.361 123.089 162.41 123.333 162.459 123.431Z" fill="white"/>
<path d="M167.591 124.702C167.591 124.555 167.542 124.555 167.444 124.653C167.444 124.653 166.125 126.559 165.44 127.634C165.294 127.928 164.903 128.025 164.658 127.83C163.828 127.341 162.557 125.679 162.557 125.679C162.459 125.582 162.41 125.582 162.41 125.728C162.41 125.728 162.655 128.71 163.046 130.274C163.534 132.326 165.049 135.943 165.049 135.943C165.098 136.09 165.196 136.09 165.294 135.992C165.294 135.992 166.516 134.428 166.76 134.233C167.689 133.402 167.689 132.326 167.64 131.105C167.542 130.029 167.591 124.702 167.591 124.702Z" fill="white"/>
<path d="M144.278 153.635C144.425 153.635 144.62 153.684 144.767 153.635L148.677 153.147C148.823 153.147 148.872 153.049 148.823 152.902L145.598 146.549C145.549 146.451 145.402 146.255 145.353 146.158C145.353 146.158 145.158 145.913 145.06 145.864C144.425 145.473 143.789 144.985 143.349 144.594C142.079 143.518 140.124 141.563 138.12 139.462C136.116 137.36 137.924 142.834 138.853 145.082C139.782 147.379 141.786 151.143 142.47 152.023C142.568 152.169 142.665 152.316 142.665 152.316C142.763 152.414 142.91 152.609 143.007 152.707L143.74 153.391C143.838 153.489 144.034 153.587 144.131 153.635H144.278Z" fill="white"/>
<path d="M157.474 155.004C157.474 154.857 157.376 154.71 157.279 154.662C157.279 154.662 152.88 152.267 150.778 150.605C149.556 149.627 147.504 147.672 147.504 147.672C147.406 147.575 147.357 147.624 147.455 147.721C147.455 147.721 149.214 151.436 150.338 153.293C150.534 153.586 150.338 154.075 149.996 154.173C148.481 154.515 145.646 154.71 145.646 154.71C145.5 154.71 145.5 154.808 145.597 154.857C145.597 154.857 149.263 157.056 151.218 157.838C153.124 158.571 157.327 159.793 157.327 159.793C157.474 159.842 157.572 159.745 157.572 159.598L157.474 155.004Z" fill="white"/>
<path d="M145.647 156.324C145.598 156.226 145.451 156.031 145.353 155.982L141.443 152.707C141.346 152.609 141.15 152.463 141.052 152.414C141.052 152.414 139.244 151.29 137.924 150.557C135.774 149.335 136.409 150.605 136.849 151.632C137.24 152.658 138.12 154.564 139.44 157.008C140.613 159.207 145.94 162.824 145.94 162.824C146.038 162.922 146.233 162.971 146.38 162.971C146.526 162.971 146.771 162.873 146.869 162.775L148.237 161.7C148.335 161.602 148.384 161.456 148.335 161.309L145.647 156.324Z" fill="white"/>
<path d="M157.767 161.456C157.767 161.309 157.62 161.162 157.523 161.162C157.523 161.162 155.274 160.429 154.101 160.038C152.488 159.501 150.827 158.963 149.263 158.181C148.676 157.888 147.699 157.35 147.699 157.35C147.601 157.301 147.503 157.35 147.601 157.448C147.601 157.448 148.774 160.087 149.751 161.309C149.947 161.553 149.996 162.042 149.654 162.238C148.823 162.58 147.699 163.606 147.699 163.606C147.601 163.704 147.503 163.753 147.552 163.802C147.552 163.802 147.699 163.851 147.796 163.899L153.71 165.415C153.857 165.463 154.052 165.463 154.199 165.512L158.353 165.952C158.5 165.952 158.598 165.854 158.549 165.708L157.767 161.456Z" fill="white"/>
<path d="M148.042 170.889C148.14 170.84 148.335 170.693 148.384 170.595L149.85 168.983C149.948 168.885 149.948 168.738 149.85 168.64C149.85 168.64 147.358 166.392 146.282 164.877C146.233 164.779 145.794 164.633 145.598 164.633C144.523 164.584 141.493 164.779 140.075 164.926C138.707 165.073 138.413 165.561 138.756 166.001C139.147 166.392 139.929 167.223 141.199 168.201C142.275 169.031 147.26 170.937 147.26 170.937C147.406 170.986 147.602 170.986 147.7 170.937L148.042 170.889Z" fill="white"/>
<path d="M158.842 167.369C158.793 167.222 158.646 167.124 158.549 167.124L154.834 166.782C154.687 166.782 154.492 166.733 154.345 166.685L148.383 165.316C148.236 165.267 148.236 165.316 148.334 165.414C148.334 165.414 150.435 167.32 151.364 168.542C151.511 168.737 151.462 169.079 151.266 169.275C150.435 169.91 149.262 171.328 149.262 171.328C149.165 171.425 149.116 171.523 149.165 171.523C149.214 171.523 149.409 171.572 149.556 171.572C149.556 171.572 152.928 171.474 154.345 171.377C156.203 171.23 159.575 170.643 159.575 170.643C159.722 170.643 159.77 170.497 159.722 170.35L158.842 167.369Z" fill="white"/>
<path d="M152.391 177.877C152.44 177.779 152.537 177.633 152.586 177.486L153.27 175.482C153.319 175.336 153.27 175.189 153.124 175.091C153.124 175.091 150.925 173.674 149.703 172.941C149.556 172.843 149.409 172.745 149.409 172.745C149.312 172.696 149.067 172.599 148.97 172.599L148.627 172.55C148.481 172.55 148.285 172.55 148.139 172.599C148.139 172.599 146.575 173.087 146.037 173.283C144.766 173.674 142.762 175.238 142.616 175.824C142.469 176.411 144.864 176.997 147.161 177.486C148.774 177.828 152 177.926 152 177.926C152.098 178.024 152.342 177.975 152.391 177.877Z" fill="white"/>
<path d="M154.346 174.554C154.542 174.701 154.737 174.945 154.59 175.239C154.248 176.07 153.808 177.585 153.808 177.585C153.76 177.731 153.857 177.78 153.955 177.731L158.061 176.314C158.207 176.265 158.403 176.167 158.5 176.118L161.384 174.945C161.531 174.897 161.579 174.75 161.482 174.652L160.26 171.964C160.211 171.817 160.064 171.769 159.918 171.769C159.918 171.769 155.128 172.551 152.538 172.648C152.196 172.648 151.756 172.648 151.756 172.648C151.609 172.648 151.609 172.697 151.707 172.795C151.756 172.844 153.417 173.87 154.346 174.554Z" fill="white"/>
<path d="M156.936 183.596C156.985 183.498 157.034 183.254 157.034 183.156L156.936 180.663C156.936 180.517 156.79 180.37 156.692 180.321L153.613 179.539C153.466 179.539 153.271 179.539 153.124 179.588C153.124 179.588 152.978 179.637 152.929 179.637C152.88 179.686 152.782 179.735 152.733 179.783C151.365 180.712 150.974 180.908 150.289 182.423C149.605 183.938 150.241 184.622 150.68 184.769C151.12 184.915 153.369 184.769 154.542 184.622C155.128 184.524 156.545 183.987 156.545 183.987C156.692 183.938 156.839 183.84 156.936 183.742C156.985 183.547 156.936 183.596 156.936 183.596Z" fill="white"/>
<path d="M162.411 176.069C162.314 175.971 162.167 175.922 162.069 175.971L159.626 176.949C159.479 176.998 159.283 177.095 159.186 177.144L155.569 178.464C155.422 178.513 155.422 178.562 155.569 178.611C155.569 178.611 157.084 179.05 157.866 179.588C158.11 179.784 158.159 179.979 158.159 180.272C158.013 181.201 158.257 182.814 158.257 182.814C158.257 182.96 158.404 183.009 158.501 182.912C158.501 182.912 159.772 181.934 160.456 181.299C161.581 180.272 163.829 178.464 163.829 178.464C163.927 178.366 163.975 178.22 163.878 178.122L162.411 176.069Z" fill="white"/>
<path d="M163.045 183.939C163.094 183.939 163.191 183.987 163.338 184.036L163.534 184.183C163.582 184.281 163.68 184.476 163.778 184.623C163.778 184.623 164.267 185.356 164.462 185.893C164.609 186.187 164.707 186.578 164.707 186.578C164.755 186.724 164.853 186.724 164.902 186.578L165.928 184.721C165.977 184.623 166.124 184.427 166.173 184.281L167.248 182.619C167.346 182.521 167.297 182.326 167.199 182.228L164.804 179.393C164.707 179.295 164.56 179.247 164.462 179.344C164.462 179.344 161.53 181.593 160.894 182.326C160.259 183.059 159.868 183.743 159.868 183.743C159.819 183.841 159.868 183.939 160.015 183.939C160.015 183.939 161.97 183.939 163.045 183.939Z" fill="white"/>
<path d="M163.73 187.31C163.633 186.821 163.486 186.332 163.193 185.892C162.997 185.599 162.802 185.306 162.802 185.306C162.753 185.208 162.557 185.11 162.411 185.11L160.065 185.159C159.918 185.159 159.723 185.208 159.625 185.257C159.625 185.257 159.478 185.306 159.478 185.453C159.38 185.941 159.234 186.577 159.136 187.212C158.989 188.043 158.989 188.874 158.941 189.46C158.794 190.731 159.771 190.145 160.407 189.851C161.042 189.558 162.508 188.678 163.144 188.287C163.29 188.189 163.388 188.141 163.388 188.141C163.486 188.043 163.633 187.896 163.681 187.75C163.681 187.701 163.779 187.456 163.73 187.31Z" fill="white"/>
<path d="M170.084 189.509C170.182 189.412 170.279 189.216 170.328 189.07L170.67 188.239C170.719 188.092 170.817 187.897 170.866 187.799L171.55 186.088C171.599 185.942 171.55 185.795 171.452 185.746C171.452 185.746 170.573 185.16 169.986 184.769C169.448 184.378 168.422 183.449 168.422 183.449C168.324 183.351 168.178 183.351 168.129 183.498L167.005 185.257C166.956 185.355 166.809 185.551 166.76 185.697L165.929 187.163C165.881 187.261 165.783 187.506 165.783 187.603C165.783 187.603 165.685 188.043 165.685 188.141C165.685 188.63 165.636 189.607 165.832 190.927C166.027 192.246 166.614 191.709 167.249 191.318C167.836 190.976 169.106 190.34 169.839 189.9C169.888 189.803 170.084 189.509 170.084 189.509Z" fill="white"/>
<path d="M175.361 187.75C174.873 187.554 172.869 186.528 172.869 186.528C172.771 186.479 172.624 186.528 172.575 186.626L172.038 187.945C171.989 188.092 171.891 188.287 171.842 188.385L171.403 189.509C171.354 189.656 171.305 189.851 171.256 189.998C171.256 189.998 171.256 190.145 171.256 190.194C171.402 190.585 171.891 191.611 172.233 192.295C172.575 192.979 172.722 192.735 173.162 192.491C173.602 192.246 174.922 191.122 175.313 190.78C175.704 190.438 177.219 189.216 177.365 188.825C177.512 188.434 176.192 188.092 175.361 187.75Z" fill="white"/>
<path d="M146.332 144.447C146.381 144.545 146.479 144.692 146.576 144.741C146.674 144.79 146.919 144.838 147.065 144.838L150.193 144.741C150.34 144.741 150.438 144.594 150.389 144.496C150.389 144.496 149.949 142.101 149.46 140.782C149.216 140.049 148.971 138.876 148.971 138.876C148.971 138.729 148.874 138.534 148.825 138.387L148.092 136.725C148.043 136.627 147.896 136.432 147.798 136.334C147.798 136.334 147.603 136.139 147.358 135.894C146.137 134.477 144.573 132.718 142.324 129.785C140.027 126.804 141.298 131.056 142.031 134.086C142.764 137.116 144.279 140.244 146.283 144.252C146.283 144.447 146.332 144.447 146.332 144.447Z" fill="white"/>
<path d="M154.59 144.496C154.492 144.398 154.297 144.251 154.199 144.154L150.631 140.488C150.534 140.39 150.534 140.39 150.583 140.537C150.583 140.537 150.827 141.172 150.973 141.612C151.316 142.736 151.462 143.909 151.658 145.033C151.707 145.327 151.56 145.669 151.267 145.767C150.045 146.06 147.846 146.06 147.846 146.06C147.699 146.06 147.699 146.158 147.797 146.255C147.797 146.255 150.534 148.943 152.146 150.165C153.906 151.485 157.376 153.391 157.376 153.391C157.474 153.44 157.62 153.391 157.62 153.244C157.62 153.244 157.62 153.244 157.62 153.098C157.816 151.289 158.793 147.917 158.793 147.917C158.842 147.77 158.793 147.624 158.647 147.526L154.59 144.496Z" fill="white"/>
<path d="M202.537 157.203C202.537 157.203 204.492 156.666 206.105 157.643C207.669 158.621 207.864 159.305 208.06 160.136C208.206 160.771 207.864 161.26 207.864 161.26C207.864 161.26 205.42 161.064 204.492 160.38C203.563 159.696 202.977 159.012 202.684 158.376C202.439 157.692 202.537 157.203 202.537 157.203Z" fill="white"/>
<path d="M207.278 158.523C207.278 159.403 206.594 160.087 205.714 160.087C204.835 160.087 204.15 159.403 204.15 158.523C204.15 157.839 204.59 157.252 205.226 157.057C205.372 157.008 207.278 158.377 207.278 158.523Z" fill="white"/>
<path d="M208.452 159.843C208.207 158.866 206.985 157.058 204.737 156.764C202.489 156.471 202.293 156.569 201.56 156.324C200.827 156.08 198.383 154.321 198.188 154.125C197.943 153.93 197.846 154.809 197.846 154.809C197.846 154.809 201.316 156.96 201.56 157.155C201.707 157.253 202.391 159.452 204.151 160.528C205.812 161.554 208.5 161.505 208.5 161.505C208.598 161.407 208.745 160.821 208.452 159.843ZM204.639 160.039C202.733 158.866 202.684 157.253 202.684 157.253C202.684 157.253 204.639 156.96 206.252 157.986C207.865 159.012 207.865 160.625 207.865 160.625C207.865 160.625 206.545 161.212 204.639 160.039Z" fill="white"/>
<path d="M54.3484 217.711V206.079C54.3484 205.248 54.0551 204.808 53.4197 204.808C52.931 204.808 52.4911 205.003 52.149 205.345C51.8069 205.688 51.6602 206.127 51.6602 206.616V210.233H43.4004V200.507H75.56V210.233H67.349V206.616C67.349 205.981 67.0558 205.492 66.4693 205.15C66.0783 204.954 65.7362 204.857 65.4429 204.857C64.8075 204.857 64.5143 205.248 64.5143 206.03L64.5632 217.613C64.5632 218.297 64.9542 218.884 65.7362 219.372C66.4204 219.812 67.1047 220.008 67.7889 220.008V224.065H51.5625V220.008C52.1979 220.008 52.7844 219.764 53.4197 219.275C54.0062 218.835 54.3484 218.297 54.3484 217.711Z" fill="white"/>
<path d="M95.5018 224.748C91.2497 224.748 87.633 223.82 84.6027 221.913C81.0349 219.714 79.2754 216.586 79.2754 212.578C79.2754 208.18 80.8883 204.954 84.1629 202.803C86.8999 200.995 90.6143 200.066 95.2086 200.066C99.7539 200.066 103.468 200.946 106.254 202.755C109.675 204.905 111.386 208.131 111.386 212.383C111.386 216.391 109.675 219.519 106.254 221.816C103.322 223.771 99.705 224.748 95.5018 224.748ZM95.5018 204.612C94.0356 204.612 92.9603 205.589 92.1295 207.593C91.543 209.059 91.2497 210.672 91.2497 212.432C91.2497 217.564 92.6182 220.154 95.3063 220.154C97.9944 220.154 99.3629 217.564 99.3629 212.383C99.3629 210.672 99.1186 209.059 98.6298 207.642C97.8967 205.589 96.8703 204.612 95.5018 204.612Z" fill="white"/>
<path d="M128.345 214.583V217.808C128.345 218.346 128.589 218.884 129.078 219.421C129.322 219.666 130.202 219.861 131.619 219.861V224.162H115.149V220.106C115.882 220.106 116.468 219.861 117.006 219.421C117.495 218.982 117.739 218.395 117.739 217.662V207.203C117.739 206.47 117.495 205.883 116.957 205.443C116.419 205.003 115.784 204.808 115.051 204.808V200.556H139.488C141.443 200.556 143.154 201.142 144.571 202.266C146.086 203.537 146.868 205.101 146.868 207.007C146.868 209.011 146.184 210.673 144.864 212.041C143.545 213.41 141.883 214.094 139.928 214.094H129.176C128.638 214.045 128.345 214.241 128.345 214.583ZM133.77 209.255C134.796 209.255 135.334 208.522 135.334 207.105C135.334 206.567 135.187 206.127 134.845 205.688C134.503 205.297 134.112 205.101 133.672 205.101H128.785C128.247 205.101 128.003 205.345 128.003 205.785V208.571C128.003 209.011 128.247 209.207 128.736 209.207H133.77V209.255Z" fill="white"/>
<path d="M230.396 200.556H234.599V210.575H226.779L226.241 208.034C225.85 206.177 224.58 205.248 222.38 205.248C221.305 205.248 220.425 205.688 219.79 206.616C219.203 207.447 218.959 208.376 218.959 209.549V216.049C218.959 217.027 219.35 217.809 220.083 218.444C220.816 219.08 221.696 219.422 222.722 219.422C223.7 219.422 224.482 219.177 225.166 218.64C225.85 218.102 226.241 217.418 226.388 216.538L226.828 213.606H234.599L234.452 216.147C234.061 221.865 229.809 224.749 221.598 224.749C217.639 224.749 214.267 223.723 211.432 221.621C208.304 219.324 206.691 216.245 206.691 212.433C206.691 208.669 208.353 205.639 211.628 203.342C214.56 201.289 217.982 200.312 221.891 200.312C223.553 200.312 225.362 200.703 227.219 201.436C227.268 201.436 227.512 201.582 227.952 201.827C228.196 201.973 228.49 202.071 228.734 202.071C229.125 202.071 229.467 201.924 229.76 201.631C229.809 201.338 230.054 201.045 230.396 200.556Z" fill="white"/>
<path d="M251.02 217.124C250.14 217.124 249.651 217.662 249.651 218.688C249.651 219.324 249.993 219.666 250.727 219.763L252.193 219.959L252.242 224.113H238.557L238.508 219.763C238.752 219.763 238.997 219.763 239.241 219.763C240.512 219.763 241.44 219.03 242.076 217.515L249.407 200.556H259.719L267.051 217.417C267.735 218.981 268.957 219.763 270.716 219.763V224.113H254.588V219.861L256.054 219.666C256.738 219.568 257.08 219.226 257.08 218.59C257.08 217.564 256.592 217.075 255.663 217.075H251.02V217.124ZM253.121 209.255L251.606 213.41H254.636L253.121 209.255Z" fill="white"/>
<path d="M285.624 217.711V206.079C285.624 205.248 285.33 204.808 284.695 204.808C284.206 204.808 283.767 205.003 283.424 205.345C283.082 205.688 282.936 206.127 282.936 206.616V210.233H274.676V200.507H306.835V210.233H298.673V206.616C298.673 205.981 298.38 205.492 297.794 205.15C297.403 204.954 297.06 204.857 296.767 204.857C296.132 204.857 295.839 205.248 295.839 206.03L295.887 217.613C295.887 218.297 296.278 218.884 297.06 219.372C297.745 219.812 298.429 220.008 299.113 220.008V224.065H282.887V220.008C283.522 220.008 284.109 219.764 284.744 219.275C285.282 218.835 285.624 218.297 285.624 217.711Z" fill="white"/>
</svg>
