<svg width="500" height="500" viewBox="0 0 500 500" fill="none" xmlns="http://www.w3.org/2000/svg">
<path fill-rule="evenodd" clip-rule="evenodd" d="M306.921 348.837V343.858H327V348.837L323.681 349.5V365.597C322.851 365.597 321.69 365.763 320.528 366.095C319.201 366.427 317.873 366.759 316.214 367.257C314.554 367.588 312.729 368.086 310.903 368.252C308.912 368.584 306.921 368.75 304.597 368.75C300.781 368.75 297.462 368.252 294.475 367.091C291.488 365.929 288.998 364.27 287.007 362.278C285.016 360.121 283.356 357.798 282.361 354.811C281.365 351.99 280.701 348.837 280.701 345.352C280.701 341.535 281.365 338.05 282.692 335.063C284.02 332.076 285.845 329.421 288.169 327.264C290.492 325.106 293.313 323.447 296.466 322.451C299.619 321.29 303.104 320.792 306.755 320.792C308.58 320.792 310.239 320.792 312.065 320.958C313.724 321.124 315.384 321.289 316.877 321.455C318.371 321.621 319.698 321.953 320.86 322.119C322.022 322.285 322.851 322.451 323.515 322.617L322.851 334.399H315.882L313.89 326.766C313.724 326.6 313.392 326.268 313.061 326.102C312.729 325.936 312.231 325.77 311.733 325.438C311.235 325.272 310.405 325.106 309.576 324.94C308.746 324.774 307.75 324.774 306.423 324.774C304.265 324.774 302.44 325.106 300.781 325.936C299.121 326.766 297.628 327.927 296.3 329.421C295.138 330.914 294.143 332.906 293.479 335.229C292.815 337.552 292.483 340.373 292.483 343.526C292.483 345.352 292.649 347.011 292.815 348.837C292.981 350.496 293.313 352.155 293.811 353.649C294.309 355.143 294.806 356.636 295.636 357.798C296.3 359.125 297.296 360.121 298.125 361.117C299.121 362.112 300.283 362.776 301.444 363.274C302.772 363.772 304.099 364.104 305.593 364.104C307.418 364.104 309.078 363.938 310.405 363.44C311.733 363.108 312.895 362.444 313.558 361.78V349.002L306.921 348.837ZM208.349 336.391C207.685 333.901 206.855 331.91 205.694 330.251C204.532 328.591 202.872 327.264 201.047 326.434C199.222 325.604 196.898 325.106 194.243 325.106C193.082 325.106 191.92 325.106 191.256 325.272C190.426 325.438 189.763 325.438 189.431 325.438V363.606C190.261 363.938 191.256 364.104 192.252 364.104C193.248 364.104 194.409 364.104 195.571 364.104C197.562 364.104 199.554 363.606 201.213 362.776C202.872 361.946 204.366 360.785 205.528 359.125C206.689 357.466 207.685 355.474 208.349 352.985C209.012 350.496 209.344 347.675 209.344 344.522C209.178 341.535 208.846 338.88 208.349 336.391ZM218.305 353.649C217.144 356.802 215.484 359.457 213.327 361.78C211.17 364.104 208.515 365.763 205.528 366.925C202.541 368.086 199.056 368.75 195.405 368.584C194.575 368.584 193.745 368.584 192.75 368.418C191.754 368.418 190.758 368.252 189.763 368.252C188.767 368.252 187.771 368.086 186.776 368.086C185.78 368.086 184.784 368.086 183.955 368.086H173.5V363.938L178.81 363.108V326.434L173.666 325.438V321.29H183.789C184.95 321.29 186.112 321.29 187.108 321.29C188.103 321.29 189.099 321.124 189.929 321.124C190.924 321.124 191.92 320.958 192.916 320.958C193.911 320.958 195.073 320.958 196.401 320.958C200.549 320.958 204.034 321.455 207.021 322.451C210.008 323.447 212.497 324.94 214.323 326.766C216.314 328.591 217.642 330.914 218.471 333.735C219.301 336.391 219.799 339.544 219.799 343.028C220.131 346.845 219.467 350.496 218.305 353.649ZM302.274 263.54C301.61 263.54 301.112 263.54 300.615 263.54C300.117 263.54 299.619 263.54 299.287 263.706C298.955 263.706 298.457 263.872 298.125 263.872C297.794 263.872 297.628 264.37 297.462 264.37V286.109C297.959 286.275 298.457 286.773 299.121 286.939C299.785 286.939 300.781 286.939 302.108 286.939C303.436 286.939 304.597 286.773 305.759 286.275C306.921 285.777 307.916 285.113 308.912 284.118C309.742 283.122 310.571 281.794 311.069 280.135C311.567 278.475 311.899 276.484 311.899 273.995C311.899 267.025 308.746 263.54 302.274 263.54ZM321.856 281.462C320.86 283.62 319.532 285.445 317.707 286.939C315.882 288.432 313.724 289.594 311.069 290.258C308.414 291.087 305.593 291.419 302.274 291.419C301.776 291.419 301.112 291.419 300.615 291.419C300.117 291.419 299.619 291.419 299.121 291.419C298.623 291.419 298.291 291.419 297.959 291.253C297.628 291.253 297.628 290.755 297.462 290.755V304.695L304.431 306.188V310.005H281.199V306.188L286.675 304.695V265.2L281.199 264.204V259.89H292.151C293.147 259.89 294.143 259.89 295.138 259.89C295.968 259.89 296.964 259.724 297.794 259.724C298.789 259.724 299.785 259.558 300.781 259.558C301.776 259.558 303.104 259.558 304.597 259.558C308.082 259.558 311.069 259.89 313.558 260.553C316.048 261.217 317.873 262.047 319.366 263.208C320.86 264.37 321.856 265.864 322.519 267.689C323.183 269.514 323.515 271.672 323.515 273.995C323.349 276.816 322.851 279.305 321.856 281.462ZM218.305 269.68L214.655 264.37H203.038V304.529L210.008 306.852V310.005H185.116V306.852L192.086 304.529V264.37H181.299L176.985 269.68H173.666L174.662 259.724H220.463L221.458 269.68H218.305Z" fill="white"/>
<path fill-rule="evenodd" clip-rule="evenodd" d="M273.4 294.904C272.239 298.057 270.579 300.878 268.422 303.035C266.265 305.359 263.775 307.018 260.788 308.346C257.801 309.507 254.482 310.171 250.998 310.171C250.666 310.171 250.334 310.171 250.002 310.171V305.69C250.5 305.69 250.832 305.69 251.329 305.69C253.155 305.69 254.814 305.193 256.308 304.363C257.801 303.533 258.963 302.206 260.125 300.38C261.12 298.555 261.95 296.397 262.448 293.742C262.946 291.087 263.278 287.934 263.278 284.283C263.278 280.633 262.946 277.646 262.448 274.99C261.95 272.335 261.12 270.178 260.125 268.519C259.129 266.859 257.801 265.697 256.474 264.868C254.98 264.038 253.321 263.706 251.495 263.706C250.998 263.706 250.334 263.706 249.836 263.872V259.392C250.5 259.392 251.329 259.226 251.993 259.226C255.976 259.226 259.461 259.889 262.448 261.051C265.435 262.213 267.758 263.872 269.583 266.029C271.409 268.187 272.902 270.842 273.732 273.829C274.562 276.982 275.06 280.301 275.06 284.117C275.06 288.1 274.562 291.585 273.4 294.904Z" fill="white"/>
<path fill-rule="evenodd" clip-rule="evenodd" d="M251.66 263.707C251.328 263.707 250.996 263.707 250.664 263.707C248.838 263.707 247.179 264.039 245.685 264.869C244.192 265.699 243.03 266.86 242.035 268.52C241.039 270.179 240.209 272.336 239.711 274.992C239.214 277.647 238.882 280.634 238.882 284.284C238.882 287.935 239.214 291.088 239.711 293.743C240.209 296.399 241.039 298.722 242.035 300.381C243.03 302.207 244.358 303.534 245.851 304.364C247.345 305.194 249.004 305.692 250.83 305.692C251.162 305.692 251.494 305.692 251.66 305.692V310.172C251.494 310.172 251.328 310.172 251.162 310.172C247.511 310.172 244.192 309.508 241.371 308.347C238.384 307.185 235.895 305.36 233.737 303.036C231.58 300.713 229.921 298.058 228.759 294.905C227.597 291.752 226.934 288.101 226.934 284.284C226.934 280.468 227.431 276.983 228.261 273.996C229.091 270.843 230.584 268.354 232.41 266.196C234.235 264.039 236.724 262.38 239.545 261.218C242.533 260.056 245.851 259.393 250 259.393C250.498 259.393 250.996 259.393 251.494 259.393V263.707H251.66Z" fill="white"/>
<path fill-rule="evenodd" clip-rule="evenodd" d="M273.398 293.246C272.237 296.399 270.577 299.22 268.42 301.377C266.263 303.7 263.774 305.36 260.787 306.687C257.8 307.849 254.481 308.513 250.996 308.513C250.664 308.513 250.332 308.513 250.166 308.513V304.032C250.498 304.032 250.996 304.032 251.328 304.032C253.153 304.032 254.812 303.534 256.306 302.705C257.8 301.875 258.961 300.547 260.123 298.722C261.118 296.897 261.948 294.739 262.446 292.084C262.944 289.429 263.276 288.599 263.276 284.948C263.276 281.298 262.944 278.311 262.446 275.655C261.948 273 261.118 271.009 260.123 269.184C259.127 267.524 257.8 266.363 256.472 265.533C254.978 264.703 253.319 264.371 251.494 264.371C250.996 264.371 250.664 264.371 250.166 264.371V259.891C250.83 259.891 251.494 259.891 251.991 259.891C255.974 259.891 259.459 260.554 262.446 261.716C265.433 262.878 267.756 264.537 269.582 266.694C271.407 268.852 272.901 271.507 273.73 274.494C274.56 277.647 275.058 280.966 275.058 284.783C275.058 288.765 274.56 290.093 273.398 293.246Z" fill="white"/>
<path fill-rule="evenodd" clip-rule="evenodd" d="M250.996 264.371C250.83 264.371 250.83 264.371 250.664 264.371C248.838 264.371 247.179 264.703 245.685 265.533C244.192 266.363 243.03 267.524 242.035 269.184C241.039 270.843 240.209 273 239.711 275.655C239.214 278.311 238.882 281.298 238.882 284.948C238.882 288.599 239.214 291.752 239.711 294.407C240.209 297.063 241.039 297.063 242.035 298.722C243.03 300.547 244.358 301.875 245.851 302.705C247.345 303.534 249.004 304.032 250.83 304.032C250.996 304.032 250.996 304.032 251.162 304.032V308.513C247.511 308.513 244.358 307.849 241.371 306.687C238.384 305.526 235.895 303.7 233.737 301.377C231.58 299.054 229.921 296.399 228.759 293.246C227.597 290.093 226.934 288.765 226.934 284.783C226.934 280.966 227.431 277.481 228.261 274.494C229.091 271.341 230.584 268.852 232.41 266.694C234.235 264.537 236.724 262.878 239.545 261.716C242.533 260.554 245.851 259.891 250 259.891C250.332 259.891 250.664 259.891 250.996 259.891V264.371Z" fill="white"/>
<path fill-rule="evenodd" clip-rule="evenodd" d="M271.907 354.811C270.745 357.798 269.252 360.453 267.26 362.444C265.269 364.602 262.78 366.261 259.959 367.423C257.138 368.584 253.985 369.248 250.5 369.248C250.334 369.248 250.168 369.248 250.002 369.248V364.934C250.334 364.934 250.666 364.934 250.832 364.934C252.491 364.934 254.151 364.436 255.478 363.606C256.806 362.776 258.133 361.449 259.129 359.789C260.125 358.13 260.954 355.973 261.452 353.483C261.95 350.994 262.282 348.007 262.282 344.522C262.282 341.203 261.95 338.216 261.452 335.727C260.954 333.238 260.125 331.247 259.295 329.753C258.299 328.26 257.138 327.098 255.81 326.268C254.482 325.439 252.823 325.107 250.998 325.107C250.666 325.107 250.168 325.107 249.836 325.107V320.958C250.5 320.958 250.998 320.958 251.661 320.958C255.478 320.958 258.797 321.456 261.618 322.617C264.439 323.779 266.762 325.273 268.422 327.264C270.247 329.255 271.575 331.744 272.405 334.732C273.234 337.553 273.732 340.872 273.732 344.522C273.566 348.339 273.068 351.824 271.907 354.811Z" fill="white"/>
<path fill-rule="evenodd" clip-rule="evenodd" d="M250.994 325.439C249.335 325.439 247.676 325.771 246.348 326.6C245.02 327.43 243.693 328.426 242.863 330.085C241.867 331.579 241.204 333.736 240.706 336.059C240.208 338.549 239.876 341.37 239.876 344.854C239.876 348.173 240.208 351.16 240.706 353.816C241.204 356.305 242.033 358.462 243.029 360.121C244.025 361.781 245.186 363.108 246.68 363.938C248.007 364.768 249.501 365.1 251.16 365.266V369.58C247.842 369.58 244.854 368.917 242.199 367.755C239.378 366.593 236.889 364.934 234.898 362.777C232.906 360.619 231.247 358.13 230.251 355.143C229.09 352.156 228.592 348.837 228.592 345.02C228.592 341.37 229.09 338.217 229.919 335.23C230.749 332.409 232.077 329.919 233.902 327.762C235.727 325.771 238.051 324.111 240.706 323.116C243.527 321.954 246.846 321.456 250.663 321.456C250.829 321.456 250.995 321.456 251.16 321.456V325.439H250.994Z" fill="white"/>
<path fill-rule="evenodd" clip-rule="evenodd" d="M193.91 236.326C193.91 236.326 192.25 239.479 189.761 243.794H174.494V231.348C174.826 231.679 175.158 231.845 175.49 232.177C181.796 235.828 193.91 236.326 193.91 236.326ZM255.31 243.794C251.825 235.496 248.34 225.539 245.353 213.757C243.03 204.298 242.034 195.669 241.868 188.202C243.694 190.359 244.357 191.189 244.357 191.189L241.868 187.704C241.536 175.092 243.196 166.629 243.196 166.629C243.196 166.629 249.834 165.467 262.445 165.633C272.734 165.799 277.713 166.463 283.853 165.633C288.499 164.969 295.137 160.821 296.796 150.698C298.456 139.911 297.958 125.972 299.949 118.504C299.617 119.666 281.529 125.474 264.603 129.291C250.995 132.278 237.72 133.605 237.72 133.605C237.72 133.605 232.575 131.282 229.09 117.509C228.924 117.011 228.095 129.291 228.095 129.291C228.095 129.291 222.784 121.159 220.627 114.356C219.465 110.705 220.793 132.444 218.636 155.178L218.47 155.012C218.47 155.012 218.47 155.012 218.636 155.178C218.138 160.489 217.474 165.965 216.478 171.109C208.845 211.102 196.067 231.016 196.067 231.016C196.067 231.016 184.617 232.011 174.66 228.361V93.9443H324.841V243.959H255.31V243.794Z" fill="white"/>
<path fill-rule="evenodd" clip-rule="evenodd" d="M322.684 400.446V401.442H318.203V400.446L319.531 400.114V395.136C319.531 394.804 319.531 394.472 319.531 394.306C319.365 394.638 319.199 394.97 319.033 395.136L315.216 400.114V400.446L316.544 400.612V401.608H312.063V400.612L313.391 400.28V392.315L312.063 392.149V391.153H316.544V392.149L315.216 392.481V397.459C315.216 397.791 315.216 398.123 315.216 398.289C315.382 397.957 315.548 397.625 315.714 397.459L319.531 392.481V392.149L318.203 391.983V390.987H322.684V391.983L321.356 392.315V400.28L322.684 400.446ZM310.57 400.446V401.442H307.914L304.761 396.795H303.6V400.28L304.927 400.446V401.442H300.447V400.446L301.774 400.114V392.149L300.447 391.983V390.987H304.927V391.983L303.6 392.315V395.468L305.093 395.302L307.583 392.149L306.421 391.983V390.987H310.57V391.983L309.242 392.315L306.421 395.8L309.408 400.28L310.57 400.446ZM295.8 396.629L292.15 397.293C292.15 397.293 291.652 397.791 291.652 398.787C291.652 399.616 292.15 400.28 293.311 400.28C294.473 400.28 295.468 399.616 295.8 399.285V396.629ZM297.626 401.442C296.63 401.442 296.132 401.11 295.8 400.28C295.303 400.778 294.141 401.442 292.481 401.442C290.656 401.442 289.66 400.446 289.66 398.787C289.66 397.127 290.656 395.966 292.813 395.634L295.634 395.302V394.14C295.634 392.647 295.137 391.983 293.643 391.983C292.647 391.983 291.984 392.315 291.984 392.315L291.652 393.974H290.158V391.485C290.158 391.485 291.32 390.655 293.643 390.655C296.63 390.655 297.626 391.983 297.626 394.306V399.119C297.626 399.616 297.792 399.782 298.29 399.782H298.953L299.119 400.778C299.285 401.11 298.787 401.442 297.626 401.442ZM283.354 400.114C284.184 400.114 284.848 399.782 284.848 399.782C284.848 399.782 285.678 398.787 285.678 396.132C285.678 393.31 284.682 392.149 283.188 392.149C281.861 392.149 281.031 392.979 280.699 393.476C280.699 393.808 280.699 394.306 280.699 394.97C280.699 398.953 281.861 400.114 283.354 400.114ZM280.699 389.992C280.699 389.992 280.367 390.987 280.367 392.813C280.865 392.149 281.861 390.987 283.852 390.987C286.01 390.987 288.167 392.647 288.167 396.298C288.167 399.616 286.507 401.608 283.354 401.608C280.367 401.608 278.708 399.782 278.708 394.306C278.708 386.673 281.861 387.502 285.512 386.839C285.512 386.839 285.844 386.507 286.01 386.175L287.005 386.673C286.341 389.328 282.027 388.332 280.699 389.992ZM271.904 392.315C270.908 392.315 270.245 392.647 270.245 392.647C270.245 392.647 269.415 393.642 269.415 396.132C269.415 398.787 270.245 400.114 272.07 400.114C273.066 400.114 273.73 399.782 273.73 399.782C273.73 399.782 274.559 398.787 274.559 396.132C274.559 393.476 273.73 392.315 271.904 392.315ZM272.07 401.608C269.249 401.608 267.258 399.616 267.258 396.298C267.258 392.979 269.249 390.987 272.07 390.987C274.891 390.987 276.717 392.979 276.717 396.298C276.717 399.616 274.891 401.608 272.07 401.608ZM263.939 392.647C263.939 392.647 263.441 392.315 262.279 392.315C261.118 392.315 260.454 392.647 260.454 392.647C260.454 392.647 259.624 393.642 259.624 395.966C259.624 399.285 260.952 400.114 262.611 400.114C264.105 400.114 265.266 399.45 265.266 399.45L265.598 400.612C265.598 400.612 264.271 401.608 262.113 401.608C259.292 401.608 257.301 399.616 257.301 396.298C257.301 393.145 258.96 390.987 262.279 390.987C264.105 390.987 265.432 391.817 265.432 391.817V394.472H263.939V392.647ZM246.846 392.315C245.851 392.315 245.187 392.647 245.187 392.647C245.187 392.647 244.357 393.642 244.357 395.468L249.17 395.136C249.17 393.145 248.174 392.315 246.846 392.315ZM250.829 396.132L250.165 396.629H244.191C244.191 399.119 245.519 400.28 247.344 400.28C248.838 400.28 249.999 399.616 249.999 399.616L250.331 400.778C250.331 400.778 249.004 401.774 246.846 401.774C243.859 401.774 241.868 399.782 241.868 396.463C241.868 393.145 243.859 390.987 246.68 390.987C249.501 390.821 251.161 392.647 250.829 396.132ZM240.54 400.446V401.442H236.06V400.446L237.387 400.114V395.136C237.387 394.804 237.387 394.472 237.387 394.306C237.221 394.638 237.055 394.97 236.89 395.136L233.073 400.114V400.446L234.4 400.612V401.608H229.92V400.612L231.247 400.28V392.315L229.92 392.149V391.153H234.4V392.149L233.073 392.481V397.459C233.073 397.791 233.073 398.123 233.073 398.289C233.239 397.957 233.405 397.625 233.571 397.459L237.387 392.481V392.149L236.06 391.983V390.987H240.54V391.983L239.213 392.315V400.28L240.54 400.446ZM228.094 400.446V401.442H211.998V400.446L213.325 400.114V392.149L211.998 391.983V390.987H216.478V391.983L215.317 392.315V400.114H218.967V392.149L217.806 391.983V390.987H222.286V391.983L221.125 392.315V400.114H224.775V392.149L223.614 391.983V390.987H228.094V391.983L226.767 392.315V400.28L228.094 400.446ZM210.338 400.446V401.442H205.692V400.446L207.019 400.114V396.795C206.521 397.127 205.36 397.625 203.866 397.625C202.041 397.625 200.879 396.629 200.879 394.638V392.315L199.552 392.149V391.153H204.198V392.149L202.871 392.481V394.638C202.871 395.8 203.368 396.298 204.696 396.298C205.858 396.298 206.687 395.966 207.019 395.8V392.481L205.692 392.315V391.319H210.338V392.315L209.011 392.647V400.612L210.338 400.446ZM197.892 392.315L194.407 401.442C193.08 405.093 192.25 406.254 190.093 406.254C189.097 406.254 188.267 405.922 188.267 405.922L188.599 404.097C188.599 404.097 189.429 404.429 191.254 404.429C191.254 404.429 192.084 403.433 192.582 401.608L188.765 391.983L187.604 391.817V390.821H192.416V391.817L191.088 392.149L193.412 397.957C193.578 398.289 193.578 398.787 193.744 399.285C193.91 398.787 194.075 398.289 194.075 397.957L196.067 391.983L194.739 391.817V390.821H198.888V391.817L197.892 392.315ZM186.774 400.446V401.442H181.795V400.446L183.289 400.114V388.996H179.14C179.14 400.114 177.813 401.774 175.655 401.774C174.66 401.774 173.83 401.442 173.83 401.442L174.162 399.782C174.162 399.782 174.992 400.28 176.485 400.28C176.485 400.28 177.647 398.953 177.647 388.996L176.153 388.83V387.834H186.94V388.83L185.446 389.162V400.612L186.774 400.446Z" fill="white"/>
</svg>
