<svg width="500" height="500" viewBox="0 0 500 500" fill="none" xmlns="http://www.w3.org/2000/svg">
<path d="M162.867 345.1C167.067 345.1 169.767 340.9 169.767 334.7C169.767 329.5 167.767 324.3 162.867 324.3C157.667 324.3 155.767 329.6 155.767 334.7C155.767 340.6 158.267 345.1 162.867 345.1ZM181.367 304.7H101.267C101.267 304.7 88.5668 304.7 81.4668 316.5C82.8668 316.5 84.8668 316.5 87.4668 316.5C93.7668 316.5 101.567 318.8 101.567 325.9C101.567 330.5 97.4668 332.8 94.0668 333.6V333.9C98.3668 334.4 103.067 336.8 103.067 342.1C103.067 350.6 92.8668 352.8 85.7668 352.8C80.9668 352.8 76.6668 351.6 73.9668 350.3L76.9668 343.5C78.7668 344.2 80.8668 345.2 84.4668 345.2C88.9668 345.2 91.1668 343.6 91.1668 341.5C91.1668 338.7 88.2668 337.6 83.6668 337.6H79.6668L82.5668 331H83.5668C87.9668 331 90.0668 329.5 90.0668 327.5C90.0668 325.6 87.9668 324.1 84.1668 324.1C81.7668 324.1 79.4668 324.3 77.3668 325L66.4668 349.8C66.4668 349.8 59.8668 364.6 74.6668 364.6H154.767C154.767 364.6 169.567 364.6 176.067 349.8L178.467 344.3C175.167 350.1 168.967 352.8 162.567 352.8C152.367 352.8 144.567 346.1 144.567 334.9C144.567 323.7 151.967 316.5 163.067 316.5C173.767 316.5 180.867 323.8 180.867 334.3C180.867 337 180.467 339.3 179.767 341.4L189.567 319.5C189.567 319.4 196.167 304.7 181.367 304.7ZM141.467 334.3C141.467 347 132.467 352.8 123.167 352.8C112.967 352.8 105.167 346.1 105.167 334.9C105.167 323.7 112.567 316.5 123.667 316.5C134.367 316.5 141.467 323.8 141.467 334.3ZM130.367 334.6C130.367 329.4 128.367 324.2 123.467 324.2C118.267 324.2 116.367 329.5 116.367 334.6C116.367 340.6 118.867 345 123.467 345C127.667 345.1 130.367 340.9 130.367 334.6Z" fill="white"/>
<path d="M389.667 334.2C389.667 323.1 382.867 316.5 375.267 316.5C370.267 316.5 366.267 318.4 363.667 322.1H363.567L363.067 317.3H353.667C353.767 320.5 353.967 324.4 353.967 329V364.6H364.767V348.9H364.867C366.467 351.2 369.667 352.9 373.867 352.9C381.667 352.8 389.667 346.8 389.667 334.2ZM378.767 334.7C378.767 340.6 375.967 344.5 371.267 344.5C368.167 344.5 365.667 342.3 364.967 339.4C364.867 338.8 364.767 338 364.767 337.1V332.3C364.767 331.7 364.867 330.9 364.967 330.4C365.667 327.2 368.367 324.9 371.467 324.9C376.267 325 378.767 329.1 378.767 334.7ZM351.467 334.3C351.467 323.9 344.367 316.5 333.667 316.5C322.467 316.5 315.167 323.7 315.167 334.9C315.167 346.1 322.967 352.8 333.167 352.8C342.467 352.8 351.467 347 351.467 334.3ZM340.367 334.6C340.367 340.9 337.667 345 333.467 345C328.867 345 326.367 340.5 326.367 334.6C326.367 329.5 328.267 324.2 333.467 324.2C338.367 324.2 340.367 329.4 340.367 334.6ZM312.267 334.8C312.267 323.6 303.867 317.7 293.967 316.8C293.967 316.8 291.867 316.6 288.767 316.6C285.167 316.6 284.167 316.8 284.167 316.8C274.267 317.8 265.867 323.6 265.867 335C265.867 346.1 274.467 352 284.267 352.8V364.7H294.067V352.7C303.667 351.9 312.267 346.1 312.267 334.8ZM284.167 345.6C278.967 344.4 276.467 340.3 276.467 334.7C276.467 329.4 278.867 325 284.167 323.8V345.6ZM301.667 334.6C301.667 340.1 299.167 344.3 293.967 345.5V323.7C299.167 325 301.667 329.2 301.667 334.6ZM252.567 352H263.467V317.3H252.567V329.9H241.667V317.3H230.867V352H241.667V338.2H252.567V352ZM214.967 352H225.167V317.3H211.967L205.167 332.2C203.767 335.5 202.867 338.2 201.167 342.1L200.867 342C201.167 337.3 201.467 333.4 201.467 327.9V317.2H191.267V351.9H204.367C206.767 346.5 209.367 340.5 211.567 335.6C212.967 332.3 213.867 330.1 215.167 326.2H215.467C215.067 333.6 214.867 335.9 214.867 341.3V352H214.967ZM393.167 322.3L391.067 352H400.767L401.367 338.3C401.467 335.4 401.567 330.5 401.767 326.1H402.067C402.867 329.4 403.967 334.3 404.867 337.6L408.967 351.4H416.867L421.467 337.3C423.267 331.7 423.467 330.5 424.767 325.9H424.967C425.067 330 425.267 335.1 425.367 338.1L425.967 352H435.967L434.167 322.3C434.167 322.3 434.067 316.5 426.467 316.5C419.767 316.5 418.667 322.3 418.667 322.3L416.367 329.7C415.367 333 414.267 336.8 413.567 339.2H413.367C412.667 336.1 411.667 332.5 411.067 330.5L408.767 322.4C408.767 322.4 407.567 316.6 400.367 316.6C393.367 316.5 393.167 322.3 393.167 322.3Z" fill="white"/>
<path d="M317.367 154.1C317.367 154.1 321.067 146.1 321.067 142.6C321.067 139 319.367 136 314.667 136H270.567C270.567 136 265.867 136 263.967 140.2C263.967 140.2 201.967 279 199.367 284.3C197.967 287.3 196.767 290.4 196.467 293.2C196.067 296 197.467 300.4 202.167 300.4H246.667C246.667 300.4 251.367 300.4 253.267 296.2L317.367 154.1ZM251.367 196C254.967 194.1 258.867 193.1 262.967 193.1C266.367 193.1 268.867 194.1 270.667 196C272.367 198 273.267 200.1 273.267 202.5C273.267 203.5 273.167 204.5 272.967 205.6C272.767 206.7 272.567 207.7 272.367 208.7C272.167 209.9 271.767 211.2 271.367 212.5C270.867 213.8 270.467 215 270.167 216.1C269.667 217.2 269.267 218.3 268.867 219.3C268.467 220.3 268.067 221.2 267.767 222L259.767 245.2C259.767 245.2 258.467 248.5 257.567 251.2C257.467 251.4 257.167 252.4 257.167 252.7C256.967 253.4 256.867 254.1 256.867 254.4C257.067 259.9 262.367 255 264.867 251.5C264.967 251.4 264.967 251.4 264.967 251.3C265.667 250.4 266.367 249.4 267.067 248.4C267.867 247.2 268.667 245.7 269.467 244.4C270.067 243 272.367 238.5 274.767 239.4C277.567 240.4 275.867 244.2 275.167 245.5C274.967 246 274.567 246.6 274.267 247.2C274.167 247.3 273.567 248.3 273.367 248.8C272.867 249.6 272.467 250.3 271.967 251.1C271.467 251.8 271.167 252.4 270.967 252.7C267.867 257.4 264.067 261.6 259.367 265.3C254.667 269 249.467 271.2 243.767 272L241.367 272.2C238.167 272.1 235.967 271.1 234.567 269.1C233.167 267.1 232.567 264.8 232.567 262.1C232.567 260.6 232.667 259 232.967 257.3C233.267 255.6 233.667 253.9 234.067 252.2C234.367 250.9 234.767 249.5 235.267 248.1C235.767 246.7 236.167 245.4 236.667 244.1C237.367 242.3 237.967 240.7 238.667 239.2C239.267 237.7 239.767 236.5 240.067 235.5L248.867 211C249.167 210.1 249.267 209.8 249.567 208.8C249.767 208 249.767 207.7 249.767 207.2C249.767 206.6 249.467 206.1 249.367 205.9C249.167 205.7 248.967 205.6 248.567 205.6C248.267 205.6 247.767 205.8 247.167 206.1C246.567 206.4 245.867 206.9 245.167 207.4C244.667 207.7 244.267 208.1 243.867 208.6C243.467 209 243.067 209.4 242.767 209.8C242.667 209.9 242.567 210.1 242.467 210.2C242.367 210.4 242.267 210.5 242.167 210.6C241.867 211 241.367 211.7 240.767 212.7C240.167 213.7 239.567 214.6 238.867 215.6C238.767 215.8 238.567 216.1 238.467 216.4C238.267 216.7 238.167 216.9 238.067 217.2C237.367 218.2 236.667 219.1 236.067 219.9C235.367 220.7 234.867 220.9 234.367 220.9C233.867 220.9 233.467 220.9 232.967 220.7C232.467 220.4 232.267 220.2 231.867 219.8C231.667 219.5 231.567 219.1 231.567 218.8C231.567 217.9 231.767 216.9 232.267 215.8C232.767 214.7 233.367 213.6 234.167 212.4C234.667 211.6 235.167 210.9 235.667 210.1C236.267 209.4 236.767 208.7 237.367 208C238.167 207 238.967 206.1 239.767 205.2C240.567 204.4 241.267 203.7 241.767 203.3C244.467 200.3 247.767 197.9 251.367 196ZM282.267 179.8C279.667 187.3 272.167 191.6 265.567 189.3C258.967 187 255.667 179 258.267 171.5C260.867 164 268.367 159.7 274.967 162C281.567 164.3 284.867 172.3 282.267 179.8ZM250.167 148.8C255.767 136 255.767 136 255.767 136H201.767V179.5C201.767 180.8 201.767 185.9 208.067 185.9C212.567 185.9 213.667 183 214.767 179.3C219.267 163 231.867 152.3 250.167 148.8ZM267.267 287.7C261.467 300.4 261.467 300.4 261.467 300.4H319.267C319.267 300.4 319.267 300.4 319.067 255.6C319.067 254.3 319.067 249.2 312.767 249.2C308.467 249.2 307.367 252.1 306.267 255.8C298.167 276.1 290.567 282.9 267.267 287.7Z" fill="white"/>
</svg>
