<svg width="261" height="161" viewBox="0 0 261 161" fill="none" xmlns="http://www.w3.org/2000/svg">
<path d="M69.0068 146.57C71.9468 146.57 73.8368 143.63 73.8368 139.29C73.8368 135.65 72.4368 132.01 69.0068 132.01C65.3668 132.01 64.0368 135.72 64.0368 139.29C64.0368 143.42 65.7868 146.57 69.0068 146.57ZM81.9568 118.29H25.8868C25.8868 118.29 16.9968 118.29 12.0268 126.55C13.0068 126.55 14.4068 126.55 16.2268 126.55C20.6368 126.55 26.0968 128.16 26.0968 133.13C26.0968 136.35 23.2268 137.96 20.8468 138.52V138.73C23.8568 139.08 27.1468 140.76 27.1468 144.47C27.1468 150.42 20.0068 151.96 15.0368 151.96C11.6768 151.96 8.66677 151.12 6.77677 150.21L8.87677 145.45C10.1368 145.94 11.6068 146.64 14.1268 146.64C17.2768 146.64 18.8168 145.52 18.8168 144.05C18.8168 142.09 16.7868 141.32 13.5668 141.32H10.7668L12.7968 136.7H13.4968C16.5768 136.7 18.0468 135.65 18.0468 134.25C18.0468 132.92 16.5768 131.87 13.9168 131.87C12.2368 131.87 10.6268 132.01 9.15677 132.5L1.52677 149.86C1.52677 149.86 -3.09323 160.22 7.26677 160.22H63.3368C63.3368 160.22 73.6968 160.22 78.2468 149.86L79.9268 146.01C77.6168 150.07 73.2768 151.96 68.7968 151.96C61.6568 151.96 56.1968 147.27 56.1968 139.43C56.1968 131.59 61.3768 126.55 69.1468 126.55C76.6368 126.55 81.6068 131.66 81.6068 139.01C81.6068 140.9 81.3268 142.51 80.8368 143.98L87.6968 128.65C87.6968 128.58 92.3168 118.29 81.9568 118.29ZM54.0268 139.01C54.0268 147.9 47.7268 151.96 41.2168 151.96C34.0768 151.96 28.6168 147.27 28.6168 139.43C28.6168 131.59 33.7968 126.55 41.5668 126.55C49.0568 126.55 54.0268 131.66 54.0268 139.01ZM46.2568 139.22C46.2568 135.58 44.8568 131.94 41.4268 131.94C37.7868 131.94 36.4568 135.65 36.4568 139.22C36.4568 143.42 38.2068 146.5 41.4268 146.5C44.3668 146.57 46.2568 143.63 46.2568 139.22Z" fill="white"/>
<path d="M227.767 138.94C227.767 131.17 223.007 126.55 217.687 126.55C214.187 126.55 211.387 127.88 209.567 130.47H209.497L209.147 127.11H202.567C202.637 129.35 202.777 132.08 202.777 135.3V160.22H210.337V149.23H210.407C211.527 150.84 213.767 152.03 216.707 152.03C222.167 151.96 227.767 147.76 227.767 138.94ZM220.137 139.29C220.137 143.42 218.177 146.15 214.887 146.15C212.717 146.15 210.967 144.61 210.477 142.58C210.407 142.16 210.337 141.6 210.337 140.97V137.61C210.337 137.19 210.407 136.63 210.477 136.28C210.967 134.04 212.857 132.43 215.027 132.43C218.387 132.5 220.137 135.37 220.137 139.29ZM201.027 139.01C201.027 131.73 196.057 126.55 188.567 126.55C180.727 126.55 175.617 131.59 175.617 139.43C175.617 147.27 181.077 151.96 188.217 151.96C194.727 151.96 201.027 147.9 201.027 139.01ZM193.257 139.22C193.257 143.63 191.367 146.5 188.427 146.5C185.207 146.5 183.457 143.35 183.457 139.22C183.457 135.65 184.787 131.94 188.427 131.94C191.857 131.94 193.257 135.58 193.257 139.22ZM173.587 139.36C173.587 131.52 167.707 127.39 160.777 126.76C160.777 126.76 159.307 126.62 157.137 126.62C154.617 126.62 153.917 126.76 153.917 126.76C146.987 127.46 141.107 131.52 141.107 139.5C141.107 147.27 147.127 151.4 153.987 151.96V160.29H160.847V151.89C167.567 151.33 173.587 147.27 173.587 139.36ZM153.917 146.92C150.277 146.08 148.527 143.21 148.527 139.29C148.527 135.58 150.207 132.5 153.917 131.66V146.92ZM166.167 139.22C166.167 143.07 164.417 146.01 160.777 146.85V131.59C164.417 132.5 166.167 135.44 166.167 139.22ZM131.797 151.4H139.427V127.11H131.797V135.93H124.167V127.11H116.607V151.4H124.167V141.74H131.797V151.4ZM105.477 151.4H112.617V127.11H103.377L98.6167 137.54C97.6367 139.85 97.0067 141.74 95.8167 144.47L95.6067 144.4C95.8167 141.11 96.0267 138.38 96.0267 134.53V127.04H88.8867V151.33H98.0567C99.7367 147.55 101.557 143.35 103.097 139.92C104.077 137.61 104.707 136.07 105.617 133.34H105.827C105.547 138.52 105.407 140.13 105.407 143.91V151.4H105.477ZM230.217 130.61L228.747 151.4H235.537L235.957 141.81C236.027 139.78 236.097 136.35 236.237 133.27H236.447C237.007 135.58 237.777 139.01 238.407 141.32L241.277 150.98H246.807L250.027 141.11C251.287 137.19 251.427 136.35 252.337 133.13H252.477C252.547 136 252.687 139.57 252.757 141.67L253.177 151.4H260.177L258.917 130.61C258.917 130.61 258.847 126.55 253.527 126.55C248.837 126.55 248.067 130.61 248.067 130.61L246.457 135.79C245.757 138.1 244.987 140.76 244.497 142.44H244.357C243.867 140.27 243.167 137.75 242.747 136.35L241.137 130.68C241.137 130.68 240.297 126.62 235.257 126.62C230.357 126.55 230.217 130.61 230.217 130.61Z" fill="white"/>
<path d="M177.156 12.8702C177.156 12.8702 179.746 7.27019 179.746 4.82019C179.746 2.30019 178.556 0.200195 175.266 0.200195H144.396C144.396 0.200195 141.106 0.200196 139.776 3.1402C139.776 3.1402 96.3758 100.3 94.5558 104.01C93.5758 106.11 92.7358 108.28 92.5258 110.24C92.2458 112.2 93.2258 115.28 96.5158 115.28H127.666C127.666 115.28 130.956 115.28 132.286 112.34L177.156 12.8702ZM130.956 42.2002C133.476 40.8702 136.206 40.1702 139.076 40.1702C141.456 40.1702 143.206 40.8702 144.466 42.2002C145.656 43.6002 146.286 45.0702 146.286 46.7502C146.286 47.4502 146.216 48.1502 146.076 48.9202C145.936 49.6902 145.796 50.3902 145.656 51.0902C145.516 51.9302 145.236 52.8402 144.956 53.7502C144.606 54.6602 144.326 55.5002 144.116 56.2702C143.766 57.0402 143.486 57.8102 143.206 58.5102C142.926 59.2102 142.646 59.8402 142.436 60.4002L136.836 76.6402C136.836 76.6402 135.926 78.9502 135.296 80.8402C135.226 80.9802 135.016 81.6802 135.016 81.8902C134.876 82.3802 134.806 82.8702 134.806 83.0802C134.946 86.9302 138.656 83.5002 140.406 81.0502C140.476 80.9802 140.476 80.9802 140.476 80.9102C140.966 80.2802 141.456 79.5802 141.946 78.8802C142.506 78.0402 143.066 76.9902 143.626 76.0802C144.046 75.1002 145.656 71.9502 147.336 72.5802C149.296 73.2802 148.106 75.9402 147.616 76.8502C147.476 77.2002 147.196 77.6202 146.986 78.0402C146.916 78.1102 146.496 78.8102 146.356 79.1602C146.006 79.7202 145.726 80.2102 145.376 80.7702C145.026 81.2602 144.816 81.6802 144.676 81.8902C142.506 85.1802 139.846 88.1202 136.556 90.7102C133.266 93.3002 129.626 94.8402 125.636 95.4002L123.956 95.5402C121.716 95.4702 120.176 94.7702 119.196 93.3702C118.216 91.9702 117.796 90.3602 117.796 88.4702C117.796 87.4202 117.866 86.3002 118.076 85.1102C118.286 83.9202 118.566 82.7302 118.846 81.5402C119.056 80.6302 119.336 79.6502 119.686 78.6702C120.036 77.6902 120.316 76.7802 120.666 75.8702C121.156 74.6102 121.576 73.4902 122.066 72.4402C122.486 71.3902 122.836 70.5502 123.046 69.8502L129.206 52.7002C129.416 52.0702 129.486 51.8602 129.696 51.1602C129.836 50.6002 129.836 50.3902 129.836 50.0402C129.836 49.6202 129.626 49.2702 129.556 49.1302C129.416 48.9902 129.276 48.9202 128.996 48.9202C128.786 48.9202 128.436 49.0602 128.016 49.2702C127.596 49.4802 127.106 49.8302 126.616 50.1802C126.266 50.3902 125.986 50.6702 125.706 51.0202C125.426 51.3002 125.146 51.5802 124.936 51.8602C124.866 51.9302 124.796 52.0702 124.726 52.1402C124.656 52.2802 124.586 52.3502 124.516 52.4202C124.306 52.7002 123.956 53.1902 123.536 53.8902C123.116 54.5902 122.696 55.2202 122.206 55.9202C122.136 56.0602 121.996 56.2702 121.926 56.4802C121.786 56.6902 121.716 56.8302 121.646 57.0402C121.156 57.7402 120.666 58.3702 120.246 58.9302C119.756 59.4902 119.406 59.6302 119.056 59.6302C118.706 59.6302 118.426 59.6302 118.076 59.4902C117.726 59.2802 117.586 59.1402 117.306 58.8602C117.166 58.6502 117.096 58.3702 117.096 58.1602C117.096 57.5302 117.236 56.8302 117.586 56.0602C117.936 55.2902 118.356 54.5202 118.916 53.6802C119.266 53.1202 119.616 52.6302 119.966 52.0702C120.386 51.5802 120.736 51.0902 121.156 50.6002C121.716 49.9002 122.276 49.2702 122.836 48.6402C123.396 48.0802 123.886 47.5902 124.236 47.3102C126.126 45.2102 128.436 43.5302 130.956 42.2002ZM152.586 30.8602C150.766 36.1102 145.516 39.1202 140.896 37.5102C136.276 35.9002 133.966 30.3002 135.786 25.0502C137.606 19.8002 142.856 16.7902 147.476 18.4002C152.096 20.0102 154.406 25.6102 152.586 30.8602ZM130.116 9.16019C134.036 0.200195 134.036 0.200195 134.036 0.200195H96.2358V30.6502C96.2358 31.5602 96.2358 35.1302 100.646 35.1302C103.796 35.1302 104.566 33.1002 105.336 30.5102C108.486 19.1002 117.306 11.6102 130.116 9.16019ZM142.086 106.39C138.026 115.28 138.026 115.28 138.026 115.28H178.486C178.486 115.28 178.486 115.28 178.346 83.9202C178.346 83.0102 178.346 79.4402 173.936 79.4402C170.926 79.4402 170.156 81.4702 169.386 84.0602C163.716 98.2702 158.396 103.03 142.086 106.39Z" fill="white"/>
</svg>
