<svg width="500" height="500" viewBox="0 0 500 500" fill="none" xmlns="http://www.w3.org/2000/svg">
<path fill-rule="evenodd" clip-rule="evenodd" d="M305.396 231.698C304.558 230.721 300.02 227.02 300.02 227.02C300.02 227.02 299.531 226.182 299.531 225.833C299.531 225.414 298.135 223.32 296.319 222.273C294.434 221.225 289.267 219.619 287.662 218.781C286.056 217.944 282.006 210.333 280.889 208.657C279.772 206.982 275.094 200.907 274.884 208.099C274.605 215.29 275.722 221.225 275.722 221.225C275.722 221.225 271.882 223.25 270.625 226.252C269.438 229.255 266.506 237.982 265.179 243.289L265.109 243.428C267.413 246.221 273.977 248.246 276.49 248.805C280.959 249.712 285.567 249.712 290.105 249.642C290.175 248.595 290.454 247.687 291.083 246.64C293.177 242.8 298.973 244.545 300.16 243.777C301.347 243.079 302.464 242.241 302.673 241.054C302.883 239.867 302.673 239.867 302.673 239.867C302.673 239.867 304.488 239.03 304.488 237.354C304.488 235.678 304.558 235.12 305.187 234.91C305.885 234.631 306.234 232.676 305.396 231.698ZM283.123 218.991C282.914 219.619 283.682 221.225 283.402 221.295C282.774 221.574 280.959 219.968 279.981 216.268C279.004 212.498 278.445 209.356 277.887 208.797C277.328 208.238 276.839 208.378 277.258 211.38C277.607 214.383 279.004 217.315 278.655 218.921C278.236 220.527 278.794 221.993 279.353 223.25C279.911 224.507 280.959 227.509 279.423 225.624C277.887 223.739 277.328 222.203 277.188 221.225C277.119 220.178 277.468 218.293 277.119 217.106C275.792 213.266 275.373 206.144 276.7 206.074C277.258 206.074 278.445 207.331 278.655 207.82C279.283 209.286 281.029 211.241 281.797 213.335C282.634 215.43 283.402 216.687 284.101 217.734C284.52 218.293 283.333 218.223 283.123 218.991ZM300.928 241.613C300.299 241.473 298.414 240.496 296.738 240.566C294.993 240.635 293.736 240.705 293.527 240.566C293.317 240.426 294.295 239.169 295.272 239.099C296.599 239.03 297.716 239.518 298.693 239.867C300.09 240.286 301.556 240.007 301.835 240.147C301.975 240.217 302.045 240.356 302.045 240.635C301.975 241.124 301.277 241.753 300.928 241.613ZM304.349 234.282C303.86 234.352 302.883 233.095 302.673 232.676C302.394 232.327 301.765 230.721 302.115 230.372C302.464 230.092 303.86 231.419 304.279 231.629C304.628 231.838 304.907 232.187 304.907 232.606C304.907 233.095 304.838 234.212 304.349 234.282Z" fill="white"/>
<path fill-rule="evenodd" clip-rule="evenodd" d="M268.95 251.528C271.115 252.436 273.419 253.134 275.723 253.553C280.68 254.461 290.316 254.461 290.316 254.461C290.455 254.461 290.595 254.321 290.525 254.181L290.176 251.598C290.176 251.458 290.036 251.319 289.897 251.319C289.897 251.319 277.608 251.458 271.743 249.015C269.788 248.177 264.971 245.523 264.971 245.523C264.831 245.454 264.691 245.523 264.691 245.663L264.133 248.316C264.133 248.456 264.203 248.665 264.342 248.735C264.272 248.735 268.322 251.249 268.95 251.528Z" fill="white"/>
<path fill-rule="evenodd" clip-rule="evenodd" d="M288.499 262.56C288.36 262.56 288.22 262.699 288.15 262.839L287.382 265.981C287.382 266.12 287.313 266.4 287.313 266.539L287.033 271.078C287.033 271.217 287.033 271.497 287.033 271.636L287.592 275.476C287.592 275.616 287.662 275.895 287.731 276.035L289.198 279.666C289.268 279.805 289.337 279.805 289.407 279.666C289.407 279.666 292.828 271.566 292.2 265.771C292.06 264.654 291.851 263.048 291.851 263.048C291.851 262.909 291.711 262.769 291.572 262.769L288.499 262.56Z" fill="white"/>
<path fill-rule="evenodd" clip-rule="evenodd" d="M276.352 261.512C276.073 261.442 275.794 261.372 275.794 261.372C275.654 261.372 275.515 261.372 275.515 261.372V261.442C275.375 262.28 274.886 265.073 274.886 265.073C274.886 265.212 274.816 265.492 274.816 265.631C274.816 265.631 274.886 267.307 275.375 268.075C276.283 269.611 277.889 269.052 278.587 267.865C278.726 267.656 279.145 266.26 279.145 266.26C279.215 266.12 279.285 265.841 279.285 265.701L279.913 262.35C279.983 262.21 279.844 262.07 279.704 262.07C279.844 262.07 277.609 261.791 276.352 261.512Z" fill="white"/>
<path fill-rule="evenodd" clip-rule="evenodd" d="M273.977 261.023C273.977 261.023 273.838 260.953 273.698 260.884L270.277 259.766C270.137 259.697 269.998 259.766 269.928 259.976C269.928 259.976 269.299 263.397 269.718 264.863C269.998 265.701 270.975 267.237 272.162 266.469C272.79 266.05 273.209 265.143 273.209 265.143C273.279 265.003 273.349 264.794 273.349 264.584C273.419 264.514 273.768 262.07 273.977 261.023Z" fill="white"/>
<path fill-rule="evenodd" clip-rule="evenodd" d="M268.462 258.999C268.462 258.999 268.322 258.929 268.183 258.859L266.228 257.952C266.088 257.882 265.879 257.812 265.669 257.812C265.669 257.812 265.32 257.742 265.32 257.952C265.25 258.72 265.25 259.557 265.18 260.325C265.111 261.024 264.971 261.862 265.111 262.63C265.739 265.213 267.694 262.909 267.973 261.512C267.973 261.443 267.973 261.443 267.973 261.443C268.043 261.373 268.043 261.163 268.113 261.024L268.322 259.348C268.462 259.139 268.462 258.999 268.462 258.999Z" fill="white"/>
<path fill-rule="evenodd" clip-rule="evenodd" d="M285.985 258.579C286.055 259.417 285.985 260.744 285.985 260.744C285.985 260.884 286.125 261.023 286.265 261.023C286.265 261.023 287.452 261.023 288.15 260.953C289.337 260.884 291.431 260.884 291.431 260.884C291.571 260.884 291.711 260.744 291.641 260.604L291.012 256.275C291.012 256.136 290.873 255.996 290.663 255.996H286.125C285.985 255.996 285.846 256.136 285.846 256.275C285.846 256.345 285.916 257.742 285.985 258.579Z" fill="white"/>
<path fill-rule="evenodd" clip-rule="evenodd" d="M277.258 259.976C277.398 260.046 277.537 259.906 277.607 259.766L278.236 255.926C278.236 255.787 278.166 255.647 278.026 255.577L273.488 254.739C273.348 254.739 273.139 254.809 273.069 254.949L271.742 258.161C271.672 258.3 271.742 258.44 271.882 258.51L277.258 259.976Z" fill="white"/>
<path fill-rule="evenodd" clip-rule="evenodd" d="M269.787 257.741C269.927 257.811 270.066 257.741 270.136 257.601L271.393 254.46C271.463 254.32 271.393 254.18 271.253 254.11L268.321 252.993C268.181 252.923 267.972 252.993 267.972 253.133L266.715 255.926C266.645 256.065 266.715 256.205 266.855 256.275L269.787 257.741Z" fill="white"/>
<path fill-rule="evenodd" clip-rule="evenodd" d="M263.853 254.669C263.923 254.739 263.923 254.739 263.923 254.739C263.993 254.809 264.063 254.879 264.063 254.879C264.412 255.088 264.761 255.298 264.761 255.298C264.901 255.367 265.04 255.298 265.11 255.158L266.297 252.505C266.367 252.365 266.297 252.156 266.157 252.086L263.504 250.27C263.365 250.201 263.225 250.201 263.085 250.34L261.479 252.714C261.41 252.854 261.41 253.063 261.549 253.133C261.689 253.063 262.946 254.18 263.853 254.669Z" fill="white"/>
<path fill-rule="evenodd" clip-rule="evenodd" d="M280.19 255.856C280.051 255.856 279.911 255.926 279.841 256.136L279.213 260.116C279.213 260.255 279.283 260.395 279.353 260.395C279.353 260.395 279.353 260.395 279.422 260.395C281.028 260.604 284.031 260.953 284.031 260.953C284.17 260.953 284.31 260.883 284.31 260.674C284.31 260.674 284.38 259.138 284.24 258.23C284.17 257.532 284.1 256.345 284.1 256.345C284.1 256.206 283.961 256.066 283.821 256.066L280.19 255.856Z" fill="white"/>
<path fill-rule="evenodd" clip-rule="evenodd" d="M285.287 271.287C285.287 271.147 285.357 270.868 285.357 270.728L285.497 267.377C285.497 267.237 285.567 266.958 285.567 266.818L286.405 262.908C286.474 262.769 286.335 262.629 286.195 262.629L282.076 262.35C281.936 262.35 281.796 262.419 281.727 262.629C281.727 262.629 280.749 266.26 280.889 268.215C281.028 270.17 282.355 274.708 285.218 271.706C285.218 271.636 285.287 271.287 285.287 271.287Z" fill="white"/>
<path fill-rule="evenodd" clip-rule="evenodd" d="M291.852 339.293C291.363 338.804 289.408 338.315 287.803 338.106C286.197 337.897 283.962 337.478 283.962 337.478C283.962 337.478 281.868 326.655 282.147 310.736C282.426 294.817 283.683 286.927 283.683 286.927C283.683 286.927 286.127 284.972 288.431 281.341L288.291 281.202C286.755 278.967 285.917 276.314 285.568 273.521C283.613 274.918 281.309 274.359 280.122 271.846C279.773 271.078 279.564 270.31 279.424 269.542C278.307 270.589 276.701 271.008 275.235 270.1C274.187 269.472 273.699 268.494 273.489 267.377C272.512 268.145 271.185 268.355 269.789 267.447C268.811 266.819 268.322 265.841 268.113 264.654C267.275 265.352 266.298 265.702 265.25 265.003C263.854 264.165 263.505 262.629 263.575 261.023C263.435 261.163 263.295 261.373 263.225 261.512C263.016 261.931 262.108 263.467 260.712 265.003C258.478 267.377 255.824 269.681 255.824 269.681C255.685 269.821 255.475 270.03 255.336 270.17C255.336 270.17 251.705 273.661 248.563 276.244C245.421 278.828 245.002 274.988 244.444 273.661C243.885 272.335 243.466 272.055 242.698 272.544C241.93 273.033 239.556 274.569 237.88 275.476C236.205 276.384 236.135 274.918 235.786 273.172C235.437 271.497 235.646 270.729 235.646 269.681C227.407 278.199 221.891 298.029 220.774 305.43C219.587 313.11 218.959 320.79 217.772 326.865C216.585 332.939 216.236 334.545 215.258 339.502C214.141 345.018 212.745 346.345 224.056 346.275C226.36 346.275 252.752 346.904 252.962 345.228C253.032 344.809 263.575 344.32 266.647 344.111C269.789 343.901 278.446 343.622 279.494 343.622C280.541 343.622 280.471 343.273 280.471 344.46C280.471 345.647 281.239 346.275 282.496 346.345C283.683 346.415 284.94 346.345 286.197 346.415C287.034 346.485 286.406 343.552 286.406 343.552C286.406 343.552 291.503 343.622 292.411 343.133C293.318 342.644 292.341 339.852 291.852 339.293ZM241.092 340.969C236.903 341.178 231.108 340.34 237.531 339.921C243.955 339.502 255.126 339.921 255.126 339.921C255.126 339.921 245.281 340.759 241.092 340.969ZM272.791 337.966C268.602 338.316 258.128 338.246 255.266 338.246C252.403 338.246 250.588 338.316 250.518 337.617C250.448 336.919 252.682 330.007 257.36 319.743C262.038 309.549 265.739 303.335 266.996 301.45C268.183 299.565 269.789 296.772 270.208 300.821C270.696 304.871 271.883 312.97 272.163 318.137C272.442 323.304 272.023 330.565 272.581 332.032C273.14 333.568 276.98 337.617 272.791 337.966ZM278.516 289.231C278.865 285.88 280.541 281.691 282.007 278.339C282.845 276.524 281.1 282.459 280.541 288.044C279.983 293.63 279.773 304.382 279.913 307.175C280.052 309.968 281.03 322.536 281.03 326.795C281.03 331.124 281.309 336.71 280.751 336.779C280.192 336.849 279.005 323.304 279.005 319.743C279.005 316.182 278.307 303.824 278.237 301.031C278.237 298.308 277.958 294.398 278.516 289.231ZM288.431 341.178C286.685 340.759 285.219 340.27 282.985 340.131C280.681 339.991 279.075 339.782 279.005 339.502C278.935 339.223 286.127 339.084 288.152 339.433C290.246 339.782 291.084 340.48 291.014 341.108C290.944 341.737 290.176 341.597 288.431 341.178Z" fill="white"/>
<path d="M263.574 257.254C264.272 258.929 263.853 259.907 263.853 259.907C260.362 257.184 255.195 249.434 253.589 241.893C251.983 234.352 254.916 228.348 256.731 223.949C256.871 223.67 257.08 223.32 257.36 223.6C257.988 224.228 259.943 226.323 259.803 227.3C259.733 227.649 258.058 229.046 257.01 231.42C255.893 234.003 255.405 237.773 256.103 241.753C256.731 245.803 258.616 250.271 260.362 252.506C261.06 253.344 262.875 255.648 263.574 257.254Z" fill="white"/>
<path d="M254.567 220.527C254.148 220.177 250.447 216.128 250.447 216.128C250.308 215.988 250.238 216.058 250.308 216.198C250.308 216.198 250.657 218.083 250.657 219.27C250.657 219.549 250.447 219.898 250.168 219.968C249.4 220.178 248.632 220.177 247.794 220.177C247.585 220.177 247.515 220.177 247.515 220.177C247.305 220.177 247.305 220.247 247.445 220.387L254.148 225.274C254.287 225.414 254.497 225.344 254.567 225.135C254.567 225.135 254.986 224.018 255.195 223.599C256.173 221.364 255.195 221.085 254.567 220.527Z" fill="white"/>
<path d="M248.842 214.453C248.842 214.383 248.842 214.383 248.842 214.383C248.842 214.313 248.772 214.103 248.702 213.964C248.702 213.964 247.445 212.428 246.747 211.38C245.84 210.193 244.373 207.261 244.373 207.261C244.304 207.121 244.164 207.121 244.164 207.261C244.164 207.261 243.605 210.752 243.815 212.637C243.885 213.126 243.326 213.405 242.907 213.335C241.092 212.986 237.321 212.358 237.321 212.358C237.112 212.358 237.112 212.428 237.252 212.498C237.252 212.498 240.324 214.941 241.86 216.128C243.117 217.106 245.281 218.781 245.281 218.781C245.421 218.921 245.56 218.991 245.56 218.991C246.677 218.572 248.912 218.712 248.912 218.712C249.121 218.712 249.261 218.572 249.191 218.363C249.261 218.432 248.772 215.919 248.842 214.453Z" fill="white"/>
<path d="M234.947 210.263C236.204 210.682 237.6 210.822 238.857 211.101C240.044 211.31 241.231 211.59 242.418 211.799C242.348 209.705 242.627 207.54 243.116 205.515C243.186 205.306 243.116 204.328 242.976 204.049C242.488 202.792 242.069 201.535 241.65 200.348C240.533 196.997 237.251 193.785 233.83 199.93C230.408 206.004 232.363 208.238 233.411 209.146C233.55 209.286 233.62 209.355 233.76 209.495C233.969 209.705 234.737 210.193 234.947 210.263Z" fill="white"/>
<path d="M233.481 220.597C234.319 220.527 235.087 220.457 235.924 220.248C236.832 219.969 237.74 219.689 238.648 219.41C237.88 217.804 237.181 216.128 236.762 214.453C236.693 214.243 236.274 213.405 236.064 213.266C235.366 212.707 234.668 212.079 233.97 211.52C232.573 210.263 229.431 208.308 228.314 213.475C227.197 218.572 229.501 218.991 230.548 219.55C231.107 219.829 231.735 220.178 232.294 220.457C232.433 220.527 233.201 220.597 233.481 220.597Z" fill="white"/>
<path d="M245.35 220.945C245.35 220.736 245.211 220.527 245.071 220.387C245.071 220.387 241.441 217.524 239.486 215.988C239.136 215.709 238.648 215.36 238.648 215.36C238.508 215.22 238.438 215.29 238.508 215.499C238.508 215.499 239.555 218.083 240.184 219.479C240.393 219.898 240.254 220.387 239.765 220.527C238.578 220.876 237.461 221.364 236.274 221.644C235.925 221.713 235.645 221.783 235.645 221.783C235.436 221.783 235.436 221.923 235.645 221.993C235.645 221.993 238.648 223.389 240.323 224.157C241.301 224.576 242.907 225.414 242.907 225.414C243.046 225.484 243.256 225.554 243.256 225.554C244.094 224.995 245.7 224.367 245.7 224.367C245.909 224.297 245.979 224.087 245.909 223.878L245.35 220.945Z" fill="white"/>
<path d="M247.027 221.923C246.887 221.784 246.818 221.853 246.818 222.063C246.818 222.063 247.167 223.459 247.446 224.297C247.586 224.576 247.376 224.926 247.097 225.065C246.329 225.554 244.932 226.113 244.932 226.113C244.723 226.182 244.723 226.322 244.932 226.392L252.752 229.464C252.962 229.534 253.102 229.464 253.171 229.254L253.8 227.16C253.87 226.95 253.8 226.741 253.59 226.601L247.027 221.923Z" fill="white"/>
<path d="M234.319 223.18C234.18 222.971 233.551 222.482 233.342 222.412C232.923 222.203 232.504 222.063 232.085 221.854C230.409 221.016 226.5 220.876 226.43 225.066C226.43 229.185 228.873 230.372 229.921 230.581C230.06 230.581 230.2 230.651 230.34 230.651C230.409 230.582 231.806 230.581 232.853 230.232C234.529 229.674 236.274 228.557 237.182 227.998C237.392 227.858 235.297 224.647 234.319 223.18Z" fill="white"/>
<path d="M243.675 228.487C243.396 227.998 243.117 227.23 243.117 227.23C243.047 227.02 242.837 226.811 242.698 226.741C242.698 226.741 241.441 226.113 240.603 225.764C239.207 225.135 236.763 223.948 236.763 223.948C236.623 223.878 236.553 223.948 236.623 224.088C236.623 224.088 237.391 225.484 237.88 226.322C238.229 226.951 239.137 227.928 238.508 228.696C237.88 229.464 236.414 229.883 235.576 230.372C234.947 230.721 233.97 231.14 233.97 231.14C233.83 231.21 233.83 231.349 233.97 231.349L241.65 232.746C241.86 232.746 241.999 232.746 242.069 232.676L242.139 232.606C242.977 231.908 244.373 230.581 244.373 230.581C244.513 230.442 244.583 230.162 244.513 230.023C244.373 230.023 244.024 229.115 243.675 228.487Z" fill="white"/>
<path d="M245.28 228.067C245.07 227.998 245.07 228.067 245.14 228.207C245.14 228.207 245.21 228.347 245.349 228.556C245.629 229.115 245.768 229.603 246.048 230.162C246.187 230.441 246.187 230.79 245.908 231C245.14 231.628 243.953 232.815 243.953 232.815C243.813 232.955 243.883 233.095 244.023 233.095L251.703 234.212C251.913 234.212 252.052 234.072 252.122 233.932L252.681 231.209C252.751 231 252.611 230.79 252.401 230.79L245.28 228.067Z" fill="white"/>
<path d="M242.838 234.561C242.698 234.422 242.419 234.282 242.279 234.282L236.554 233.305C236.345 233.305 236.345 233.375 236.414 233.514C236.414 233.514 236.624 233.793 236.833 234.073C237.252 234.631 237.881 235.19 238.09 235.888C238.23 236.516 237.671 237.005 237.322 237.424C236.833 237.983 236.135 238.89 236.135 238.89C235.996 239.03 236.065 239.17 236.275 239.17C236.275 239.17 239.696 238.89 241.442 238.821C241.86 238.821 242.279 238.751 242.279 238.751C242.489 238.751 242.629 238.681 242.629 238.611V238.541C243.117 237.703 244.165 236.656 244.165 236.656C244.304 236.516 244.304 236.307 244.165 236.167L242.838 234.561Z" fill="white"/>
<path d="M234.458 238.75C235.157 237.913 236.762 236.097 236.483 235.748C235.715 234.91 235.087 233.933 234.319 233.095C234.179 232.955 233.69 232.676 233.551 232.676C232.573 232.467 231.596 232.257 230.548 232.048C229.361 231.768 227.267 231.838 227.825 235.329C228.384 238.82 230.618 239.239 231.596 239.239C232.154 239.239 232.643 239.239 233.202 239.239C233.341 239.239 234.319 238.96 234.458 238.75Z" fill="white"/>
<path d="M251.774 236.935C251.774 236.586 251.914 236.028 251.914 236.028C251.914 235.818 251.774 235.679 251.634 235.609L245.001 234.701C244.792 234.701 244.792 234.771 244.932 234.911C244.932 234.911 245.769 235.679 246.118 236.307C246.328 236.656 246.188 237.075 245.839 237.285C245.281 237.634 244.582 238.472 244.582 238.472C244.443 238.611 244.513 238.751 244.722 238.751L251.495 238.332C251.704 238.332 251.844 238.122 251.844 237.983C251.774 237.843 251.704 237.285 251.774 236.935Z" fill="white"/>
<path d="M247.304 241.333C247.723 241.613 247.723 242.032 247.444 242.451C246.955 243.009 246.536 243.987 246.536 243.987C246.466 244.126 246.536 244.266 246.746 244.196L251.982 242.73C252.192 242.66 252.262 242.451 252.262 242.311L251.912 239.937C251.912 239.728 251.703 239.588 251.494 239.588L245.978 240.007C245.768 240.007 245.768 240.146 245.908 240.216C245.908 240.286 246.746 240.914 247.304 241.333Z" fill="white"/>
<path d="M236.273 246.71C237.111 246.152 237.669 245.034 238.228 244.197C238.577 243.638 238.996 243.149 239.345 242.591C238.786 242.242 238.228 241.893 237.599 241.613C236.971 241.334 236.343 241.055 235.784 240.706C235.644 240.636 235.086 240.496 234.946 240.496C234.039 240.566 233.131 240.566 232.293 240.636C231.246 240.636 229.779 242.102 230.198 243.638C230.547 244.616 230.687 245.104 230.966 245.733C231.665 247.478 233.55 247.757 234.388 247.478C234.807 247.339 235.156 247.269 235.575 247.129C235.714 247.059 236.133 246.78 236.273 246.71Z" fill="white"/>
<path d="M243.675 240.356C243.536 240.287 243.536 240.287 243.536 240.287C243.466 240.217 243.257 240.077 243.047 240.147C243.047 240.147 241.302 240.217 240.254 240.217C239.556 240.217 238.439 240.287 238.439 240.287C238.229 240.287 238.16 240.356 238.299 240.356C238.299 240.356 238.299 240.356 238.369 240.426C239.207 240.845 239.975 241.404 240.743 241.823C241.092 241.962 241.162 242.451 241.022 242.8C240.324 243.847 238.858 246.082 238.858 246.082C238.718 246.221 238.788 246.361 238.997 246.291L244.374 244.895C244.583 244.825 244.723 244.755 244.723 244.685C244.723 244.685 244.723 244.685 244.793 244.616C245.281 243.778 245.98 242.451 245.98 242.451C246.049 242.311 246.049 242.032 245.91 241.892C245.77 241.892 244.513 240.845 243.675 240.356Z" fill="white"/>
<path d="M249.959 246.99C250.308 247.129 250.377 247.618 250.238 247.967C249.889 248.665 249.4 249.713 249.4 249.713C249.33 249.922 249.4 249.992 249.54 249.852L253.519 247.758C253.659 247.688 253.799 247.409 253.729 247.269L252.821 244.406C252.751 244.197 252.612 244.127 252.402 244.127L247.794 245.384C247.585 245.454 247.585 245.523 247.724 245.663C247.724 245.663 249.121 246.571 249.959 246.99Z" fill="white"/>
<path d="M240.463 253.623C241.301 252.506 241.859 251.109 242.557 249.852C241.231 249.294 240.044 248.526 238.717 248.037C238.577 247.967 238.228 247.897 238.089 247.897C237.67 248.037 237.181 248.107 236.762 248.247C234.318 248.945 233.76 251.319 234.388 252.226C234.668 252.645 234.947 252.994 235.226 253.413C235.715 254.112 237.181 255.229 238.857 254.6C239.555 254.391 239.834 254.181 240.183 254.042C240.183 254.042 240.393 253.762 240.463 253.623Z" fill="white"/>
<path d="M245.629 246.082C245.559 246.012 245.42 246.082 245.21 246.082L240.811 247.199C240.602 247.269 240.602 247.339 240.811 247.478C240.811 247.478 242.627 248.456 243.744 248.805C244.163 248.944 244.372 249.433 244.163 249.852C243.604 250.83 242.697 252.715 242.697 252.715C242.627 252.855 242.557 252.994 242.627 252.994C242.697 252.994 242.976 252.924 243.116 252.854L247.444 250.969C247.654 250.899 247.794 250.69 247.863 250.481L248.631 248.246C248.701 248.107 248.631 247.827 248.492 247.758C248.492 247.688 246.746 246.571 245.629 246.082Z" fill="white"/>
<path d="M252.821 259.209C253.24 259.279 253.379 259.698 253.31 260.047C253.17 260.885 253.1 262.141 253.1 262.141C253.1 262.351 253.17 262.351 253.31 262.281L258.895 256.975C259.035 256.835 259.035 256.625 258.895 256.486C258.895 256.486 258.756 256.276 258.546 255.997C258.057 255.369 257.429 254.321 257.429 254.321C257.359 254.182 257.08 254.112 256.94 254.182L249.33 258.929C249.19 258.999 249.19 259.139 249.4 259.139C249.4 259.069 251.564 259.069 252.821 259.209Z" fill="white"/>
<path d="M251.635 262.699C251.704 261.931 251.774 261.233 251.844 260.465C250.587 260.395 249.331 260.465 248.074 260.325C247.794 260.325 246.747 260.465 246.538 260.604C246.189 260.814 245.839 261.023 245.49 261.233C244.792 261.652 243.675 262.699 244.583 263.397C245.351 264.026 246.189 264.584 247.096 265.073C248.632 266.051 249.749 265.422 250.168 265.073C250.448 264.794 250.727 264.584 251.006 264.305C251.286 264.165 251.635 263.048 251.635 262.699Z" fill="white"/>
<path d="M258.338 265.422C258.338 264.445 258.338 263.397 258.198 262.42C257.709 262.49 257.151 262.56 256.662 262.629C256.103 262.699 255.615 262.769 255.056 262.839C254.916 262.839 254.288 263.188 254.148 263.328C253.171 264.235 252.193 265.213 251.216 266.12C250.937 266.33 251.146 267.098 251.425 267.238C253.52 268.075 255.196 268.425 255.754 268.215C256.173 268.075 257.011 267.238 257.989 266.19C258.128 266.12 258.338 265.562 258.338 265.422Z" fill="white"/>
<path d="M262.458 260.325C262.318 260.185 260.363 258.021 260.363 258.021C260.224 257.881 260.014 257.881 259.875 258.021L256.593 261.093C256.453 261.233 256.453 261.302 256.593 261.302C256.593 261.302 256.593 261.302 256.733 261.302C257.431 261.232 258.129 261.023 258.897 261.023C259.176 261.023 259.525 261.233 259.595 261.512C259.735 262.489 259.805 264.025 259.805 264.025C259.805 264.235 259.944 264.235 260.014 264.095C260.014 264.095 261.83 261.931 262.039 261.651C262.458 261.093 262.667 260.534 262.458 260.325Z" fill="white"/>
<path d="M251.914 251.039C252.472 251.179 253.031 251.318 253.45 251.737C253.869 252.086 253.729 252.785 253.589 253.273C253.45 253.762 253.45 254.39 253.45 254.39C253.45 254.6 253.589 254.67 253.729 254.53L256.312 252.924C256.452 252.854 256.522 252.575 256.452 252.435L254.776 249.084C254.707 248.944 254.497 248.875 254.288 248.944L251.146 250.62C251.006 250.69 251.006 250.83 251.146 250.899C251.216 250.83 251.565 250.899 251.914 251.039Z" fill="white"/>
<path d="M245.141 259.905C246.468 259.137 246.468 256.903 246.887 255.367C245.63 254.878 243.186 254.25 242.907 254.459C242.139 254.809 241.441 255.088 240.673 255.437C238.648 256.205 239.067 258.369 239.765 259.137C240.044 259.417 240.254 259.626 240.533 259.905C241.93 261.302 243.745 261.023 244.304 260.604C244.513 260.255 244.792 260.115 245.141 259.905C243.815 260.673 245.141 259.905 245.141 259.905Z" fill="white"/>
<path d="M249.469 251.668C249.259 251.598 248.98 251.668 248.841 251.737L245.419 253.273C245.21 253.343 245.28 253.483 245.419 253.483C245.419 253.483 247.095 253.832 248.073 254.251C248.352 254.391 248.491 254.74 248.422 255.019C248.073 256.136 247.584 258.021 247.584 258.021C247.514 258.231 247.654 258.301 247.793 258.161L251.773 255.647C251.913 255.578 252.052 255.438 252.052 255.368V255.298C252.052 254.67 252.052 254.111 252.122 253.483C252.192 253.204 252.192 253.064 252.192 253.064C252.262 252.855 252.262 252.715 252.262 252.645C252.262 252.575 252.122 252.436 251.982 252.366L249.469 251.668Z" fill="white"/>
<path d="M213.092 193.995C213.232 194.135 213.511 194.274 213.721 194.274L219.306 194.484C219.516 194.484 219.656 194.274 219.586 194.135C219.586 194.135 218.748 187.572 218.818 184.15C218.818 183.941 218.608 182.963 218.469 182.754C217.701 181.846 216.514 180.31 215.676 178.565C214.419 175.842 211.975 169.697 211.486 168.51C210.998 167.323 210.509 167.114 210.369 168.51C210.23 169.907 209.811 175.702 210.09 179.402C210.369 183.173 211.347 190.364 212.394 193.157C212.534 193.437 213.092 193.995 213.092 193.995Z" fill="white"/>
<path d="M226.359 197.346C226.219 197.206 226.08 196.927 225.94 196.787L220.703 187.431C220.633 187.292 220.564 187.292 220.564 187.501C220.564 187.501 221.052 192.528 221.332 195.181C221.402 195.531 221.052 195.88 220.703 196.019C218.399 196.648 214.14 196.229 214.14 196.229C213.931 196.229 213.791 196.229 213.791 196.229C213.791 196.229 213.931 196.368 214.07 196.508C214.21 196.648 214.419 197.206 214.559 197.346L220.354 203.979C220.494 204.119 220.703 204.328 220.843 204.468L227.057 209.285C227.197 209.425 227.406 209.355 227.476 209.146L230.059 203.63C230.129 203.49 230.129 203.211 229.989 203.001L226.359 197.346Z" fill="white"/>
<path d="M220.424 181.358C220.494 181.567 220.633 181.846 220.703 181.986L220.982 182.335C221.122 182.475 221.331 182.684 221.541 182.754L226.289 185.337C226.428 185.407 226.638 185.337 226.708 185.198L229.78 178.635C229.85 178.495 229.989 178.146 230.059 178.006L230.199 177.378C230.199 177.168 230.269 176.889 230.269 176.68V175.353C230.269 175.144 230.199 174.864 230.129 174.655C230.129 174.655 229.501 172.63 229.012 171.094C227.266 165.508 226.708 160.062 226.359 156.781C225.94 153.499 224.753 155.524 224.404 156.362C224.124 157.2 222.798 160.481 221.82 164.601C220.843 168.58 220.145 179.542 220.145 179.542C220.145 179.752 220.145 180.031 220.214 180.241L220.424 181.358Z" fill="white"/>
<path d="M232.155 189.596C231.526 187.85 231.038 186.105 230.758 184.22C230.619 183.172 230.479 181.427 230.479 181.427C230.479 181.217 230.34 181.217 230.27 181.357C230.27 181.357 228.454 184.778 227.896 186.873C227.756 187.292 227.267 187.571 226.848 187.432C224.824 186.803 221.542 184.639 221.542 184.639C221.402 184.499 221.333 184.569 221.402 184.778L226.36 194.483C226.43 194.623 226.639 194.902 226.709 195.042L230.968 201.186C231.108 201.326 231.247 201.326 231.317 201.186L234.389 196.369C234.529 196.229 234.529 195.95 234.459 195.74C234.599 195.81 232.923 191.76 232.155 189.596Z" fill="white"/>
<path d="M232.084 176.33L232.154 176.4V176.47C232.154 176.54 232.294 176.679 232.364 176.819L235.157 180.45C235.296 180.589 235.436 180.589 235.576 180.45L238.927 175.492C239.067 175.353 239.206 175.073 239.276 174.864C239.276 174.864 239.555 174.096 239.625 173.747C239.904 169.557 240.463 161.109 240.672 157.199C240.952 152.032 239.695 154.476 239.136 155.314C238.578 156.152 237.042 158.665 235.087 162.296C233.132 165.927 232.434 171.163 231.875 175.213V175.283C231.875 175.353 231.875 175.562 231.945 175.702C231.945 175.841 232.015 176.19 232.084 176.33Z" fill="white"/>
<path d="M239.415 178.146C239.415 177.936 239.345 177.936 239.205 178.076C239.205 178.076 237.32 180.799 236.343 182.335C236.133 182.754 235.575 182.894 235.225 182.614C234.038 181.916 232.223 179.542 232.223 179.542C232.083 179.402 232.014 179.402 232.014 179.612C232.014 179.612 232.363 183.871 232.921 186.105C233.62 189.038 235.784 194.205 235.784 194.205C235.854 194.414 235.993 194.414 236.133 194.274C236.133 194.274 237.879 192.04 238.228 191.761C239.554 190.574 239.554 189.038 239.485 187.292C239.345 185.756 239.415 178.146 239.415 178.146Z" fill="white"/>
<path d="M206.111 219.479C206.32 219.479 206.6 219.549 206.809 219.479L212.395 218.781C212.604 218.781 212.674 218.641 212.604 218.432L207.996 209.355C207.926 209.216 207.717 208.936 207.647 208.797C207.647 208.797 207.368 208.448 207.228 208.378C206.32 207.819 205.413 207.121 204.784 206.562C202.969 205.026 200.176 202.233 197.313 199.231C194.451 196.229 197.034 204.049 198.361 207.261C199.687 210.542 202.55 215.918 203.527 217.175C203.667 217.385 203.807 217.594 203.807 217.594C203.946 217.734 204.156 218.013 204.295 218.153L205.343 219.13C205.482 219.27 205.762 219.409 205.901 219.479H206.111Z" fill="white"/>
<path d="M224.962 221.434C224.962 221.225 224.823 221.015 224.683 220.945C224.683 220.945 218.399 217.524 215.397 215.15C213.651 213.754 210.719 210.961 210.719 210.961C210.579 210.821 210.509 210.891 210.649 211.031C210.649 211.031 213.163 216.337 214.768 218.99C215.048 219.409 214.768 220.107 214.28 220.247C212.115 220.736 208.066 221.015 208.066 221.015C207.856 221.015 207.856 221.155 207.996 221.225C207.996 221.225 213.232 224.367 216.025 225.484C218.748 226.531 224.753 228.277 224.753 228.277C224.962 228.346 225.102 228.207 225.102 227.997L224.962 221.434Z" fill="white"/>
<path d="M208.065 223.32C207.995 223.18 207.786 222.901 207.646 222.831L202.06 218.153C201.921 218.013 201.641 217.804 201.502 217.734C201.502 217.734 198.918 216.128 197.033 215.081C193.961 213.335 194.869 215.151 195.497 216.617C196.056 218.083 197.313 220.806 199.198 224.297C200.873 227.439 208.484 232.606 208.484 232.606C208.624 232.746 208.903 232.815 209.112 232.815C209.322 232.815 209.671 232.676 209.811 232.536L211.766 231C211.905 230.86 211.975 230.651 211.905 230.441L208.065 223.32Z" fill="white"/>
<path d="M225.383 230.651C225.383 230.442 225.173 230.232 225.034 230.232C225.034 230.232 221.822 229.185 220.146 228.626C217.842 227.858 215.468 227.09 213.234 225.973C212.396 225.554 211 224.786 211 224.786C210.86 224.716 210.72 224.786 210.86 224.926C210.86 224.926 212.536 228.696 213.932 230.442C214.211 230.791 214.281 231.489 213.792 231.768C212.605 232.257 211 233.723 211 233.723C210.86 233.863 210.72 233.933 210.79 234.003C210.79 234.003 211 234.072 211.139 234.142L219.588 236.307C219.797 236.376 220.076 236.376 220.286 236.446L226.221 237.075C226.43 237.075 226.57 236.935 226.5 236.726L225.383 230.651Z" fill="white"/>
<path d="M211.486 244.127C211.625 244.057 211.905 243.847 211.975 243.708L214.069 241.404C214.209 241.264 214.209 241.055 214.069 240.915C214.069 240.915 210.508 237.703 208.972 235.539C208.902 235.399 208.274 235.19 207.995 235.19C206.459 235.12 202.13 235.399 200.105 235.609C198.15 235.818 197.731 236.516 198.22 237.145C198.778 237.703 199.895 238.89 201.711 240.287C203.247 241.474 210.369 244.197 210.369 244.197C210.578 244.266 210.857 244.266 210.997 244.197L211.486 244.127Z" fill="white"/>
<path d="M226.917 239.1C226.848 238.89 226.638 238.75 226.499 238.75L221.192 238.262C220.983 238.262 220.703 238.192 220.494 238.122L211.976 236.167C211.766 236.097 211.766 236.167 211.906 236.307C211.906 236.307 214.908 239.03 216.235 240.775C216.444 241.055 216.374 241.543 216.095 241.823C214.908 242.73 213.232 244.755 213.232 244.755C213.093 244.895 213.023 245.034 213.093 245.034C213.163 245.034 213.442 245.104 213.651 245.104C213.651 245.104 218.469 244.965 220.494 244.825C223.147 244.615 227.965 243.778 227.965 243.778C228.174 243.778 228.244 243.568 228.174 243.359L226.917 239.1Z" fill="white"/>
<path d="M217.7 254.111C217.77 253.972 217.909 253.762 217.979 253.553L218.957 250.69C219.027 250.481 218.957 250.271 218.747 250.132C218.747 250.132 215.605 248.107 213.86 247.06C213.65 246.92 213.441 246.78 213.441 246.78C213.301 246.71 212.952 246.571 212.812 246.571L212.324 246.501C212.114 246.501 211.835 246.501 211.626 246.571C211.626 246.571 209.391 247.269 208.623 247.548C206.808 248.107 203.945 250.341 203.736 251.179C203.526 252.017 206.947 252.855 210.229 253.553C212.533 254.042 217.141 254.181 217.141 254.181C217.281 254.321 217.63 254.251 217.7 254.111Z" fill="white"/>
<path d="M220.495 249.363C220.774 249.572 221.053 249.921 220.844 250.34C220.355 251.527 219.727 253.692 219.727 253.692C219.657 253.901 219.796 253.971 219.936 253.901L225.801 251.876C226.01 251.806 226.29 251.667 226.429 251.597L230.549 249.921C230.758 249.851 230.828 249.642 230.688 249.502L228.943 245.662C228.873 245.453 228.664 245.383 228.454 245.383C228.454 245.383 221.612 246.5 217.911 246.64C217.422 246.64 216.794 246.64 216.794 246.64C216.585 246.64 216.585 246.709 216.724 246.849C216.794 246.919 219.168 248.385 220.495 249.363Z" fill="white"/>
<path d="M224.195 262.281C224.265 262.141 224.335 261.792 224.335 261.652L224.195 258.091C224.195 257.882 223.986 257.672 223.846 257.603L219.448 256.485C219.238 256.485 218.959 256.485 218.749 256.555C218.749 256.555 218.54 256.625 218.47 256.625C218.4 256.695 218.261 256.765 218.191 256.834C216.236 258.161 215.677 258.44 214.7 260.605C213.722 262.769 214.63 263.747 215.258 263.956C215.887 264.166 219.099 263.956 220.774 263.747C221.612 263.607 223.637 262.839 223.637 262.839C223.846 262.769 224.056 262.63 224.195 262.49C224.265 262.211 224.195 262.281 224.195 262.281Z" fill="white"/>
<path d="M232.014 251.528C231.874 251.389 231.665 251.319 231.525 251.389L228.034 252.785C227.825 252.855 227.546 252.995 227.406 253.064L222.239 254.95C222.03 255.019 222.03 255.089 222.239 255.159C222.239 255.159 224.404 255.787 225.521 256.556C225.87 256.835 225.94 257.114 225.94 257.533C225.73 258.86 226.079 261.164 226.079 261.164C226.079 261.373 226.289 261.443 226.428 261.303C226.428 261.303 228.244 259.907 229.221 258.999C230.827 257.533 234.039 254.95 234.039 254.95C234.179 254.81 234.248 254.601 234.109 254.461L232.014 251.528Z" fill="white"/>
<path d="M232.922 262.769C232.992 262.769 233.131 262.839 233.341 262.909L233.62 263.118C233.69 263.258 233.83 263.537 233.969 263.747C233.969 263.747 234.668 264.794 234.947 265.562C235.156 265.981 235.296 266.539 235.296 266.539C235.366 266.749 235.505 266.749 235.575 266.539L237.041 263.886C237.111 263.747 237.321 263.467 237.391 263.258L238.927 260.884C239.066 260.744 238.996 260.465 238.857 260.325L235.436 256.276C235.296 256.136 235.086 256.066 234.947 256.206C234.947 256.206 230.758 259.418 229.85 260.465C228.942 261.512 228.384 262.49 228.384 262.49C228.314 262.63 228.384 262.769 228.593 262.769C228.593 262.769 231.386 262.769 232.922 262.769Z" fill="white"/>
<path d="M233.899 267.586C233.759 266.888 233.55 266.19 233.131 265.561C232.851 265.143 232.572 264.724 232.572 264.724C232.502 264.584 232.223 264.444 232.014 264.444L228.662 264.514C228.453 264.514 228.173 264.584 228.034 264.654C228.034 264.654 227.824 264.724 227.824 264.933C227.685 265.631 227.475 266.539 227.336 267.447C227.126 268.634 227.126 269.821 227.056 270.658C226.847 272.474 228.243 271.636 229.151 271.217C230.059 270.798 232.153 269.541 233.061 268.983C233.27 268.843 233.41 268.773 233.41 268.773C233.55 268.634 233.759 268.424 233.829 268.215C233.829 268.145 233.969 267.796 233.899 267.586Z" fill="white"/>
<path d="M242.977 270.729C243.117 270.589 243.256 270.31 243.326 270.1L243.815 268.913C243.885 268.704 244.025 268.425 244.094 268.285L245.072 265.841C245.142 265.632 245.072 265.422 244.932 265.353C244.932 265.353 243.675 264.515 242.838 263.956C242.07 263.398 240.603 262.071 240.603 262.071C240.464 261.931 240.254 261.931 240.184 262.141L238.578 264.654C238.509 264.794 238.299 265.073 238.229 265.283L237.042 267.377C236.973 267.517 236.833 267.866 236.833 268.006C236.833 268.006 236.693 268.634 236.693 268.774C236.693 269.472 236.623 270.868 236.903 272.754C237.182 274.639 238.02 273.871 238.928 273.312C239.765 272.823 241.581 271.916 242.628 271.287C242.698 271.148 242.977 270.729 242.977 270.729Z" fill="white"/>
<path d="M250.517 268.215C249.819 267.936 246.956 266.47 246.956 266.47C246.817 266.4 246.607 266.47 246.538 266.609L245.77 268.495C245.7 268.704 245.56 268.983 245.49 269.123L244.862 270.729C244.792 270.938 244.722 271.218 244.652 271.427C244.652 271.427 244.652 271.637 244.652 271.706C244.862 272.265 245.56 273.731 246.049 274.709C246.538 275.686 246.747 275.337 247.375 274.988C248.004 274.639 249.889 273.033 250.448 272.544C251.006 272.055 253.171 270.31 253.38 269.751C253.589 269.193 251.704 268.704 250.517 268.215Z" fill="white"/>
<path d="M209.043 206.353C209.113 206.493 209.252 206.702 209.392 206.772C209.532 206.842 209.881 206.912 210.09 206.912L214.559 206.772C214.768 206.772 214.908 206.563 214.838 206.423C214.838 206.423 214.21 203.002 213.512 201.117C213.162 200.069 212.813 198.394 212.813 198.394C212.813 198.184 212.674 197.905 212.604 197.695L211.557 195.321C211.487 195.182 211.277 194.903 211.138 194.763C211.138 194.763 210.858 194.484 210.509 194.135C208.764 192.11 206.529 189.596 203.318 185.407C200.036 181.148 201.851 187.222 202.899 191.551C203.946 195.88 206.111 200.349 208.973 206.074C208.973 206.353 209.043 206.353 209.043 206.353Z" fill="white"/>
<path d="M220.843 206.423C220.704 206.284 220.425 206.074 220.285 205.934L215.188 200.698C215.048 200.558 215.048 200.558 215.118 200.768C215.118 200.768 215.467 201.675 215.677 202.304C216.165 203.91 216.375 205.585 216.654 207.191C216.724 207.61 216.515 208.099 216.096 208.239C214.35 208.658 211.208 208.658 211.208 208.658C210.999 208.658 210.999 208.797 211.138 208.937C211.138 208.937 215.048 212.777 217.352 214.522C219.866 216.408 224.823 219.131 224.823 219.131C224.963 219.201 225.172 219.131 225.172 218.921C225.172 218.921 225.172 218.921 225.172 218.712C225.452 216.128 226.848 211.311 226.848 211.311C226.918 211.101 226.848 210.892 226.639 210.752L220.843 206.423Z" fill="white"/>
<path d="M289.338 224.577C289.338 224.577 292.131 223.809 294.435 225.205C296.669 226.602 296.949 227.579 297.228 228.766C297.437 229.674 296.949 230.372 296.949 230.372C296.949 230.372 293.458 230.093 292.131 229.115C290.804 228.138 289.967 227.16 289.548 226.253C289.199 225.275 289.338 224.577 289.338 224.577Z" fill="white"/>
<path d="M296.111 226.462C296.111 227.718 295.134 228.696 293.877 228.696C292.62 228.696 291.643 227.718 291.643 226.462C291.643 225.484 292.271 224.646 293.179 224.367C293.388 224.297 296.111 226.252 296.111 226.462Z" fill="white"/>
<path d="M297.786 228.347C297.437 226.951 295.691 224.367 292.48 223.949C289.268 223.53 288.988 223.669 287.941 223.32C286.894 222.971 283.403 220.457 283.124 220.178C282.774 219.899 282.635 221.156 282.635 221.156C282.635 221.156 287.592 224.228 287.941 224.507C288.151 224.647 289.128 227.789 291.642 229.325C294.016 230.791 297.856 230.721 297.856 230.721C297.995 230.582 298.205 229.744 297.786 228.347ZM292.34 228.627C289.617 226.951 289.547 224.647 289.547 224.647C289.547 224.647 292.34 224.228 294.644 225.694C296.948 227.16 296.948 229.464 296.948 229.464C296.948 229.464 295.063 230.302 292.34 228.627Z" fill="white"/>
<path d="M77.64 311.015V294.397C77.64 293.21 77.221 292.582 76.3133 292.582C75.6151 292.582 74.9868 292.861 74.498 293.35C74.0093 293.839 73.7998 294.467 73.7998 295.165V300.332H62V286.438H107.942V300.332H96.2124V295.165C96.2124 294.257 95.7934 293.559 94.9556 293.071C94.397 292.791 93.9083 292.652 93.4893 292.652C92.5816 292.652 92.1627 293.21 92.1627 294.327L92.2326 310.875C92.2326 311.852 92.7911 312.69 93.9083 313.388C94.8858 314.017 95.8633 314.296 96.8408 314.296V320.091H73.6601V314.296C74.5678 314.296 75.4057 313.947 76.3133 313.249C77.1512 312.62 77.64 311.852 77.64 311.015Z" fill="white"/>
<path d="M136.429 321.069C130.354 321.069 125.187 319.743 120.859 317.02C115.762 313.878 113.248 309.409 113.248 303.684C113.248 297.4 115.552 292.792 120.23 289.72C124.14 287.136 129.447 285.81 136.01 285.81C142.503 285.81 147.809 287.066 151.789 289.65C156.677 292.722 159.121 297.33 159.121 303.405C159.121 309.13 156.677 313.598 151.789 316.88C147.6 319.673 142.433 321.069 136.429 321.069ZM136.429 292.303C134.334 292.303 132.798 293.699 131.611 296.562C130.773 298.657 130.354 300.961 130.354 303.474C130.354 310.806 132.309 314.506 136.149 314.506C139.99 314.506 141.945 310.806 141.945 303.405C141.945 300.961 141.595 298.657 140.897 296.632C139.85 293.699 138.384 292.303 136.429 292.303Z" fill="white"/>
<path d="M183.349 306.547V311.155C183.349 311.923 183.698 312.691 184.396 313.459C184.745 313.808 186.002 314.087 188.027 314.087V320.231H164.497V314.436C165.544 314.436 166.382 314.087 167.15 313.459C167.848 312.83 168.198 311.993 168.198 310.945V296.004C168.198 294.956 167.848 294.118 167.08 293.49C166.312 292.862 165.405 292.582 164.357 292.582V286.508H199.268C202.061 286.508 204.505 287.346 206.529 288.952C208.694 290.767 209.811 293.001 209.811 295.724C209.811 298.587 208.833 300.961 206.948 302.916C205.063 304.871 202.689 305.848 199.896 305.848H184.536C183.768 305.779 183.349 306.058 183.349 306.547ZM191.099 298.936C192.565 298.936 193.333 297.889 193.333 295.864C193.333 295.096 193.124 294.467 192.635 293.839C192.146 293.28 191.588 293.001 190.959 293.001H183.977C183.209 293.001 182.86 293.35 182.86 293.979V297.958C182.86 298.587 183.209 298.866 183.907 298.866H191.099V298.936Z" fill="white"/>
<path d="M329.135 286.508H335.139V300.822H323.968L323.2 297.191C322.641 294.538 320.826 293.211 317.684 293.211C316.148 293.211 314.891 293.84 313.984 295.166C313.146 296.353 312.797 297.68 312.797 299.355V308.642C312.797 310.038 313.355 311.155 314.402 312.063C315.45 312.971 316.707 313.459 318.173 313.459C319.569 313.459 320.686 313.11 321.664 312.342C322.641 311.574 323.2 310.597 323.409 309.34L324.038 305.151H335.139L334.93 308.781C334.371 316.95 328.297 321.07 316.567 321.07C310.911 321.07 306.094 319.604 302.044 316.601C297.576 313.32 295.271 308.921 295.271 303.475C295.271 298.099 297.645 293.77 302.323 290.488C306.513 287.556 311.4 286.159 316.986 286.159C319.36 286.159 321.943 286.718 324.596 287.765C324.666 287.765 325.015 287.975 325.644 288.324C325.993 288.533 326.412 288.673 326.761 288.673C327.319 288.673 327.808 288.463 328.227 288.044C328.297 287.625 328.646 287.206 329.135 286.508Z" fill="white"/>
<path d="M358.599 310.177C357.342 310.177 356.644 310.945 356.644 312.412C356.644 313.319 357.133 313.808 358.18 313.948L360.275 314.227L360.344 320.162H340.794L340.725 313.948C341.074 313.948 341.423 313.948 341.772 313.948C343.587 313.948 344.914 312.9 345.822 310.736L356.295 286.508H371.027L381.5 310.596C382.478 312.83 384.223 313.948 386.737 313.948V320.162H363.696V314.087L365.79 313.808C366.768 313.668 367.257 313.18 367.257 312.272C367.257 310.806 366.559 310.107 365.232 310.107H358.599V310.177ZM361.601 298.936L359.437 304.871H363.766L361.601 298.936Z" fill="white"/>
<path d="M408.033 311.015V294.397C408.033 293.21 407.614 292.582 406.706 292.582C406.008 292.582 405.379 292.861 404.891 293.35C404.402 293.839 404.192 294.467 404.192 295.165V300.332H392.393V286.438H438.335V300.332H426.675V295.165C426.675 294.257 426.256 293.559 425.418 293.071C424.859 292.791 424.371 292.652 423.952 292.652C423.044 292.652 422.625 293.21 422.625 294.327L422.695 310.875C422.695 311.852 423.254 312.69 424.371 313.388C425.348 314.017 426.326 314.296 427.303 314.296V320.091H404.123V314.296C405.03 314.296 405.868 313.947 406.776 313.249C407.544 312.62 408.033 311.852 408.033 311.015Z" fill="white"/>
</svg>
