<svg width="1089" height="125" viewBox="0 0 1089 125" fill="none" xmlns="http://www.w3.org/2000/svg">
<path d="M452.364 28.8461C453.869 26.3697 454.633 23.5096 454.565 20.6077C454.65 17.5931 453.853 14.6198 452.273 12.0577C450.639 9.57464 448.32 7.62572 445.601 6.44998C442.376 5.08072 438.899 4.41608 435.399 4.49998H415.568V48.0807H427.811V36.5423H434.482L442.323 48.0807H455.414L446.094 34.3961C448.67 33.1897 450.846 31.2632 452.364 28.8461ZM440.282 25.3846C438.647 26.5973 436.635 27.1824 434.608 27.0346H427.811V14.3423H434.608C436.627 14.1631 438.642 14.7245 440.282 15.9231C440.934 16.5171 441.445 17.2503 441.778 18.0688C442.111 18.8874 442.258 19.7706 442.208 20.6538C442.27 21.5383 442.128 22.4252 441.794 23.2457C441.46 24.0661 440.943 24.798 440.282 25.3846Z" fill="#A9A5A5"/>
<path d="M473.409 30.6H492.621V21.3923H473.409V14.0538H495.212V4.54614H461.293V48.0808H496.014V38.5615H473.409V30.6Z" fill="#A9A5A5"/>
<path d="M529.165 23.85C526.495 22.8841 523.76 22.1129 520.98 21.5423C518.808 21.1416 516.677 20.535 514.618 19.7308C514.057 19.5612 513.564 19.2179 513.208 18.7498C512.852 18.2816 512.651 17.7124 512.635 17.1231C512.64 16.5449 512.798 15.9786 513.092 15.4819C513.386 14.9852 513.806 14.576 514.309 14.2962C515.945 13.4651 517.777 13.1019 519.605 13.2462C523.813 13.3414 527.931 14.4957 531.583 16.6039L535.355 7.46539C533.093 6.1438 530.641 5.18243 528.087 4.61539C525.332 3.96994 522.513 3.64473 519.685 3.64616C516.082 3.55033 512.498 4.19419 509.15 5.53847C506.558 6.56359 504.316 8.32303 502.697 10.6039C501.259 12.7193 500.502 15.2291 500.53 17.7923C500.373 20.3999 501.191 22.9723 502.823 25.0039C504.359 26.7488 506.312 28.0711 508.497 28.8462C511.162 29.8022 513.889 30.5733 516.659 31.1539C518.863 31.5837 521.023 32.2172 523.112 33.0462C523.693 33.2375 524.199 33.6078 524.559 34.1049C524.919 34.6019 525.115 35.2003 525.118 35.8154C525.118 38.1769 522.772 39.3577 518.08 39.3577C515.523 39.3521 512.981 38.9632 510.537 38.2039C508.155 37.5014 505.889 36.4518 503.809 35.0885L499.785 44.1692C502.236 45.7898 504.953 46.9616 507.809 47.6308C511.136 48.5081 514.561 48.9464 518 48.9346C521.595 49.0322 525.172 48.3882 528.511 47.0423C531.103 45.9987 533.351 44.2436 534.999 41.9769C536.423 39.8896 537.175 37.4125 537.154 34.8808C537.303 32.2697 536.459 29.6994 534.793 27.6923C533.257 25.9681 531.324 24.6489 529.165 23.85Z" fill="#A9A5A5"/>
<path d="M572.759 6.49614C569.538 5.1268 566.064 4.46212 562.568 4.54614H542.795V48.0808H555.026V36.6923H562.568C566.064 36.7763 569.538 36.1116 572.759 34.7423C575.475 33.5782 577.793 31.6412 579.43 29.1692C581.038 26.6295 581.857 23.6645 581.78 20.6538C581.885 17.6507 581.077 14.6868 579.465 12.1574C577.854 9.62798 575.514 7.65315 572.759 6.49614ZM567.509 25.3846C565.857 26.6079 563.823 27.1934 561.778 27.0346H555.026V14.3423H561.823C563.873 14.1785 565.911 14.7735 567.555 16.0154C568.203 16.6115 568.711 17.3454 569.042 18.1636C569.373 18.9819 569.519 19.864 569.469 20.7461C569.507 21.6175 569.35 22.4862 569.011 23.2888C568.672 24.0913 568.159 24.8074 567.509 25.3846Z" fill="#A9A5A5"/>
<path d="M622.474 6.60001C618.647 4.6692 614.426 3.66382 610.145 3.66382C605.865 3.66382 601.644 4.6692 597.817 6.60001C594.234 8.46126 591.238 11.2919 589.167 14.7736C587.095 18.2553 586.03 22.2498 586.09 26.3077C586.03 30.3656 587.095 34.3601 589.164 37.8431C591.233 41.3262 594.226 44.1601 597.805 46.0269C601.635 47.9473 605.855 48.9468 610.134 48.9468C614.412 48.9468 618.633 47.9473 622.462 46.0269C626.056 44.1722 629.063 41.3427 631.144 37.8581C633.224 34.3735 634.295 30.3727 634.235 26.3077C634.298 22.2451 633.229 18.2459 631.151 14.7629C629.072 11.2799 626.066 8.45225 622.474 6.60001ZM620.273 32.8154C619.3 34.6366 617.849 36.1534 616.077 37.2C614.263 38.2143 612.221 38.7466 610.145 38.7466C608.07 38.7466 606.028 38.2143 604.213 37.2C602.436 36.157 600.98 34.6395 600.006 32.8154C598.952 30.8132 598.423 28.5732 598.47 26.3077C598.423 24.0459 598.952 21.8095 600.006 19.8115C600.977 17.9849 602.433 16.4666 604.213 15.4269C606.026 14.4052 608.068 13.8686 610.145 13.8686C612.223 13.8686 614.265 14.4052 616.077 15.4269C617.851 16.4702 619.304 17.9879 620.273 19.8115C621.331 21.8085 621.864 24.0449 621.82 26.3077C621.864 28.5742 621.331 30.8143 620.273 32.8154Z" fill="#A9A5A5"/>
<path d="M669.769 27.7385L650.672 4.54614H640.607V48.0808H652.586V24.8769L671.683 48.0808H681.759V4.54614H669.769V27.7385Z" fill="#A9A5A5"/>
<path d="M716.767 23.85C714.097 22.8857 711.362 22.1145 708.582 21.5423C706.41 21.1415 704.28 20.535 702.221 19.7307C701.66 19.5611 701.166 19.2179 700.81 18.7497C700.454 18.2816 700.254 17.7124 700.237 17.1231C700.246 16.5573 700.401 16.0036 700.686 15.5161C700.971 15.0286 701.378 14.6241 701.865 14.3423C703.5 13.4921 705.337 13.1127 707.173 13.2461C711.385 13.3395 715.507 14.4939 719.163 16.6038L722.934 7.46536C720.676 6.14486 718.228 5.18352 715.678 4.61536C712.923 3.9699 710.104 3.6447 707.276 3.64613C703.675 3.54296 700.09 4.17896 696.741 5.51536C694.148 6.54375 691.903 8.3023 690.276 10.5807C688.838 12.7049 688.082 15.222 688.11 17.7923C687.969 20.4074 688.807 22.9806 690.46 25.0038C691.996 26.7488 693.949 28.0711 696.134 28.8461C698.799 29.8022 701.526 30.5732 704.295 31.1538C706.499 31.5854 708.659 32.2188 710.749 33.0461C711.33 33.2374 711.836 33.6078 712.196 34.1048C712.556 34.6018 712.752 35.2003 712.755 35.8154C712.755 38.1769 710.409 39.3577 705.717 39.3577C703.16 39.3521 700.617 38.9632 698.174 38.2038C695.792 37.5014 693.525 36.4518 691.445 35.0884L687.422 44.1692C689.873 45.7897 692.59 46.9616 695.446 47.6307C698.772 48.5081 702.198 48.9464 705.636 48.9346C709.232 49.0321 712.809 48.3882 716.148 47.0423C718.739 45.9987 720.987 44.2436 722.636 41.9769C724.057 39.8928 724.809 37.4201 724.791 34.8923C724.93 32.2711 724.069 29.6955 722.384 27.6923C720.849 25.9718 718.921 24.653 716.767 23.85Z" fill="#A9A5A5"/>
<path d="M742.618 4.54614H730.387V48.0808H742.618V4.54614Z" fill="#A9A5A5"/>
<path d="M784.57 25.3846C786.336 24.5177 787.825 23.1707 788.869 21.4961C789.89 19.8253 790.414 17.8957 790.382 15.9346C790.42 14.2935 790.042 12.6697 789.284 11.2163C788.526 9.76281 787.413 8.52757 786.049 7.62691C783.176 5.58845 778.973 4.56537 773.44 4.55768H751.316V48.0807H774.678C780.448 48.0807 784.853 47.0423 787.895 44.9654C789.357 44.0245 790.55 42.7148 791.355 41.1664C792.159 39.6179 792.547 37.8845 792.48 36.1384C792.545 33.7341 791.807 31.3772 790.382 29.4461C788.885 27.545 786.863 26.1319 784.57 25.3846ZM763.444 13.4308H771.847C775.958 13.4308 778.017 14.8231 778.025 17.6077C778.033 20.3923 775.973 21.8 771.847 21.8308H763.444V13.4308ZM773.692 39.2308H763.444V30.3577H773.692C777.979 30.3577 780.123 31.8269 780.123 34.7654C780.123 37.7192 777.979 39.2308 773.692 39.2308Z" fill="#A9A5A5"/>
<path d="M811.073 4.54614H798.842V48.0808H811.073V4.54614Z" fill="#A9A5A5"/>
<path d="M832.028 4.54614H819.797V48.0808H852.661V38.3192H832.028V4.54614Z" fill="#A9A5A5"/>
<path d="M869.717 4.54614H857.486V48.0808H869.717V4.54614Z" fill="#A9A5A5"/>
<path d="M944.48 4.54614L934.221 21.8308L923.961 4.54614H913.094H911.054H874.35V14.3077H887.635V48.0808H899.866V14.3077H913.094V7.97307L927.549 32.2846V48.0808H939.78V32.4692L956.344 4.54614H944.48Z" fill="#A9A5A5"/>
<path d="M558.07 97.6244C557.531 97.4548 556.923 97.2964 556.361 97.1267L550.762 106.176C551.381 106.335 551.909 106.505 552.471 106.663L558.07 97.6244Z" fill="#6B6B6B"/>
<path d="M565.757 81.9231L560.617 90.2602C561.133 90.4864 561.661 90.7353 562.178 91.0068L564.472 87.3303L566.572 82.3303C566.296 82.1833 566.01 82.0588 565.757 81.9231Z" fill="#6B6B6B"/>
<path d="M556.371 88.7557C556.933 88.9027 557.518 89.0724 558.069 89.2534L563.289 80.7919C562.75 80.5883 562.2 80.396 561.626 80.215L556.371 88.7557Z" fill="#6B6B6B"/>
<path d="M543.487 104.536L549.074 95.4864C548.432 95.3167 547.927 95.1584 547.353 95L541.777 104.05C542.328 104.208 542.89 104.412 543.487 104.536Z" fill="#6B6B6B"/>
<path d="M551.633 88.0317C552.264 88.0317 552.906 88.1108 553.549 88.2013L558.907 79.5249C558.31 79.4004 557.76 79.276 557.117 79.1742L551.633 88.0317Z" fill="#6B6B6B"/>
<path d="M543.396 79.457C542.55 79.6607 541.719 79.9176 540.906 80.2263L531.877 94.9321C531.998 95.7078 532.21 96.4669 532.508 97.1946L543.396 79.457Z" fill="#6B6B6B"/>
<path d="M552.137 96.1765L551.839 96.1086L546.229 105.215L547.8 105.566H547.995L553.606 96.5158L552.137 96.1765Z" fill="#6B6B6B"/>
<path d="M546.941 78.8349L534.125 99.6493C534.523 100.076 534.944 100.48 535.387 100.86L549.052 78.6878C548.329 78.7217 547.652 78.767 546.941 78.8349Z" fill="#6B6B6B"/>
<path d="M560.686 98.5634L554.949 107.828C555.477 108.159 555.88 108.652 556.097 109.231L562.212 99.2873C561.719 99.0156 561.209 98.7738 560.686 98.5634Z" fill="#6B6B6B"/>
<path d="M536.029 83.009C533.994 84.7113 532.573 87.017 531.979 89.5814L536.029 83.009Z" fill="#6B6B6B"/>
<path d="M545.977 88.8236C546.74 88.4808 547.553 88.2593 548.386 88.1674L554.123 78.7783C553.48 78.7783 552.838 78.6765 552.184 78.6539L545.977 88.8236Z" fill="#6B6B6B"/>
<path d="M565.769 102.002C565.366 101.577 564.937 101.176 564.484 100.803L550.854 122.941C551.576 122.941 552.276 122.862 552.953 122.783L565.769 102.002Z" fill="#6B6B6B"/>
<path d="M568.098 106.674C567.957 105.898 567.73 105.139 567.421 104.412L556.498 122.172C557.347 121.957 558.182 121.693 558.999 121.38L568.098 106.674Z" fill="#6B6B6B"/>
<path d="M548.271 113.575C547.64 113.575 546.998 113.507 546.355 113.428L540.963 122.172C541.56 122.296 542.168 122.398 542.776 122.5L548.271 113.575Z" fill="#6B6B6B"/>
<path d="M566.169 116.176C567.094 114.853 567.741 113.361 568.073 111.787L563.84 118.665C564.73 117.946 565.514 117.109 566.169 116.176Z" fill="#6B6B6B"/>
<path d="M553.789 113.02C553.044 113.262 552.275 113.421 551.494 113.495L545.758 122.851C546.4 122.907 547.054 122.941 547.708 122.964L553.789 113.02Z" fill="#6B6B6B"/>
<path d="M535.203 109.57L534.94 109.412L533.941 111.674L535.203 109.57Z" fill="#6B6B6B"/>
<path d="M544.864 93.8914C544.595 93.7019 544.367 93.4611 544.194 93.1833C544.02 92.9054 543.905 92.5962 543.855 92.2737L537.613 102.455C538.117 102.731 538.639 102.977 539.174 103.19L544.864 93.8914Z" fill="#6B6B6B"/>
<path d="M539.163 111.561C538.612 111.346 538.084 111.109 537.568 110.871L532.428 119.231C532.91 119.491 533.426 119.751 533.965 119.989L539.163 111.561Z" fill="#6B6B6B"/>
<path d="M543.487 112.941C542.914 112.805 542.34 112.647 541.755 112.477L536.512 120.995C537.051 121.176 537.659 121.346 538.21 121.505L543.487 112.941Z" fill="#6B6B6B"/>
<path d="M592.398 89.1403C593.148 88.9255 593.916 88.7778 594.693 88.6991L600.636 79.0385C600.028 78.9367 599.42 78.8462 598.789 78.7783L592.398 89.1403Z" fill="#6B6B6B"/>
<path d="M597.812 88.7217C598.417 88.7996 599.015 88.9206 599.602 89.0837L605.075 80.2149C604.524 80.0113 603.962 79.8303 603.389 79.6719L597.812 88.7217Z" fill="#6B6B6B"/>
<path d="M602.139 90.1018C602.644 90.3751 603.131 90.6812 603.596 91.0181L609.034 82.1833C608.552 81.8779 608.059 81.6064 607.543 81.3462L602.139 90.1018Z" fill="#6B6B6B"/>
<path d="M590.23 79.095C589.456 79.2391 588.69 79.4241 587.935 79.6493L572.137 105.192C572.286 105.982 572.477 106.764 572.71 107.534L590.23 79.095Z" fill="#6B6B6B"/>
<path d="M611.236 83.7557L605.648 92.8055C605.889 93.0656 606.13 93.3145 606.371 93.5973L608.15 92.0023L612.544 84.8756C612.131 84.491 611.683 84.129 611.236 83.7557Z" fill="#6B6B6B"/>
<path d="M585.618 94.4344C586.122 93.5278 586.755 92.6973 587.499 91.9683L595.703 78.6199H595.553C594.899 78.6199 594.268 78.6199 593.649 78.6199L573.949 110.656C574.225 111.21 574.511 111.787 574.833 112.274L574.902 112.387L584.849 96.233C585.057 95.6147 585.314 95.0134 585.618 94.4344Z" fill="#6B6B6B"/>
<path d="M584.7 104.887C584.452 104.086 584.283 103.264 584.195 102.432L576.6 114.762C576.982 115.215 577.384 115.656 577.804 116.086L584.7 104.887Z" fill="#6B6B6B"/>
<path d="M583.713 81.267L583.334 81.448C582.347 81.9669 581.4 82.5567 580.5 83.2127L572.056 96.9231C571.852 98.1725 571.749 99.4359 571.746 100.701L583.713 81.267Z" fill="#6B6B6B"/>
<path d="M607.852 109.333L606.555 108.201L597.445 122.941C598.18 122.941 598.891 122.839 599.591 122.749L607.852 109.333Z" fill="#6B6B6B"/>
<path d="M611.19 112.33L609.894 111.199L603.205 122.048C604.074 121.807 604.929 121.516 605.764 121.176L611.19 112.33Z" fill="#6B6B6B"/>
<path d="M614.197 114.955L613.268 114.129L610.641 118.405C611.964 117.402 613.158 116.243 614.197 114.955Z" fill="#6B6B6B"/>
<path d="M590.745 111.878C590.451 111.762 590.164 111.63 589.885 111.482C589.655 111.357 589.449 111.199 589.231 111.063L583.494 120.283C584.01 120.543 584.538 120.781 585.066 121.007L590.745 111.878Z" fill="#6B6B6B"/>
<path d="M587.155 109.31C586.728 108.855 586.344 108.363 586.008 107.839L579.801 117.907C580.248 118.258 580.719 118.597 581.201 118.914L587.155 109.31Z" fill="#6B6B6B"/>
<path d="M595.266 112.953C594.638 112.92 594.013 112.844 593.396 112.726L587.717 121.934C588.29 122.104 588.864 122.24 589.461 122.376L595.266 112.953Z" fill="#6B6B6B"/>
<path d="M600.992 112.059C600.202 112.385 599.379 112.628 598.537 112.783L592.398 122.839C593.026 122.907 593.668 122.953 594.326 122.975L600.992 112.059Z" fill="#6B6B6B"/>
<path d="M621.07 79.4683H619.602V81.8439L621.07 79.4683Z" fill="#6B6B6B"/>
<path d="M626.245 79.4683H624.237L619.602 86.9796V90.2489L626.245 79.4683Z" fill="#6B6B6B"/>
<path d="M631.855 100.724L619.602 120.6V122.149H620.669L631.855 103.993V100.724Z" fill="#6B6B6B"/>
<path d="M631.419 79.4683H629.411L619.602 95.3846V98.6538L631.419 79.4683Z" fill="#6B6B6B"/>
<path d="M631.855 120.814V117.534L629.01 122.149H631.029L631.855 120.814Z" fill="#6B6B6B"/>
<path d="M631.854 112.398V109.129L623.834 122.149H625.842L631.854 112.398Z" fill="#6B6B6B"/>
<path d="M631.855 95.5883V92.319L619.602 112.195V115.464L631.855 95.5883Z" fill="#6B6B6B"/>
<path d="M631.855 87.1832V83.914L619.602 103.79V107.059L631.855 87.1832Z" fill="#6B6B6B"/>
<path d="M655.1 105.023H657.107L662.672 95.9955H660.653L655.1 105.023Z" fill="#6B6B6B"/>
<path d="M665.092 88.8009H667.1L672.848 79.4683H670.84L665.092 88.8009Z" fill="#6B6B6B"/>
<path d="M670.266 88.8009H672.285L674.522 85.1584V81.8892L670.266 88.8009Z" fill="#6B6B6B"/>
<path d="M654.732 88.8009H656.752L662.488 79.4683H660.481L654.732 88.8009Z" fill="#6B6B6B"/>
<path d="M659.906 88.8009H661.926L667.674 79.4683H665.654L659.906 88.8009Z" fill="#6B6B6B"/>
<path d="M671.918 105.023V102.919L670.633 105.023H671.918Z" fill="#6B6B6B"/>
<path d="M655.478 95.9955L640.574 120.192V122.149H641.377L657.497 95.9955H655.478Z" fill="#6B6B6B"/>
<path d="M667.846 95.9955H665.838L660.273 105.023H662.293L667.846 95.9955Z" fill="#6B6B6B"/>
<path d="M641.779 79.4683H640.574V81.4366L641.779 79.4683Z" fill="#6B6B6B"/>
<path d="M671.012 95.9955L665.459 105.023H667.467L671.918 97.7828V95.9955H671.012Z" fill="#6B6B6B"/>
<path d="M657.486 112.828H655.467L649.719 122.149H651.738L657.486 112.828Z" fill="#6B6B6B"/>
<path d="M673.019 112.828H671L665.252 122.149H667.271L673.019 112.828Z" fill="#6B6B6B"/>
<path d="M662.66 112.828H660.652L654.904 122.149H656.912L662.66 112.828Z" fill="#6B6B6B"/>
<path d="M667.834 112.828H665.826L660.078 122.149H662.097L667.834 112.828Z" fill="#6B6B6B"/>
<path d="M675.327 117.489V114.219L670.439 122.149H672.447L675.327 117.489Z" fill="#6B6B6B"/>
<path d="M652.139 79.4683H650.12L640.574 94.9774V98.2466L652.139 79.4683Z" fill="#6B6B6B"/>
<path d="M657.314 79.4683H655.306L640.574 103.382V106.652L657.314 79.4683Z" fill="#6B6B6B"/>
<path d="M646.965 79.4683H644.946L640.574 86.5724V89.8416L646.965 79.4683Z" fill="#6B6B6B"/>
<path d="M652.689 112.195V108.925L644.543 122.149H646.562L652.689 112.195Z" fill="#6B6B6B"/>
<path d="M652.69 95.3846V92.1154L640.574 111.787V115.057L652.69 95.3846Z" fill="#6B6B6B"/>
<path d="M688.384 79.4683H686.376L682.131 86.3575V89.6267L688.384 79.4683Z" fill="#6B6B6B"/>
<path d="M697.504 103.428L698.663 104.808L704.939 94.6267L703.78 93.2466L697.504 103.428Z" fill="#6B6B6B"/>
<path d="M711.318 80.9955V84.276L714.278 79.4683H712.259L711.318 80.9955Z" fill="#6B6B6B"/>
<path d="M694.521 99.8755L695.68 101.256L701.956 91.0633L700.797 89.6832L694.521 99.8755Z" fill="#6B6B6B"/>
<path d="M707.933 98.1787L706.762 96.7986L700.498 106.98L701.657 108.371L707.933 98.1787Z" fill="#6B6B6B"/>
<path d="M711.318 89.4118V92.681L719.453 79.4683H717.445L711.318 89.4118Z" fill="#6B6B6B"/>
<path d="M694.132 100.509L682.131 119.989V122.149H682.808L694.132 103.778V100.509Z" fill="#6B6B6B"/>
<path d="M723.32 103.552L712.443 121.21L713.235 122.149H713.878L723.32 106.833V103.552Z" fill="#6B6B6B"/>
<path d="M711.318 101.086L723.319 81.6063V79.4683H722.62L711.318 97.8167V101.086Z" fill="#6B6B6B"/>
<path d="M683.209 79.4683H682.131V81.2217L683.209 79.4683Z" fill="#6B6B6B"/>
<path d="M723.319 98.4163V95.1471L709.459 117.647L710.618 119.038L723.319 98.4163Z" fill="#6B6B6B"/>
<path d="M710.917 101.742L709.758 100.351L703.482 110.543L704.641 111.923L710.917 101.742Z" fill="#6B6B6B"/>
<path d="M723.319 90.0113V86.7421L706.465 114.095L707.635 115.475L723.319 90.0113Z" fill="#6B6B6B"/>
<path d="M723.318 120.373L722.217 122.149H723.318V120.373Z" fill="#6B6B6B"/>
<path d="M723.319 115.238V111.968L717.043 122.149H719.051L723.319 115.238Z" fill="#6B6B6B"/>
<path d="M698.962 87.5113L697.803 86.1312L682.131 111.572V114.842L698.962 87.5113Z" fill="#6B6B6B"/>
<path d="M695.979 83.9593L694.82 82.5679L682.131 103.167V106.437L695.979 83.9593Z" fill="#6B6B6B"/>
<path d="M694.131 120.588V117.319L691.148 122.149H693.168L694.131 120.588Z" fill="#6B6B6B"/>
<path d="M692.996 80.3959L692.216 79.4683H691.55L682.131 94.7624V98.0317L692.996 80.3959Z" fill="#6B6B6B"/>
<path d="M694.13 112.183V108.914L685.973 122.149H687.98L694.13 112.183Z" fill="#6B6B6B"/>
<path d="M763.487 80.3733L758.049 89.2081C758.602 89.3839 759.142 89.5955 759.667 89.8416L765.059 81.0973C764.795 80.9615 764.543 80.8145 764.256 80.69L763.487 80.3733Z" fill="#6B6B6B"/>
<path d="M761.949 91.2783C762.413 91.6268 762.854 92.0047 763.269 92.4095L768.822 83.3598C768.374 83.0091 767.892 82.6923 767.41 82.3869L761.949 91.2783Z" fill="#6B6B6B"/>
<path d="M745.083 79.8982C744.18 80.1892 743.295 80.533 742.433 80.9276L729.812 101.493C729.834 102.455 729.915 103.414 730.053 104.367L745.083 79.8982Z" fill="#6B6B6B"/>
<path d="M750.98 78.733C750.246 78.7896 749.512 78.8801 748.8 78.9932L730.891 108.077C731.121 108.753 731.385 109.418 731.682 110.068L750.98 78.733Z" fill="#6B6B6B"/>
<path d="M759.677 111.776L752.793 122.986H753.585C753.998 122.986 754.411 122.986 754.812 122.986L763.348 109.186C762.282 110.248 761.041 111.124 759.677 111.776Z" fill="#6B6B6B"/>
<path d="M737.259 84.1968C735.518 85.6695 734.027 87.4071 732.842 89.3439C731.706 91.2105 730.873 93.2412 730.375 95.362L737.259 84.1968Z" fill="#6B6B6B"/>
<path d="M743.638 107.183C743.333 106.621 743.076 106.034 742.869 105.43L736.123 116.391C736.536 116.799 736.972 117.195 737.42 117.523L743.718 107.285C743.718 107.285 743.661 107.229 743.638 107.183Z" fill="#6B6B6B"/>
<path d="M767.285 91.0294L771.76 87.0362L772.058 86.5385C771.679 86.0747 771.278 85.6448 770.911 85.2263L767.285 91.0294Z" fill="#6B6B6B"/>
<path d="M750.821 112.613C750.249 112.473 749.69 112.292 749.146 112.07L743.535 121.12C744.074 121.335 744.682 121.538 745.187 121.719L750.821 112.613Z" fill="#6B6B6B"/>
<path d="M767.492 110.781L766.195 109.649L758.164 122.692C758.944 122.579 759.713 122.432 760.459 122.251L767.492 110.781Z" fill="#6B6B6B"/>
<path d="M755.823 112.896C755.279 112.968 754.731 113.006 754.182 113.009H753.758L747.918 122.511C748.526 122.624 749.134 122.726 749.754 122.805L755.823 112.896Z" fill="#6B6B6B"/>
<path d="M770.829 113.756L769.533 112.624L764.496 120.826C765.562 120.344 766.587 119.776 767.559 119.129L770.829 113.756Z" fill="#6B6B6B"/>
<path d="M746.782 110.758C746.31 110.418 745.869 110.04 745.462 109.627L739.6 119.118C740.081 119.423 740.575 119.717 741.08 119.989L746.782 110.758Z" fill="#6B6B6B"/>
<path d="M746.598 90.9842C747.012 90.6704 747.449 90.3868 747.906 90.1357C748.448 89.8458 749.012 89.5963 749.592 89.3891L756.166 78.7217C755.524 78.7217 754.87 78.6425 754.204 78.6312L746.598 90.9842Z" fill="#6B6B6B"/>
<path d="M753.195 88.6652C753.528 88.6652 753.838 88.6652 754.182 88.6652C754.526 88.6652 754.87 88.6652 755.215 88.7217L760.848 79.5249C760.274 79.3778 759.701 79.2421 759.081 79.129L753.195 88.6652Z" fill="#6B6B6B"/>
<path d="M742.157 101.471C742.157 101.244 742.157 101.041 742.157 100.814C742.156 99.7769 742.264 98.742 742.479 97.7263L733.174 112.783C733.507 113.303 733.874 113.812 734.252 114.299L742.157 101.471Z" fill="#6B6B6B"/>
<path d="M794.545 88.8009H796.564L802.312 79.4683H800.293L794.545 88.8009Z" fill="#6B6B6B"/>
<path d="M786.777 79.4683H784.757L777.621 91.0633V94.3326L786.777 79.4683Z" fill="#6B6B6B"/>
<path d="M810.654 79.4683L804.906 88.8009H806.914L811.572 81.2443V79.4683H810.654Z" fill="#6B6B6B"/>
<path d="M781.591 79.4683H779.583L777.621 82.6584V85.9276L781.591 79.4683Z" fill="#6B6B6B"/>
<path d="M799.73 88.8009H801.738L807.486 79.4683H805.479L799.73 88.8009Z" fill="#6B6B6B"/>
<path d="M805.271 105.023H807.279L808.966 102.274V99.0158L805.271 105.023Z" fill="#6B6B6B"/>
<path d="M800.098 105.023H802.105L807.67 95.9955H805.651L800.098 105.023Z" fill="#6B6B6B"/>
<path d="M794.912 105.023H796.931L802.484 95.9955H800.477L794.912 105.023Z" fill="#6B6B6B"/>
<path d="M810.08 88.8009H811.572V86.3801L810.08 88.8009Z" fill="#6B6B6B"/>
<path d="M812.374 121.98V118.71L810.252 122.149H812.26L812.374 121.98Z" fill="#6B6B6B"/>
<path d="M797.299 112.828H795.291L789.543 122.149H791.551L797.299 112.828Z" fill="#6B6B6B"/>
<path d="M807.658 112.828H805.639L799.891 122.149H801.91L807.658 112.828Z" fill="#6B6B6B"/>
<path d="M802.473 112.828H800.465L794.717 122.149H796.725L802.473 112.828Z" fill="#6B6B6B"/>
<path d="M812.375 113.563V112.828H810.826L805.078 122.149H807.086L812.375 113.563Z" fill="#6B6B6B"/>
<path d="M792.135 95.9955H790.115L777.621 116.29V119.559L792.135 95.9955Z" fill="#6B6B6B"/>
<path d="M791.951 79.4683H789.943L777.621 99.4683V102.738L791.951 79.4683Z" fill="#6B6B6B"/>
<path d="M789.737 91.4706V88.8009H791.378L797.126 79.4683H795.118L777.621 107.885V111.143L789.737 91.4706Z" fill="#6B6B6B"/>
<path d="M789.737 108.281V105.023H791.745L797.309 95.9955H795.29L779.182 122.149H781.201L789.737 108.281Z" fill="#6B6B6B"/>
<path d="M792.125 112.828H790.106L784.357 122.149H786.377L792.125 112.828Z" fill="#6B6B6B"/>
<path d="M886.157 89.0385H872.889V79.5249H911.584V89.095H898.384V122.149H886.157V89.0385Z" fill="#A9A5A5"/>
<path d="M935.031 110.814H928.368V122.127H916.152V79.5249H935.901C939.393 79.4461 942.862 80.1016 946.078 81.448C948.83 82.579 951.167 84.5127 952.777 86.9909C954.387 89.4691 955.193 92.3737 955.088 95.3168C955.154 98.16 954.395 100.963 952.902 103.394C951.375 105.743 949.203 107.615 946.639 108.79L955.958 122.206H942.873L935.031 110.814ZM940.835 90.6335C939.195 89.4119 937.159 88.8246 935.111 88.9819H928.368V101.482H935.157C937.199 101.638 939.231 101.064 940.881 99.8643C941.529 99.288 942.038 98.5749 942.369 97.7778C942.7 96.9807 942.845 96.1202 942.793 95.2602C942.837 94.3935 942.683 93.5282 942.345 92.7276C942.006 91.927 941.49 91.2115 940.835 90.6335Z" fill="#A9A5A5"/>
<path d="M966.788 117.828C963.224 114.367 961.441 109.465 961.441 103.122V79.5249H973.668V102.76C973.668 109.593 976.404 113.009 981.877 113.009C987.349 113.009 990.062 109.593 990.017 102.76V79.5249H1002.05V103.122C1002.05 109.465 1000.27 114.367 996.714 117.828C993.157 121.29 988.17 123.017 981.751 123.009C975.332 123.009 970.344 121.282 966.788 117.828Z" fill="#A9A5A5"/>
<path d="M1015.32 121.731C1012.47 121.068 1009.76 119.92 1007.3 118.337L1011.32 109.434C1013.4 110.761 1015.67 111.785 1018.04 112.477C1020.48 113.227 1023.02 113.608 1025.58 113.609C1030.27 113.609 1032.61 112.477 1032.61 110.124C1032.6 109.521 1032.39 108.936 1032.03 108.453C1031.66 107.97 1031.15 107.613 1030.57 107.432C1028.49 106.613 1026.34 105.981 1024.15 105.543C1021.38 104.974 1018.66 104.218 1015.99 103.281C1013.83 102.498 1011.9 101.191 1010.38 99.4796C1008.73 97.4916 1007.9 94.9654 1008.04 92.3982C1008.01 89.8888 1008.76 87.4318 1010.2 85.362C1011.82 83.1249 1014.06 81.3967 1016.65 80.3846C1019.99 79.1078 1023.55 78.5077 1027.13 78.6199C1029.96 78.6203 1032.77 78.9352 1035.53 79.5588C1038.08 80.1156 1040.53 81.05 1042.81 82.3303L1039.04 91.3009C1035.41 89.2432 1031.32 88.1118 1027.13 88.009C1025.3 87.8762 1023.46 88.244 1021.82 89.0724C1021.32 89.3482 1020.9 89.75 1020.61 90.2369C1020.32 90.7237 1020.17 91.2782 1020.16 91.8439C1020.18 92.4217 1020.37 92.9804 1020.73 93.4412C1021.08 93.9019 1021.57 94.2414 1022.13 94.4118C1024.19 95.1901 1026.32 95.7808 1028.48 96.1765C1031.26 96.7369 1034 97.493 1036.67 98.4389C1038.82 99.2274 1040.75 100.525 1042.28 102.217C1043.94 104.186 1044.79 106.703 1044.66 109.265C1044.68 111.745 1043.93 114.172 1042.5 116.21C1040.86 118.438 1038.61 120.16 1036.02 121.176C1032.69 122.504 1029.12 123.139 1025.53 123.043C1022.08 123.04 1018.65 122.599 1015.32 121.731Z" fill="#A9A5A5"/>
<path d="M1058.82 89.0385H1045.55V79.5249H1084.25V89.095H1071.05V122.149H1058.82V89.0385Z" fill="#A9A5A5"/>
<path d="M6.02234 4.55768H4.88867V6.42691L6.02234 4.55768Z" fill="#6B6B6B"/>
<path d="M24.1172 14.0769H26.1326L31.8697 4.55768H29.8543L24.1172 14.0769Z" fill="#6B6B6B"/>
<path d="M18.9512 14.0769H20.9551L26.6922 4.55768H24.6882L18.9512 14.0769Z" fill="#6B6B6B"/>
<path d="M34.457 14.0769H36.461L38.7856 10.2346V6.90002L34.457 14.0769Z" fill="#6B6B6B"/>
<path d="M29.2812 14.0769H31.2967L37.0337 4.55768H35.0183L29.2812 14.0769Z" fill="#6B6B6B"/>
<path d="M19.3184 30.6231H21.3223L26.8762 21.4154H24.8608L19.3184 30.6231Z" fill="#6B6B6B"/>
<path d="M35.2003 21.4154L29.6465 30.6231H31.6619L36.1851 23.1116V21.4154H35.2003Z" fill="#6B6B6B"/>
<path d="M19.6951 21.4154L4.88867 45.9693V48.0923H5.62155L21.6991 21.4154H19.6951Z" fill="#6B6B6B"/>
<path d="M32.0402 21.4154H30.0363L24.4824 30.6231H26.4978L32.0402 21.4154Z" fill="#6B6B6B"/>
<path d="M36.185 30.6231V28.35L34.8223 30.6231H36.185Z" fill="#6B6B6B"/>
<path d="M26.8641 38.5846H24.8487L19.123 48.0923H21.127L26.8641 38.5846Z" fill="#6B6B6B"/>
<path d="M21.6997 38.5846H19.6843L13.9473 48.0923H15.9627L21.6997 38.5846Z" fill="#6B6B6B"/>
<path d="M32.0301 38.5846H30.0261L24.2891 48.0923H26.293L32.0301 38.5846Z" fill="#6B6B6B"/>
<path d="M37.2056 38.5846H35.1902L29.4531 48.0923H31.4685L37.2056 38.5846Z" fill="#6B6B6B"/>
<path d="M39.587 43.2V39.8654L34.6172 48.0923H36.6326L39.587 43.2Z" fill="#6B6B6B"/>
<path d="M21.5273 4.55768H19.5119L4.88867 28.8231V32.1577L21.5273 4.55768Z" fill="#6B6B6B"/>
<path d="M11.1868 4.55768H9.18288L4.88867 11.6654V15.0115L11.1868 4.55768Z" fill="#6B6B6B"/>
<path d="M16.3628 4.55768H14.3474L4.88867 20.25V23.5846L16.3628 4.55768Z" fill="#6B6B6B"/>
<path d="M16.9926 20.6538V17.3192L4.88867 37.3961V40.7308L16.9926 20.6538Z" fill="#6B6B6B"/>
<path d="M16.9937 37.8115V34.4769L8.7832 48.0923H10.7872L16.9937 37.8115Z" fill="#6B6B6B"/>
<path d="M56.912 5.87306L56.0074 4.55768H55.6982L49.4688 14.8846L50.5452 16.4308L56.912 5.87306Z" fill="#6B6B6B"/>
<path d="M59.6609 9.88844L58.5959 8.33075L52.252 18.8538L53.3284 20.4L59.6609 9.88844Z" fill="#6B6B6B"/>
<path d="M62.4209 13.8923L61.3445 12.3346L55.0234 22.8231L56.0999 24.3692L62.4209 13.8923Z" fill="#6B6B6B"/>
<path d="M52.5391 4.55768H50.5237L46.6875 10.9269L47.7754 12.4615L52.5391 4.55768Z" fill="#6B6B6B"/>
<path d="M81.5316 4.55768L55.2969 48.0923H55.5144L64.3319 34.6038L64.9159 35.4692L83.5471 4.55768H81.5316Z" fill="#6B6B6B"/>
<path d="M41.5566 48.0923H41.7971L43.1026 45.9346L41.5566 48.0923Z" fill="#6B6B6B"/>
<path d="M47.3743 4.55768H45.3589L43.916 6.95768L44.9924 8.50383L47.3743 4.55768Z" fill="#6B6B6B"/>
<path d="M78.3827 4.55768H76.3673L50.1211 48.0923H52.1365L78.3827 4.55768Z" fill="#6B6B6B"/>
<path d="M85.0818 44.8962L83.9825 43.3731L81.1426 48.0923H83.1465L85.0818 44.8962Z" fill="#6B6B6B"/>
<path d="M86.7895 47.2961L86.3086 48.0923H87.3621L86.7895 47.2961Z" fill="#6B6B6B"/>
<path d="M82.2764 40.9731L81.1886 39.4385L75.9668 48.0923H77.9822L82.2764 40.9731Z" fill="#6B6B6B"/>
<path d="M73.8723 29.1808L72.7844 27.6577L66.5664 37.9731L67.6199 39.5539L73.8723 29.1808Z" fill="#6B6B6B"/>
<path d="M73.2072 4.55768H73.1614L64.6417 17.1231L64.1035 16.3384L44.957 48.0923H46.9725L73.2072 4.55768Z" fill="#6B6B6B"/>
<path d="M76.6768 33.1154L75.5889 31.5808L69.2793 42.0462L70.3328 43.6385L76.6768 33.1154Z" fill="#6B6B6B"/>
<path d="M79.483 37.0385L78.3837 35.5154L71.9824 46.1308L73.0359 47.7231L79.483 37.0385Z" fill="#6B6B6B"/>
<path d="M93.8885 4.55768H91.8731L90.2012 7.33845V10.6731L93.8885 4.55768Z" fill="#6B6B6B"/>
<path d="M99.053 4.55768H97.049L90.2012 15.9115V19.2461L99.053 4.55768Z" fill="#6B6B6B"/>
<path d="M106.703 14.2616H108.707L114.353 4.90386C113.746 4.81156 113.127 4.71925 112.486 4.6731L106.703 14.2616Z" fill="#6B6B6B"/>
<path d="M104.217 4.55768H102.214L90.2012 24.4846V27.8192L104.217 4.55768Z" fill="#6B6B6B"/>
<path d="M102.42 16.1192V14.2615H103.542L109.393 4.55768H107.378L90.2012 33.0692V36.4038L102.42 16.1192Z" fill="#6B6B6B"/>
<path d="M105.512 36.7154L111.489 26.8038C110.786 26.9322 110.074 26.9978 109.359 27L103.508 36.7154H105.512Z" fill="#6B6B6B"/>
<path d="M121.384 7.15381L115.658 16.6961C116.073 17.2414 116.384 17.8596 116.574 18.5192L122.792 8.07689C122.34 7.74393 121.869 7.4358 121.384 7.15381Z" fill="#6B6B6B"/>
<path d="M111.719 14.5154C112.284 14.618 112.837 14.7804 113.368 15L118.796 5.97694C118.257 5.78078 117.65 5.59617 117.112 5.43463L111.719 14.5154Z" fill="#6B6B6B"/>
<path d="M124.887 9.80768L108.672 36.7154H109.932C110.183 36.7154 110.424 36.7154 110.676 36.7154L126.078 11.1692C125.715 10.6862 125.317 10.2311 124.887 9.80768Z" fill="#6B6B6B"/>
<path d="M128.471 15.7846C128.261 15.0819 128.001 14.3954 127.692 13.7308L114.02 36.4269C114.798 36.3115 115.543 36.1846 116.31 36.0115L128.471 15.7846Z" fill="#6B6B6B"/>
<path d="M128.907 23.6308C129.07 22.651 129.151 21.6589 129.147 20.6654C129.147 20.4231 129.147 20.1808 129.147 19.9269L120.238 34.7192C121.358 34.1989 122.418 33.5567 123.399 32.8039L128.907 23.6308Z" fill="#6B6B6B"/>
<path d="M102.42 41.85V38.5154L96.6484 48.0923H98.6524L102.42 41.85Z" fill="#6B6B6B"/>
<path d="M106.199 27.0115H104.184L91.4727 48.0923H93.4881L106.199 27.0115Z" fill="#6B6B6B"/>
<path d="M102.419 47.0885L101.812 48.0923H102.419V47.0885Z" fill="#6B6B6B"/>
<path d="M102.42 24.6923V21.3577L90.2012 41.6423V44.9769L102.42 24.6923Z" fill="#6B6B6B"/>
<path d="M153.332 14.0769H155.336L161.073 4.55768H159.069L153.332 14.0769Z" fill="#6B6B6B"/>
<path d="M158.496 14.0769H160.512L166.249 4.55768H164.233L158.496 14.0769Z" fill="#6B6B6B"/>
<path d="M163.66 14.0769H165.676L168.962 8.61922V5.28461L163.66 14.0769Z" fill="#6B6B6B"/>
<path d="M148.156 14.0769H150.172L155.909 4.55768H153.893L148.156 14.0769Z" fill="#6B6B6B"/>
<path d="M135.227 4.55768H135.078V4.82306L135.227 4.55768Z" fill="#6B6B6B"/>
<path d="M164.027 30.6231H166.043L166.363 30.0808V26.7462L164.027 30.6231Z" fill="#6B6B6B"/>
<path d="M140.403 4.55768H138.388L135.078 10.0615V13.3961L140.403 4.55768Z" fill="#6B6B6B"/>
<path d="M164.406 21.4154L158.863 30.6231H160.879L166.364 21.4962V21.4154H164.406Z" fill="#6B6B6B"/>
<path d="M168.836 14.0769H168.962V13.8577L168.836 14.0769Z" fill="#6B6B6B"/>
<path d="M161.257 21.4154H159.242L153.699 30.6231H155.703L161.257 21.4154Z" fill="#6B6B6B"/>
<path d="M148.521 30.6231H150.537L156.079 21.4154H154.075L148.521 30.6231Z" fill="#6B6B6B"/>
<path d="M145.567 4.55768H143.552L135.078 18.6346V21.9692L145.567 4.55768Z" fill="#6B6B6B"/>
<path d="M166.409 38.5846H164.405L158.668 48.0923H160.672L166.409 38.5846Z" fill="#6B6B6B"/>
<path d="M156.069 38.5846H154.065L148.328 48.0923H150.344L156.069 38.5846Z" fill="#6B6B6B"/>
<path d="M169.765 46.8347L168.998 48.0923H169.765V46.8347Z" fill="#6B6B6B"/>
<path d="M169.764 41.5961V38.5846H169.569L163.832 48.0923H165.847L169.764 41.5961Z" fill="#6B6B6B"/>
<path d="M161.245 38.5846H159.229L153.492 48.0923H155.508L161.245 38.5846Z" fill="#6B6B6B"/>
<path d="M150.732 4.55768H148.728L135.078 27.2077V30.5423L150.732 4.55768Z" fill="#6B6B6B"/>
<path d="M147.171 19.05V15.7154L135.078 35.7808V39.1269L147.171 19.05Z" fill="#6B6B6B"/>
<path d="M140.004 48.0923L147.172 36.1961V32.8615L137.988 48.0923H140.004Z" fill="#6B6B6B"/>
<path d="M150.915 21.4154H148.9L135.078 44.3654V47.7L150.915 21.4154Z" fill="#6B6B6B"/>
<path d="M150.905 38.5846H148.901L143.164 48.0923H145.168L150.905 38.5846Z" fill="#6B6B6B"/>
<path d="M176.578 4.55768H176.555V4.60383L176.578 4.55768Z" fill="#6B6B6B"/>
<path d="M192.083 4.55768H190.079L176.555 26.9884V30.3231L192.083 4.55768Z" fill="#6B6B6B"/>
<path d="M181.754 4.55768H179.738L176.555 9.84229V13.1769L181.754 4.55768Z" fill="#6B6B6B"/>
<path d="M194.568 14.2615H195.565C195.908 14.2615 196.217 14.2615 196.538 14.3192L202.08 5.08845C201.496 4.97306 200.867 4.88076 200.248 4.79999L194.568 14.2615Z" fill="#6B6B6B"/>
<path d="M186.918 4.55768H184.903L176.555 18.4154V21.75L186.918 4.55768Z" fill="#6B6B6B"/>
<path d="M208.893 33.3692C210.74 32.2043 212.29 30.6195 213.419 28.742C214.549 26.8645 215.226 24.7465 215.397 22.5577L208.893 33.3692Z" fill="#6B6B6B"/>
<path d="M197.271 26.9077L191.477 36.5308H193.526L199.699 26.2846C198.925 26.6133 198.106 26.8234 197.271 26.9077Z" fill="#6B6B6B"/>
<path d="M199.354 14.8847C199.899 15.074 200.413 15.3464 200.877 15.6923L206.419 6.46158C205.904 6.21927 205.342 6.03465 204.793 5.8385L199.354 14.8847Z" fill="#6B6B6B"/>
<path d="M208.802 7.79999L202.688 17.9538C203.004 18.7658 203.164 19.6314 203.157 20.5038L210.211 8.81537C209.761 8.44966 209.291 8.11062 208.802 7.79999Z" fill="#6B6B6B"/>
<path d="M195.244 4.61536L189.393 14.3192H191.408L197.225 4.61536C196.916 4.61536 196.63 4.61536 196.309 4.61536H195.244Z" fill="#6B6B6B"/>
<path d="M211.493 40.95L210.428 39.3807L205.184 48.0923H207.188L211.493 40.95Z" fill="#6B6B6B"/>
<path d="M208.756 36.9231L207.691 35.3538L201.553 45.5423L202.618 47.1115L208.756 36.9231Z" fill="#6B6B6B"/>
<path d="M215.283 17.5846C215.147 16.8015 214.952 16.03 214.699 15.2769L198.816 41.5385L199.881 43.1077L215.283 17.5846Z" fill="#6B6B6B"/>
<path d="M215.913 47.4346L215.523 48.0923H216.371L215.913 47.4346Z" fill="#6B6B6B"/>
<path d="M214.241 44.9769L213.176 43.4077L210.348 48.0923H212.363L214.241 44.9769Z" fill="#6B6B6B"/>
<path d="M188.888 27.0115H188.773V23.8615L176.555 44.1461V47.4807L188.888 27.0115Z" fill="#6B6B6B"/>
<path d="M188.773 18.6231V15.2885L176.555 35.5615V38.8961L188.773 18.6231Z" fill="#6B6B6B"/>
<path d="M181.353 48.0923L194.053 27.0115H192.049L179.338 48.0923H181.353Z" fill="#6B6B6B"/>
<path d="M188.773 44.3538V41.0192L184.502 48.0923H186.517L188.773 44.3538Z" fill="#6B6B6B"/>
<path d="M213.267 12.3C213.267 12.2423 213.199 12.1731 213.153 12.1154C212.85 11.655 212.518 11.2156 212.157 10.8L196.125 37.4654L197.19 39.0346L213.267 12.3Z" fill="#6B6B6B"/>
<path d="M223.093 4.55768H221.089L217.539 10.4423V13.7769L223.093 4.55768Z" fill="#6B6B6B"/>
<path d="M228.269 4.55768H226.253L220.367 14.3192H222.383L228.269 4.55768Z" fill="#6B6B6B"/>
<path d="M233.433 4.55768H231.417L225.531 14.3192H227.547L233.433 4.55768Z" fill="#6B6B6B"/>
<path d="M217.928 4.55768H217.539V5.20383L217.928 4.55768Z" fill="#6B6B6B"/>
<path d="M251.377 14.3192H253.392L256.244 9.58846V6.25385L251.377 14.3192Z" fill="#6B6B6B"/>
<path d="M246.213 14.3192H248.217L254.103 4.55768H252.099L246.213 14.3192Z" fill="#6B6B6B"/>
<path d="M243.029 22.9384V19.5923L230.811 39.8769V43.2115L243.029 22.9384Z" fill="#6B6B6B"/>
<path d="M243.03 40.0846V36.75L236.193 48.0923H238.197L243.03 40.0846Z" fill="#6B6B6B"/>
<path d="M243.03 31.5115V28.1769L231.029 48.0923H233.033L243.03 31.5115Z" fill="#6B6B6B"/>
<path d="M230.81 17.4808L238.597 4.55768H236.593L230.707 14.3192H230.81V17.4808Z" fill="#6B6B6B"/>
<path d="M243.029 45.3231L241.357 48.0923H243.029V45.3231Z" fill="#6B6B6B"/>
<path d="M243.773 4.55768H241.758L230.811 22.7192V26.0538L243.773 4.55768Z" fill="#6B6B6B"/>
<path d="M243.029 14.3538V14.3192H243.052L248.938 4.55768H246.922L230.811 31.3038V34.6384L243.029 14.3538Z" fill="#6B6B6B"/>
<path d="M269.607 4.55768H267.603L260.812 15.8308V19.1654L269.607 4.55768Z" fill="#6B6B6B"/>
<path d="M273.031 16.0269V12.7039L260.812 32.9769V36.3115L273.031 16.0269Z" fill="#6B6B6B"/>
<path d="M273.031 7.45383V4.55768H272.768L260.812 24.4038V27.7384L273.031 7.45383Z" fill="#6B6B6B"/>
<path d="M264.443 4.55768H262.439L260.812 7.25768V10.5808L264.443 4.55768Z" fill="#6B6B6B"/>
<path d="M273.031 46.9962L272.367 48.0923H273.031V46.9962Z" fill="#6B6B6B"/>
<path d="M273.032 41.7577V38.4231L267.203 48.0923H269.207L273.032 41.7577Z" fill="#6B6B6B"/>
<path d="M273.031 24.6115V21.2769L260.812 41.55V44.8846L273.031 24.6115Z" fill="#6B6B6B"/>
<path d="M273.032 33.1847V29.85L262.039 48.0923H264.043L273.032 33.1847Z" fill="#6B6B6B"/>
<path d="M290.507 29.9077L296.073 20.6769C295.443 20.4923 294.927 20.3192 294.389 20.1346L288.812 29.3654L290.507 29.9077Z" fill="#6B6B6B"/>
<path d="M305.071 22.9039C304.522 22.7423 303.926 22.5808 303.342 22.4308L297.754 31.6616C298.384 31.8231 298.956 31.9731 299.483 32.1346L305.071 22.9039Z" fill="#6B6B6B"/>
<path d="M300.596 21.7616L299.886 21.6L298.821 21.3693L293.232 30.6L294.996 31.0039L300.596 21.7616Z" fill="#6B6B6B"/>
<path d="M293.758 4.03845L281.402 24.5308C281.528 24.6923 281.654 24.8654 281.792 25.0269C281.929 25.1885 282.341 25.5808 282.616 25.8577L295.911 3.79614C295.167 3.8423 294.457 3.9346 293.758 4.03845Z" fill="#6B6B6B"/>
<path d="M312.825 6.70386L307.672 15.2654C308.187 15.4846 308.714 15.7269 309.241 15.9808L314.05 8.0077L314.268 7.47693C313.764 7.21155 313.317 6.92309 312.825 6.70386Z" fill="#6B6B6B"/>
<path d="M290.14 4.81152C289.437 5.02099 288.745 5.26748 288.067 5.54998L287.518 5.80383L279.502 19.1077C279.566 19.9715 279.719 20.8262 279.96 21.6577L290.14 4.81152Z" fill="#6B6B6B"/>
<path d="M303.355 13.8461C303.928 13.9731 304.501 14.1346 305.085 14.3192L310.329 5.64228C309.78 5.44613 309.184 5.26151 308.646 5.09998L303.355 13.8461Z" fill="#6B6B6B"/>
<path d="M292.075 18.7385C291.726 18.2961 291.54 17.7457 291.548 17.1808C291.555 16.6029 291.713 16.037 292.006 15.5405C292.3 15.044 292.719 14.6347 293.22 14.3539C293.824 13.9876 294.487 13.7299 295.178 13.5923L301.087 3.78463C300.434 3.78463 299.782 3.7154 299.129 3.70386L284.746 27.5539C285.229 27.8705 285.735 28.152 286.258 28.3962L292.075 18.7385Z" fill="#6B6B6B"/>
<path d="M308.038 23.8731C307.926 23.8277 307.811 23.7892 307.694 23.7577L302.049 33.1154C302.588 33.3422 303.064 33.6987 303.434 34.1538L309.297 24.4269C308.908 24.2308 308.496 24.0346 308.038 23.8731Z" fill="#6B6B6B"/>
<path d="M312.94 27C312.526 26.5872 312.086 26.2018 311.623 25.8461L297.732 48.9346C298.431 48.9346 299.129 48.9346 299.794 48.8538L312.94 27Z" fill="#6B6B6B"/>
<path d="M298.533 13.2693C299.174 13.2693 299.827 13.2693 300.48 13.3731L305.873 4.4308C305.266 4.30388 304.66 4.20003 304.053 4.10773L298.533 13.2693Z" fill="#6B6B6B"/>
<path d="M315.561 31.2231C315.37 30.5311 315.097 29.8648 314.748 29.2385L303.229 48.3462C304.035 48.1918 304.831 47.9836 305.61 47.7231L315.561 31.2231Z" fill="#6B6B6B"/>
<path d="M313.89 42C315.178 40.1386 315.927 37.9536 316.055 35.6885L310.031 45.6923C311.552 44.737 312.865 43.4809 313.89 42Z" fill="#6B6B6B"/>
<path d="M300.491 39.0693C299.774 39.2193 299.046 39.3119 298.315 39.3462L292.658 48.727C293.299 48.7962 293.929 48.8539 294.571 48.9L300.491 39.0693Z" fill="#6B6B6B"/>
<path d="M286.28 37.0038C285.742 36.7615 285.226 36.5077 284.722 36.2423L279.615 44.7231C280.096 45.0115 280.589 45.2885 281.127 45.5654L286.28 37.0038Z" fill="#6B6B6B"/>
<path d="M295.179 39.3231C294.549 39.3231 293.931 39.1961 293.301 39.1038L287.965 47.9423C288.56 48.0807 289.156 48.2077 289.751 48.3231L295.179 39.3231Z" fill="#6B6B6B"/>
<path d="M290.506 38.4923C290.151 38.4 289.808 38.3192 289.453 38.2039L288.8 37.9846L283.578 46.65C284.116 46.8462 284.723 47.0308 285.25 47.2154L290.506 38.4923Z" fill="#6B6B6B"/>
<path d="M344.557 14.0769H346.572L352.309 4.55768H350.294L344.557 14.0769Z" fill="#6B6B6B"/>
<path d="M355.47 4.55768L349.732 14.0769H351.736L355.561 7.74229V4.55768H355.47Z" fill="#6B6B6B"/>
<path d="M339.393 14.0769H341.408L347.134 4.55768H345.13L339.393 14.0769Z" fill="#6B6B6B"/>
<path d="M334.227 14.0769H336.231L341.968 4.55768H339.964L334.227 14.0769Z" fill="#6B6B6B"/>
<path d="M334.594 30.6231H336.598L342.152 21.4154H340.136L334.594 30.6231Z" fill="#6B6B6B"/>
<path d="M354.896 14.0769H355.561V12.9808L354.896 14.0769Z" fill="#6B6B6B"/>
<path d="M350.098 30.6231H352.102L352.96 29.1923V25.8577L350.098 30.6231Z" fill="#6B6B6B"/>
<path d="M344.922 30.6231H346.937L352.48 21.4154H350.476L344.922 30.6231Z" fill="#6B6B6B"/>
<path d="M347.316 21.4154H345.312L339.758 30.6231H341.762L347.316 21.4154Z" fill="#6B6B6B"/>
<path d="M326.464 4.55768H324.46L321.666 9.17306V12.5077L326.464 4.55768Z" fill="#6B6B6B"/>
<path d="M336.964 38.5846H334.96L329.223 48.0923H331.227L336.964 38.5846Z" fill="#6B6B6B"/>
<path d="M352.47 38.5846H350.466L344.729 48.0923H346.744L352.47 38.5846Z" fill="#6B6B6B"/>
<path d="M342.139 38.5846H340.124L334.387 48.0923H336.402L342.139 38.5846Z" fill="#6B6B6B"/>
<path d="M347.304 38.5846H345.3L339.562 48.0923H341.566L347.304 38.5846Z" fill="#6B6B6B"/>
<path d="M356.363 40.7077V38.5846H355.63L349.893 48.0923H351.908L356.363 40.7077Z" fill="#6B6B6B"/>
<path d="M356.362 45.9462L355.068 48.0923H356.362V45.9462Z" fill="#6B6B6B"/>
<path d="M333.77 18.1616V14.827L321.666 34.9039V38.2385L333.77 18.1616Z" fill="#6B6B6B"/>
<path d="M331.629 4.55768H329.625L321.666 17.7461V21.0808L331.629 4.55768Z" fill="#6B6B6B"/>
<path d="M333.769 35.3192V31.9846L324.059 48.0923H326.063L333.769 35.3192Z" fill="#6B6B6B"/>
<path d="M336.805 4.55768H334.789L321.666 26.3308V29.6654L336.805 4.55768Z" fill="#6B6B6B"/>
<path d="M336.976 21.4154H334.972L321.666 43.4769V46.8116L336.976 21.4154Z" fill="#6B6B6B"/>
<path d="M53.9043 79.5249H66.229V122.149H53.9043V79.5249Z" fill="#A9A5A5"/>
<path d="M116.138 79.5249V122.149H106.041L86.9054 99.4005V122.149H74.9023V79.5249H84.9872L104.135 102.217V79.5249H116.138Z" fill="#A9A5A5"/>
<path d="M166.033 79.5249V122.149H155.948L136.812 99.4005V122.149H124.809V79.5249H134.905L154.03 102.217V79.5249H166.033Z" fill="#A9A5A5"/>
<path d="M184.205 120.136C180.616 118.312 177.616 115.536 175.544 112.122C173.471 108.708 172.409 104.792 172.478 100.814C172.411 96.8363 173.474 92.9188 175.546 89.5032C177.618 86.0876 180.617 83.3096 184.205 81.4819C188.039 79.5889 192.269 78.6033 196.559 78.6033C200.848 78.6033 205.078 79.5889 208.912 81.4819C212.499 83.3121 215.498 86.0905 217.571 89.5052C219.645 92.92 220.711 96.8361 220.651 100.814C220.713 104.792 219.647 108.707 217.573 112.12C215.499 115.534 212.5 118.309 208.912 120.136C205.078 122.029 200.848 123.014 196.559 123.014C192.269 123.014 188.039 122.029 184.205 120.136ZM202.503 111.482C204.283 110.459 205.742 108.972 206.718 107.183C207.769 105.222 208.299 103.031 208.257 100.814C208.3 98.5938 207.771 96.3987 206.718 94.4344C205.742 92.646 204.283 91.1583 202.503 90.1357C200.687 89.134 198.64 88.608 196.559 88.608C194.477 88.608 192.43 89.134 190.614 90.1357C188.837 91.1586 187.382 92.6465 186.41 94.4344C185.349 96.3957 184.815 98.5922 184.86 100.814C184.816 103.033 185.35 105.225 186.41 107.183C187.382 108.971 188.837 110.459 190.614 111.482C192.43 112.484 194.477 113.01 196.559 113.01C198.64 113.01 200.687 112.484 202.503 111.482Z" fill="#A9A5A5"/>
<path d="M269.534 79.5249L250.984 122.149H238.912L220.396 79.5249H233.652L245.413 107.274L257.417 79.5249H269.534Z" fill="#A9A5A5"/>
<path d="M299.653 113.857H281.275L277.829 122.149H265.412L284.537 79.5249H296.62L315.814 122.206H303.052L299.653 113.857ZM296.057 104.955L290.487 91.3009L284.916 104.955H296.057Z" fill="#A9A5A5"/>
<path d="M326.334 89.0385H313.021V79.5249H351.845V89.095H338.59V122.149H326.334V89.0385Z" fill="#A9A5A5"/>
<path d="M356.428 79.5249H368.684V122.149H356.428V79.5249Z" fill="#A9A5A5"/>
<path d="M386.913 120.136C383.328 118.309 380.332 115.532 378.264 112.118C376.196 108.704 375.138 104.789 375.208 100.814C375.14 96.8386 376.199 92.9228 378.267 89.5075C380.334 86.0921 383.329 83.3127 386.913 81.4819C390.747 79.5889 394.977 78.6033 399.266 78.6033C403.555 78.6033 407.785 79.5889 411.62 81.4819C415.208 83.3096 418.207 86.0876 420.279 89.5032C422.351 92.9188 423.414 96.8363 423.347 100.814C423.415 104.792 422.354 108.708 420.281 112.122C418.209 115.536 415.209 118.312 411.62 120.136C407.785 122.029 403.555 123.014 399.266 123.014C394.977 123.014 390.747 122.029 386.913 120.136ZM405.21 111.482C406.991 110.459 408.45 108.972 409.426 107.183C410.477 105.222 411.007 103.031 410.965 100.814C411.008 98.5938 410.478 96.3987 409.426 94.4344C408.45 92.646 406.991 91.1583 405.21 90.1357C403.394 89.134 401.348 88.608 399.266 88.608C397.185 88.608 395.138 89.134 393.322 90.1357C391.544 91.1586 390.089 92.6465 389.118 94.4344C388.056 96.3957 387.523 98.5922 387.568 100.814C387.524 103.033 388.058 105.225 389.118 107.183C390.089 108.971 391.544 110.459 393.322 111.482C395.138 112.484 397.185 113.01 399.266 113.01C401.348 113.01 403.394 112.484 405.21 111.482Z" fill="#A9A5A5"/>
<path d="M471.027 79.5249V122.149H460.93L441.829 99.4005V122.149H429.791V79.5249H439.887L459.058 102.217V79.5249H471.027Z" fill="#A9A5A5"/>
</svg>
