<svg width="500" height="500" viewBox="0 0 500 500" fill="none" xmlns="http://www.w3.org/2000/svg">
<path fill-rule="evenodd" clip-rule="evenodd" d="M86.1 295.099H75.5V294.399H77.4V271.899H75.5V271.199H85.4C89.5 271.199 92.3 273.599 92.3 277.099C92.3 279.499 90.2 281.599 87.3 282.299V282.499C91.2 282.899 93.7 285.199 93.7 288.599C93.7 292.399 90.5 295.099 86.1 295.099ZM83.8 271.899H80.6V281.999H84C86.8 281.999 88.8 279.699 88.8 277.099C88.9 274.599 87.1 271.899 83.8 271.899ZM84.8 282.899H80.6V294.399H85.3C88.1 294.399 90.2 291.799 90.2 288.499C90.2 285.599 88 282.899 84.8 282.899Z" fill="#FED989"/>
<path fill-rule="evenodd" clip-rule="evenodd" d="M102.101 284.799C102.001 285.499 102.001 285.999 102.001 285.999C102.001 292.299 103.701 294.699 106.201 294.699C109.201 294.699 111.301 291.999 111.301 289.099V288.599H112.101V289.099C112.101 292.799 109.801 295.599 106.001 295.599C101.801 295.599 98.8008 291.699 98.8008 286.299C98.8008 280.799 101.601 277.199 105.601 277.199C109.501 277.199 112.101 279.299 112.101 284.799H102.101ZM105.401 277.999C103.601 277.999 102.301 279.599 102.001 284.099H108.801C108.801 279.399 107.301 277.999 105.401 277.999Z" fill="#FED989"/>
<path fill-rule="evenodd" clip-rule="evenodd" d="M129.2 284.1C129 282.6 128.6 280.5 128 279.4C127.6 278.6 127.1 278.2 126.5 278.2H124.8V294.4H127.5V295.1H119V294.4H121.7V278.2H120C119.5 278.2 118.9 278.6 118.5 279.4C118 280.5 117.5 282.7 117.4 284.1H116.5V277.5H129.9V284.1H129.2Z" fill="#FED989"/>
<path fill-rule="evenodd" clip-rule="evenodd" d="M138.101 284.799C138.001 285.499 138.001 285.999 138.001 285.999C138.001 292.299 139.701 294.699 142.201 294.699C145.201 294.699 147.301 291.999 147.301 289.099V288.599H148.101V289.099C148.101 292.799 145.801 295.599 142.001 295.599C137.801 295.599 134.801 291.699 134.801 286.299C134.801 280.799 137.601 277.199 141.601 277.199C145.401 277.199 148.101 279.299 148.101 284.799H138.101ZM141.501 277.999C139.701 277.999 138.401 279.599 138.101 284.099H144.901C144.901 279.399 143.301 277.999 141.501 277.999Z" fill="#FED989"/>
<path fill-rule="evenodd" clip-rule="evenodd" d="M161.4 295.499C159.7 295.499 158.4 294.399 157.7 292.899V300.399H159.8V301.099H153.1V300.399H154.6V278.299H153.1V277.599H157.4V279.999C158.3 278.299 159.4 277.199 161.6 277.199C165.7 277.199 168.3 281.299 168.3 286.299C168.3 291.699 165.3 295.499 161.4 295.499ZM157.7 288.699C157.7 292.099 159.2 294.599 161.3 294.599C163.6 294.599 165 292.099 165 286.199C165 280.899 163.5 277.999 161.3 277.999C159.4 277.999 157.6 279.699 157.6 283.499V288.699H157.7Z" fill="#FED989"/>
<path fill-rule="evenodd" clip-rule="evenodd" d="M182.801 295.1V294.4H184.201V282L177.901 292V294.4H179.301V295.1H173.301V294.4H174.801V278.2H173.301V277.5H179.301V278.2H177.901V290.2L184.201 280.3V278.2H182.801V277.5H188.701V278.2H187.201V294.4H188.701V295.1H182.801Z" fill="#FED989"/>
<path fill-rule="evenodd" clip-rule="evenodd" d="M204.599 286.2H198.299V294.4H199.799V295.1H193.699V294.4H195.199V278.2H193.699V277.5H199.799V278.2H198.299V285.4H204.599V278.2H203.099V277.5H209.099V278.2H207.599V294.4H209.099V295.1H203.099V294.4H204.599V286.2Z" fill="#FED989"/>
<path fill-rule="evenodd" clip-rule="evenodd" d="M224.1 295.1V292.3C223 294.4 222 295.5 218.5 295.5C215.8 295.5 214 293.7 214 291.1C214 285.1 221.5 286.2 223.8 283.9V281.1C223.8 279.3 222.4 277.9 220.5 277.9C219.4 277.9 218.5 278.1 218 279C217.3 279.9 216.7 281.8 216.5 283.9H215.6V278.7C216.8 277.5 218.9 277.1 220.7 277.1C223.8 277.1 226.9 278.2 226.9 282.1V294.4H228.4V295.1H224.1ZM219.6 286.8C218.2 287.5 217.1 288.7 217.1 291C217.1 292.9 218 294.7 219.7 294.7C221.4 294.7 223.9 292.7 223.9 289.4V285C222.6 285.7 221 286.1 219.6 286.8Z" fill="#FED989"/>
<path fill-rule="evenodd" clip-rule="evenodd" d="M241.7 295.499C240 295.499 238.7 294.399 238 292.899V300.399H240.1V301.099H233.4V300.399H234.9V278.299H233.4V277.599H237.7V279.999C238.6 278.299 239.7 277.199 241.9 277.199C246 277.199 248.6 281.299 248.6 286.299C248.6 291.699 245.6 295.499 241.7 295.499ZM238 288.699C238 292.099 239.5 294.599 241.6 294.599C243.9 294.599 245.3 292.099 245.3 286.199C245.3 280.899 243.8 277.999 241.6 277.999C239.7 277.999 237.9 279.699 237.9 283.499V288.699H238Z" fill="#FED989"/>
<path fill-rule="evenodd" clip-rule="evenodd" d="M264.4 286.2H258.2V294.4H259.7V295.1H253.6V294.4H255.1V278.2H253.6V277.5H259.7V278.2H258.2V285.4H264.4V278.2H262.9V277.5H269V278.2H267.5V294.4H269V295.1H262.9V294.4H264.4V286.2Z" fill="#FED989"/>
<path fill-rule="evenodd" clip-rule="evenodd" d="M282.1 295.1H274.1V294.4H275.6V278.2H274V277.5H280.5V278.2H278.6V284.7H282.1C285.3 284.7 287.9 287.1 287.9 290C287.9 292.8 285.3 295.1 282.1 295.1ZM280.8 285.6H278.6V294.5H280.8C283 294.5 284.7 292.5 284.7 290.1C284.7 287.6 283 285.6 280.8 285.6ZM289.4 278.2H287.9V277.5H294V278.2H292.5V294.4H294V295.1H287.9V294.4H289.4V278.2Z" fill="#FED989"/>
<path fill-rule="evenodd" clip-rule="evenodd" d="M308.201 295.1V294.4H309.601V282L303.401 291.9V294.3H304.801V295H298.801V294.3H300.301V278.1H298.801V277.4H304.801V278.1H303.401V290L309.601 280.1V278.1H308.201V277.4H314.201V278.1H312.701V294.3H314.201V295H308.201V295.1ZM306.501 275.4C303.501 275.4 301.201 274.2 301.201 272.6C301.201 271.6 302.001 270.8 302.901 270.8C303.901 270.8 304.601 271.6 304.601 272.6C304.601 273.2 304.201 273.8 303.701 273.9C304.001 274.4 305.501 274.8 306.401 274.8C307.401 274.8 308.601 274.4 309.101 273.9C308.601 273.8 308.201 273.2 308.201 272.6C308.201 271.6 308.901 270.8 309.901 270.8C310.901 270.8 311.601 271.6 311.601 272.6C311.801 274.3 309.501 275.4 306.501 275.4Z" fill="#FED989"/>
<path fill-rule="evenodd" clip-rule="evenodd" d="M345.2 271.899H343.3V271.199H350.4V271.899H348.5V294.399H351.3V301.099H350.4C350.1 299.399 349.6 297.699 348.9 296.299C348.6 295.599 347.8 295.099 347 295.099H331V294.399H332.9V271.899H331V271.199H338.1V271.899H336.2V294.399H345.3V271.899H345.2Z" fill="#FED989"/>
<path fill-rule="evenodd" clip-rule="evenodd" d="M359.4 284.799C359.3 285.499 359.3 285.999 359.3 285.999C359.3 292.299 361 294.699 363.5 294.699C366.5 294.699 368.6 291.999 368.6 289.099V288.599H369.4V289.099C369.4 292.799 367 295.599 363.3 295.599C359.1 295.599 356.1 291.699 356.1 286.299C356.1 280.799 358.9 277.199 362.9 277.199C366.8 277.199 369.4 279.299 369.4 284.799H359.4ZM362.8 277.999C361 277.999 359.7 279.599 359.4 284.099H366.2C366.2 279.399 364.7 277.999 362.8 277.999Z" fill="#FED989"/>
<path fill-rule="evenodd" clip-rule="evenodd" d="M385.2 286.2H379V294.4H380.5V295.1H374.4V294.4H375.9V278.2H374.4V277.5H380.5V278.2H379V285.4H385.2V278.2H383.7V277.5H389.8V278.2H388.3V294.4H389.8V295.1H383.7V294.4H385.2V286.2Z" fill="#FED989"/>
<path fill-rule="evenodd" clip-rule="evenodd" d="M407.001 284.1C406.801 282.6 406.401 280.5 405.801 279.4C405.401 278.6 404.901 278.2 404.301 278.2H402.601V294.4H405.301V295.1H396.801V294.4H399.501V278.2H397.801C397.301 278.2 396.701 278.6 396.301 279.4C395.801 280.5 395.301 282.7 395.201 284.1H394.301V277.5H407.701V284.1H407.001Z" fill="#FED989"/>
<path fill-rule="evenodd" clip-rule="evenodd" d="M420.8 295.499C419.1 295.499 417.8 294.399 417.1 292.899V300.399H419.2V301.099H412.5V300.399H414V278.299H412.5V277.599H416.8V279.999C417.7 278.299 418.8 277.199 421 277.199C425.1 277.199 427.7 281.299 427.7 286.299C427.7 291.699 424.7 295.499 420.8 295.499ZM417.1 288.699C417.1 292.099 418.6 294.599 420.7 294.599C423 294.599 424.4 292.099 424.4 286.199C424.4 280.899 422.9 277.999 420.7 277.999C418.8 277.999 417 279.699 417 283.499V288.699H417.1Z" fill="#FED989"/>
<path d="M406.2 237C400.5 155.2 331.9 90 249.4 90C166.9 90 98.2 155.2 92.6 237H37V409.2H462.2V237H406.2Z" stroke="#FED989" stroke-width="2.1875" stroke-miterlimit="22.9256"/>
<path d="M249.301 111.9C323.901 111.9 384.701 172.9 384.701 247.9V258.9H440.401V387.3H58.8008V258.9H114.001V247.9C114.001 173 174.701 111.9 249.301 111.9Z" stroke="#FED989" stroke-width="2.1875" stroke-miterlimit="22.9256"/>
<path fill-rule="evenodd" clip-rule="evenodd" d="M399.9 243.6C397.6 162.3 330.5 96.5996 249.3 96.5996C168.1 96.5996 101 162.3 98.7 243.6H43.5V402.7H455.6V243.6H399.9ZM249.3 105.4C327.6 105.4 391.2 169.4 391.2 248V252.4H446.9V393.9H52.3V252.3H107.4V247.9C107.4 169.3 171.1 105.4 249.3 105.4Z" fill="#FED989"/>
<path fill-rule="evenodd" clip-rule="evenodd" d="M151.699 251.9C151.699 251.4 151.699 251 151.699 250.5C152.399 249.7 152.599 247.9 153.099 247.2C153.599 246.4 154.699 246.1 155.899 245.3C160.399 242.6 167.399 242.2 173.099 239.7C176.399 238.3 180.399 234.5 184.199 232.7C186.999 231.3 189.799 230.8 192.099 229.4C194.699 227.8 196.899 225.9 197.699 223.3C198.899 219.5 197.799 216.2 197.199 212.1C196.499 206.6 195.899 200.4 196.699 195.8C197.299 192.4 199.399 189.1 199.499 186.5C199.599 184 198.199 181.5 198.099 178.6C197.999 176.5 198.899 174.6 198.599 172.1C196.999 171.3 195.399 170.8 193.999 169.8C193.699 169.6 193.799 168.6 193.499 168.4C192.699 167.8 190.999 168 190.599 167.2C189.999 165.9 190.699 164.5 191.299 163.3C191.499 163 193.399 159.6 192.999 159.5C190.299 159.3 189.799 156.8 188.799 154.8C186.399 153.6 185.399 150.6 185.999 148.3C186.699 145.7 191.599 144.5 195.299 142.7C196.199 142.3 196.899 141.7 197.599 141.3C199.899 140 203.299 138.8 204.099 136.6C205.899 136.2 204.399 134.7 204.599 133.3C206.499 124.4 222.899 121.4 232.499 124.9C233.899 125.4 235.199 126.8 236.199 127.7C239.099 130.2 241.499 133.2 242.699 136.6C248.199 139 249.899 144.9 251.099 151.1C251.799 155 251.799 160.9 252.999 163.7C254.699 167.7 259.799 170.1 265.099 172.1C269.499 173.8 276.399 175.9 281.799 176.3C290.199 176.9 298.499 175.6 305.899 176.3C311.599 176.8 318.899 179.5 322.199 181.9C323.499 182.9 325.099 183.8 325.899 184.7C326.299 185.1 326.299 185.9 326.799 186.6C327.699 187.8 328.499 188.4 329.099 189.4C330.699 192.2 332.399 195.4 333.299 198.3C335.799 205.9 335.799 212.6 334.199 218.8C333.299 222.3 332.699 223.9 330.999 226.7C328.999 229.9 325.399 232.9 322.199 234.6C318.199 236.8 310.199 239.6 304.099 239.3C300.999 239.1 300.799 238.3 299.499 237.9C298.799 237.7 297.899 237.9 297.199 237.9C294.699 237.8 291.799 238.4 289.299 238.8C278.499 240.5 269.899 244.9 257.699 243C258.099 246.4 256.999 250.6 254.899 251.9C252.499 253.4 242.099 253.4 238.199 253.8C237.399 253.9 236.599 253.8 235.899 253.8C222.399 254 208.099 254.6 195.999 256.1C191.599 256.7 189.999 257.7 187.199 258.9C185.499 259.6 183.699 260.4 182.099 260.8C175.699 262.1 168.099 260.8 165.399 258.5C164.799 257.7 165.599 255.5 163.999 255.7C159.399 256.3 153.599 255.4 151.699 251.9Z" fill="#FED989"/>
<path fill-rule="evenodd" clip-rule="evenodd" d="M190.799 258.799C191.699 256.799 193.299 254.599 194.299 253.499C195.799 251.899 202.699 249.699 203.099 247.899C206.999 231.299 211.999 221.299 214.199 217.699C212.499 212.799 213.099 208.799 214.199 204.799C202.599 194.299 206.899 182.199 206.899 182.199C206.899 182.199 203.999 166.899 204.799 162.699C212.099 163.699 213.799 169.599 216.199 171.699C228.199 169.999 232.099 171.899 234.199 172.699C239.899 164.499 245.899 165.399 245.899 165.399C245.899 165.399 246.299 177.799 245.899 180.299C246.299 193.299 243.699 194.399 242.799 195.899C250.199 199.799 252.599 205.699 252.799 208.699C297.399 212.799 309.399 226.999 313.599 231.599C325.899 247.099 355.999 249.399 360.299 250.299C364.499 251.299 362.599 257.099 360.299 256.899C357.999 256.799 347.299 254.999 344.399 255.899C343.799 259.599 337.899 254.599 335.799 253.799C328.299 256.499 309.199 239.699 304.299 242.999C299.499 246.299 312.199 246.699 313.999 248.199C322.799 254.099 311.099 258.699 309.199 258.599C304.199 256.899 304.999 256.299 305.699 253.699C293.999 254.299 282.599 253.199 279.799 253.399C276.999 253.599 275.999 252.699 275.799 251.299C259.499 254.999 241.399 268.599 224.199 263.299C222.499 262.799 220.599 262.099 219.099 261.099C216.199 259.099 218.099 258.799 218.199 256.099C218.499 250.999 207.799 258.099 206.399 258.899C203.599 260.499 192.499 267.299 190.299 261.499C189.999 261.199 190.299 259.999 190.799 258.799Z" fill="black"/>
<path d="M190.799 258.799C191.699 256.799 193.299 254.599 194.299 253.499C195.799 251.899 202.699 249.699 203.099 247.899C206.999 231.299 211.999 221.299 214.199 217.699C212.499 212.799 213.099 208.799 214.199 204.799C202.599 194.299 206.899 182.199 206.899 182.199C206.899 182.199 203.999 166.899 204.799 162.699C212.099 163.699 213.799 169.599 216.199 171.699C228.199 169.999 232.099 171.899 234.199 172.699C239.899 164.499 245.899 165.399 245.899 165.399C245.899 165.399 246.299 177.799 245.899 180.299C246.299 193.299 243.699 194.399 242.799 195.899C250.199 199.799 252.599 205.699 252.799 208.699C297.399 212.799 309.399 226.999 313.599 231.599C325.899 247.099 355.999 249.399 360.299 250.299C364.499 251.299 362.599 257.099 360.299 256.899C357.999 256.799 347.299 254.999 344.399 255.899C343.799 259.599 337.899 254.599 335.799 253.799C328.299 256.499 309.199 239.699 304.299 242.999C299.499 246.299 312.199 246.699 313.999 248.199C322.799 254.099 311.099 258.699 309.199 258.599C304.199 256.899 304.999 256.299 305.699 253.699C293.999 254.299 282.599 253.199 279.799 253.399C276.999 253.599 275.999 252.699 275.799 251.299C259.499 254.999 241.399 268.599 224.199 263.399C222.499 262.899 220.599 262.199 219.099 261.199C216.199 259.199 218.099 258.899 218.199 256.199C218.499 251.099 207.799 258.199 206.399 258.999C203.599 260.599 192.499 267.399 190.299 261.599C189.999 261.199 190.299 259.999 190.799 258.799Z" stroke="#FED989" stroke-width="2.1873" stroke-miterlimit="22.9256"/>
<path fill-rule="evenodd" clip-rule="evenodd" d="M115.101 365.2V363.5H122.601V311.7L103.001 365.2H99.6008L79.8008 311.8V363.5H87.2008V365.2H72.3008V363.5H77.5008V308.7H72.3008V307H87.4008L104.801 353.6L121.501 307H136.801V308.7H131.501V363.5H136.801V365.2H115.101Z" fill="#FED989"/>
<path fill-rule="evenodd" clip-rule="evenodd" d="M147.9 365.2V363.5H153.1V308.8H147.9V307.1H192.1V325.7H189.6C188.8 320.9 187.7 316 185.4 311.9C184.5 310.3 182 308.9 179.8 308.9H162.1V334H168.8C171 334 172.7 333.3 173.5 332C175 329.7 176 325.7 176.4 322.6H178.7V347.2H176.4C176 344 174.7 340.4 173.5 338.1C172.7 336.7 171.1 335.8 168.8 335.8H162.1V363.7H181.3C184.3 363.7 186.4 362.1 187.4 359.1C188.8 355.3 189.8 350.4 190.7 344.5H193.3V365.4H147.9V365.2Z" fill="#FED989"/>
<path fill-rule="evenodd" clip-rule="evenodd" d="M227.7 307H233.1L253.1 363.4H258.1V379.6H255.8C255 375.4 253.4 371.2 251.5 367.9C250.4 365.9 248.2 365.1 246 365.1H215.2C213 365.1 211.1 366 210 367.9C208 371.2 206.6 375.3 205.8 379.6H203.4V363.4H208.4L227.7 307ZM227.3 316.1L211.5 363.5H243.6L227.3 316.1Z" fill="#FED989"/>
<path fill-rule="evenodd" clip-rule="evenodd" d="M297.5 365.2H268.5V363.5H273.7V308.8H268.5V307.1H295.6C306.9 307.1 314.5 313 314.5 321.5C314.5 327.3 308.8 332.4 300.8 334.2V334.6C311.3 335.5 318.2 341.2 318.2 349.4C318.2 358.5 309.5 365.2 297.5 365.2ZM291.4 308.7H282.7V333.3H291.9C299.6 333.3 305 327.7 305 321.4C305.1 315.2 300.3 308.7 291.4 308.7ZM294.1 335.4H282.7V363.4H295.5C303.2 363.4 308.8 357 308.8 349.1C308.9 342 302.7 335.4 294.1 335.4Z" fill="#FED989"/>
<path fill-rule="evenodd" clip-rule="evenodd" d="M329.4 365.2V363.5H334.6V308.8H329.4V307.1H373.6V325.7H371.1C370.3 320.9 369.2 316 366.9 311.9C366 310.3 363.5 308.9 361.3 308.9H343.6V334H350.3C352.5 334 354.2 333.3 355 332C356.5 329.7 357.5 325.7 357.9 322.6H360.2V347.2H357.9C357.5 344 356.2 340.4 355 338.1C354.2 336.7 352.6 335.8 350.3 335.8H343.6V363.7H362.7C365.7 363.7 367.8 362.1 368.8 359.1C370.2 355.3 371.2 350.4 372.1 344.5H374.7V365.4H329.4V365.2Z" fill="#FED989"/>
<path fill-rule="evenodd" clip-rule="evenodd" d="M401.8 308.7H396.5C393.8 308.7 391.6 310.4 390.6 312.7C388.8 316.5 388.2 321.4 387.5 325.6H385V307H427.6V325.6H425.2C424.5 321.4 423.9 316.4 422.1 312.7C420.9 310.4 419 308.7 416.2 308.7H410.9V363.4H416.9V365.1H395.9V363.4H401.9V308.7H401.8Z" fill="#FED989"/>
</svg>
