<svg width="264" height="136" viewBox="0 0 264 136" fill="none" xmlns="http://www.w3.org/2000/svg">
<path fill-rule="evenodd" clip-rule="evenodd" d="M170.775 55.189C170.188 54.5047 167.012 51.9143 167.012 51.9143C167.012 51.9143 166.669 51.3278 166.669 51.0835C166.669 50.7902 165.692 49.324 164.421 48.5909C163.102 47.8577 159.485 46.7336 158.361 46.1471C157.237 45.5606 154.402 40.2333 153.62 39.0603C152.838 37.8873 149.563 33.6352 149.417 38.6693C149.221 43.7034 150.003 47.8577 150.003 47.8577C150.003 47.8577 147.315 49.2751 146.435 51.3767C145.604 53.4784 143.552 59.5877 142.623 63.3022L142.574 63.3999C144.187 65.3549 148.781 66.7723 150.541 67.1633C153.669 67.7987 156.895 67.7987 160.071 67.7498C160.12 67.0167 160.316 66.3813 160.756 65.6482C162.222 62.96 166.278 64.1819 167.109 63.6443C167.94 63.1556 168.722 62.569 168.869 61.7382C169.015 60.9073 168.869 60.9073 168.869 60.9073C168.869 60.9073 170.14 60.3208 170.14 59.1478C170.14 57.9748 170.188 57.5838 170.628 57.4372C171.117 57.2417 171.361 55.8732 170.775 55.189ZM155.184 46.2937C155.037 46.7336 155.575 47.8577 155.379 47.9066C154.94 48.1021 153.669 46.978 152.985 44.3876C152.3 41.7484 151.909 39.549 151.518 39.158C151.127 38.767 150.785 38.8648 151.078 40.9664C151.323 43.068 152.3 45.1208 152.056 46.2449C151.763 47.369 152.154 48.3953 152.545 49.2751C152.936 50.1548 153.669 52.2565 152.594 50.9368C151.518 49.6172 151.127 48.542 151.03 47.8577C150.981 47.1246 151.225 45.805 150.981 44.9741C150.052 42.286 149.759 37.3008 150.687 37.2519C151.078 37.2519 151.909 38.1316 152.056 38.4738C152.496 39.5001 153.718 40.8686 154.255 42.3349C154.842 43.8011 155.379 44.6809 155.868 45.414C156.161 45.805 155.331 45.7561 155.184 46.2937ZM167.647 62.1292C167.207 62.0314 165.887 61.3472 164.714 61.3961C163.493 61.445 162.613 61.4938 162.466 61.3961C162.32 61.2983 163.004 60.4186 163.688 60.3697C164.617 60.3208 165.399 60.663 166.083 60.9073C167.06 61.2006 168.087 61.0051 168.282 61.1028C168.38 61.1517 168.429 61.2494 168.429 61.4449C168.38 61.7871 167.891 62.2269 167.647 62.1292ZM170.042 56.9973C169.7 57.0462 169.015 56.1664 168.869 55.8732C168.673 55.6288 168.233 54.5047 168.478 54.2603C168.722 54.0648 169.7 54.9934 169.993 55.1401C170.237 55.2867 170.433 55.5311 170.433 55.8243C170.433 56.1665 170.384 56.9485 170.042 56.9973Z" fill="white"/>
<path fill-rule="evenodd" clip-rule="evenodd" d="M145.263 69.0691C146.778 69.7044 148.391 70.1932 150.004 70.4864C153.474 71.1218 160.219 71.1218 160.219 71.1218C160.316 71.1218 160.414 71.0241 160.365 70.9263L160.121 69.118C160.121 69.0202 160.023 68.9224 159.925 68.9224C159.925 68.9224 151.323 69.0202 147.218 67.3096C145.849 66.7231 142.477 64.8659 142.477 64.8659C142.379 64.817 142.282 64.8659 142.282 64.9636L141.891 66.8208C141.891 66.9186 141.939 67.0652 142.037 67.1141C141.988 67.1141 144.823 68.8736 145.263 69.0691Z" fill="white"/>
<path fill-rule="evenodd" clip-rule="evenodd" d="M158.948 76.792C158.851 76.792 158.753 76.8898 158.704 76.9875L158.166 79.1869C158.166 79.2846 158.117 79.4801 158.117 79.5778L157.922 82.7547C157.922 82.8524 157.922 83.048 157.922 83.1457L158.313 85.8338C158.313 85.9316 158.362 86.127 158.411 86.2248L159.437 88.7663C159.486 88.8641 159.535 88.8641 159.584 88.7663C159.584 88.7663 161.979 83.0968 161.539 79.0402C161.441 78.2582 161.294 77.1341 161.294 77.1341C161.294 77.0363 161.196 76.9386 161.099 76.9386L158.948 76.792Z" fill="white"/>
<path fill-rule="evenodd" clip-rule="evenodd" d="M150.442 76.0587C150.247 76.0098 150.051 75.9609 150.051 75.9609C149.954 75.9609 149.856 75.9609 149.856 75.9609V76.0099C149.758 76.5964 149.416 78.5513 149.416 78.5513C149.416 78.6491 149.367 78.8446 149.367 78.9423C149.367 78.9423 149.416 80.1153 149.758 80.653C150.394 81.7282 151.518 81.3372 152.006 80.5063C152.104 80.3597 152.397 79.3822 152.397 79.3822C152.446 79.2844 152.495 79.089 152.495 78.9912L152.935 76.6452C152.984 76.5474 152.886 76.4497 152.788 76.4497C152.886 76.4497 151.322 76.2542 150.442 76.0587Z" fill="white"/>
<path fill-rule="evenodd" clip-rule="evenodd" d="M148.781 75.7164C148.781 75.7164 148.684 75.6676 148.586 75.6187L146.191 74.8367C146.093 74.7878 145.996 74.8367 145.947 74.9833C145.947 74.9833 145.507 77.3781 145.8 78.4045C145.996 78.991 146.68 80.0663 147.511 79.5287C147.951 79.2354 148.244 78.6 148.244 78.6C148.293 78.5023 148.342 78.3557 148.342 78.2091C148.39 78.1602 148.635 76.4495 148.781 75.7164Z" fill="white"/>
<path fill-rule="evenodd" clip-rule="evenodd" d="M144.919 74.2987C144.919 74.2987 144.821 74.2498 144.724 74.2009L143.355 73.5656C143.257 73.5167 143.111 73.4678 142.964 73.4678C142.964 73.4678 142.72 73.4189 142.72 73.5656C142.671 74.1032 142.671 74.6896 142.622 75.2273C142.573 75.716 142.475 76.3025 142.573 76.8401C143.013 78.6485 144.381 77.0357 144.577 76.0582C144.577 76.0093 144.577 76.0093 144.577 76.0093C144.626 75.9604 144.626 75.8138 144.675 75.716L144.821 74.5431C144.919 74.3964 144.919 74.2987 144.919 74.2987Z" fill="white"/>
<path fill-rule="evenodd" clip-rule="evenodd" d="M157.188 74.0056C157.236 74.5921 157.188 75.5208 157.188 75.5208C157.188 75.6185 157.285 75.7162 157.383 75.7162C157.383 75.7162 158.214 75.7162 158.703 75.6674C159.534 75.6185 161 75.6185 161 75.6185C161.098 75.6185 161.195 75.5207 161.146 75.423L160.707 72.3928C160.707 72.295 160.609 72.1973 160.462 72.1973H157.285C157.188 72.1973 157.09 72.295 157.09 72.3928C157.09 72.4417 157.139 73.4191 157.188 74.0056Z" fill="white"/>
<path fill-rule="evenodd" clip-rule="evenodd" d="M151.079 74.983C151.177 75.0319 151.275 74.9342 151.324 74.8364L151.764 72.1483C151.764 72.0505 151.715 71.9528 151.617 71.9039L148.44 71.3174C148.343 71.3174 148.196 71.3663 148.147 71.464L147.218 73.7123C147.17 73.81 147.218 73.9078 147.316 73.9566L151.079 74.983Z" fill="white"/>
<path fill-rule="evenodd" clip-rule="evenodd" d="M145.849 73.4188C145.947 73.4677 146.045 73.4188 146.094 73.3211L146.973 71.1218C147.022 71.024 146.973 70.9263 146.876 70.8774L144.823 70.0953C144.725 70.0465 144.579 70.0954 144.579 70.1931L143.699 72.1481C143.65 72.2459 143.699 72.3436 143.797 72.3925L145.849 73.4188Z" fill="white"/>
<path fill-rule="evenodd" clip-rule="evenodd" d="M141.694 71.2684C141.743 71.3173 141.743 71.3173 141.743 71.3173C141.792 71.3662 141.84 71.4151 141.84 71.4151C142.085 71.5617 142.329 71.7083 142.329 71.7083C142.427 71.7572 142.525 71.7084 142.574 71.6106L143.404 69.7533C143.453 69.6556 143.404 69.509 143.307 69.4601L141.449 68.1893C141.352 68.1404 141.254 68.1405 141.156 68.2382L140.032 69.9C139.983 69.9977 139.983 70.1443 140.081 70.1932C140.179 70.1443 141.058 70.9263 141.694 71.2684Z" fill="white"/>
<path fill-rule="evenodd" clip-rule="evenodd" d="M153.133 72.0996C153.036 72.0996 152.938 72.1484 152.889 72.2951L152.449 75.081C152.449 75.1787 152.498 75.2765 152.547 75.2765C152.547 75.2765 152.547 75.2765 152.596 75.2765C153.72 75.4231 155.822 75.6674 155.822 75.6674C155.919 75.6674 156.017 75.6186 156.017 75.4719C156.017 75.4719 156.066 74.3967 155.968 73.7613C155.919 73.2726 155.87 72.4417 155.87 72.4417C155.87 72.344 155.773 72.2462 155.675 72.2462L153.133 72.0996Z" fill="white"/>
<path fill-rule="evenodd" clip-rule="evenodd" d="M156.702 82.9005C156.702 82.8028 156.751 82.6072 156.751 82.5095L156.849 80.1635C156.849 80.0658 156.897 79.8703 156.897 79.7725L157.484 77.0356C157.533 76.9378 157.435 76.84 157.337 76.84L154.454 76.6445C154.356 76.6445 154.258 76.6934 154.209 76.84C154.209 76.84 153.525 79.3815 153.623 80.75C153.721 82.1185 154.649 85.2954 156.653 83.1938C156.653 83.1449 156.702 82.9005 156.702 82.9005Z" fill="white"/>
<path fill-rule="evenodd" clip-rule="evenodd" d="M161.293 130.505C160.951 130.162 159.582 129.82 158.458 129.674C157.334 129.527 155.77 129.234 155.77 129.234C155.77 129.234 154.304 121.658 154.499 110.515C154.695 99.3713 155.574 93.8484 155.574 93.8484C155.574 93.8484 157.285 92.4799 158.898 89.9384L158.8 89.8407C157.725 88.2767 157.138 86.4194 156.894 84.4644C155.526 85.4419 153.913 85.0509 153.082 83.2914C152.837 82.7538 152.691 82.2162 152.593 81.6786C151.811 82.4117 150.687 82.7049 149.661 82.0695C148.927 81.6297 148.585 80.9455 148.439 80.1635C147.754 80.7011 146.826 80.8477 145.848 80.2123C145.164 79.7725 144.822 79.0882 144.675 78.2573C144.089 78.7461 143.405 78.9905 142.671 78.5017C141.694 77.9152 141.45 76.8399 141.498 75.7158C141.401 75.8136 141.303 75.9602 141.254 76.058C141.107 76.3512 140.472 77.4265 139.495 78.5017C137.931 80.1635 136.073 81.7763 136.073 81.7763C135.976 81.8741 135.829 82.0207 135.731 82.1185C135.731 82.1185 133.19 84.5622 130.99 86.3706C128.791 88.1789 128.498 85.4908 128.107 84.5622C127.716 83.6336 127.423 83.438 126.885 83.7802C126.347 84.1223 124.686 85.1976 123.513 85.8329C122.34 86.4683 122.291 85.4419 122.046 84.2201C121.802 83.0471 121.949 82.5094 121.949 81.7763C116.181 87.739 112.32 101.62 111.538 106.8C110.707 112.176 110.267 117.553 109.437 121.805C108.606 126.057 108.361 127.181 107.677 130.651C106.895 134.512 105.918 135.441 113.835 135.392C115.448 135.392 133.923 135.832 134.07 134.659C134.118 134.366 141.498 134.023 143.649 133.877C145.848 133.73 151.909 133.535 152.642 133.535C153.375 133.535 153.326 133.29 153.326 134.121C153.326 134.952 153.864 135.392 154.744 135.441C155.574 135.49 156.454 135.441 157.334 135.49C157.92 135.539 157.481 133.486 157.481 133.486C157.481 133.486 161.048 133.535 161.684 133.193C162.319 132.851 161.635 130.896 161.293 130.505ZM125.761 131.677C122.828 131.824 118.772 131.238 123.268 130.944C127.765 130.651 135.585 130.944 135.585 130.944C135.585 130.944 128.693 131.531 125.761 131.677ZM147.95 129.576C145.017 129.82 137.686 129.771 135.682 129.771C133.679 129.771 132.408 129.82 132.359 129.332C132.31 128.843 133.874 124.004 137.149 116.82C140.423 109.684 143.014 105.334 143.893 104.014C144.724 102.695 145.848 100.74 146.142 103.574C146.484 106.409 147.315 112.079 147.51 115.695C147.706 119.312 147.412 124.395 147.803 125.422C148.194 126.497 150.882 129.332 147.95 129.576ZM151.958 95.4613C152.202 93.1153 153.375 90.1828 154.401 87.8368C154.988 86.5661 153.766 90.7204 153.375 94.6304C152.984 98.5404 152.837 106.067 152.935 108.022C153.033 109.977 153.717 118.775 153.717 121.756C153.717 124.786 153.913 128.696 153.522 128.745C153.131 128.794 152.3 119.312 152.3 116.82C152.3 114.327 151.811 105.676 151.762 103.721C151.762 101.815 151.567 99.078 151.958 95.4613ZM158.898 131.824C157.676 131.531 156.65 131.189 155.086 131.091C153.473 130.993 152.349 130.847 152.3 130.651C152.251 130.456 157.285 130.358 158.702 130.602C160.169 130.847 160.755 131.335 160.706 131.775C160.657 132.215 160.12 132.117 158.898 131.824Z" fill="white"/>
<path d="M141.498 73.0769C141.986 74.2499 141.693 74.9341 141.693 74.9341C139.249 73.0279 135.633 67.6028 134.509 62.3244C133.384 57.0459 135.437 52.8426 136.708 49.7635C136.806 49.568 136.952 49.3236 137.148 49.5191C137.588 49.959 138.956 51.4253 138.858 52.1095C138.81 52.3539 137.637 53.3314 136.903 54.9931C136.121 56.8015 135.779 59.4407 136.268 62.2266C136.708 65.0613 138.028 68.1893 139.249 69.7533C139.738 70.3398 141.009 71.9527 141.498 73.0769Z" fill="white"/>
<path d="M135.194 47.3687C134.901 47.1243 132.31 44.2896 132.31 44.2896C132.213 44.1919 132.164 44.2407 132.213 44.3385C132.213 44.3385 132.457 45.6581 132.457 46.489C132.457 46.6845 132.31 46.9288 132.115 46.9777C131.577 47.1243 131.04 47.1243 130.453 47.1243C130.306 47.1243 130.258 47.1243 130.258 47.1243C130.111 47.1243 130.111 47.1732 130.209 47.271L134.901 50.6922C134.998 50.7899 135.145 50.7411 135.194 50.5944C135.194 50.5944 135.487 49.8124 135.634 49.5192C136.318 47.9552 135.634 47.7597 135.194 47.3687Z" fill="white"/>
<path d="M131.189 43.1162C131.189 43.0673 131.189 43.0673 131.189 43.0673C131.189 43.0185 131.14 42.8718 131.091 42.7741C131.091 42.7741 130.212 41.6988 129.723 40.9657C129.088 40.1348 128.061 38.0821 128.061 38.0821C128.012 37.9844 127.915 37.9844 127.915 38.0821C127.915 38.0821 127.524 40.5258 127.67 41.8455C127.719 42.1876 127.328 42.3831 127.035 42.3342C125.764 42.0898 123.125 41.6499 123.125 41.6499C122.978 41.6499 122.978 41.6988 123.076 41.7477C123.076 41.7477 125.226 43.4583 126.302 44.2892C127.181 44.9734 128.697 46.1464 128.697 46.1464C128.794 46.2442 128.892 46.293 128.892 46.293C129.674 45.9998 131.238 46.0975 131.238 46.0975C131.385 46.0975 131.482 45.9998 131.434 45.8532C131.482 45.902 131.14 44.1426 131.189 43.1162Z" fill="white"/>
<path d="M121.462 40.1841C122.342 40.4774 123.319 40.5751 124.199 40.7706C125.03 40.9173 125.861 41.1128 126.692 41.2594C126.643 39.7931 126.838 38.278 127.18 36.8607C127.229 36.714 127.18 36.0298 127.083 35.8343C126.741 34.9545 126.447 34.0748 126.154 33.2439C125.372 30.8979 123.075 28.6497 120.68 32.9507C118.285 37.2028 119.654 38.7668 120.387 39.4022C120.485 39.4999 120.533 39.5488 120.631 39.6465C120.778 39.7931 121.315 40.1353 121.462 40.1841Z" fill="white"/>
<path d="M120.435 47.4172C121.021 47.3683 121.559 47.3194 122.146 47.1728C122.781 46.9773 123.416 46.7818 124.052 46.5863C123.514 45.4622 123.025 44.2892 122.732 43.1162C122.683 42.9696 122.39 42.3831 122.243 42.2853C121.755 41.8943 121.266 41.4545 120.777 41.0635C119.8 40.1837 117.6 38.8152 116.818 42.4319C116.036 45.9998 117.649 46.2931 118.382 46.6841C118.773 46.8796 119.213 47.1239 119.604 47.3194C119.702 47.3683 120.239 47.4172 120.435 47.4172Z" fill="white"/>
<path d="M128.743 47.662C128.743 47.5154 128.646 47.3688 128.548 47.271C128.548 47.271 126.006 45.2672 124.638 44.1919C124.394 43.9964 124.051 43.752 124.051 43.752C123.954 43.6543 123.905 43.7032 123.954 43.8498C123.954 43.8498 124.687 45.6582 125.127 46.6356C125.273 46.9289 125.176 47.271 124.833 47.3688C124.003 47.6131 123.221 47.9553 122.39 48.1508C122.145 48.1996 121.95 48.2485 121.95 48.2485C121.803 48.2485 121.803 48.3463 121.95 48.3951C121.95 48.3951 124.051 49.3726 125.224 49.9103C125.909 50.2035 127.033 50.79 127.033 50.79C127.131 50.8389 127.277 50.8878 127.277 50.8878C127.864 50.4968 128.988 50.0569 128.988 50.0569C129.134 50.008 129.183 49.8614 129.134 49.7148L128.743 47.662Z" fill="white"/>
<path d="M129.916 48.3458C129.818 48.248 129.769 48.2969 129.769 48.4435C129.769 48.4435 130.014 49.421 130.209 50.0075C130.307 50.203 130.16 50.4474 129.965 50.5451C129.427 50.8873 128.45 51.2783 128.45 51.2783C128.303 51.3271 128.303 51.4249 128.45 51.4738L133.924 53.6243C134.07 53.6731 134.168 53.6243 134.217 53.4776L134.657 52.0114C134.706 51.8648 134.657 51.7182 134.51 51.6204L129.916 48.3458Z" fill="white"/>
<path d="M121.023 49.2261C120.925 49.0795 120.485 48.7374 120.339 48.6885C120.045 48.5419 119.752 48.4441 119.459 48.2975C118.286 47.711 115.549 47.6133 115.5 50.5457C115.5 53.4294 117.211 54.2602 117.944 54.4068C118.041 54.4068 118.139 54.4557 118.237 54.4557C118.286 54.4069 119.263 54.4068 119.996 54.1625C121.169 53.7715 122.391 52.9895 123.027 52.5985C123.173 52.5007 121.707 50.2525 121.023 49.2261Z" fill="white"/>
<path d="M127.57 52.9402C127.375 52.598 127.179 52.0604 127.179 52.0604C127.13 51.9138 126.984 51.7672 126.886 51.7183C126.886 51.7183 126.006 51.2784 125.42 51.0341C124.442 50.5942 122.731 49.7633 122.731 49.7633C122.634 49.7144 122.585 49.7633 122.634 49.8611C122.634 49.8611 123.171 50.8386 123.513 51.4251C123.758 51.8649 124.393 52.5492 123.953 53.0868C123.513 53.6244 122.487 53.9177 121.901 54.2598C121.461 54.5042 120.776 54.7974 120.776 54.7974C120.679 54.8463 120.679 54.944 120.776 54.944L126.153 55.9215C126.299 55.9215 126.397 55.9215 126.446 55.8726L126.495 55.8238C127.081 55.335 128.059 54.4064 128.059 54.4064C128.157 54.3087 128.205 54.1132 128.157 54.0154C128.059 54.0154 127.814 53.38 127.57 52.9402Z" fill="white"/>
<path d="M128.693 52.6471C128.546 52.5982 128.546 52.6471 128.595 52.7449C128.595 52.7449 128.644 52.8426 128.742 52.9892C128.937 53.3802 129.035 53.7224 129.23 54.1134C129.328 54.3088 129.328 54.5532 129.133 54.6999C128.595 55.1397 127.764 55.9706 127.764 55.9706C127.666 56.0683 127.715 56.1661 127.813 56.1661L133.189 56.9481C133.336 56.9481 133.434 56.8504 133.483 56.7526L133.874 54.8465C133.922 54.6998 133.825 54.5532 133.678 54.5532L128.693 52.6471Z" fill="white"/>
<path d="M126.985 57.1922C126.887 57.0945 126.692 56.9968 126.594 56.9968L122.586 56.3125C122.44 56.3125 122.44 56.3614 122.489 56.4591C122.489 56.4591 122.635 56.6546 122.782 56.8501C123.075 57.2411 123.515 57.6321 123.662 58.1209C123.759 58.5607 123.368 58.9029 123.124 59.1961C122.782 59.5871 122.293 60.2225 122.293 60.2225C122.195 60.3202 122.244 60.418 122.391 60.418C122.391 60.418 124.786 60.2225 126.008 60.1736C126.301 60.1736 126.594 60.1247 126.594 60.1247C126.741 60.1247 126.838 60.0758 126.838 60.0269V59.9781C127.181 59.3916 127.914 58.6585 127.914 58.6585C128.011 58.5607 128.011 58.4141 127.914 58.3163L126.985 57.1922Z" fill="white"/>
<path d="M121.118 60.1252C121.607 59.5387 122.731 58.268 122.536 58.0236C121.998 57.4371 121.558 56.7529 121.021 56.1664C120.923 56.0686 120.581 55.8731 120.483 55.8731C119.799 55.7265 119.114 55.5799 118.381 55.4332C117.55 55.2377 116.084 55.2866 116.475 57.7304C116.866 60.1741 118.43 60.4673 119.114 60.4673C119.505 60.4673 119.848 60.4673 120.239 60.4673C120.336 60.4673 121.021 60.2718 121.118 60.1252Z" fill="white"/>
<path d="M133.241 58.854C133.241 58.6097 133.339 58.2187 133.339 58.2187C133.339 58.0721 133.241 57.9743 133.143 57.9254L128.5 57.29C128.354 57.29 128.354 57.3389 128.451 57.4367C128.451 57.4367 129.038 57.9743 129.282 58.4142C129.429 58.6585 129.331 58.9518 129.087 59.0984C128.696 59.3428 128.207 59.9293 128.207 59.9293C128.109 60.0271 128.158 60.1248 128.305 60.1248L133.046 59.8315C133.192 59.8315 133.29 59.6849 133.29 59.5872C133.241 59.4894 133.192 59.0984 133.241 58.854Z" fill="white"/>
<path d="M130.112 61.9338C130.405 62.1293 130.405 62.4225 130.21 62.7158C129.868 63.1068 129.574 63.791 129.574 63.791C129.526 63.8888 129.574 63.9865 129.721 63.9376L133.387 62.9113C133.533 62.8624 133.582 62.7158 133.582 62.618L133.338 60.9563C133.338 60.8097 133.191 60.7119 133.045 60.7119L129.183 61.0051C129.037 61.0051 129.037 61.1029 129.135 61.1518C129.135 61.2007 129.721 61.6405 130.112 61.9338Z" fill="white"/>
<path d="M122.389 65.6965C122.976 65.3055 123.367 64.5235 123.758 63.937C124.002 63.546 124.296 63.2039 124.54 62.8129C124.149 62.5685 123.758 62.3242 123.318 62.1287C122.878 61.9332 122.438 61.7377 122.047 61.4933C121.95 61.4444 121.559 61.3467 121.461 61.3467C120.825 61.3956 120.19 61.3956 119.604 61.4444C118.87 61.4444 117.844 62.4708 118.137 63.546C118.382 64.2303 118.479 64.5724 118.675 65.0123C119.164 66.2341 120.483 66.4296 121.07 66.2341C121.363 66.1364 121.607 66.0875 121.901 65.9898C121.998 65.9409 122.292 65.7454 122.389 65.6965Z" fill="white"/>
<path d="M127.572 61.2488C127.474 61.1999 127.474 61.1999 127.474 61.1999C127.425 61.1511 127.279 61.0533 127.132 61.1022C127.132 61.1022 125.91 61.1511 125.177 61.1511C124.688 61.1511 123.906 61.1999 123.906 61.1999C123.76 61.1999 123.711 61.2488 123.809 61.2488C123.809 61.2488 123.809 61.2488 123.858 61.2977C124.444 61.5909 124.982 61.9819 125.519 62.2752C125.764 62.3729 125.813 62.7151 125.715 62.9594C125.226 63.6925 124.2 65.2565 124.2 65.2565C124.102 65.3543 124.151 65.452 124.297 65.4032L128.061 64.4257C128.207 64.3768 128.305 64.3279 128.305 64.2791C128.305 64.2791 128.305 64.2791 128.354 64.2302C128.696 63.6437 129.185 62.7151 129.185 62.7151C129.234 62.6173 129.234 62.4218 129.136 62.3241C129.038 62.3241 128.159 61.5909 127.572 61.2488Z" fill="white"/>
<path d="M131.968 65.8925C132.212 65.9903 132.261 66.3324 132.164 66.5768C131.919 67.0656 131.577 67.7987 131.577 67.7987C131.528 67.9453 131.577 67.9942 131.675 67.8964L134.461 66.4302C134.558 66.3813 134.656 66.1858 134.607 66.0881L133.972 64.0842C133.923 63.9376 133.825 63.8887 133.679 63.8887L130.453 64.7684C130.306 64.8173 130.306 64.8662 130.404 64.9639C130.404 64.9639 131.382 65.5993 131.968 65.8925Z" fill="white"/>
<path d="M125.321 70.5351C125.907 69.7531 126.298 68.7756 126.787 67.8958C125.859 67.5048 125.028 66.9672 124.099 66.6251C124.001 66.5762 123.757 66.5273 123.659 66.5273C123.366 66.6251 123.024 66.674 122.731 66.7717C121.02 67.2605 120.629 68.9222 121.069 69.5576C121.264 69.8508 121.46 70.0952 121.655 70.3885C121.997 70.8772 123.024 71.6592 124.197 71.2193C124.686 71.0727 124.881 70.926 125.125 70.8283C125.125 70.8283 125.272 70.6328 125.321 70.5351Z" fill="white"/>
<path d="M128.939 65.2571C128.89 65.2082 128.793 65.2571 128.646 65.2571L125.567 66.0391C125.42 66.088 125.42 66.1368 125.567 66.2346C125.567 66.2346 126.838 66.9188 127.62 67.1632C127.913 67.2609 128.06 67.6031 127.913 67.8963C127.522 68.5806 126.887 69.9002 126.887 69.9002C126.838 69.9979 126.789 70.0956 126.838 70.0956C126.887 70.0956 127.082 70.0468 127.18 69.9979L130.21 68.6783C130.357 68.6294 130.454 68.4828 130.503 68.3362L131.041 66.7722C131.09 66.6745 131.041 66.479 130.943 66.4301C130.943 66.3812 129.721 65.5992 128.939 65.2571Z" fill="white"/>
<path d="M133.973 74.4454C134.266 74.4942 134.364 74.7875 134.315 75.0319C134.217 75.6184 134.168 76.4981 134.168 76.4981C134.168 76.6448 134.217 76.6447 134.315 76.5959L138.225 72.8814C138.323 72.7836 138.323 72.637 138.225 72.5392C138.225 72.5392 138.127 72.3926 137.981 72.1971C137.638 71.7573 137.199 71.0241 137.199 71.0241C137.15 70.9264 136.954 70.8775 136.856 70.9264L131.529 74.2499C131.431 74.2987 131.431 74.3965 131.578 74.3965C131.578 74.3476 133.093 74.3476 133.973 74.4454Z" fill="white"/>
<path d="M133.143 76.8893C133.192 76.3517 133.241 75.8629 133.29 75.3253C132.41 75.2764 131.531 75.3253 130.651 75.2275C130.455 75.2275 129.722 75.3253 129.576 75.4231C129.331 75.5697 129.087 75.7163 128.842 75.8629C128.354 76.1562 127.572 76.8893 128.207 77.378C128.745 77.8179 129.331 78.2089 129.967 78.5511C131.042 79.2353 131.824 78.7954 132.117 78.5511C132.313 78.3556 132.508 78.2089 132.704 78.0134C132.899 77.9157 133.143 77.1337 133.143 76.8893Z" fill="white"/>
<path d="M137.835 78.795C137.835 78.1108 137.835 77.3776 137.738 76.6934C137.395 76.7422 137.004 76.7911 136.662 76.84C136.271 76.8889 135.929 76.9378 135.538 76.9867C135.44 76.9867 135.001 77.231 134.903 77.3288C134.219 77.9641 133.534 78.6484 132.85 79.2838C132.655 79.4304 132.801 79.968 132.997 80.0658C134.463 80.6523 135.636 80.8967 136.027 80.75C136.32 80.6523 136.907 80.0658 137.591 79.3326C137.689 79.2838 137.835 78.8928 137.835 78.795Z" fill="white"/>
<path d="M140.718 75.2272C140.62 75.1294 139.252 73.6143 139.252 73.6143C139.154 73.5166 139.007 73.5166 138.909 73.6143L136.612 75.7648C136.515 75.8626 136.515 75.9114 136.612 75.9114C136.612 75.9114 136.612 75.9114 136.71 75.9114C137.199 75.8625 137.688 75.7159 138.225 75.7159C138.421 75.7159 138.665 75.8626 138.714 76.0581C138.812 76.7423 138.861 77.8175 138.861 77.8175C138.861 77.9642 138.958 77.9642 139.007 77.8664C139.007 77.8664 140.278 76.3513 140.425 76.1558C140.718 75.7648 140.864 75.3738 140.718 75.2272Z" fill="white"/>
<path d="M133.337 68.7276C133.728 68.8254 134.119 68.9231 134.413 69.2164C134.706 69.4607 134.608 69.9494 134.511 70.2916C134.413 70.6337 134.413 71.0736 134.413 71.0736C134.413 71.2202 134.51 71.2691 134.608 71.1713L136.417 70.0472C136.514 69.9983 136.563 69.8028 136.514 69.7051L135.341 67.3591C135.292 67.2613 135.146 67.2125 134.999 67.2614L132.8 68.4343C132.702 68.4832 132.702 68.581 132.8 68.6299C132.849 68.581 133.093 68.6299 133.337 68.7276Z" fill="white"/>
<path d="M128.596 74.934C129.525 74.3963 129.525 72.8323 129.818 71.7571C128.938 71.415 127.228 70.9752 127.032 71.1218C126.494 71.3661 126.006 71.5616 125.468 71.806C124.051 72.3436 124.344 73.8587 124.833 74.3963C125.028 74.5918 125.175 74.7385 125.37 74.934C126.348 75.9114 127.619 75.7159 128.01 75.4227C128.156 75.1783 128.352 75.0806 128.596 74.934C128.596 74.934 127.667 75.4716 128.596 74.934Z" fill="white"/>
<path d="M131.626 69.1667C131.48 69.1179 131.284 69.1667 131.187 69.2156L128.792 70.2908C128.645 70.3397 128.694 70.4375 128.792 70.4375C128.792 70.4375 129.965 70.6819 130.649 70.9751C130.845 71.0728 130.942 71.3172 130.893 71.5127C130.649 72.2947 130.307 73.6144 130.307 73.6144C130.258 73.761 130.356 73.8098 130.453 73.7121L133.239 71.9526C133.337 71.9037 133.435 71.806 133.435 71.7571V71.7082C133.435 71.2683 133.435 70.8774 133.484 70.4375C133.533 70.242 133.533 70.1443 133.533 70.1443C133.582 69.9976 133.581 69.8998 133.581 69.851C133.581 69.8021 133.484 69.7044 133.386 69.6555L131.626 69.1667Z" fill="white"/>
<path d="M106.163 28.7969C106.261 28.8946 106.457 28.9924 106.603 28.9924L110.513 29.139C110.66 29.139 110.758 28.9924 110.709 28.8946C110.709 28.8946 110.122 24.3004 110.171 21.9055C110.171 21.7589 110.025 21.0746 109.927 20.928C109.389 20.2926 108.558 19.2174 107.972 17.9955C107.092 16.0894 105.381 11.7884 105.039 10.9576C104.697 10.1267 104.355 9.98007 104.257 10.9576C104.16 11.9351 103.866 15.9917 104.062 18.582C104.257 21.2213 104.942 26.2554 105.675 28.2104C105.772 28.4059 106.163 28.7969 106.163 28.7969Z" fill="white"/>
<path d="M115.45 31.1421C115.352 31.0444 115.254 30.8489 115.157 30.7511L111.491 24.2019C111.442 24.1042 111.393 24.1042 111.393 24.2508C111.393 24.2508 111.735 27.7698 111.931 29.627C111.98 29.8714 111.735 30.1158 111.491 30.2135C109.878 30.6534 106.897 30.3602 106.897 30.3602C106.75 30.3602 106.652 30.3602 106.652 30.3602C106.652 30.3602 106.75 30.4579 106.848 30.5556C106.946 30.6534 107.092 31.0444 107.19 31.1421L111.247 35.7852C111.344 35.883 111.491 36.0296 111.589 36.1274L115.939 39.4997C116.036 39.5975 116.183 39.5486 116.232 39.402L118.04 35.5409C118.089 35.4431 118.089 35.2476 117.991 35.101L115.45 31.1421Z" fill="white"/>
<path d="M111.297 19.95C111.346 20.0966 111.444 20.2921 111.493 20.3899L111.688 20.6343C111.786 20.732 111.932 20.8786 112.079 20.9275L115.403 22.7359C115.5 22.7847 115.647 22.7359 115.696 22.6381L117.846 18.0439C117.895 17.9461 117.993 17.7018 118.042 17.604L118.14 17.1642C118.14 17.0175 118.188 16.822 118.188 16.6754V15.7468C118.188 15.6001 118.14 15.4046 118.091 15.258C118.091 15.258 117.651 13.8407 117.309 12.7654C116.087 8.85543 115.696 5.0432 115.451 2.74608C115.158 0.448963 114.327 1.86631 114.083 2.45281C113.887 3.03931 112.959 5.33642 112.275 8.22004C111.59 11.0059 111.102 18.6793 111.102 18.6793C111.102 18.8259 111.102 19.0214 111.15 19.168L111.297 19.95Z" fill="white"/>
<path d="M119.507 25.7172C119.067 24.4953 118.725 23.2735 118.529 21.9538C118.432 21.2207 118.334 19.9988 118.334 19.9988C118.334 19.8522 118.236 19.8522 118.187 19.95C118.187 19.95 116.916 22.3448 116.525 23.8111C116.428 24.1043 116.086 24.2998 115.792 24.2021C114.375 23.7622 112.078 22.2471 112.078 22.2471C111.98 22.1493 111.931 22.1982 111.98 22.3448L115.45 29.1384C115.499 29.2362 115.646 29.4317 115.695 29.5294L118.676 33.8304C118.774 33.9282 118.871 33.9282 118.92 33.8304L121.071 30.458C121.169 30.3603 121.169 30.1648 121.12 30.0182C121.217 30.0671 120.044 27.2323 119.507 25.7172Z" fill="white"/>
<path d="M119.459 16.4309L119.508 16.4797V16.5286C119.508 16.5775 119.606 16.6752 119.655 16.773L121.61 19.3145C121.707 19.4122 121.805 19.4122 121.903 19.3145L124.249 15.8444C124.347 15.7466 124.444 15.5511 124.493 15.4045C124.493 15.4045 124.689 14.8669 124.738 14.6225C124.933 11.69 125.324 5.77615 125.471 3.03916C125.666 -0.577573 124.786 1.13304 124.395 1.71954C124.004 2.30603 122.929 4.06553 121.561 6.60702C120.192 9.1485 119.703 12.8141 119.312 15.6489V15.6977C119.312 15.7466 119.313 15.8932 119.361 15.991C119.361 16.0887 119.41 16.3331 119.459 16.4309Z" fill="white"/>
<path d="M124.591 17.702C124.591 17.5553 124.542 17.5553 124.444 17.6531C124.444 17.6531 123.125 19.5592 122.44 20.6344C122.294 20.9277 121.903 21.0255 121.658 20.83C120.828 20.3412 119.557 18.6795 119.557 18.6795C119.459 18.5817 119.41 18.5817 119.41 18.7283C119.41 18.7283 119.655 21.7097 120.046 23.2737C120.534 25.3264 122.049 28.9432 122.049 28.9432C122.098 29.0898 122.196 29.0898 122.294 28.992C122.294 28.992 123.516 27.428 123.76 27.2325C124.689 26.4017 124.689 25.3264 124.64 24.1045C124.542 23.0293 124.591 17.702 124.591 17.702Z" fill="white"/>
<path d="M101.276 46.6354C101.423 46.6354 101.618 46.6843 101.765 46.6354L105.675 46.1467C105.822 46.1467 105.87 46.0489 105.822 45.9023L102.596 39.5486C102.547 39.4508 102.4 39.2553 102.351 39.1576C102.351 39.1576 102.156 38.9132 102.058 38.8643C101.423 38.4733 100.787 37.9846 100.348 37.5936C99.0768 36.5183 97.1218 34.5633 95.1179 32.4617C93.1141 30.3601 94.9224 35.8341 95.851 38.0823C96.7797 40.3794 98.7836 44.1428 99.4678 45.0226C99.5655 45.1692 99.6633 45.3158 99.6633 45.3158C99.761 45.4135 99.9077 45.609 100.005 45.7068L100.739 46.391C100.836 46.4888 101.032 46.5865 101.13 46.6354H101.276Z" fill="white"/>
<path d="M114.472 48.0036C114.472 47.857 114.374 47.7104 114.277 47.6615C114.277 47.6615 109.878 45.2667 107.776 43.6049C106.554 42.6274 104.502 40.6724 104.502 40.6724C104.404 40.5747 104.355 40.6235 104.453 40.7213C104.453 40.7213 106.212 44.4358 107.336 46.293C107.532 46.5863 107.336 47.075 106.994 47.1728C105.479 47.5149 102.644 47.7104 102.644 47.7104C102.498 47.7104 102.498 47.8081 102.595 47.857C102.595 47.857 106.261 50.0564 108.216 50.8384C110.122 51.5715 114.325 52.7934 114.325 52.7934C114.472 52.8422 114.57 52.7445 114.57 52.5979L114.472 48.0036Z" fill="white"/>
<path d="M102.645 49.3238C102.596 49.2261 102.449 49.0305 102.351 48.9817L98.4415 45.7071C98.3437 45.6093 98.1482 45.4627 98.0505 45.4138C98.0505 45.4138 96.2421 44.2897 94.9225 43.5566C92.772 42.3347 93.4074 43.6054 93.8473 44.6318C94.2383 45.6582 95.118 47.5643 96.4376 50.008C97.6106 52.2074 102.938 55.8241 102.938 55.8241C103.036 55.9219 103.231 55.9708 103.378 55.9708C103.524 55.9708 103.769 55.873 103.867 55.7753L105.235 54.7C105.333 54.6023 105.382 54.4557 105.333 54.309L102.645 49.3238Z" fill="white"/>
<path d="M114.767 54.4557C114.767 54.3091 114.62 54.1625 114.523 54.1625C114.523 54.1625 112.274 53.4293 111.101 53.0383C109.488 52.5007 107.827 51.9631 106.263 51.1811C105.676 50.8879 104.699 50.3502 104.699 50.3502C104.601 50.3014 104.503 50.3502 104.601 50.448C104.601 50.448 105.774 53.0872 106.751 54.3091C106.947 54.5535 106.996 55.0422 106.654 55.2377C105.823 55.5798 104.699 56.6062 104.699 56.6062C104.601 56.7039 104.503 56.7528 104.552 56.8017C104.552 56.8017 104.699 56.8506 104.796 56.8995L110.71 58.4146C110.857 58.4634 111.052 58.4634 111.199 58.5123L115.353 58.9522C115.5 58.9522 115.598 58.8545 115.549 58.7078L114.767 54.4557Z" fill="white"/>
<path d="M105.038 63.8886C105.136 63.8398 105.331 63.6931 105.38 63.5954L106.846 61.9825C106.944 61.8848 106.944 61.7382 106.846 61.6404C106.846 61.6404 104.354 59.3922 103.278 57.877C103.23 57.7793 102.79 57.6327 102.594 57.6327C101.519 57.5838 98.4887 57.7793 97.0713 57.9259C95.7028 58.0725 95.4096 58.5613 95.7517 59.0011C96.1427 59.3921 96.9247 60.223 98.1954 61.2005C99.2707 62.0314 104.256 63.9375 104.256 63.9375C104.403 63.9864 104.598 63.9864 104.696 63.9375L105.038 63.8886Z" fill="white"/>
<path d="M115.842 60.3688C115.793 60.2222 115.646 60.1244 115.549 60.1244L111.834 59.7823C111.687 59.7823 111.492 59.7334 111.345 59.6846L105.383 58.316C105.236 58.2672 105.236 58.3161 105.334 58.4138C105.334 58.4138 107.435 60.3199 108.364 61.5418C108.511 61.7373 108.462 62.0794 108.266 62.2749C107.435 62.9103 106.262 64.3277 106.262 64.3277C106.165 64.4254 106.116 64.5232 106.165 64.5232C106.214 64.5232 106.409 64.5721 106.556 64.5721C106.556 64.5721 109.928 64.4743 111.345 64.3765C113.203 64.2299 116.575 63.6434 116.575 63.6434C116.722 63.6434 116.77 63.4968 116.722 63.3502L115.842 60.3688Z" fill="white"/>
<path d="M109.391 70.8771C109.44 70.7794 109.537 70.6327 109.586 70.4861L110.27 68.4823C110.319 68.3357 110.27 68.189 110.124 68.0913C110.124 68.0913 107.925 66.6739 106.703 65.9408C106.556 65.843 106.409 65.7453 106.409 65.7453C106.312 65.6964 106.067 65.5987 105.97 65.5987L105.627 65.5498C105.481 65.5498 105.285 65.5498 105.139 65.5987C105.139 65.5987 103.575 66.0874 103.037 66.2829C101.766 66.6739 99.7624 68.2379 99.6158 68.8244C99.4692 69.4109 101.864 69.9974 104.161 70.4861C105.774 70.8282 109 70.926 109 70.926C109.098 71.0238 109.342 70.9749 109.391 70.8771Z" fill="white"/>
<path d="M111.344 67.5544C111.54 67.701 111.735 67.9454 111.588 68.2387C111.246 69.0695 110.806 70.5846 110.806 70.5846C110.758 70.7313 110.855 70.7802 110.953 70.7313L115.059 69.3139C115.205 69.265 115.401 69.1673 115.498 69.1184L118.382 67.9454C118.529 67.8965 118.578 67.7499 118.48 67.6522L117.258 64.9641C117.209 64.8174 117.062 64.7686 116.916 64.7686C116.916 64.7686 112.126 65.5505 109.536 65.6483C109.194 65.6483 108.754 65.6483 108.754 65.6483C108.607 65.6483 108.607 65.6972 108.705 65.7949C108.754 65.8438 110.415 66.8702 111.344 67.5544Z" fill="white"/>
<path d="M113.936 76.5957C113.985 76.4979 114.034 76.2536 114.034 76.1558L113.936 73.6632C113.936 73.5166 113.79 73.37 113.692 73.3211L110.613 72.5391C110.466 72.5391 110.271 72.5391 110.124 72.588C110.124 72.588 109.978 72.6368 109.929 72.6368C109.88 72.6857 109.782 72.7346 109.733 72.7834C108.365 73.7121 107.974 73.9076 107.289 75.4227C106.605 76.9378 107.241 77.6221 107.68 77.7687C108.12 77.9153 110.369 77.7687 111.542 77.6221C112.128 77.5243 113.545 76.9867 113.545 76.9867C113.692 76.9378 113.839 76.8401 113.936 76.7423C113.985 76.5468 113.936 76.5957 113.936 76.5957Z" fill="white"/>
<path d="M119.409 69.0691C119.312 68.9713 119.165 68.9225 119.067 68.9713L116.624 69.9488C116.477 69.9977 116.281 70.0955 116.184 70.1443L112.567 71.4639C112.42 71.5128 112.42 71.5617 112.567 71.6106C112.567 71.6106 114.082 72.0505 114.864 72.5881C115.108 72.7836 115.157 72.979 115.157 73.2723C115.011 74.2009 115.255 75.8138 115.255 75.8138C115.255 75.9604 115.402 76.0093 115.499 75.9115C115.499 75.9115 116.77 74.9341 117.454 74.2987C118.579 73.2723 120.827 71.4639 120.827 71.4639C120.925 71.3662 120.973 71.2196 120.876 71.1218L119.409 69.0691Z" fill="white"/>
<path d="M120.043 76.9385C120.092 76.9385 120.189 76.9874 120.336 77.0363L120.532 77.1829C120.58 77.2806 120.678 77.4761 120.776 77.6228C120.776 77.6228 121.265 78.3559 121.46 78.8935C121.607 79.1867 121.705 79.5778 121.705 79.5778C121.753 79.7244 121.851 79.7244 121.9 79.5778L122.926 77.7205C122.975 77.6228 123.122 77.4273 123.171 77.2807L124.246 75.6189C124.344 75.5212 124.295 75.3256 124.197 75.2279L121.802 72.3932C121.705 72.2954 121.558 72.2466 121.46 72.3443C121.46 72.3443 118.528 74.5925 117.892 75.3257C117.257 76.0588 116.866 76.743 116.866 76.743C116.817 76.8408 116.866 76.9385 117.013 76.9385C117.013 76.9385 118.968 76.9385 120.043 76.9385Z" fill="white"/>
<path d="M120.726 80.3097C120.629 79.821 120.482 79.3322 120.189 78.8923C119.993 78.5991 119.798 78.3059 119.798 78.3059C119.749 78.2081 119.553 78.1104 119.407 78.1104L117.061 78.1592C116.914 78.1592 116.719 78.2081 116.621 78.257C116.621 78.257 116.474 78.3059 116.474 78.4525C116.377 78.9413 116.23 79.5766 116.132 80.212C115.986 81.0429 115.986 81.8737 115.937 82.4602C115.79 83.731 116.768 83.1445 117.403 82.8513C118.038 82.558 119.505 81.6782 120.14 81.2872C120.287 81.1895 120.384 81.1406 120.384 81.1406C120.482 81.0429 120.629 80.8962 120.677 80.7496C120.677 80.7007 120.775 80.4564 120.726 80.3097Z" fill="white"/>
<path d="M127.084 82.5095C127.182 82.4117 127.279 82.2162 127.328 82.0696L127.67 81.2387C127.719 81.0921 127.817 80.8966 127.866 80.7988L128.55 79.0882C128.599 78.9416 128.55 78.795 128.452 78.7461C128.452 78.7461 127.573 78.1596 126.986 77.7686C126.448 77.3776 125.422 76.449 125.422 76.449C125.324 76.3512 125.178 76.3513 125.129 76.4979L124.005 78.2574C123.956 78.3551 123.809 78.5506 123.76 78.6973L122.929 80.1635C122.881 80.2612 122.783 80.5056 122.783 80.6033C122.783 80.6033 122.685 81.0432 122.685 81.141C122.685 81.6297 122.636 82.6072 122.832 83.9268C123.027 85.2465 123.614 84.7089 124.249 84.3179C124.836 83.9757 126.106 83.3403 126.839 82.9005C126.888 82.8027 127.084 82.5095 127.084 82.5095Z" fill="white"/>
<path d="M132.359 80.7498C131.871 80.5543 129.867 79.528 129.867 79.528C129.769 79.4791 129.622 79.5279 129.574 79.6257L129.036 80.9454C128.987 81.092 128.889 81.2875 128.84 81.3852L128.401 82.5093C128.352 82.6559 128.303 82.8514 128.254 82.9981C128.254 82.9981 128.254 83.1447 128.254 83.1936C128.401 83.5846 128.889 84.611 129.231 85.2952C129.574 85.9795 129.72 85.7351 130.16 85.4907C130.6 85.2463 131.92 84.1222 132.311 83.7801C132.702 83.4379 134.217 82.2161 134.363 81.8251C134.51 81.4341 133.19 81.092 132.359 80.7498Z" fill="white"/>
<path d="M103.33 37.4475C103.379 37.5452 103.477 37.6918 103.574 37.7407C103.672 37.7896 103.917 37.8385 104.063 37.8385L107.191 37.7407C107.338 37.7407 107.436 37.5941 107.387 37.4963C107.387 37.4963 106.947 35.1015 106.458 33.7819C106.214 33.0487 105.969 31.8757 105.969 31.8757C105.969 31.7291 105.872 31.5336 105.823 31.387L105.09 29.7252C105.041 29.6275 104.894 29.432 104.796 29.3342C104.796 29.3342 104.601 29.1387 104.356 28.8944C103.135 27.477 101.571 25.7175 99.3224 22.785C97.0253 19.8036 98.296 24.0558 99.0291 27.086C99.7622 30.1162 101.277 33.2442 103.281 37.252C103.281 37.4475 103.33 37.4475 103.33 37.4475Z" fill="white"/>
<path d="M111.588 37.4958C111.491 37.398 111.295 37.2514 111.197 37.1537L107.629 33.488C107.532 33.3903 107.532 33.3903 107.581 33.5369C107.581 33.5369 107.825 34.1723 107.972 34.6122C108.314 35.7363 108.46 36.9093 108.656 38.0334C108.705 38.3266 108.558 38.6688 108.265 38.7665C107.043 39.0598 104.844 39.0598 104.844 39.0598C104.697 39.0598 104.697 39.1575 104.795 39.2553C104.795 39.2553 107.532 41.9434 109.145 43.1653C110.904 44.4849 114.374 46.391 114.374 46.391C114.472 46.4399 114.619 46.391 114.619 46.2444C114.619 46.2444 114.619 46.2444 114.619 46.0978C114.814 44.2894 115.792 40.917 115.792 40.917C115.84 40.7704 115.792 40.6238 115.645 40.526L111.588 37.4958Z" fill="white"/>
<path d="M159.535 50.2032C159.535 50.2032 161.49 49.6656 163.103 50.6431C164.667 51.6205 164.862 52.3048 165.058 53.1357C165.204 53.771 164.862 54.2598 164.862 54.2598C164.862 54.2598 162.419 54.0643 161.49 53.38C160.561 52.6958 159.975 52.0115 159.682 51.3762C159.437 50.6919 159.535 50.2032 159.535 50.2032Z" fill="white"/>
<path d="M164.276 51.5232C164.276 52.4029 163.592 53.0872 162.712 53.0872C161.833 53.0872 161.148 52.4029 161.148 51.5232C161.148 50.8389 161.588 50.2524 162.224 50.0569C162.37 50.0081 164.276 51.3766 164.276 51.5232Z" fill="white"/>
<path d="M165.45 52.8434C165.205 51.8659 163.983 50.0575 161.735 49.7643C159.487 49.471 159.291 49.5688 158.558 49.3244C157.825 49.08 155.381 47.3205 155.186 47.125C154.942 46.9295 154.844 47.8093 154.844 47.8093C154.844 47.8093 158.314 49.9598 158.558 50.1553C158.705 50.253 159.389 52.4524 161.149 53.5276C162.81 54.554 165.498 54.5051 165.498 54.5051C165.596 54.4074 165.743 53.8209 165.45 52.8434ZM161.637 53.0389C159.731 51.8659 159.682 50.253 159.682 50.253C159.682 50.253 161.637 49.9598 163.25 50.9861C164.863 52.0125 164.863 53.6254 164.863 53.6254C164.863 53.6254 163.543 54.2119 161.637 53.0389Z" fill="white"/>
<path d="M11.3464 110.711V99.0786C11.3464 98.2477 11.0531 97.8078 10.4178 97.8078C9.92903 97.8078 9.48916 98.0033 9.14704 98.3455C8.80492 98.6876 8.65829 99.1274 8.65829 99.6162V103.233H0.398438V93.5068H32.5581V103.233H24.3471V99.6162C24.3471 98.9808 24.0539 98.4921 23.4674 98.1499C23.0764 97.9544 22.7342 97.8567 22.441 97.8567C21.8056 97.8567 21.5124 98.2477 21.5124 99.0297L21.5612 110.613C21.5612 111.297 21.9522 111.884 22.7342 112.372C23.4185 112.812 24.1027 113.008 24.787 113.008V117.065H8.56054V113.008C9.19591 113.008 9.7824 112.764 10.4178 112.275C11.0043 111.835 11.3464 111.297 11.3464 110.711Z" fill="white"/>
<path d="M52.4998 117.748C48.2477 117.748 44.631 116.82 41.6008 114.913C38.0329 112.714 36.2734 109.586 36.2734 105.578C36.2734 101.18 37.8863 97.9539 41.1609 95.8034C43.8979 93.9951 47.6124 93.0664 52.2066 93.0664C56.752 93.0664 60.4664 93.9462 63.2523 95.7545C66.6735 97.905 68.3842 101.131 68.3842 105.383C68.3842 109.391 66.6735 112.519 63.2523 114.816C60.3198 116.771 56.7031 117.748 52.4998 117.748ZM52.4998 97.6118C51.0336 97.6118 49.9584 98.5893 49.1275 100.593C48.541 102.059 48.2478 103.672 48.2478 105.432C48.2478 110.564 49.6163 113.154 52.3044 113.154C54.9925 113.154 56.361 110.564 56.361 105.383C56.361 103.672 56.1166 102.059 55.6278 100.642C54.8947 98.5893 53.8683 97.6118 52.4998 97.6118Z" fill="white"/>
<path d="M85.3408 107.583V110.808C85.3408 111.346 85.5852 111.884 86.0739 112.421C86.3183 112.666 87.1981 112.861 88.6154 112.861V117.162H72.1446V113.106C72.8778 113.106 73.4642 112.861 74.0019 112.421C74.4906 111.982 74.735 111.395 74.735 110.662V100.203C74.735 99.4696 74.4906 98.883 73.953 98.4431C73.4154 98.0033 72.78 97.8078 72.0469 97.8078V93.5557H96.4843C98.4393 93.5557 100.15 94.1422 101.567 95.2663C103.082 96.537 103.864 98.1011 103.864 100.007C103.864 102.011 103.18 103.673 101.86 105.041C100.541 106.41 98.8791 107.094 96.9242 107.094H86.1717C85.6341 107.045 85.3408 107.241 85.3408 107.583ZM90.7659 102.255C91.7923 102.255 92.3299 101.522 92.3299 100.105C92.3299 99.5673 92.1833 99.1274 91.8412 98.6875C91.499 98.2965 91.1081 98.101 90.6682 98.101H85.7807C85.2431 98.101 84.9987 98.3454 84.9987 98.7853V101.571C84.9987 102.011 85.2431 102.207 85.7318 102.207H90.7659V102.255Z" fill="white"/>
<path d="M187.392 93.5559H191.595V103.575H183.775L183.237 101.034C182.846 99.1765 181.576 98.2479 179.376 98.2479C178.301 98.2479 177.421 98.6878 176.786 99.6164C176.199 100.447 175.955 101.376 175.955 102.549V109.049C175.955 110.027 176.346 110.809 177.079 111.444C177.812 112.08 178.692 112.422 179.718 112.422C180.696 112.422 181.478 112.177 182.162 111.64C182.846 111.102 183.237 110.418 183.384 109.538L183.824 106.606H191.595L191.448 109.147C191.057 114.865 186.805 117.749 178.594 117.749C174.635 117.749 171.263 116.723 168.428 114.621C165.3 112.324 163.688 109.245 163.688 105.433C163.688 101.669 165.349 98.6389 168.624 96.3418C171.556 94.2891 174.978 93.3115 178.888 93.3115C180.549 93.3115 182.358 93.7025 184.215 94.4357C184.264 94.4357 184.508 94.5823 184.948 94.8267C185.192 94.9733 185.486 95.0711 185.73 95.0711C186.121 95.0711 186.463 94.9244 186.756 94.6312C186.805 94.3379 187.05 94.0446 187.392 93.5559Z" fill="white"/>
<path d="M208.02 110.124C207.14 110.124 206.651 110.662 206.651 111.688C206.651 112.324 206.993 112.666 207.727 112.763L209.193 112.959L209.242 117.113H195.557L195.508 112.763C195.752 112.763 195.997 112.763 196.241 112.763C197.512 112.763 198.44 112.03 199.076 110.515L206.407 93.5557H216.719L224.051 110.417C224.735 111.981 225.957 112.763 227.716 112.763V117.113H211.588V112.861L213.054 112.666C213.738 112.568 214.08 112.226 214.08 111.59C214.08 110.564 213.592 110.075 212.663 110.075H208.02V110.124ZM210.121 102.255L208.606 106.41H211.636L210.121 102.255Z" fill="white"/>
<path d="M242.62 110.711V99.0786C242.62 98.2477 242.327 97.8078 241.691 97.8078C241.202 97.8078 240.763 98.0033 240.42 98.3455C240.078 98.6876 239.932 99.1274 239.932 99.6162V103.233H231.672V93.5068H263.832V103.233H255.669V99.6162C255.669 98.9808 255.376 98.4921 254.79 98.1499C254.399 97.9544 254.057 97.8567 253.763 97.8567C253.128 97.8567 252.835 98.2477 252.835 99.0297L252.884 110.613C252.884 111.297 253.275 111.884 254.057 112.372C254.741 112.812 255.425 113.008 256.109 113.008V117.065H239.883V113.008C240.518 113.008 241.105 112.764 241.74 112.275C242.278 111.835 242.62 111.297 242.62 110.711Z" fill="white"/>
</svg>
