<svg width="500" height="500" viewBox="0 0 500 500" fill="none" xmlns="http://www.w3.org/2000/svg">
<path d="M162.867 345.1C167.067 345.1 169.767 340.9 169.767 334.7C169.767 329.5 167.767 324.3 162.867 324.3C157.667 324.3 155.767 329.6 155.767 334.7C155.767 340.6 158.267 345.1 162.867 345.1ZM181.367 304.7H101.267C101.267 304.7 88.5668 304.7 81.4668 316.5C82.8668 316.5 84.8668 316.5 87.4668 316.5C93.7668 316.5 101.567 318.8 101.567 325.9C101.567 330.5 97.4668 332.8 94.0668 333.6V333.9C98.3668 334.4 103.067 336.8 103.067 342.1C103.067 350.6 92.8668 352.8 85.7668 352.8C80.9668 352.8 76.6668 351.6 73.9668 350.3L76.9668 343.5C78.7668 344.2 80.8668 345.2 84.4668 345.2C88.9668 345.2 91.1668 343.6 91.1668 341.5C91.1668 338.7 88.2668 337.6 83.6668 337.6H79.6668L82.5668 331H83.5668C87.9668 331 90.0668 329.5 90.0668 327.5C90.0668 325.6 87.9668 324.1 84.1668 324.1C81.7668 324.1 79.4668 324.3 77.3668 325L66.4668 349.8C66.4668 349.8 59.8668 364.6 74.6668 364.6H154.767C154.767 364.6 169.567 364.6 176.067 349.8L178.467 344.3C175.167 350.1 168.967 352.8 162.567 352.8C152.367 352.8 144.567 346.1 144.567 334.9C144.567 323.7 151.967 316.5 163.067 316.5C173.767 316.5 180.867 323.8 180.867 334.3C180.867 337 180.467 339.3 179.767 341.4L189.567 319.5C189.567 319.4 196.167 304.7 181.367 304.7ZM141.467 334.3C141.467 347 132.467 352.8 123.167 352.8C112.967 352.8 105.167 346.1 105.167 334.9C105.167 323.7 112.567 316.5 123.667 316.5C134.367 316.5 141.467 323.8 141.467 334.3ZM130.367 334.6C130.367 329.4 128.367 324.2 123.467 324.2C118.267 324.2 116.367 329.5 116.367 334.6C116.367 340.6 118.867 345 123.467 345C127.667 345.1 130.367 340.9 130.367 334.6Z" fill="white"/>
<path d="M389.668 334.2C389.668 323.1 382.868 316.5 375.268 316.5C370.268 316.5 366.268 318.4 363.668 322.1H363.568L363.068 317.3H353.668C353.768 320.5 353.968 324.4 353.968 329V364.6H364.768V348.9H364.868C366.468 351.2 369.668 352.9 373.868 352.9C381.668 352.8 389.668 346.8 389.668 334.2ZM378.768 334.7C378.768 340.6 375.968 344.5 371.268 344.5C368.168 344.5 365.668 342.3 364.968 339.4C364.868 338.8 364.768 338 364.768 337.1V332.3C364.768 331.7 364.868 330.9 364.968 330.4C365.668 327.2 368.368 324.9 371.468 324.9C376.268 325 378.768 329.1 378.768 334.7ZM351.468 334.3C351.468 323.9 344.368 316.5 333.668 316.5C322.468 316.5 315.168 323.7 315.168 334.9C315.168 346.1 322.968 352.8 333.168 352.8C342.468 352.8 351.468 347 351.468 334.3ZM340.368 334.6C340.368 340.9 337.668 345 333.468 345C328.868 345 326.368 340.5 326.368 334.6C326.368 329.5 328.268 324.2 333.468 324.2C338.368 324.2 340.368 329.4 340.368 334.6ZM312.268 334.8C312.268 323.6 303.868 317.7 293.968 316.8C293.968 316.8 291.868 316.6 288.768 316.6C285.168 316.6 284.168 316.8 284.168 316.8C274.268 317.8 265.868 323.6 265.868 335C265.868 346.1 274.468 352 284.268 352.8V364.7H294.068V352.7C303.668 351.9 312.268 346.1 312.268 334.8ZM284.168 345.6C278.968 344.4 276.468 340.3 276.468 334.7C276.468 329.4 278.868 325 284.168 323.8V345.6ZM301.668 334.6C301.668 340.1 299.168 344.3 293.968 345.5V323.7C299.168 325 301.668 329.2 301.668 334.6ZM252.568 352H263.468V317.3H252.568V329.9H241.668V317.3H230.868V352H241.668V338.2H252.568V352ZM214.968 352H225.168V317.3H211.968L205.168 332.2C203.768 335.5 202.868 338.2 201.168 342.1L200.868 342C201.168 337.3 201.468 333.4 201.468 327.9V317.2H191.268V351.9H204.368C206.768 346.5 209.368 340.5 211.568 335.6C212.968 332.3 213.868 330.1 215.168 326.2H215.468C215.068 333.6 214.868 335.9 214.868 341.3V352H214.968ZM393.168 322.3L391.068 352H400.768L401.368 338.3C401.468 335.4 401.568 330.5 401.768 326.1H402.068C402.868 329.4 403.968 334.3 404.868 337.6L408.968 351.4H416.868L421.468 337.3C423.268 331.7 423.468 330.5 424.768 325.9H424.968C425.068 330 425.268 335.1 425.368 338.1L425.968 352H435.968L434.168 322.3C434.168 322.3 434.068 316.5 426.468 316.5C419.768 316.5 418.668 322.3 418.668 322.3L416.368 329.7C415.368 333 414.268 336.8 413.568 339.2H413.368C412.668 336.1 411.668 332.5 411.068 330.5L408.768 322.4C408.768 322.4 407.568 316.6 400.368 316.6C393.368 316.5 393.168 322.3 393.168 322.3Z" fill="white"/>
<path d="M317.367 154.1C317.367 154.1 321.067 146.1 321.067 142.6C321.067 139 319.367 136 314.667 136H270.567C270.567 136 265.867 136 263.967 140.2C263.967 140.2 201.967 279 199.367 284.3C197.967 287.3 196.767 290.4 196.467 293.2C196.067 296 197.467 300.4 202.167 300.4H246.667C246.667 300.4 251.367 300.4 253.267 296.2L317.367 154.1ZM251.367 196C254.967 194.1 258.867 193.1 262.967 193.1C266.367 193.1 268.867 194.1 270.667 196C272.367 198 273.267 200.1 273.267 202.5C273.267 203.5 273.167 204.5 272.967 205.6C272.767 206.7 272.567 207.7 272.367 208.7C272.167 209.9 271.767 211.2 271.367 212.5C270.867 213.8 270.467 215 270.167 216.1C269.667 217.2 269.267 218.3 268.867 219.3C268.467 220.3 268.067 221.2 267.767 222L259.767 245.2C259.767 245.2 258.467 248.5 257.567 251.2C257.467 251.4 257.167 252.4 257.167 252.7C256.967 253.4 256.867 254.1 256.867 254.4C257.067 259.9 262.367 255 264.867 251.5C264.967 251.4 264.967 251.4 264.967 251.3C265.667 250.4 266.367 249.4 267.067 248.4C267.867 247.2 268.667 245.7 269.467 244.4C270.067 243 272.367 238.5 274.767 239.4C277.567 240.4 275.867 244.2 275.167 245.5C274.967 246 274.567 246.6 274.267 247.2C274.167 247.3 273.567 248.3 273.367 248.8C272.867 249.6 272.467 250.3 271.967 251.1C271.467 251.8 271.167 252.4 270.967 252.7C267.867 257.4 264.067 261.6 259.367 265.3C254.667 269 249.467 271.2 243.767 272L241.367 272.2C238.167 272.1 235.967 271.1 234.567 269.1C233.167 267.1 232.567 264.8 232.567 262.1C232.567 260.6 232.667 259 232.967 257.3C233.267 255.6 233.667 253.9 234.067 252.2C234.367 250.9 234.767 249.5 235.267 248.1C235.767 246.7 236.167 245.4 236.667 244.1C237.367 242.3 237.967 240.7 238.667 239.2C239.267 237.7 239.767 236.5 240.067 235.5L248.867 211C249.167 210.1 249.267 209.8 249.567 208.8C249.767 208 249.767 207.7 249.767 207.2C249.767 206.6 249.467 206.1 249.367 205.9C249.167 205.7 248.967 205.6 248.567 205.6C248.267 205.6 247.767 205.8 247.167 206.1C246.567 206.4 245.867 206.9 245.167 207.4C244.667 207.7 244.267 208.1 243.867 208.6C243.467 209 243.067 209.4 242.767 209.8C242.667 209.9 242.567 210.1 242.467 210.2C242.367 210.4 242.267 210.5 242.167 210.6C241.867 211 241.367 211.7 240.767 212.7C240.167 213.7 239.567 214.6 238.867 215.6C238.767 215.8 238.567 216.1 238.467 216.4C238.267 216.7 238.167 216.9 238.067 217.2C237.367 218.2 236.667 219.1 236.067 219.9C235.367 220.7 234.867 220.9 234.367 220.9C233.867 220.9 233.467 220.9 232.967 220.7C232.467 220.4 232.267 220.2 231.867 219.8C231.667 219.5 231.567 219.1 231.567 218.8C231.567 217.9 231.767 216.9 232.267 215.8C232.767 214.7 233.367 213.6 234.167 212.4C234.667 211.6 235.167 210.9 235.667 210.1C236.267 209.4 236.767 208.7 237.367 208C238.167 207 238.967 206.1 239.767 205.2C240.567 204.4 241.267 203.7 241.767 203.3C244.467 200.3 247.767 197.9 251.367 196ZM282.267 179.8C279.667 187.3 272.167 191.6 265.567 189.3C258.967 187 255.667 179 258.267 171.5C260.867 164 268.367 159.7 274.967 162C281.567 164.3 284.867 172.3 282.267 179.8ZM250.167 148.8C255.767 136 255.767 136 255.767 136H201.767V179.5C201.767 180.8 201.767 185.9 208.067 185.9C212.567 185.9 213.667 183 214.767 179.3C219.267 163 231.867 152.3 250.167 148.8ZM267.267 287.7C261.467 300.4 261.467 300.4 261.467 300.4H319.267C319.267 300.4 319.267 300.4 319.067 255.6C319.067 254.3 319.067 249.2 312.767 249.2C308.467 249.2 307.367 252.1 306.267 255.8C298.167 276.1 290.567 282.9 267.267 287.7Z" fill="white"/>
<path d="M38.725 391.5H41.2V405L51.55 391.5H53.85V409H51.4V395.525L41.025 409H38.725V391.5ZM74.3561 391.5V409H71.8561V401.2H61.8061V409H59.3061V391.5H61.8061V399.025H71.8561V391.5H74.3561ZM99.1139 400.225C99.1139 402.542 98.3055 404.358 96.6889 405.675C95.0722 406.992 92.7889 407.7 89.8389 407.8V409.65H87.5139V407.8C84.5639 407.683 82.2722 406.967 80.6389 405.65C79.0222 404.333 78.2139 402.525 78.2139 400.225C78.2139 397.908 79.0222 396.092 80.6389 394.775C82.2722 393.458 84.5639 392.742 87.5139 392.625V390.85H89.8389V392.625C92.7722 392.742 95.0472 393.467 96.6639 394.8C98.2972 396.117 99.1139 397.925 99.1139 400.225ZM89.8389 405.85C92.0722 405.717 93.7722 405.175 94.9389 404.225C96.1222 403.258 96.7139 401.917 96.7139 400.2C96.7139 398.517 96.1139 397.2 94.9139 396.25C93.7305 395.283 92.0389 394.733 89.8389 394.6V405.85ZM80.6389 400.225C80.6389 401.925 81.2305 403.258 82.4139 404.225C83.6139 405.175 85.3139 405.717 87.5139 405.85V394.6C85.2805 394.733 83.5722 395.275 82.3889 396.225C81.2222 397.175 80.6389 398.508 80.6389 400.225ZM110.833 409.2C109.067 409.2 107.475 408.817 106.058 408.05C104.642 407.267 103.525 406.192 102.708 404.825C101.908 403.458 101.508 401.933 101.508 400.25C101.508 398.567 101.908 397.042 102.708 395.675C103.525 394.308 104.642 393.242 106.058 392.475C107.475 391.692 109.067 391.3 110.833 391.3C112.583 391.3 114.167 391.692 115.583 392.475C117 393.242 118.108 394.308 118.908 395.675C119.708 397.025 120.108 398.55 120.108 400.25C120.108 401.95 119.708 403.483 118.908 404.85C118.108 406.2 117 407.267 115.583 408.05C114.167 408.817 112.583 409.2 110.833 409.2ZM110.833 406.975C112.117 406.975 113.267 406.683 114.283 406.1C115.317 405.517 116.125 404.717 116.708 403.7C117.308 402.667 117.608 401.517 117.608 400.25C117.608 398.983 117.308 397.842 116.708 396.825C116.125 395.792 115.317 394.983 114.283 394.4C113.267 393.817 112.117 393.525 110.833 393.525C109.55 393.525 108.383 393.817 107.333 394.4C106.3 394.983 105.483 395.792 104.883 396.825C104.3 397.842 104.008 398.983 104.008 400.25C104.008 401.517 104.3 402.667 104.883 403.7C105.483 404.717 106.3 405.517 107.333 406.1C108.383 406.683 109.55 406.975 110.833 406.975ZM130.975 391.5C133.241 391.5 135.025 392.042 136.325 393.125C137.625 394.208 138.275 395.7 138.275 397.6C138.275 399.5 137.625 400.992 136.325 402.075C135.025 403.158 133.241 403.7 130.975 403.7H126.65V409H124.15V391.5H130.975ZM130.9 401.525C132.483 401.525 133.691 401.192 134.525 400.525C135.358 399.842 135.775 398.867 135.775 397.6C135.775 396.333 135.358 395.367 134.525 394.7C133.691 394.017 132.483 393.675 130.9 393.675H126.65V401.525H130.9ZM157.977 409L157.952 396.25L151.627 406.875H150.477L144.152 396.325V409H141.752V391.5H143.802L151.102 403.8L158.302 391.5H160.352L160.377 409H157.977ZM177.2 404.625H167.9L165.975 409H163.4L171.325 391.5H173.8L181.75 409H179.125L177.2 404.625ZM176.325 402.625L172.55 394.05L168.775 402.625H176.325ZM202.17 406.825V412.975H199.845V409H184.77V391.5H187.245V406.825H196.995V391.5H199.47V406.825H202.17ZM205.497 391.5H207.972V405L218.322 391.5H220.622V409H218.172V395.525L207.797 409H205.497V391.5ZM233.954 409.2C232.187 409.2 230.595 408.817 229.179 408.05C227.762 407.267 226.645 406.192 225.829 404.825C225.029 403.458 224.629 401.933 224.629 400.25C224.629 398.567 225.029 397.042 225.829 395.675C226.645 394.308 227.762 393.242 229.179 392.475C230.595 391.692 232.187 391.3 233.954 391.3C235.704 391.3 237.287 391.692 238.704 392.475C240.12 393.242 241.229 394.308 242.029 395.675C242.829 397.025 243.229 398.55 243.229 400.25C243.229 401.95 242.829 403.483 242.029 404.85C241.229 406.2 240.12 407.267 238.704 408.05C237.287 408.817 235.704 409.2 233.954 409.2ZM233.954 406.975C235.237 406.975 236.387 406.683 237.404 406.1C238.437 405.517 239.245 404.717 239.829 403.7C240.429 402.667 240.729 401.517 240.729 400.25C240.729 398.983 240.429 397.842 239.829 396.825C239.245 395.792 238.437 394.983 237.404 394.4C236.387 393.817 235.237 393.525 233.954 393.525C232.67 393.525 231.504 393.817 230.454 394.4C229.42 394.983 228.604 395.792 228.004 396.825C227.42 397.842 227.129 398.983 227.129 400.25C227.129 401.517 227.42 402.667 228.004 403.7C228.604 404.717 229.42 405.517 230.454 406.1C231.504 406.683 232.67 406.975 233.954 406.975ZM262.32 391.5V409H259.82V401.2H249.77V409H247.27V391.5H249.77V399.025H259.82V391.5H262.32ZM282.828 391.5V409H280.328V401.2H270.278V409H267.778V391.5H270.278V399.025H280.328V391.5H282.828ZM295.961 397.6C298.044 397.6 299.636 398.067 300.736 399C301.852 399.933 302.411 401.308 302.411 403.125C302.411 405.042 301.811 406.5 300.611 407.5C299.427 408.5 297.727 409 295.511 409H288.286V391.5H290.761V397.6H295.961ZM295.411 407.025C296.861 407.025 297.969 406.7 298.736 406.05C299.519 405.383 299.911 404.425 299.911 403.175C299.911 400.775 298.411 399.575 295.411 399.575H290.761V407.025H295.411ZM305.186 391.5H307.661V409H305.186V391.5ZM313.115 391.5H315.59V405L325.94 391.5H328.24V409H325.79V395.525L315.415 409H313.115V391.5ZM320.64 390.275C319.273 390.275 318.215 389.983 317.465 389.4C316.731 388.8 316.356 387.95 316.34 386.85H318.115C318.131 387.5 318.356 388.008 318.79 388.375C319.24 388.725 319.856 388.9 320.64 388.9C321.39 388.9 321.99 388.725 322.44 388.375C322.906 388.008 323.148 387.5 323.165 386.85H324.915C324.898 387.933 324.515 388.775 323.765 389.375C323.031 389.975 321.99 390.275 320.64 390.275ZM355.485 391.5V409H353.035V393.675H342.885V409H340.41V391.5H355.485ZM372.317 404.625H363.017L361.092 409H358.517L366.442 391.5H368.917L376.867 409H374.242L372.317 404.625ZM371.442 402.625L367.667 394.05L363.892 402.625H371.442ZM386.712 391.5C388.979 391.5 390.762 392.042 392.062 393.125C393.362 394.208 394.012 395.7 394.012 397.6C394.012 399.5 393.362 400.992 392.062 402.075C390.762 403.158 388.979 403.7 386.712 403.7H382.387V409H379.887V391.5H386.712ZM386.637 401.525C388.22 401.525 389.429 401.192 390.262 400.525C391.095 399.842 391.512 398.867 391.512 397.6C391.512 396.333 391.095 395.367 390.262 394.7C389.429 394.017 388.22 393.675 386.637 393.675H382.387V401.525H386.637ZM408.953 393.675H402.953V409H400.503V393.675H394.528V391.5H408.953V393.675ZM427.042 391.5V409H424.542V401.2H414.492V409H411.992V391.5H414.492V399.025H424.542V391.5H427.042ZM445.199 406.825V409H432.499V391.5H444.849V393.675H434.999V399.05H443.774V401.175H434.999V406.825H445.199ZM455.95 391.5C458.217 391.5 460 392.042 461.3 393.125C462.6 394.208 463.25 395.7 463.25 397.6C463.25 399.5 462.6 400.992 461.3 402.075C460 403.158 458.217 403.7 455.95 403.7H451.625V409H449.125V391.5H455.95ZM455.875 401.525C457.459 401.525 458.667 401.192 459.5 400.525C460.334 399.842 460.75 398.867 460.75 397.6C460.75 396.333 460.334 395.367 459.5 394.7C458.667 394.017 457.459 393.675 455.875 393.675H451.625V401.525H455.875Z" fill="#FED989"/>
</svg>
