<svg width="316" height="45" viewBox="0 0 316 45" fill="none" xmlns="http://www.w3.org/2000/svg">
<path d="M5.25953 3.9502H4.26953V5.5702L5.25953 3.9502Z" fill="#A9A5A5"/>
<path d="M21.0605 12.2002H22.8205L27.8305 3.9502H26.0705L21.0605 12.2002Z" fill="#A9A5A5"/>
<path d="M16.5508 12.2002H18.3008L23.3108 3.9502H21.5608L16.5508 12.2002Z" fill="#A9A5A5"/>
<path d="M30.0898 12.2005H31.8398L33.8698 8.87047V5.98047L30.0898 12.2005Z" fill="#A9A5A5"/>
<path d="M25.5703 12.2002H27.3303L32.3403 3.9502H30.5803L25.5703 12.2002Z" fill="#A9A5A5"/>
<path d="M16.8691 26.5396H18.6191L23.4691 18.5596H21.7091L16.8691 26.5396Z" fill="#A9A5A5"/>
<path d="M30.7406 18.5596L25.8906 26.5396H27.6506L31.6006 20.0296V18.5596H30.7406Z" fill="#A9A5A5"/>
<path d="M17.1995 18.5596L4.26953 39.8396V41.6796H4.90953L18.9495 18.5596H17.1995Z" fill="#A9A5A5"/>
<path d="M27.9809 18.5596H26.2309L21.3809 26.5396H23.1409L27.9809 18.5596Z" fill="#A9A5A5"/>
<path d="M31.6002 26.5403V24.5703L30.4102 26.5403H31.6002Z" fill="#A9A5A5"/>
<path d="M23.4592 33.4404H21.6992L16.6992 41.6804H18.4492L23.4592 33.4404Z" fill="#A9A5A5"/>
<path d="M18.9497 33.4404H17.1897L12.1797 41.6804H13.9397L18.9497 33.4404Z" fill="#A9A5A5"/>
<path d="M27.9709 33.4404H26.2209L21.2109 41.6804H22.9609L27.9709 33.4404Z" fill="#A9A5A5"/>
<path d="M32.4907 33.4404H30.7307L25.7207 41.6804H27.4807L32.4907 33.4404Z" fill="#A9A5A5"/>
<path d="M34.5705 37.4398V34.5498L30.2305 41.6798H31.9905L34.5705 37.4398Z" fill="#A9A5A5"/>
<path d="M18.7995 3.9502H17.0395L4.26953 24.9802V27.8702L18.7995 3.9502Z" fill="#A9A5A5"/>
<path d="M9.76953 3.9502H8.01953L4.26953 10.1102V13.0102L9.76953 3.9502Z" fill="#A9A5A5"/>
<path d="M14.2895 3.9502H12.5295L4.26953 17.5502V20.4402L14.2895 3.9502Z" fill="#A9A5A5"/>
<path d="M14.8395 17.8998V15.0098L4.26953 32.4098V35.2998L14.8395 17.8998Z" fill="#A9A5A5"/>
<path d="M14.8399 32.7699V29.8799L7.66992 41.6799H9.41992L14.8399 32.7699Z" fill="#A9A5A5"/>
<path d="M49.6992 5.0902L48.9092 3.9502H48.6392L43.1992 12.9002L44.1392 14.2402L49.6992 5.0902Z" fill="#A9A5A5"/>
<path d="M52.1009 8.56973L51.1709 7.21973L45.6309 16.3397L46.5709 17.6797L52.1009 8.56973Z" fill="#A9A5A5"/>
<path d="M54.5108 12.0404L53.5708 10.6904L48.0508 19.7804L48.9908 21.1204L54.5108 12.0404Z" fill="#A9A5A5"/>
<path d="M45.8795 3.9502H44.1195L40.7695 9.4702L41.7195 10.8002L45.8795 3.9502Z" fill="#A9A5A5"/>
<path d="M71.1991 3.9502L48.2891 41.6802H48.4791L56.1791 29.9902L56.6891 30.7402L72.9591 3.9502H71.1991Z" fill="#A9A5A5"/>
<path d="M36.2891 41.6796H36.4991L37.6391 39.8096L36.2891 41.6796Z" fill="#A9A5A5"/>
<path d="M41.3696 3.9502H39.6096L38.3496 6.0302L39.2896 7.3702L41.3696 3.9502Z" fill="#A9A5A5"/>
<path d="M68.4495 3.9502H66.6895L43.7695 41.6802H45.5295L68.4495 3.9502Z" fill="#A9A5A5"/>
<path d="M74.2994 38.9098L73.3394 37.5898L70.8594 41.6798H72.6094L74.2994 38.9098Z" fill="#A9A5A5"/>
<path d="M75.7891 40.9902L75.3691 41.6802H76.2891L75.7891 40.9902Z" fill="#A9A5A5"/>
<path d="M71.8498 35.5097L70.8998 34.1797L66.3398 41.6797H68.0998L71.8498 35.5097Z" fill="#A9A5A5"/>
<path d="M64.5109 25.2897L63.5609 23.9697L58.1309 32.9097L59.0509 34.2797L64.5109 25.2897Z" fill="#A9A5A5"/>
<path d="M63.9298 3.9502H63.8898L56.4498 14.8402L55.9798 14.1602L39.2598 41.6802H41.0198L63.9298 3.9502Z" fill="#A9A5A5"/>
<path d="M66.96 28.7001L66.01 27.3701L60.5 36.4401L61.42 37.8201L66.96 28.7001Z" fill="#A9A5A5"/>
<path d="M69.4094 32.1003L68.4494 30.7803L62.8594 39.9803L63.7794 41.3603L69.4094 32.1003Z" fill="#A9A5A5"/>
<path d="M81.9895 3.9502H80.2295L78.7695 6.3602V9.2502L81.9895 3.9502Z" fill="#A9A5A5"/>
<path d="M86.4995 3.9502H84.7495L78.7695 13.7902V16.6802L86.4995 3.9502Z" fill="#A9A5A5"/>
<path d="M93.1797 12.3598H94.9297L99.8597 4.2498C99.3297 4.1698 98.7897 4.0898 98.2297 4.0498L93.1797 12.3598Z" fill="#A9A5A5"/>
<path d="M91.0095 3.9502H89.2595L78.7695 21.2202V24.1102L91.0095 3.9502Z" fill="#A9A5A5"/>
<path d="M89.4395 13.9702V12.3602H90.4195L95.5295 3.9502H93.7695L78.7695 28.6602V31.5502L89.4395 13.9702Z" fill="#A9A5A5"/>
<path d="M92.1406 31.8205L97.3606 23.2305C96.7468 23.3417 96.1244 23.3986 95.5006 23.4005L90.3906 31.8205H92.1406Z" fill="#A9A5A5"/>
<path d="M106 6.2002L101 14.4702C101.362 14.9428 101.633 15.4786 101.8 16.0502L107.23 7.0002C106.835 6.71164 106.424 6.44458 106 6.2002V6.2002Z" fill="#A9A5A5"/>
<path d="M97.5605 12.58C98.054 12.6689 98.5367 12.8096 99.0005 13L103.741 5.17996C103.271 5.00996 102.741 4.84996 102.271 4.70996L97.5605 12.58Z" fill="#A9A5A5"/>
<path d="M109.06 8.5L94.9004 31.82H96.0004C96.2204 31.82 96.4304 31.82 96.6504 31.82L110.1 9.68C109.783 9.26141 109.436 8.86698 109.06 8.5V8.5Z" fill="#A9A5A5"/>
<path d="M112.19 13.6804C112.007 13.0713 111.78 12.4764 111.51 11.9004L99.5703 31.5704C100.25 31.4704 100.9 31.3604 101.57 31.2104L112.19 13.6804Z" fill="#A9A5A5"/>
<path d="M112.57 20.4795C112.713 19.6304 112.783 18.7706 112.78 17.9095C112.78 17.6995 112.78 17.4895 112.78 17.2695L105 30.0895C105.978 29.6386 106.903 29.082 107.76 28.4295L112.57 20.4795Z" fill="#A9A5A5"/>
<path d="M89.4404 36.2699V33.3799L84.4004 41.6799H86.1504L89.4404 36.2699Z" fill="#A9A5A5"/>
<path d="M92.7409 23.4102H90.9809L79.8809 41.6802H81.6409L92.7409 23.4102Z" fill="#A9A5A5"/>
<path d="M89.4402 40.8096L88.9102 41.6796H89.4402V40.8096Z" fill="#A9A5A5"/>
<path d="M89.4395 21.3998V18.5098L78.7695 36.0898V38.9798L89.4395 21.3998Z" fill="#A9A5A5"/>
<path d="M133.9 12.2002H135.65L140.66 3.9502H138.91L133.9 12.2002Z" fill="#A9A5A5"/>
<path d="M138.41 12.2002H140.17L145.18 3.9502H143.42L138.41 12.2002Z" fill="#A9A5A5"/>
<path d="M142.92 12.2001H144.68L147.55 7.47008V4.58008L142.92 12.2001Z" fill="#A9A5A5"/>
<path d="M129.381 12.2002H131.141L136.151 3.9502H134.391L129.381 12.2002Z" fill="#A9A5A5"/>
<path d="M118.091 3.9502H117.961V4.1802L118.091 3.9502Z" fill="#A9A5A5"/>
<path d="M143.24 26.5397H145L145.28 26.0697V23.1797L143.24 26.5397Z" fill="#A9A5A5"/>
<path d="M122.611 3.9502H120.851L117.961 8.7202V11.6102L122.611 3.9502Z" fill="#A9A5A5"/>
<path d="M143.57 18.5596L138.73 26.5396H140.49L145.28 18.6296V18.5596H143.57Z" fill="#A9A5A5"/>
<path d="M147.439 12.1998H147.549V12.0098L147.439 12.1998Z" fill="#A9A5A5"/>
<path d="M140.821 18.5596H139.061L134.221 26.5396H135.971L140.821 18.5596Z" fill="#A9A5A5"/>
<path d="M129.699 26.5396H131.459L136.299 18.5596H134.549L129.699 26.5396Z" fill="#A9A5A5"/>
<path d="M127.121 3.9502H125.361L117.961 16.1502V19.0402L127.121 3.9502Z" fill="#A9A5A5"/>
<path d="M145.321 33.4404H143.571L138.561 41.6804H140.311L145.321 33.4404Z" fill="#A9A5A5"/>
<path d="M136.289 33.4404H134.539L129.529 41.6804H131.289L136.289 33.4404Z" fill="#A9A5A5"/>
<path d="M148.25 40.5898L147.58 41.6798H148.25V40.5898Z" fill="#A9A5A5"/>
<path d="M148.25 36.0504V33.4404H148.08L143.07 41.6804H144.83L148.25 36.0504Z" fill="#A9A5A5"/>
<path d="M140.809 33.4404H139.049L134.039 41.6804H135.799L140.809 33.4404Z" fill="#A9A5A5"/>
<path d="M131.631 3.9502H129.881L117.961 23.5802V26.4702L131.631 3.9502Z" fill="#A9A5A5"/>
<path d="M128.521 16.5101V13.6201L117.961 31.0101V33.9101L128.521 16.5101Z" fill="#A9A5A5"/>
<path d="M122.26 41.6805L128.52 31.3705V28.4805L120.5 41.6805H122.26Z" fill="#A9A5A5"/>
<path d="M131.791 18.5596H130.031L117.961 38.4496V41.3396L131.791 18.5596Z" fill="#A9A5A5"/>
<path d="M131.78 33.4404H130.03L125.02 41.6804H126.77L131.78 33.4404Z" fill="#A9A5A5"/>
<path d="M154.2 3.9502H154.18V3.9902L154.2 3.9502Z" fill="#A9A5A5"/>
<path d="M167.74 3.9502H165.99L154.18 23.3902V26.2802L167.74 3.9502Z" fill="#A9A5A5"/>
<path d="M158.72 3.9502H156.96L154.18 8.5302V11.4202L158.72 3.9502Z" fill="#A9A5A5"/>
<path d="M169.91 12.3602H170.78C171.08 12.3602 171.35 12.3602 171.63 12.4102L176.47 4.41016C175.96 4.31016 175.41 4.23016 174.87 4.16016L169.91 12.3602Z" fill="#A9A5A5"/>
<path d="M163.23 3.9502H161.47L154.18 15.9602V18.8502L163.23 3.9502Z" fill="#A9A5A5"/>
<path d="M182.42 28.9198C184.033 27.9102 185.387 26.5368 186.373 24.9096C187.359 23.2824 187.951 21.4468 188.1 19.5498L182.42 28.9198Z" fill="#A9A5A5"/>
<path d="M172.271 23.3203L167.211 31.6603H169.001L174.391 22.7803C173.715 23.0652 173.001 23.2472 172.271 23.3203Z" fill="#A9A5A5"/>
<path d="M174.09 12.8996C174.566 13.0637 175.015 13.2998 175.42 13.5996L180.26 5.59957C179.81 5.38957 179.32 5.22957 178.84 5.05957L174.09 12.8996Z" fill="#A9A5A5"/>
<path d="M182.34 6.75977L177 15.5598C177.277 16.2635 177.416 17.0137 177.41 17.7698L183.57 7.63977C183.177 7.32281 182.767 7.02898 182.34 6.75977V6.75977Z" fill="#A9A5A5"/>
<path d="M170.501 4L165.391 12.41H167.151L172.231 4C171.961 4 171.711 4 171.431 4H170.501Z" fill="#A9A5A5"/>
<path d="M184.69 35.4899L183.76 34.1299L179.18 41.6799H180.93L184.69 35.4899Z" fill="#A9A5A5"/>
<path d="M182.3 31.9996L181.37 30.6396L176.01 39.4697L176.94 40.8297L182.3 31.9996Z" fill="#A9A5A5"/>
<path d="M187.999 15.2402C187.88 14.5615 187.71 13.8929 187.489 13.2402L173.619 36.0002L174.549 37.3602L187.999 15.2402Z" fill="#A9A5A5"/>
<path d="M188.551 41.1104L188.211 41.6804H188.951L188.551 41.1104Z" fill="#A9A5A5"/>
<path d="M187.089 38.9801L186.159 37.6201L183.689 41.6801H185.449L187.089 38.9801Z" fill="#A9A5A5"/>
<path d="M164.95 23.4097H164.85V20.6797L154.18 38.2597V41.1497L164.95 23.4097Z" fill="#A9A5A5"/>
<path d="M164.85 16.14V13.25L154.18 30.82V33.71L164.85 16.14Z" fill="#A9A5A5"/>
<path d="M158.369 41.6802L169.459 23.4102H167.709L156.609 41.6802H158.369Z" fill="#A9A5A5"/>
<path d="M164.849 38.4398V35.5498L161.119 41.6798H162.879L164.849 38.4398Z" fill="#A9A5A5"/>
<path d="M186.24 10.6604C186.24 10.6104 186.18 10.5504 186.14 10.5004C185.875 10.1014 185.585 9.72051 185.27 9.36035L171.27 32.4704L172.2 33.8304L186.24 10.6604Z" fill="#A9A5A5"/>
<path d="M194.821 3.9502H193.071L189.971 9.0502V11.9402L194.821 3.9502Z" fill="#A9A5A5"/>
<path d="M199.339 3.9502H197.579L192.439 12.4102H194.199L199.339 3.9502Z" fill="#A9A5A5"/>
<path d="M203.849 3.9502H202.089L196.949 12.4102H198.709L203.849 3.9502Z" fill="#A9A5A5"/>
<path d="M190.311 3.9502H189.971V4.5102L190.311 3.9502Z" fill="#A9A5A5"/>
<path d="M219.52 12.4099H221.28L223.77 8.30992V5.41992L219.52 12.4099Z" fill="#A9A5A5"/>
<path d="M215.01 12.4102H216.76L221.9 3.9502H220.15L215.01 12.4102Z" fill="#A9A5A5"/>
<path d="M212.231 19.8805V16.9805L201.561 34.5605V37.4505L212.231 19.8805Z" fill="#A9A5A5"/>
<path d="M212.23 34.7396V31.8496L206.26 41.6796H208.01L212.23 34.7396Z" fill="#A9A5A5"/>
<path d="M212.23 27.3099V24.4199L201.75 41.6799H203.5L212.23 27.3099Z" fill="#A9A5A5"/>
<path d="M201.561 15.1502L208.361 3.9502H206.611L201.471 12.4102H201.561V15.1502Z" fill="#A9A5A5"/>
<path d="M212.23 39.2803L210.77 41.6803H212.23V39.2803Z" fill="#A9A5A5"/>
<path d="M212.881 3.9502H211.121L201.561 19.6902V22.5802L212.881 3.9502Z" fill="#A9A5A5"/>
<path d="M212.231 12.4402V12.4102H212.251L217.391 3.9502H215.631L201.561 27.1302V30.0202L212.231 12.4402Z" fill="#A9A5A5"/>
<path d="M235.44 3.9502H233.69L227.76 13.7202V16.6102L235.44 3.9502Z" fill="#A9A5A5"/>
<path d="M238.43 13.8898V11.0098L227.76 28.5798V31.4698L238.43 13.8898Z" fill="#A9A5A5"/>
<path d="M238.43 6.4602V3.9502H238.2L227.76 21.1502V24.0402L238.43 6.4602Z" fill="#A9A5A5"/>
<path d="M230.93 3.9502H229.18L227.76 6.2902V9.1702L230.93 3.9502Z" fill="#A9A5A5"/>
<path d="M238.43 40.7305L237.85 41.6805H238.43V40.7305Z" fill="#A9A5A5"/>
<path d="M238.43 36.1898V33.2998L233.34 41.6798H235.09L238.43 36.1898Z" fill="#A9A5A5"/>
<path d="M238.43 21.3304V18.4404L227.76 36.0104V38.9004L238.43 21.3304Z" fill="#A9A5A5"/>
<path d="M238.43 28.7601V25.8701L228.83 41.6801H230.58L238.43 28.7601Z" fill="#A9A5A5"/>
<path d="M253.691 25.9202L258.551 17.9202C258.001 17.7602 257.551 17.6102 257.081 17.4502L252.211 25.4502L253.691 25.9202Z" fill="#A9A5A5"/>
<path d="M266.41 19.8504C265.93 19.7104 265.41 19.5704 264.9 19.4404L260.02 27.4404C260.57 27.5804 261.07 27.7104 261.53 27.8504L266.41 19.8504Z" fill="#A9A5A5"/>
<path d="M262.5 18.8595L261.88 18.7195L260.95 18.5195L256.07 26.5195L257.61 26.8695L262.5 18.8595Z" fill="#A9A5A5"/>
<path d="M256.53 3.50004L245.74 21.26C245.85 21.4 245.96 21.55 246.08 21.69C246.2 21.83 246.56 22.17 246.8 22.41L258.41 3.29004C257.76 3.33004 257.14 3.41004 256.53 3.50004Z" fill="#A9A5A5"/>
<path d="M273.18 5.80957L268.68 13.2296C269.13 13.4196 269.59 13.6296 270.05 13.8496L274.25 6.93957L274.44 6.47957C274 6.24957 273.61 5.99957 273.18 5.80957Z" fill="#A9A5A5"/>
<path d="M253.37 4.16992C252.756 4.35146 252.152 4.56508 251.56 4.80992L251.08 5.02992L244.08 16.5599C244.136 17.3086 244.27 18.0493 244.48 18.7699L253.37 4.16992Z" fill="#A9A5A5"/>
<path d="M264.91 11.9999C265.41 12.1099 265.91 12.2499 266.42 12.4099L271 4.88992C270.52 4.71992 270 4.55992 269.53 4.41992L264.91 11.9999Z" fill="#A9A5A5"/>
<path d="M255.06 16.24C254.756 15.8566 254.593 15.3796 254.6 14.89C254.606 14.3891 254.744 13.8987 255 13.4684C255.257 13.0381 255.622 12.6833 256.06 12.44C256.588 12.1225 257.166 11.8992 257.77 11.78L262.93 3.27996C262.36 3.27996 261.79 3.21996 261.22 3.20996L248.66 23.88C249.082 24.1544 249.523 24.3984 249.98 24.61L255.06 16.24Z" fill="#A9A5A5"/>
<path d="M269 20.6898C268.902 20.6505 268.801 20.6172 268.7 20.5898L263.77 28.6998C264.24 28.8964 264.656 29.2054 264.98 29.5998L270.1 21.1698C269.76 20.9998 269.4 20.8298 269 20.6898Z" fill="#A9A5A5"/>
<path d="M273.28 23.4004C272.919 23.0426 272.534 22.7086 272.13 22.4004L260 42.4104C260.61 42.4104 261.22 42.4104 261.8 42.3404L273.28 23.4004Z" fill="#A9A5A5"/>
<path d="M260.699 11.4996C261.259 11.4996 261.829 11.4996 262.399 11.5896L267.109 3.83957C266.579 3.72957 266.049 3.63957 265.519 3.55957L260.699 11.4996Z" fill="#A9A5A5"/>
<path d="M275.571 27.0598C275.404 26.4601 275.165 25.8827 274.861 25.3398L264.801 41.8998C265.505 41.7661 266.2 41.5857 266.881 41.3598L275.571 27.0598Z" fill="#A9A5A5"/>
<path d="M274.11 36.3997C275.234 34.7865 275.889 32.8928 276 30.9297L270.74 39.5997C272.068 38.7717 273.215 37.6831 274.11 36.3997V36.3997Z" fill="#A9A5A5"/>
<path d="M262.41 33.8604C261.784 33.9903 261.149 34.0706 260.51 34.1003L255.57 42.2304C256.13 42.2904 256.68 42.3404 257.24 42.3804L262.41 33.8604Z" fill="#A9A5A5"/>
<path d="M250 32.0702C249.53 31.8602 249.08 31.6402 248.64 31.4102L244.18 38.7602C244.6 39.0102 245.03 39.2502 245.5 39.4902L250 32.0702Z" fill="#A9A5A5"/>
<path d="M257.771 34.0797C257.221 34.0797 256.681 33.9696 256.131 33.8896L251.471 41.5496C251.991 41.6696 252.511 41.7797 253.031 41.8797L257.771 34.0797Z" fill="#A9A5A5"/>
<path d="M253.691 33.3599C253.381 33.2799 253.081 33.2099 252.771 33.1099L252.201 32.9199L247.641 40.4299C248.111 40.5999 248.641 40.7599 249.101 40.9199L253.691 33.3599Z" fill="#A9A5A5"/>
<path d="M300.891 12.2002H302.651L307.661 3.9502H305.901L300.891 12.2002Z" fill="#A9A5A5"/>
<path d="M310.42 3.9502L305.41 12.2002H307.16L310.5 6.7102V3.9502H310.42Z" fill="#A9A5A5"/>
<path d="M296.381 12.2002H298.141L303.141 3.9502H301.391L296.381 12.2002Z" fill="#A9A5A5"/>
<path d="M291.869 12.2002H293.619L298.629 3.9502H296.879L291.869 12.2002Z" fill="#A9A5A5"/>
<path d="M292.189 26.5396H293.939L298.789 18.5596H297.029L292.189 26.5396Z" fill="#A9A5A5"/>
<path d="M309.92 12.2H310.5V11.25L309.92 12.2Z" fill="#A9A5A5"/>
<path d="M305.73 26.5402H307.48L308.23 25.3002V22.4102L305.73 26.5402Z" fill="#A9A5A5"/>
<path d="M301.211 26.5396H302.971L307.811 18.5596H306.061L301.211 26.5396Z" fill="#A9A5A5"/>
<path d="M303.299 18.5596H301.549L296.699 26.5396H298.449L303.299 18.5596Z" fill="#A9A5A5"/>
<path d="M285.09 3.9502H283.34L280.9 7.9502V10.8402L285.09 3.9502Z" fill="#A9A5A5"/>
<path d="M294.26 33.4404H292.51L287.5 41.6804H289.25L294.26 33.4404Z" fill="#A9A5A5"/>
<path d="M307.799 33.4404H306.049L301.039 41.6804H302.799L307.799 33.4404Z" fill="#A9A5A5"/>
<path d="M298.78 33.4404H297.02L292.01 41.6804H293.77L298.78 33.4404Z" fill="#A9A5A5"/>
<path d="M303.289 33.4404H301.539L296.529 41.6804H298.279L303.289 33.4404Z" fill="#A9A5A5"/>
<path d="M311.201 35.2804V33.4404H310.561L305.551 41.6804H307.311L311.201 35.2804Z" fill="#A9A5A5"/>
<path d="M311.2 39.8203L310.07 41.6803H311.2V39.8203Z" fill="#A9A5A5"/>
<path d="M291.47 15.7396V12.8496L280.9 30.2496V33.1396L291.47 15.7396Z" fill="#A9A5A5"/>
<path d="M289.6 3.9502H287.85L280.9 15.3802V18.2702L289.6 3.9502Z" fill="#A9A5A5"/>
<path d="M291.47 30.6097V27.7197L282.99 41.6797H284.74L291.47 30.6097Z" fill="#A9A5A5"/>
<path d="M294.12 3.9502H292.36L280.9 22.8202V25.7102L294.12 3.9502Z" fill="#A9A5A5"/>
<path d="M294.27 18.5596H292.52L280.9 37.6796V40.5696L294.27 18.5596Z" fill="#A9A5A5"/>
</svg>
