<svg width="316" height="45" viewBox="0 0 316 45" fill="none" xmlns="http://www.w3.org/2000/svg">
<path d="M14.84 33.96L34.0695 33.9405V41.18H4.76953V4.5H33.3695V11.7H14.8695H14.3695V12.2V18.56V19.06H14.8695H31.0995V26.06H14.8395H14.3395V26.56V33.46V33.9605L14.84 33.96Z" stroke="#A9A5A5"/>
<path d="M48.2 41.18H37.264L50.4051 22.8918L50.6127 22.6028L50.4077 22.3119L37.8532 4.5H48.6271L56.018 15.1746L56.4313 15.7715L56.8416 15.1726L64.1526 4.5H74.4496L61.8641 21.8767L61.6527 22.1686L61.8628 22.4615L75.2949 41.18H64.266L56.5945 29.7218L56.1761 29.0969L55.7618 29.7245L48.2 41.18Z" stroke="#A9A5A5"/>
<path d="M112.28 17.8926L112.279 17.9091L112.28 17.9256C112.357 20.4312 111.689 22.9033 110.36 25.0286C108.985 27.0842 107.04 28.6938 104.764 29.66C101.999 30.832 99.0148 31.3982 96.0125 31.3204L96.0125 31.3202H95.9995H89.4395H88.9395V31.8202V41.1802H79.2695V4.50021H95.9995H96.0068L96.014 4.5C98.9965 4.41374 101.963 4.96314 104.717 6.11168L104.91 5.65021L104.718 6.11187C107.027 7.07257 108.989 8.71518 110.34 10.8203C111.691 12.9253 112.368 15.3927 112.28 17.8926ZM100.625 22.4035L100.33 22.0002L100.664 22.372C101.289 21.81 101.779 21.1138 102.096 20.3357C102.41 19.5668 102.548 18.7375 102.5 17.9086C102.543 17.0813 102.402 16.2547 102.089 15.4876C101.772 14.7113 101.286 14.0154 100.666 13.4506L100.649 13.4349L100.63 13.4209C99.1054 12.2716 97.2143 11.717 95.3104 11.8602H89.4395H88.9395V12.3602V23.4102V23.9102H89.4395H95.3502C97.2317 24.0533 99.1026 23.519 100.625 22.4035Z" stroke="#A9A5A5"/>
<path d="M128.521 33.96L147.75 33.9405V41.18H118.5V4.5H147.09V11.7H128.59H128.09V12.2V18.56V19.06H128.59H144.86V26.06H128.52H128.02V26.56V33.46V33.9605L128.521 33.96Z" stroke="#A9A5A5"/>
<path d="M171.082 31.3776L170.934 31.1598H170.67H164.85H164.35V31.6598V41.1598H154.68V4.49975H171.43V4.49988L171.441 4.49962C174.421 4.43158 177.381 4.9976 180.125 6.16015L180.128 6.16141C182.437 7.12211 184.399 8.76472 185.75 10.8698C187.101 12.9749 187.778 15.4422 187.69 17.9421L187.69 17.9565L187.69 17.9709C187.744 20.3901 187.107 22.7745 185.855 24.8452C184.573 26.8397 182.75 28.4286 180.599 29.4262L180.06 29.6763L180.399 30.1648L188.044 41.1798H177.784L171.082 31.3776ZM175.74 13.8198L176.041 13.4204C174.516 12.2712 172.624 11.7165 170.721 11.8598H164.81H164.31V12.3598V23.4098V23.9098H164.81H170.72C172.618 24.057 174.506 23.5146 176.037 22.3817L176.056 22.3674L176.074 22.3515C176.696 21.7918 177.184 21.0992 177.502 20.3251C177.816 19.56 177.955 18.7346 177.91 17.909C177.953 17.0815 177.813 16.2546 177.499 15.4872C177.182 14.7108 176.696 14.0149 176.076 13.4502L175.74 13.8198Z" stroke="#A9A5A5"/>
<path d="M202.06 12.41V11.91H201.56H190.5V4.5H223.3V11.96H212.23H211.73V12.46V41.18H202.06V12.41Z" stroke="#A9A5A5"/>
<path d="M228.26 4.5H237.93V41.18H228.26V4.5Z" stroke="#A9A5A5"/>
<path d="M259.35 34.63H259.35C261.426 34.63 263.057 34.3728 264.187 33.8071C264.759 33.5207 265.218 33.1474 265.532 32.6746C265.849 32.1986 266 31.6507 266 31.05H266L266 31.0439C265.993 30.4088 265.787 29.792 265.411 29.2795C265.039 28.771 264.518 28.3904 263.921 28.1899C262.068 27.4598 260.154 26.8976 258.2 26.5101C255.811 26.0116 253.459 25.35 251.161 24.53C249.352 23.8621 247.738 22.7549 246.463 21.3082C245.126 19.6397 244.455 17.5343 244.58 15.3993L244.581 15.3815L244.58 15.3637C244.554 13.2511 245.179 11.1816 246.37 9.43688C247.732 7.53968 249.612 6.0742 251.784 5.21518C254.645 4.08943 257.703 3.55359 260.776 3.63984L260.776 3.64003L260.79 3.64003C263.22 3.64035 265.641 3.91454 268.009 4.4574L268.012 4.45809C270.05 4.91161 272.014 5.64636 273.848 6.64065L270.944 13.6403C267.811 11.9475 264.319 11.0209 260.754 10.9404C259.067 10.8188 257.378 11.1628 255.872 11.9352L255.865 11.939L255.857 11.943C255.343 12.2292 254.913 12.6465 254.611 13.1525C254.309 13.6585 254.147 14.2353 254.14 14.8244L254.14 14.8331L254.141 14.8418C254.155 15.4597 254.365 16.0572 254.739 16.5489C255.11 17.0354 255.624 17.3935 256.208 17.5733C258.029 18.2685 259.909 18.7965 261.825 19.1508C264.224 19.6425 266.584 20.3039 268.89 21.1299C270.692 21.7951 272.303 22.8927 273.581 24.3262C274.951 25.9762 275.638 28.0878 275.501 30.2281L275.5 30.2465L275.5 30.2648C275.52 32.3526 274.892 34.3951 273.703 36.1108C272.33 38.0053 270.444 39.4675 268.267 40.3248L268.263 40.3264C265.42 41.4747 262.37 42.024 259.304 41.9402L259.297 41.94L259.29 41.94C256.333 41.9451 253.388 41.5708 250.526 40.8262L250.4 41.31L250.515 40.8233C248.219 40.2846 246.029 39.3712 244.032 38.1206L247.123 31.1694C248.846 32.2181 250.699 33.0382 252.635 33.6086C254.81 34.2848 257.073 34.6291 259.35 34.63Z" stroke="#A9A5A5"/>
<path d="M291.471 33.96L310.7 33.9405V41.18H281.41V4.5H310V11.7H291.5H291V12.2V18.56V19.06H291.5H307.76V26.06H291.47H290.97V26.56V33.46V33.9605L291.471 33.96Z" stroke="#A9A5A5"/>
</svg>
