<svg width="316" height="45" viewBox="0 0 316 45" fill="none" xmlns="http://www.w3.org/2000/svg">
<path d="M34.5695 33.44V41.68H4.26953V4H33.8695V12.2H14.8695V18.56H31.5995V26.56H14.8395V33.46L34.5695 33.44Z" fill="#A9A5A5"/>
<path d="M63.9991 41.68L56.1791 30L48.4691 41.68H36.2891L49.9991 22.6L36.8891 4H48.8891L56.4291 14.89L63.8891 4H75.4291L62.2691 22.17L76.2691 41.68H63.9991Z" fill="#A9A5A5"/>
<path d="M104.91 5.65021C107.313 6.65 109.354 8.35944 110.761 10.5502C112.167 12.7409 112.871 15.3086 112.78 17.9102C112.86 20.5173 112.164 23.0895 110.78 25.3002C109.351 27.4397 107.328 29.115 104.96 30.1202C102.129 31.3202 99.0733 31.8999 95.9995 31.8202H89.4395V41.6802H78.7695V4.00021H95.9995C99.053 3.9119 102.09 4.47436 104.91 5.65021V5.65021ZM100.33 22.0002C100.898 21.4887 101.344 20.855 101.633 20.1467C101.923 19.4384 102.048 18.6738 102 17.9102C102.043 17.1472 101.915 16.3842 101.626 15.6766C101.337 14.9691 100.894 14.3349 100.33 13.8202C98.8966 12.7403 97.1185 12.2211 95.3295 12.3602H89.4395V23.4102H95.3695C97.1384 23.5492 98.8983 23.0489 100.33 22.0002V22.0002Z" fill="#A9A5A5"/>
<path d="M148.25 33.44V41.68H118V4H147.59V12.2H128.59V18.56H145.36V26.56H128.52V33.46L148.25 33.44Z" fill="#A9A5A5"/>
<path d="M170.67 31.6598H164.85V41.6598H154.18V3.99975H171.43C174.48 3.9301 177.51 4.50957 180.32 5.69975C182.723 6.69954 184.765 8.40898 186.171 10.5997C187.577 12.7904 188.281 15.3581 188.19 17.9598C188.246 20.4762 187.583 22.9564 186.28 25.1098C184.946 27.1868 183.049 28.8413 180.81 29.8798L189 41.6798H177.52L170.67 31.6598ZM175.74 13.8198C174.307 12.7399 172.529 12.2207 170.74 12.3598H164.81V23.4098H170.74C172.524 23.5528 174.301 23.0448 175.74 21.9798C176.306 21.4703 176.75 20.8399 177.039 20.1353C177.328 19.4307 177.455 18.67 177.41 17.9098C177.453 17.1467 177.325 16.3837 177.037 15.6762C176.748 14.9687 176.305 14.3345 175.74 13.8198V13.8198Z" fill="#A9A5A5"/>
<path d="M201.56 12.41H190V4H223.8V12.46H212.23V41.68H201.56V12.41Z" fill="#A9A5A5"/>
<path d="M227.76 4H238.43V41.68H227.76V4Z" fill="#A9A5A5"/>
<path d="M250.4 41.31C247.91 40.7257 245.541 39.7105 243.4 38.31L246.9 30.44C248.722 31.6124 250.702 32.5183 252.78 33.13C254.908 33.792 257.123 34.1292 259.35 34.13C263.45 34.13 265.5 33.1034 265.5 31.05C265.494 30.519 265.322 30.0033 265.008 29.5749C264.694 29.1464 264.255 28.8266 263.75 28.66C261.921 27.9382 260.03 27.3826 258.1 27C255.687 26.4966 253.312 25.8284 250.99 25C249.099 24.3022 247.412 23.1439 246.08 21.63C244.661 19.8635 243.948 17.6325 244.08 15.37C244.052 13.1527 244.709 10.9807 245.96 9.15003C247.379 7.17248 249.337 5.64503 251.6 4.75003C254.524 3.59953 257.65 3.05189 260.79 3.14003C263.257 3.14036 265.716 3.41878 268.12 3.97003C270.35 4.46632 272.494 5.29205 274.48 6.42003L271.19 14.35C268.002 12.5214 264.405 11.5209 260.73 11.44C259.13 11.3224 257.528 11.6476 256.1 12.38C255.663 12.6234 255.297 12.9782 255.041 13.4085C254.784 13.8387 254.646 14.3292 254.64 14.83C254.652 15.3425 254.826 15.8381 255.137 16.2458C255.448 16.6535 255.879 16.9525 256.37 17.1C258.169 17.7881 260.027 18.3102 261.92 18.66C264.345 19.1568 266.731 19.8251 269.06 20.66C270.943 21.3545 272.626 22.5016 273.96 24C275.416 25.7492 276.146 27.9893 276 30.26C276.021 32.453 275.361 34.5984 274.11 36.4C272.682 38.3738 270.718 39.8971 268.45 40.79C265.543 41.964 262.425 42.5257 259.29 42.44C256.291 42.4452 253.303 42.0654 250.4 41.31V41.31Z" fill="#A9A5A5"/>
<path d="M311.2 33.44V41.68H280.91V4H310.5V12.2H291.5V18.56H308.26V26.56H291.47V33.46L311.2 33.44Z" fill="#A9A5A5"/>
</svg>
