<svg width="372" height="45" viewBox="0 0 372 45" fill="none" xmlns="http://www.w3.org/2000/svg">
<path d="M4.26953 4H14.9995V41.68H4.26953V4Z" fill="#A9A5A5"/>
<path d="M58.4508 4V41.68H49.6608L33.0008 21.57V41.68H22.5508V4H31.3308L48.0008 24.06V4H58.4508Z" fill="#A9A5A5"/>
<path d="M101.89 4V41.68H93.11L76.45 21.57V41.68H66V4H74.79L91.44 24.06V4H101.89Z" fill="#A9A5A5"/>
<path d="M117.711 39.9002C114.586 38.2881 111.974 35.8344 110.17 32.8164C108.366 29.7983 107.441 26.3359 107.501 22.8202C107.443 19.3035 108.368 15.8405 110.172 12.8211C111.976 9.80173 114.587 7.34592 117.711 5.73025C121.049 4.05688 124.732 3.18555 128.466 3.18555C132.2 3.18555 135.883 4.05688 139.221 5.73025C142.344 7.34819 144.954 9.80422 146.759 12.8229C148.565 15.8415 149.493 19.3034 149.441 22.8202C149.495 26.3361 148.567 29.7973 146.761 32.8146C144.956 35.8319 142.344 38.2858 139.221 39.9002C135.883 41.5736 132.2 42.4449 128.466 42.4449C124.732 42.4449 121.049 41.5736 117.711 39.9002V39.9002ZM133.641 32.2502C135.191 31.3463 136.461 30.0311 137.311 28.4502C138.226 26.7169 138.687 24.78 138.651 22.8202C138.688 20.8572 138.227 18.9167 137.311 17.1802C136.461 15.5994 135.191 14.2842 133.641 13.3802C132.06 12.4947 130.278 12.0297 128.466 12.0297C126.654 12.0297 124.872 12.4947 123.291 13.3802C121.743 14.2844 120.476 15.5997 119.631 17.1802C118.706 18.914 118.242 20.8558 118.281 22.8202C118.243 24.7814 118.708 26.7196 119.631 28.4502C120.476 30.0307 121.743 31.3461 123.291 32.2502C124.872 33.1358 126.654 33.6008 128.466 33.6008C130.278 33.6008 132.06 33.1358 133.641 32.2502V32.2502Z" fill="#A9A5A5"/>
<path d="M192.001 4L175.851 41.68H165.341L149.221 4H160.761L171.001 28.53L181.451 4H192.001Z" fill="#A9A5A5"/>
<path d="M218.22 34.35H202.22L199.22 41.68H188.41L205.06 4H215.58L232.29 41.73H221.18L218.22 34.35ZM215.09 26.48L210.24 14.41L205.39 26.48H215.09Z" fill="#A9A5A5"/>
<path d="M241.449 12.41H229.859V4H263.659V12.46H252.119V41.68H241.449V12.41Z" fill="#A9A5A5"/>
<path d="M267.65 4H278.32V41.68H267.65V4Z" fill="#A9A5A5"/>
<path d="M294.191 39.9002C291.07 38.2853 288.462 35.8305 286.662 32.8126C284.861 29.7947 283.94 26.3339 284.001 22.8202C283.941 19.3056 284.863 15.844 286.663 12.8248C288.464 9.80566 291.071 7.34867 294.191 5.73025C297.529 4.05688 301.212 3.18555 304.946 3.18555C308.68 3.18555 312.363 4.05688 315.701 5.73025C318.825 7.34592 321.436 9.80173 323.24 12.8211C325.044 15.8405 325.969 19.3035 325.911 22.8202C325.97 26.3359 325.046 29.7983 323.242 32.8164C321.438 35.8344 318.826 38.2881 315.701 39.9002C312.363 41.5736 308.68 42.4449 304.946 42.4449C301.212 42.4449 297.529 41.5736 294.191 39.9002V39.9002ZM310.121 32.2502C311.671 31.3463 312.941 30.0311 313.791 28.4502C314.706 26.7169 315.167 24.78 315.131 22.8202C315.168 20.8572 314.707 18.9167 313.791 17.1802C312.941 15.5994 311.671 14.2842 310.121 13.3802C308.54 12.4947 306.758 12.0297 304.946 12.0297C303.134 12.0297 301.352 12.4947 299.771 13.3802C298.223 14.2844 296.956 15.5997 296.111 17.1802C295.186 18.914 294.722 20.8558 294.761 22.8202C294.723 24.7814 295.188 26.7196 296.111 28.4502C296.956 30.0307 298.223 31.3461 299.771 32.2502C301.352 33.1358 303.134 33.6008 304.946 33.6008C306.758 33.6008 308.54 33.1358 310.121 32.2502V32.2502Z" fill="#A9A5A5"/>
<path d="M367.42 4V41.68H358.63L342 21.57V41.68H331.52V4H340.31L357 24.06V4H367.42Z" fill="#A9A5A5"/>
</svg>
