<svg width="372" height="45" viewBox="0 0 372 45" fill="none" xmlns="http://www.w3.org/2000/svg">
<path d="M244.47 3.9502H242.72L237.58 12.4102H239.33L244.47 3.9502Z" fill="#A9A5A5"/>
<path d="M230.929 3.9502H229.859V5.7102L230.929 3.9502Z" fill="#A9A5A5"/>
<path d="M248.989 3.9502H247.229L241.449 13.4702V16.3602L248.989 3.9502Z" fill="#A9A5A5"/>
<path d="M233.689 3.9502L229.859 10.2502V12.4102H230.309L235.439 3.9502H233.689Z" fill="#A9A5A5"/>
<path d="M260.141 12.4099H261.901L263.661 9.51988V6.62988L260.141 12.4099Z" fill="#A9A5A5"/>
<path d="M255.631 12.4102H257.381L262.521 3.9502H260.771L255.631 12.4102Z" fill="#A9A5A5"/>
<path d="M239.961 3.9502H238.201L233.061 12.4102H234.821L239.961 3.9502Z" fill="#A9A5A5"/>
<path d="M252.121 35.9398V33.0498L246.881 41.6798H248.641L252.121 35.9398Z" fill="#A9A5A5"/>
<path d="M252.12 40.4805L251.4 41.6805H252.12V40.4805Z" fill="#A9A5A5"/>
<path d="M252.119 28.5101V25.6201L242.369 41.6801H244.119L252.119 28.5101Z" fill="#A9A5A5"/>
<path d="M252.119 13.6502V12.4102H252.869L258.009 3.9502H256.259L241.449 28.3302V31.2202L252.119 13.6502Z" fill="#A9A5A5"/>
<path d="M252.119 21.0804V18.1904L241.449 35.7604V38.6504L252.119 21.0804Z" fill="#A9A5A5"/>
<path d="M253.499 3.9502H251.739L241.449 20.9002V23.7902L253.499 3.9502Z" fill="#A9A5A5"/>
<path d="M9.76953 3.9502H8.01953L4.26953 10.1102V13.0102L9.76953 3.9502Z" fill="#A9A5A5"/>
<path d="M14.9495 22.2695L4.26953 39.8395V41.6795H4.90953L14.9495 25.1595V22.2695Z" fill="#A9A5A5"/>
<path d="M14.2895 3.9502H12.5295L4.26953 17.5502V20.4402L14.2895 3.9502Z" fill="#A9A5A5"/>
<path d="M5.25953 3.9502H4.26953V5.5702L5.25953 3.9502Z" fill="#A9A5A5"/>
<path d="M14.9499 32.5902V29.7002L7.66992 41.6802H9.42992L14.9499 32.5902Z" fill="#A9A5A5"/>
<path d="M14.9497 40.0199V37.1299L12.1797 41.6799H13.9397L14.9497 40.0199Z" fill="#A9A5A5"/>
<path d="M14.9495 10.2904V7.40039L4.26953 24.9804V27.8704L14.9495 10.2904Z" fill="#A9A5A5"/>
<path d="M14.9495 17.7298V14.8398L4.26953 32.4098V35.2998L14.9495 17.7298Z" fill="#A9A5A5"/>
<path d="M35.8496 25.01L36.8596 26.23L42.3296 17.23L41.3196 16L35.8496 25.01Z" fill="#A9A5A5"/>
<path d="M47.9902 5.0202V7.9102L50.4002 3.9502H48.6402L47.9902 5.0202Z" fill="#A9A5A5"/>
<path d="M23.3108 3.9502H22.5508V5.2102L23.3108 3.9502Z" fill="#A9A5A5"/>
<path d="M33.2402 21.8704L34.2602 23.0904L39.7302 14.0804L38.7102 12.8604L33.2402 21.8704Z" fill="#A9A5A5"/>
<path d="M44.9392 20.3704L43.9192 19.1504L38.4492 28.1504L39.4692 29.3804L44.9392 20.3704Z" fill="#A9A5A5"/>
<path d="M33.0008 22.2598L22.5508 39.4798V41.6798H22.9708L33.0008 25.1498V22.2598Z" fill="#A9A5A5"/>
<path d="M47.9902 22.7702L58.4502 5.5502V3.9502H57.6702L47.9902 19.8802V22.7702Z" fill="#A9A5A5"/>
<path d="M58.4491 24.96L48.8691 40.73L49.6591 41.68H50.0491L58.4491 27.85V24.96Z" fill="#A9A5A5"/>
<path d="M47.9902 12.4502V15.3402L54.9102 3.9502H53.1502L47.9902 12.4502Z" fill="#A9A5A5"/>
<path d="M27.8308 3.9502H26.0708L22.5508 9.7502V12.6402L27.8308 3.9502Z" fill="#A9A5A5"/>
<path d="M58.4502 12.9896V10.0996L43.6602 34.4396L44.6702 35.6596L58.4502 12.9896Z" fill="#A9A5A5"/>
<path d="M31.9108 4.6502L31.3308 3.9502H30.5908L22.5508 17.1902V20.0802L31.9108 4.6502Z" fill="#A9A5A5"/>
<path d="M58.4495 20.4203V17.5303L46.2695 37.5803L47.2795 38.8103L58.4495 20.4203Z" fill="#A9A5A5"/>
<path d="M58.4503 39.8203L57.3203 41.6803H58.4503V39.8203Z" fill="#A9A5A5"/>
<path d="M47.5405 23.51L46.5305 22.29L41.0605 31.3L42.0705 32.52L47.5405 23.51Z" fill="#A9A5A5"/>
<path d="M58.4508 35.2796V32.3896L52.8008 41.6796H54.5608L58.4508 35.2796Z" fill="#A9A5A5"/>
<path d="M37.1208 10.9397L36.1108 9.71973L22.5508 32.0497V34.9397L37.1208 10.9397Z" fill="#A9A5A5"/>
<path d="M33.0002 40.0199V37.1299L30.2402 41.6799H31.9902L33.0002 40.0199Z" fill="#A9A5A5"/>
<path d="M34.5208 7.79031L33.5108 6.57031L22.5508 24.6203V27.5103L34.5208 7.79031Z" fill="#A9A5A5"/>
<path d="M33.0007 32.5904V29.6904L25.7207 41.6804H27.4807L33.0007 32.5904Z" fill="#A9A5A5"/>
<path d="M76.3302 5.82961L75.3202 4.59961L65.9902 19.9596V22.8596L76.3302 5.82961Z" fill="#A9A5A5"/>
<path d="M68.4502 3.9502H66.6902L65.9902 5.1002V7.9902L68.4502 3.9502Z" fill="#A9A5A5"/>
<path d="M78.9402 8.97L77.9302 7.75L65.9902 27.4V30.29L78.9402 8.97Z" fill="#A9A5A5"/>
<path d="M81.2795 27.4097L86.7495 18.3997L85.7395 17.1797L80.2695 26.1797L81.2795 27.4097Z" fill="#A9A5A5"/>
<path d="M91.4395 18.1202L100.039 3.9502H98.2895L91.4395 15.2302V18.1202Z" fill="#A9A5A5"/>
<path d="M91.4395 7.8002V10.6902L95.5294 3.9502H93.7694L91.4395 7.8002Z" fill="#A9A5A5"/>
<path d="M81.5402 12.1096L80.5302 10.8896L65.9902 34.8297V37.7197L81.5402 12.1096Z" fill="#A9A5A5"/>
<path d="M77.6602 23.04L78.6802 24.26L84.1502 15.26L83.1301 14.04L77.6602 23.04Z" fill="#A9A5A5"/>
<path d="M72.9602 3.9502H71.2102L65.9902 12.5302V15.4202L72.9602 3.9502Z" fill="#A9A5A5"/>
<path d="M101.889 23.1996V20.3096L90.6895 38.7596L91.6994 39.9796L101.889 23.1996Z" fill="#A9A5A5"/>
<path d="M101.89 30.6302V27.7402L93.4199 41.6802H95.1799L101.89 30.6302Z" fill="#A9A5A5"/>
<path d="M101.89 15.7699V12.8799L88.0801 35.6199L89.0901 36.8399L101.89 15.7699Z" fill="#A9A5A5"/>
<path d="M101.889 38.0599V35.1699L97.9395 41.6799H99.6895L101.889 38.0599Z" fill="#A9A5A5"/>
<path d="M76.4494 35.3597V32.4697L70.8594 41.6797H72.6094L76.4494 35.3597Z" fill="#A9A5A5"/>
<path d="M101.89 8.34043V5.44043L91.4405 22.6604V24.0504L90.9505 23.4704L85.4805 32.4704L86.4905 33.7004L101.89 8.34043Z" fill="#A9A5A5"/>
<path d="M76.4498 27.93V25.04L66.3398 41.68H68.0998L76.4498 27.93Z" fill="#A9A5A5"/>
<path d="M76.4491 39.9102L75.3691 41.6802H76.4491V39.9102Z" fill="#A9A5A5"/>
<path d="M88.3391 20.3203L82.8691 29.3303L83.8891 30.5503L89.3591 21.5503L88.3391 20.3203Z" fill="#A9A5A5"/>
<path d="M129.449 12.0899C129.988 12.1351 130.523 12.222 131.049 12.3499L135.919 4.34992C135.429 4.18992 134.919 4.04992 134.419 3.91992L129.449 12.0899Z" fill="#A9A5A5"/>
<path d="M136.289 15.6899C136.635 16.1173 136.946 16.5722 137.219 17.0499L142.679 8.04988C142.299 7.72988 141.899 7.41988 141.489 7.12988L136.289 15.6899Z" fill="#A9A5A5"/>
<path d="M127.57 3.21973C126.95 3.21973 126.34 3.21973 125.74 3.33973L109.1 30.7397C109.34 31.2697 109.61 31.7997 109.89 32.3197L127.57 3.21973Z" fill="#A9A5A5"/>
<path d="M138.149 5.2002L133.289 13.2002L133.639 13.3702C133.959 13.5602 134.259 13.7702 134.559 13.9902L139.489 5.8702L139.219 5.7202C138.869 5.5402 138.509 5.3702 138.149 5.2002Z" fill="#A9A5A5"/>
<path d="M144.431 9.70996L138.311 19.8C138.488 20.5819 138.591 21.3787 138.621 22.18L145.451 10.92C145.131 10.51 144.791 10.1 144.431 9.70996Z" fill="#A9A5A5"/>
<path d="M123.29 32.2502C122.903 32.0236 122.532 31.7696 122.18 31.4902L117.24 39.6302C117.4 39.7202 117.55 39.8202 117.71 39.9002C117.87 39.9802 118.28 40.1902 118.57 40.3202L123.43 32.3202L123.29 32.2502Z" fill="#A9A5A5"/>
<path d="M122.66 3.86035C121.93 4.04035 121.22 4.26035 120.52 4.50035L107.68 25.6404C107.783 26.3777 107.926 27.1088 108.11 27.8304L122.66 3.86035Z" fill="#A9A5A5"/>
<path d="M116.641 6.33984C115.47 7.05032 114.378 7.88153 113.381 8.81984L108.241 17.2798C107.878 18.5868 107.647 19.9268 107.551 21.2798L116.641 6.33984Z" fill="#A9A5A5"/>
<path d="M149.19 19.6297C149.085 18.9019 148.938 18.1807 148.75 17.4697L134 41.8397C134.72 41.6797 135.42 41.4797 136.12 41.2497L149.19 19.6297Z" fill="#A9A5A5"/>
<path d="M132.07 33C131.4 33.2446 130.707 33.4189 130 33.52L124.73 42.19C125.27 42.27 125.81 42.33 126.37 42.38L132.07 33Z" fill="#A9A5A5"/>
<path d="M147.71 14.6401C147.468 14.1061 147.198 13.5853 146.9 13.0801L129.08 42.4201C129.7 42.4201 130.31 42.3701 130.9 42.3201L147.71 14.6401Z" fill="#A9A5A5"/>
<path d="M148.889 27.5603C149.179 26.3328 149.349 25.0804 149.399 23.8203L139.859 39.5403C140.953 38.91 141.985 38.1767 142.939 37.3503L148.889 27.5603Z" fill="#A9A5A5"/>
<path d="M124.52 12.7798C125.198 12.5142 125.901 12.3198 126.62 12.1998L132 3.42977C131.46 3.35977 130.91 3.29977 130.35 3.25977L124.52 12.7798Z" fill="#A9A5A5"/>
<path d="M118.559 25.4803C118.39 24.6742 118.3 23.8537 118.289 23.0303L111.289 34.5003C111.619 34.9303 111.949 35.3403 112.289 35.7303L118.559 25.4803Z" fill="#A9A5A5"/>
<path d="M127.219 33.5197C126.685 33.4612 126.157 33.3609 125.639 33.2197L120.789 41.2197C121.269 41.3797 121.789 41.5297 122.269 41.6597L127.219 33.5197Z" fill="#A9A5A5"/>
<path d="M120.479 29.7498C120.164 29.3383 119.88 28.9038 119.629 28.4498V28.3398L114.119 37.4198C114.499 37.7498 114.889 38.0598 115.299 38.3598L120.479 29.7498Z" fill="#A9A5A5"/>
<path d="M161.759 6.37039L161.049 4.65039L154.279 15.7904L154.999 17.4904L161.759 6.37039Z" fill="#A9A5A5"/>
<path d="M163.601 10.7696L162.881 9.05957L156.141 20.1596L156.871 21.8596L163.601 10.7696Z" fill="#A9A5A5"/>
<path d="M158.72 3.9502H156.96L152.42 11.4302L153.14 13.1302L158.72 3.9502Z" fill="#A9A5A5"/>
<path d="M154.201 3.9502H152.451L150.551 7.0702L151.281 8.7702L154.201 3.9502Z" fill="#A9A5A5"/>
<path d="M149.221 3.9502L149.411 4.4002L149.691 3.9502H149.221Z" fill="#A9A5A5"/>
<path d="M185.801 3.9502H184.041L175.401 18.1702L171.301 27.8302L185.801 3.9502Z" fill="#A9A5A5"/>
<path d="M165.44 15.1797L164.72 13.4697L158.01 24.5197L158.73 26.2197L165.44 15.1797Z" fill="#A9A5A5"/>
<path d="M190.311 3.9502H188.561L165.641 41.6802H167.401L190.311 3.9502Z" fill="#A9A5A5"/>
<path d="M185.29 19.6403L189.5 9.82031L170.15 41.6803H171.91L185.29 19.6403Z" fill="#A9A5A5"/>
<path d="M178.68 35.0703L174.67 41.6803H175.85L178.68 35.0703Z" fill="#A9A5A5"/>
<path d="M169.11 24.0003L168.39 22.2803L161.73 33.2503L162.46 34.9503L169.11 24.0003Z" fill="#A9A5A5"/>
<path d="M170.94 28.4004L170.23 26.6904L163.6 37.6104L164.32 39.3104L170.94 28.4004Z" fill="#A9A5A5"/>
<path d="M167.269 19.5899L166.559 17.8799L159.869 28.8899L160.599 30.5799L167.269 19.5899Z" fill="#A9A5A5"/>
<path d="M211.12 3.9502L188.94 40.4702L188.41 41.6802H189.96L212.88 3.9502H211.12Z" fill="#A9A5A5"/>
<path d="M231.57 40.0597L230.83 38.3896L228.83 41.6796H230.58L231.57 40.0597Z" fill="#A9A5A5"/>
<path d="M211.66 17.9298L212.35 19.6698L218.25 9.9698L217.5 8.2998L211.66 17.9298Z" fill="#A9A5A5"/>
<path d="M208.359 3.9502H206.609L200.949 13.2602L196.279 23.8402L208.359 3.9502Z" fill="#A9A5A5"/>
<path d="M227.021 29.79L220.631 40.32L221.181 41.68H221.561L227.761 31.46L227.021 29.79Z" fill="#A9A5A5"/>
<path d="M206.47 26.4805L197.23 41.6805H198.99L199.91 40.1705L202.26 34.3505H203.44L208.22 26.4805H206.47Z" fill="#A9A5A5"/>
<path d="M219.409 12.5996L213.449 22.4096L214.149 24.1496L220.149 14.2696L219.409 12.5996Z" fill="#A9A5A5"/>
<path d="M223.95 22.8702L223.21 21.2002L215.23 34.3502H216.98L223.95 22.8702Z" fill="#A9A5A5"/>
<path d="M225.86 27.17L225.12 25.5L218.82 35.85L219.53 37.59L225.86 27.17Z" fill="#A9A5A5"/>
<path d="M229.661 35.7598L228.921 34.0898L224.311 41.6798H226.071L229.661 35.7598Z" fill="#A9A5A5"/>
<path d="M222.051 18.5704L221.311 16.9004L210.711 34.3504H212.471L222.051 18.5704Z" fill="#A9A5A5"/>
<path d="M212.729 26.4805H210.979L206.199 34.3505H207.949L212.729 26.4805Z" fill="#A9A5A5"/>
<path d="M208.671 18.3098L210.241 14.4098L210.561 15.1998L216.341 5.67977L215.601 4.00977L192.721 41.6798H194.471L208.671 18.3098Z" fill="#A9A5A5"/>
<path d="M278.32 7.67027V4.78027L267.65 22.3503V25.2403L278.32 7.67027Z" fill="#A9A5A5"/>
<path d="M271.55 3.9502H269.8L267.65 7.4902V10.3802L271.55 3.9502Z" fill="#A9A5A5"/>
<path d="M278.32 15.1V12.21L267.65 29.79V32.67L278.32 15.1Z" fill="#A9A5A5"/>
<path d="M276.06 3.9502H274.31L267.65 14.9202V17.8102L276.06 3.9502Z" fill="#A9A5A5"/>
<path d="M278.321 37.3998V34.5098L273.961 41.6798H275.721L278.321 37.3998Z" fill="#A9A5A5"/>
<path d="M278.32 22.5296V19.6396L267.65 37.2197V40.1096L278.32 22.5296Z" fill="#A9A5A5"/>
<path d="M278.319 29.9603V27.0703L269.449 41.6803H271.199L278.319 29.9603Z" fill="#A9A5A5"/>
<path d="M303.581 3.23047C302.951 3.23047 302.341 3.32047 301.731 3.40047L285.391 30.2905C285.617 30.8477 285.874 31.3919 286.161 31.9205L303.581 3.23047Z" fill="#A9A5A5"/>
<path d="M320.631 9.41992L314.631 19.2999C314.841 20.0148 314.981 20.7482 315.051 21.4899L321.671 10.5899C321.351 10.1799 321.001 9.79992 320.631 9.41992Z" fill="#A9A5A5"/>
<path d="M298.6 4C297.857 4.19442 297.125 4.43148 296.41 4.71L284.1 25C284.172 25.7701 284.292 26.5349 284.46 27.29L298.6 4Z" fill="#A9A5A5"/>
<path d="M312.51 15.3702C312.877 15.7799 313.211 16.218 313.51 16.6802L318.9 7.80016C318.51 7.49016 318.1 7.20016 317.69 6.91016L312.51 15.3702Z" fill="#A9A5A5"/>
<path d="M309.41 12.9998C309.65 13.1198 309.89 13.2198 310.12 13.3498C310.35 13.4798 310.52 13.6198 310.71 13.7498L315.63 5.65977C315.18 5.42977 314.73 5.20977 314.27 5.00977L309.41 12.9998Z" fill="#A9A5A5"/>
<path d="M325.91 23L315.65 39.9H315.7C316.687 39.3719 317.63 38.7667 318.52 38.09L325.6 26.43C325.797 25.2971 325.901 24.1499 325.91 23V23Z" fill="#A9A5A5"/>
<path d="M298.359 31.2305L293.359 39.4405L294.169 39.9005L294.679 40.1505L299.559 32.1505C299.139 31.872 298.738 31.5646 298.359 31.2305V31.2305Z" fill="#A9A5A5"/>
<path d="M292.369 6.83008C290.969 7.76263 289.701 8.87932 288.599 10.1501L285.299 15.5801C284.694 17.1344 284.298 18.7618 284.119 20.4201L292.369 6.83008Z" fill="#A9A5A5"/>
<path d="M325.58 18.9997C325.451 18.3002 325.281 17.6089 325.07 16.9297L309.91 41.9997C310.61 41.8597 311.3 41.6897 311.97 41.4897L325.58 18.9997Z" fill="#A9A5A5"/>
<path d="M305.49 12.0698C306.038 12.0902 306.584 12.1571 307.12 12.2698L312 4.2098C311.5 4.0498 311 3.9198 310.49 3.7998L305.49 12.0698Z" fill="#A9A5A5"/>
<path d="M303.281 33.4596C302.758 33.381 302.243 33.2607 301.741 33.0996L296.891 41.0996C297.371 41.2696 297.891 41.4296 298.361 41.5696L303.281 33.4596Z" fill="#A9A5A5"/>
<path d="M324 14.2104C323.761 13.7059 323.493 13.2152 323.2 12.7404V12.6904L314.43 27.1404C314.26 27.5905 314.06 28.0283 313.83 28.4504C313.458 29.1132 313.015 29.7335 312.51 30.3004L305.1 42.4304C305.71 42.4304 306.31 42.4304 306.9 42.3604L324 14.2104Z" fill="#A9A5A5"/>
<path d="M308.001 33.1602C307.348 33.3479 306.678 33.4718 306.001 33.5302L300.801 42.1002C301.331 42.1902 301.871 42.2602 302.431 42.3102L308.001 33.1602Z" fill="#A9A5A5"/>
<path d="M300.35 13.1005C301.06 12.7424 301.813 12.4736 302.59 12.3005L308 3.37047C307.45 3.31047 306.9 3.26047 306.33 3.23047L300.35 13.1005Z" fill="#A9A5A5"/>
<path d="M296.71 29.3999C296.49 29.0961 296.29 28.7788 296.11 28.4499C296.01 28.2799 295.94 28.0899 295.86 27.9199L290.25 37.1599C290.623 37.4933 291.013 37.8266 291.42 38.1599L296.71 29.3999Z" fill="#A9A5A5"/>
<path d="M294.94 24.9C294.823 24.2127 294.763 23.5171 294.76 22.82C294.76 22.62 294.76 22.44 294.76 22.25L287.52 34.17C287.84 34.6 288.17 35.02 288.52 35.42L294.94 24.9Z" fill="#A9A5A5"/>
<path d="M356.961 4.5202L357.311 3.9502H356.961V4.5202Z" fill="#A9A5A5"/>
<path d="M334.74 3.9502H332.99L331.52 6.3602V9.2502L334.74 3.9502Z" fill="#A9A5A5"/>
<path d="M342.3 6.35965L341.29 5.13965L331.52 21.2196V24.1096L342.3 6.35965Z" fill="#A9A5A5"/>
<path d="M339.25 3.9502H337.5L331.52 13.7902V16.6802L339.25 3.9502Z" fill="#A9A5A5"/>
<path d="M356.961 9.0602V11.9502L361.821 3.9502H360.061L356.961 9.0602Z" fill="#A9A5A5"/>
<path d="M343.631 23.5703L344.651 24.8003L350.121 15.7903L349.101 14.5703L343.631 23.5703Z" fill="#A9A5A5"/>
<path d="M344.91 9.50027L343.89 8.28027L331.52 28.6603V31.5503L344.91 9.50027Z" fill="#A9A5A5"/>
<path d="M356.961 19.3802L366.331 3.9502H364.581L356.961 16.4902V19.3802Z" fill="#A9A5A5"/>
<path d="M352.72 18.93L351.71 17.71L346.24 26.72L347.25 27.94L352.72 18.93Z" fill="#A9A5A5"/>
<path d="M341.98 41.1602L341.66 41.6802H341.98V41.1602Z" fill="#A9A5A5"/>
<path d="M367.421 31.89V29L359.721 41.68H361.471L367.421 31.89Z" fill="#A9A5A5"/>
<path d="M367.42 24.4503V21.5703L356.65 39.2903L357.67 40.5103L367.42 24.4503Z" fill="#A9A5A5"/>
<path d="M367.421 17.0199V14.1299L354.051 36.1499L355.061 37.3699L367.421 17.0199Z" fill="#A9A5A5"/>
<path d="M367.42 39.3197V36.4297L364.23 41.6797H365.99L367.42 39.3197Z" fill="#A9A5A5"/>
<path d="M354.31 20.8604L348.84 29.8604L349.86 31.0804L355.32 22.0804L354.31 20.8604Z" fill="#A9A5A5"/>
<path d="M341.98 36.6205V33.7305L337.15 41.6805H338.9L341.98 36.6205Z" fill="#A9A5A5"/>
<path d="M341.981 29.1898V26.2998L332.641 41.6798H334.391L341.981 29.1898Z" fill="#A9A5A5"/>
<path d="M341.98 21.7599V21.5699L342.04 21.6499L347.51 12.6499L346.5 11.4199L331.52 36.0899V38.9799L341.98 21.7599Z" fill="#A9A5A5"/>
<path d="M367.419 9.5902V6.7002L356.959 23.9202V24.0502L356.919 24.0002L351.449 33.0102L352.459 34.2302L367.419 9.5902Z" fill="#A9A5A5"/>
</svg>
