<svg width="372" height="45" viewBox="0 0 372 45" fill="none" xmlns="http://www.w3.org/2000/svg">
<path d="M4.76953 4.5H14.4995V41.18H4.76953V4.5Z" stroke="#A9A5A5"/>
<path d="M48.5008 24.06V4.5H57.9508V41.18H49.8959L33.3858 21.251L32.5008 20.1827V21.57V41.18H23.0508V4.5H31.0962L47.6162 24.3796L48.5008 25.444V24.06Z" stroke="#A9A5A5"/>
<path d="M91.94 24.06V4.5H101.39V41.18H93.3451L76.835 21.251L75.95 20.1827V21.57V41.18H66.5V4.5H74.5552L91.0553 24.3793L91.94 25.4453V24.06Z" stroke="#A9A5A5"/>
<path d="M108.001 22.8287L108.001 22.8204L108.001 22.812C107.944 19.3884 108.845 16.017 110.601 13.0776C112.357 10.139 114.897 7.74875 117.938 6.17582C121.206 4.53824 124.81 3.68555 128.466 3.68555C132.121 3.68555 135.726 4.5382 138.994 6.17572C142.033 7.75095 144.573 10.1415 146.33 13.0795C148.088 16.0184 148.992 19.3888 148.941 22.8128L148.941 22.8204L148.941 22.8279C148.993 26.2507 148.09 29.6203 146.332 32.5579C144.575 35.4945 142.034 37.8829 138.994 39.4547C135.726 41.0922 132.121 41.9449 128.466 41.9449C124.81 41.9449 121.205 41.0922 117.937 39.4545C114.897 37.8851 112.355 35.497 110.599 32.5598C108.843 29.6217 107.943 26.2512 108.001 22.8287ZM137.751 28.6869L137.753 28.6837C138.706 26.8784 139.187 24.8614 139.151 22.8204C139.188 20.776 138.707 18.7553 137.753 16.9469L137.753 16.9469L137.751 16.9436C136.858 15.2815 135.523 13.8987 133.893 12.9483L133.893 12.9482L133.885 12.944C132.229 12.0167 130.363 11.5297 128.466 11.5297C126.568 11.5297 124.702 12.0167 123.046 12.944L123.046 12.9439L123.039 12.9485C121.411 13.8993 120.079 15.2824 119.19 16.9444L119.19 16.945C118.226 18.7513 117.741 20.7739 117.781 22.8204C117.743 24.8635 118.228 26.8825 119.19 28.6856L119.19 28.6861C120.079 30.3481 121.411 31.7312 123.039 32.682L123.038 32.682L123.046 32.6865C124.702 33.6138 126.568 34.1008 128.466 34.1008C130.363 34.1008 132.229 33.6138 133.885 32.6865L133.641 32.2502L133.893 32.6822C135.523 31.7318 136.858 30.349 137.751 28.6869Z" stroke="#A9A5A5"/>
<path d="M171.461 28.726L181.781 4.5H191.242L175.521 41.18H165.671L149.978 4.5H160.428L170.539 28.7226L170.996 29.8167L171.461 28.726Z" stroke="#A9A5A5"/>
<path d="M218.684 34.1639L218.558 33.85H218.22H202.22H201.885L201.757 34.1606L198.885 41.18H189.178L205.386 4.5H215.255L231.522 41.23H221.518L218.684 34.1639ZM215.09 26.98H215.83L215.554 26.2936L210.704 14.2236L210.24 13.069L209.776 14.2236L204.926 26.2936L204.65 26.98H205.39H215.09Z" stroke="#A9A5A5"/>
<path d="M241.949 12.41V11.91H241.449H230.359V4.5H263.159V11.96H252.119H251.619V12.46V41.18H241.949V12.41Z" stroke="#A9A5A5"/>
<path d="M268.15 4.5H277.82V41.18H268.15V4.5Z" stroke="#A9A5A5"/>
<path d="M284.501 22.829L284.501 22.8204L284.501 22.8117C284.443 19.3901 285.34 16.0202 287.093 13.0809C288.845 10.1426 291.382 7.7513 294.418 6.17569C297.686 4.53819 301.291 3.68555 304.946 3.68555C308.601 3.68555 312.206 4.53824 315.474 6.17582C318.514 7.74875 321.055 10.139 322.811 13.0776C324.567 16.017 325.467 19.3884 325.411 22.812L325.411 22.8204L325.411 22.8287C325.469 26.2512 324.569 29.6217 322.813 32.5598C321.057 35.497 318.515 37.8851 315.474 39.4545C312.206 41.0922 308.601 41.9449 304.946 41.9449C301.291 41.9449 297.686 41.0923 294.418 39.4547C291.381 37.8825 288.843 35.4934 287.091 32.5564C285.338 29.6186 284.441 26.2494 284.501 22.829ZM314.231 28.6869L314.233 28.6837C315.186 26.8784 315.667 24.8614 315.631 22.8204C315.668 20.776 315.188 18.7553 314.233 16.9469L314.233 16.9469L314.231 16.9436C313.338 15.2815 312.003 13.8987 310.373 12.9483L310.373 12.9482L310.365 12.944C308.71 12.0167 306.844 11.5297 304.946 11.5297C303.048 11.5297 301.182 12.0167 299.527 12.944L299.527 12.9439L299.519 12.9485C297.891 13.8993 296.559 15.2824 295.67 16.9444L295.67 16.945C294.707 18.7513 294.222 20.7739 294.261 22.8204C294.223 24.8635 294.708 26.8825 295.67 28.6856L295.67 28.6861C296.559 30.3481 297.891 31.7312 299.519 32.682L299.519 32.682L299.527 32.6865C301.182 33.6138 303.048 34.1008 304.946 34.1008C306.844 34.1008 308.71 33.6138 310.365 32.6865L310.121 32.2502L310.373 32.6822C312.003 31.7318 313.338 30.349 314.231 28.6869Z" stroke="#A9A5A5"/>
<path d="M357.5 24.06V4.5H366.92V41.18H358.865L342.385 21.2514L341.5 20.1808V21.57V41.18H332.02V4.5H340.075L356.615 24.3798L357.5 25.4427V24.06Z" stroke="#A9A5A5"/>
</svg>
