<svg width="478" height="45" viewBox="0 0 478 45" fill="none" xmlns="http://www.w3.org/2000/svg">
<path d="M34.3402 24.9997C35.6525 22.8534 36.3191 20.3747 36.2602 17.8597C36.3344 15.247 35.6389 12.6702 34.2602 10.4497C32.8346 8.29772 30.8119 6.60865 28.4402 5.58967C25.6266 4.40299 22.5931 3.82696 19.5402 3.89967H2.24023V41.6697H12.9202V31.6697H18.7402L25.5802 41.6697H37.0002L28.8702 29.8097C31.1171 28.7641 33.016 27.0944 34.3402 24.9997V24.9997ZM23.8002 21.9997C22.3732 23.0507 20.6179 23.5578 18.8502 23.4297H12.9202V12.4297H18.8502C20.6115 12.2744 22.3695 12.761 23.8002 13.7997C24.3683 14.3145 24.814 14.9499 25.1047 15.6594C25.3954 16.3688 25.5237 17.1342 25.4802 17.8997C25.5341 18.6662 25.4105 19.4349 25.1192 20.1459C24.8278 20.857 24.3765 21.4913 23.8002 21.9997V21.9997Z" fill="#A9A5A5"/>
<path d="M52.7009 26.5204H69.4609V18.5404H52.7009V12.1804H71.7209V3.94043H42.1309V41.6704H72.4209V33.4204H52.7009V26.5204Z" fill="#A9A5A5"/>
<path d="M101.341 20.6704C99.012 19.8333 96.6258 19.1649 94.2009 18.6704C92.3056 18.3231 90.4473 17.7974 88.6509 17.1004C88.1616 16.9534 87.731 16.6559 87.4204 16.2502C87.1099 15.8445 86.9351 15.3512 86.9209 14.8404C86.9256 14.3394 87.0632 13.8485 87.3197 13.4181C87.5763 12.9876 87.9425 12.633 88.3809 12.3904C89.8087 11.6701 91.4067 11.3554 93.0009 11.4804C96.6726 11.563 100.265 12.5634 103.451 14.3904L106.741 6.47042C104.768 5.32504 102.629 4.49185 100.401 4.00042C97.9978 3.44103 95.5384 3.15918 93.0709 3.16042C89.928 3.07737 86.8011 3.63538 83.8809 4.80042C81.6194 5.68886 79.6639 7.21371 78.2509 9.19042C76.9963 11.0238 76.3364 13.199 76.3609 15.4204C76.2242 17.6804 76.9376 19.9097 78.3609 21.6704C79.7014 23.1827 81.4049 24.3287 83.3109 25.0004C85.6358 25.829 88.0147 26.4973 90.4309 27.0004C92.354 27.373 94.2386 27.922 96.0609 28.6404C96.5676 28.8062 97.0092 29.1272 97.3233 29.558C97.6374 29.9887 97.808 30.5073 97.8109 31.0404C97.8109 33.0871 95.7643 34.1104 91.6709 34.1104C89.4401 34.1056 87.2225 33.7685 85.0909 33.1104C83.013 32.5016 81.0354 31.592 79.2209 30.4104L75.7109 38.2804C77.8494 39.6849 80.2191 40.7005 82.7109 41.2804C85.6128 42.0408 88.6012 42.4206 91.6009 42.4104C94.7375 42.495 97.8581 41.9369 100.771 40.7704C103.031 39.866 104.993 38.3449 106.431 36.3804C107.673 34.5714 108.329 32.4246 108.311 30.2304C108.441 27.9674 107.704 25.7399 106.251 24.0004C104.911 22.5061 103.225 21.3628 101.341 20.6704V20.6704Z" fill="#A9A5A5"/>
<path d="M139.37 5.62973C136.56 4.44297 133.53 3.86691 130.48 3.93973H113.23V41.6697H123.9V31.7997H130.48C133.53 31.8725 136.56 31.2965 139.37 30.1097C141.739 29.1009 143.762 27.4222 145.19 25.2797C146.593 23.0786 147.307 20.5089 147.24 17.8997C147.331 15.297 146.627 12.7283 145.221 10.5362C143.815 8.34399 141.774 6.63247 139.37 5.62973V5.62973ZM134.79 21.9997C133.349 23.0599 131.575 23.5673 129.79 23.4297H123.9V12.4297H129.83C131.618 12.2878 133.396 12.8034 134.83 13.8797C135.396 14.3964 135.839 15.0324 136.128 15.7415C136.416 16.4507 136.544 17.2152 136.5 17.9797C136.533 18.7349 136.397 19.4878 136.101 20.1834C135.805 20.8789 135.357 21.4995 134.79 21.9997V21.9997Z" fill="#A9A5A5"/>
<path d="M182.74 5.72048C179.402 4.04711 175.719 3.17578 171.985 3.17578C168.251 3.17578 164.568 4.04711 161.23 5.72048C158.105 7.33356 155.491 9.78682 153.684 12.8043C151.877 15.8217 150.947 19.2836 151 22.8005C150.948 26.3173 151.876 29.7792 153.682 32.7979C155.487 35.8165 158.097 38.2725 161.22 39.8905C164.561 41.5548 168.243 42.421 171.975 42.421C175.708 42.421 179.389 41.5548 182.73 39.8905C185.866 38.2831 188.489 35.8308 190.304 32.8108C192.118 29.7908 193.052 26.3234 193 22.8005C193.055 19.2796 192.123 15.8136 190.31 12.795C188.497 9.77642 185.874 7.32576 182.74 5.72048V5.72048ZM180.82 28.4405C179.972 30.0188 178.706 31.3334 177.16 32.2405C175.577 33.1196 173.796 33.5809 171.985 33.5809C170.174 33.5809 168.393 33.1196 166.81 32.2405C165.26 31.3365 163.99 30.0214 163.14 28.4405C162.22 26.7053 161.759 24.7639 161.8 22.8005C161.759 20.8402 162.22 18.9021 163.14 17.1705C163.987 15.5874 165.258 14.2715 166.81 13.3705C168.391 12.4849 170.173 12.0199 171.985 12.0199C173.797 12.0199 175.579 12.4849 177.16 13.3705C178.708 14.2747 179.975 15.59 180.82 17.1705C181.743 18.9012 182.208 20.8393 182.17 22.8005C182.208 24.7648 181.743 26.7062 180.82 28.4405V28.4405Z" fill="#A9A5A5"/>
<path d="M224.001 24.0404L207.341 3.94043H198.561V41.6704H209.011V21.5604L225.671 41.6704H234.461V3.94043H224.001V24.0404Z" fill="#A9A5A5"/>
<path d="M265 20.6698C262.671 19.834 260.285 19.1657 257.86 18.6698C255.965 18.3225 254.107 17.7968 252.31 17.0998C251.821 16.9528 251.39 16.6553 251.08 16.2495C250.769 15.8438 250.595 15.3505 250.58 14.8398C250.588 14.3495 250.723 13.8695 250.972 13.4471C251.221 13.0246 251.575 12.674 252 12.4298C253.427 11.6929 255.029 11.3641 256.63 11.4798C260.305 11.5607 263.902 12.5611 267.09 14.3898L270.38 6.46976C268.41 5.32533 266.275 4.49217 264.05 3.99976C261.647 3.44036 259.188 3.15852 256.72 3.15976C253.579 3.07035 250.452 3.62155 247.53 4.77976C245.268 5.67104 243.31 7.19511 241.89 9.16976C240.636 11.0107 239.976 13.1922 240 15.4198C239.878 17.6862 240.609 19.9163 242.05 21.6698C243.391 23.1821 245.094 24.3281 247 24.9998C249.325 25.8284 251.704 26.4966 254.12 26.9998C256.043 27.3738 257.928 27.9227 259.75 28.6398C260.257 28.8056 260.699 29.1266 261.013 29.5573C261.327 29.988 261.497 30.5067 261.5 31.0398C261.5 33.0864 259.454 34.1098 255.36 34.1098C253.13 34.1049 250.912 33.7679 248.78 33.1098C246.702 32.501 244.725 31.5913 242.91 30.4098L239.4 38.2798C241.539 39.6842 243.909 40.6998 246.4 41.2798C249.302 42.0401 252.291 42.42 255.29 42.4098C258.427 42.4943 261.548 41.9362 264.46 40.7698C266.721 39.8653 268.682 38.3442 270.12 36.3798C271.36 34.5736 272.016 32.4305 272 30.2398C272.122 27.9681 271.37 25.7359 269.9 23.9998C268.561 22.5086 266.88 21.3658 265 20.6698V20.6698Z" fill="#A9A5A5"/>
<path d="M287.551 3.94043H276.881V41.6704H287.551V3.94043Z" fill="#A9A5A5"/>
<path d="M324.151 22.0002C325.691 21.2489 326.99 20.0815 327.901 18.6302C328.791 17.1821 329.249 15.5098 329.221 13.8102C329.254 12.3879 328.924 10.9806 328.262 9.72096C327.601 8.46131 326.63 7.39077 325.441 6.6102C322.934 4.84353 319.267 3.95686 314.441 3.9502H295.141V41.6702H315.521C320.554 41.6702 324.397 40.7702 327.051 38.9702C328.327 38.1548 329.367 37.0197 330.069 35.6777C330.771 34.3357 331.109 32.8335 331.051 31.3202C331.108 29.2364 330.463 27.1938 329.221 25.5202C327.915 23.8726 326.151 22.6479 324.151 22.0002V22.0002ZM305.721 11.6402H313.051C316.637 11.6402 318.434 12.8469 318.441 15.2602C318.447 17.6735 316.651 18.8935 313.051 18.9202H305.721V11.6402ZM314.661 34.0002H305.721V26.3102H314.661C318.401 26.3102 320.271 27.5835 320.271 30.1302C320.271 32.6902 318.401 34.0002 314.661 34.0002Z" fill="#A9A5A5"/>
<path d="M347.27 3.94043H336.6V41.6704H347.27V3.94043Z" fill="#A9A5A5"/>
<path d="M365.551 3.94043H354.881V41.6704H383.551V33.2104H365.551V3.94043Z" fill="#A9A5A5"/>
<path d="M398.43 3.94043H387.76V41.6704H398.43V3.94043Z" fill="#A9A5A5"/>
<path d="M463.651 3.94043L454.701 18.9204L445.751 3.94043H436.271H434.491H402.471V12.4004H414.061V41.6704H424.731V12.4004H436.271V6.91043L448.881 27.9804V41.6704H459.551V28.1404L474.001 3.94043H463.651Z" fill="#A9A5A5"/>
</svg>
