<svg width="478" height="45" viewBox="0 0 478 45" fill="none" xmlns="http://www.w3.org/2000/svg">
<path d="M35.7604 17.8455L35.7601 17.8584L35.7604 17.8714C35.8169 20.2891 35.1765 22.6721 33.9156 24.7357C32.6426 26.7479 30.8181 28.3518 28.6593 29.3563L28.124 29.6054L28.4578 30.0924L36.0513 41.1697H25.844L19.1529 31.3874L19.004 31.1697H18.7402H12.9202H12.4202V31.6697V41.1697H2.74023V4.39967H19.5402V4.39982L19.5521 4.39953C22.5337 4.32852 25.4963 4.89097 28.2444 6.04973C30.5237 7.02938 32.468 8.65225 33.8393 10.7197C35.1638 12.8555 35.8318 15.3333 35.7604 17.8455ZM24.0968 22.4023L23.8002 21.9997L24.131 22.3746C24.7649 21.8154 25.2614 21.1177 25.5819 20.3355C25.8983 19.5631 26.0348 18.729 25.9811 17.8963C26.0236 17.067 25.8823 16.2384 25.5674 15.4698C25.2484 14.6913 24.7593 13.9941 24.136 13.4292L24.1159 13.411L24.094 13.3951C22.5716 12.2899 20.7025 11.7699 18.8286 11.9297H12.9202H12.4202V12.4297V23.4297V23.9297H12.9202H18.8324C20.7127 24.0616 22.5788 23.5203 24.0968 22.4023Z" stroke="#A9A5A5"/>
<path d="M52.7009 26.0204H52.2009V26.5204V33.4204V33.9204H52.7009H71.9209V41.1704H42.6309V4.44043H71.2209V11.6804H52.7009H52.2009V12.1804V18.5404V19.0404H52.7009H68.9609V26.0204H52.7009Z" stroke="#A9A5A5"/>
<path d="M94.1059 19.1613C96.5051 19.6508 98.866 20.3122 101.17 21.1404C102.974 21.8037 104.589 22.8979 105.873 24.3277C107.241 25.9687 107.934 28.0686 107.812 30.2018L107.811 30.2182L107.811 30.2346C107.828 32.3238 107.204 34.368 106.023 36.0912C104.64 37.9772 102.756 39.4375 100.585 40.3062L100.585 40.3063C97.7356 41.4473 94.6828 41.9933 91.6144 41.9106L91.6068 41.9104L91.5992 41.9104C88.6428 41.9205 85.6976 41.5461 82.8377 40.7967L82.8377 40.7966L82.8243 40.7934C80.5277 40.2589 78.3372 39.3456 76.3425 38.0919L79.4421 31.1421C81.1593 32.1984 83.0105 33.0216 84.9468 33.5892C87.1248 34.2613 89.3906 34.6055 91.6698 34.6104H91.6709C93.7431 34.6104 95.3717 34.354 96.4995 33.7901C97.0705 33.5046 97.5288 33.1325 97.8432 32.6609C98.1597 32.1862 98.3109 31.6396 98.3109 31.0404L98.3109 31.0377C98.3074 30.3996 98.1032 29.7789 97.7273 29.2634C97.3544 28.752 96.8313 28.3699 96.2311 28.1701C94.3854 27.4433 92.4768 26.8877 90.5295 26.5102C88.1368 26.0118 85.781 25.35 83.4788 24.5294L83.4771 24.5288C81.6548 23.8867 80.0257 22.7918 78.7427 21.3473C77.4025 19.685 76.731 17.5822 76.86 15.4506L76.8611 15.4328L76.8609 15.4149C76.8375 13.2978 77.4659 11.2248 78.6607 9.47701C80.0172 7.58095 81.8938 6.11828 84.0638 5.26581L84.0662 5.26483C86.9233 4.12495 89.9827 3.57899 93.0577 3.66025L93.0577 3.66043L93.0712 3.66042C95.5004 3.6592 97.9217 3.93668 100.288 4.4874L100.288 4.48744L100.293 4.48869C102.329 4.9376 104.287 5.67828 106.109 6.68714L103.204 13.6808C100.075 11.9897 96.5872 11.0631 93.026 10.9809C91.3452 10.8516 89.661 11.1846 88.1557 11.944L88.1472 11.9483L88.1389 11.9529C87.623 12.2383 87.1921 12.6556 86.8902 13.1621C86.5884 13.6686 86.4264 14.2462 86.421 14.8358L86.4209 14.845L86.4211 14.8543C86.4382 15.4701 86.6489 16.0649 87.0234 16.5541C87.3938 17.0379 87.9056 17.3941 88.4876 17.5733C90.3064 18.2778 92.1874 18.8095 94.1059 19.1613Z" stroke="#A9A5A5"/>
<path d="M130.48 4.43973V4.43987L130.492 4.43959C133.471 4.36846 136.431 4.93114 139.176 6.09034L139.37 5.62973L139.178 6.09118C141.488 7.05478 143.449 8.6995 144.8 10.8061C146.151 12.9127 146.828 15.3811 146.741 17.8823L146.74 17.8974L146.741 17.9125C146.805 20.4205 146.119 22.8905 144.772 25.0067C143.398 27.0659 141.453 28.6794 139.175 29.6495C136.43 30.8084 133.471 31.371 130.492 31.2999L130.492 31.2997H130.48H123.9H123.4V31.7997V41.1697H113.73V4.43973H130.48ZM134.79 21.9997L135.121 22.3746C135.744 21.825 136.236 21.1432 136.561 20.3791C136.883 19.6226 137.033 18.8043 137.001 17.9831C137.044 17.1528 136.904 16.3231 136.591 15.5529C136.274 14.7751 135.788 14.0775 135.168 13.5107L135.15 13.4944L135.131 13.4798C133.604 12.3344 131.713 11.7836 129.811 11.9297H123.9H123.4V12.4297V23.4297V23.9297H123.9H129.772C131.669 24.0714 133.554 23.5298 135.087 22.4025L134.79 21.9997Z" stroke="#A9A5A5"/>
<path d="M171.985 3.67578C175.641 3.67578 179.246 4.52862 182.514 6.16647C185.564 7.7292 188.116 10.1145 189.881 13.0525C191.646 15.991 192.554 19.3651 192.5 22.7927L192.5 22.8003L192.5 22.8079C192.551 26.2376 191.642 29.6132 189.875 32.5533C188.109 35.4925 185.556 37.8793 182.505 39.4442C179.234 41.0732 175.629 41.921 171.975 41.921C168.321 41.921 164.717 41.0733 161.447 39.4447C158.408 37.8694 155.867 35.479 154.111 32.5412C152.353 29.6023 151.449 26.2319 151.5 22.8079L151.5 22.8004L151.5 22.7929C151.449 19.3691 152.353 15.9988 154.113 13.0612C155.872 10.1244 158.415 7.73658 161.457 6.16616C164.725 4.52851 168.33 3.67578 171.985 3.67578ZM177.403 32.6776L177.403 32.6777L177.413 32.6717C179.038 31.7182 180.369 30.3363 181.261 28.6772L180.82 28.4405L181.262 28.6754C182.223 26.8688 182.708 24.8467 182.67 22.8005C182.708 20.7573 182.223 18.7383 181.261 16.9352L181.261 16.9346C180.372 15.2727 179.04 13.8895 177.412 12.9388L177.412 12.9387L177.405 12.9342C175.749 12.0069 173.883 11.5199 171.985 11.5199C170.087 11.5199 168.222 12.0069 166.566 12.9342L166.566 12.9342L166.559 12.938C164.926 13.8857 163.59 15.2697 162.699 16.9347L162.699 16.9359C161.741 18.7398 161.259 20.7585 161.3 22.8005C161.259 24.8455 161.74 26.8673 162.698 28.6746L162.7 28.6771C163.593 30.3393 164.928 31.722 166.558 32.6724L166.558 32.6725L166.567 32.6776C168.225 33.5979 170.089 34.0809 171.985 34.0809C173.881 34.0809 175.746 33.5979 177.403 32.6776Z" stroke="#A9A5A5"/>
<path d="M223.616 24.3595L224.501 25.4272V24.0404V4.44043H233.961V41.1704H225.906L209.396 21.2414L208.511 20.1731V21.5604V41.1704H199.061V4.44043H207.106L223.616 24.3595Z" stroke="#A9A5A5"/>
<path d="M257.765 19.1606C260.164 19.6515 262.524 20.3128 264.829 21.1395C266.629 21.8065 268.24 22.9009 269.524 24.3284C270.908 25.9664 271.616 28.0712 271.501 30.2131L271.5 30.2283L271.5 30.2434C271.516 32.3294 270.892 34.37 269.712 36.0906C268.33 37.9765 266.446 39.4368 264.275 40.3055L264.275 40.3056C261.425 41.4467 258.372 41.9926 255.304 41.9099L255.296 41.9097L255.289 41.9098C252.332 41.9198 249.387 41.5454 246.527 40.7961L246.527 40.7959L246.514 40.7928C244.217 40.2583 242.027 39.345 240.032 38.0913L243.132 31.1415C244.849 32.1977 246.7 33.0209 248.636 33.5886C250.814 34.2606 253.08 34.6048 255.359 34.6098H255.36C257.433 34.6098 259.061 34.3534 260.189 33.7895C260.76 33.504 261.218 33.1319 261.533 32.6602C261.849 32.1855 262 31.6389 262 31.0398L262 31.037C261.997 30.399 261.793 29.7782 261.417 29.2627C261.044 28.7513 260.521 28.3691 259.92 28.1693C258.074 27.444 256.166 26.8885 254.219 26.5096C251.826 26.0111 249.471 25.3493 247.168 24.5288L247.167 24.5282C245.344 23.8858 243.714 22.7904 242.431 21.3451C241.073 19.6894 240.384 17.5852 240.5 15.4468L240.501 15.4306L240.5 15.4144C240.477 13.2911 241.106 11.2118 242.3 9.45649C243.663 7.5623 245.542 6.10028 247.714 5.24497L247.715 5.24457C250.573 4.11137 253.632 3.57208 256.706 3.65956L256.713 3.65976L256.721 3.65976C259.15 3.65854 261.571 3.93601 263.937 4.48674L263.937 4.48677L263.942 4.48795C265.974 4.93772 267.93 5.67836 269.749 6.68635L266.844 13.6802C263.711 11.9872 260.219 11.0606 256.654 10.9802C254.965 10.8605 253.275 11.2083 251.771 11.9855L251.761 11.9907L251.751 11.9962C251.251 12.2836 250.834 12.6961 250.541 13.1932C250.248 13.6904 250.089 14.2551 250.08 14.832L250.08 14.8428L250.081 14.8536C250.098 15.4695 250.308 16.0643 250.683 16.5535C251.053 17.0373 251.565 17.3934 252.147 17.5727C253.966 18.2771 255.847 18.8088 257.765 19.1606Z" stroke="#A9A5A5"/>
<path d="M277.381 4.44043H287.051V41.1704H277.381V4.44043Z" stroke="#A9A5A5"/>
<path d="M323.931 21.5508L324.151 22.0002L323.997 22.4759C325.9 23.0924 327.58 24.2574 328.824 25.8246C329.997 27.4071 330.605 29.3373 330.551 31.3065L330.55 31.323L330.551 31.3395C330.606 32.7656 330.287 34.1813 329.626 35.446C328.965 36.7108 327.984 37.7804 326.781 38.5489L326.781 38.5487L326.77 38.5564C324.234 40.2766 320.506 41.1702 315.521 41.1702H295.641V4.4502H314.44C319.219 4.45684 322.766 5.33672 325.153 7.01889L325.159 7.02367L325.166 7.02822C326.285 7.76222 327.198 8.76888 327.82 9.95338C328.442 11.1379 328.752 12.4612 328.721 13.7986L328.721 13.8086L328.721 13.8185C328.747 15.4221 328.315 17 327.476 18.3664C326.615 19.7377 325.387 20.8408 323.931 21.5508ZM305.721 11.1402H305.221V11.6402V18.9202V19.4202H305.721L313.051 19.4202L313.054 19.4202C314.895 19.4066 316.361 19.0901 317.379 18.3988C318.432 17.6839 318.944 16.6099 318.941 15.2588C318.937 13.9085 318.421 12.8379 317.367 12.1301C316.348 11.4458 314.884 11.1402 313.051 11.1402H305.721ZM305.221 34.0002V34.5002H305.721H314.661C316.574 34.5002 318.096 34.1678 319.153 33.4363C320.242 32.6822 320.771 31.5497 320.771 30.1302C320.771 28.7157 320.24 27.5946 319.15 26.8519C318.093 26.1327 316.572 25.8102 314.661 25.8102H305.721H305.221V26.3102V34.0002Z" stroke="#A9A5A5"/>
<path d="M337.1 4.44043H346.77V41.1704H337.1V4.44043Z" stroke="#A9A5A5"/>
<path d="M365.051 33.2104V33.7104H365.551H383.051V41.1704H355.381V4.44043H365.051V33.2104Z" stroke="#A9A5A5"/>
<path d="M388.26 4.44043H397.93V41.1704H388.26V4.44043Z" stroke="#A9A5A5"/>
<path d="M473.12 4.44043L459.121 27.8841L459.051 28.0025V28.1404V41.1704H449.381V27.9804V27.8422L449.31 27.7237L436.7 6.65366L435.771 5.10134V6.91043V11.9004H424.731H424.231V12.4004V41.1704H414.561V12.4004V11.9004H414.061H402.971V4.44043H434.491H436.271H445.467L454.271 19.1769L454.701 19.8953L455.13 19.1769L463.934 4.44043H473.12Z" stroke="#A9A5A5"/>
</svg>
