<svg width="478" height="45" viewBox="0 0 478 45" fill="none" xmlns="http://www.w3.org/2000/svg">
<path d="M17.0902 3.94043H15.3402L2.24023 25.5004V28.3904L17.0902 3.94043Z" fill="#A9A5A5"/>
<path d="M8.07023 3.94043H6.31023L2.24023 10.6304V13.5204L8.07023 3.94043Z" fill="#A9A5A5"/>
<path d="M31.3008 7.38965L25.4108 17.0796C25.4498 17.3514 25.4732 17.6252 25.4808 17.8996C25.5346 18.6662 25.4111 19.4348 25.1197 20.1459C24.8284 20.857 24.377 21.4913 23.8008 21.9996C23.2115 22.4694 22.5301 22.8101 21.8008 22.9996L16.5508 31.6296H18.3108L32.4408 8.38965C32.0797 8.03536 31.6991 7.7015 31.3008 7.38965Z" fill="#A9A5A5"/>
<path d="M34.3404 25.0002C34.7388 24.3505 35.0736 23.664 35.3404 22.9502L33.1504 26.5502C33.5897 26.0677 33.9878 25.5492 34.3404 25.0002V25.0002Z" fill="#A9A5A5"/>
<path d="M12.5802 3.94043H10.8202L2.24023 18.0704V20.9604L12.5802 3.94043Z" fill="#A9A5A5"/>
<path d="M27.9992 5.46973L23.1992 13.3597C23.6575 13.5996 24.0544 13.9418 24.3592 14.3597L29.3592 6.12973C29.0492 5.96973 28.7592 5.78973 28.4392 5.63973L27.9992 5.46973Z" fill="#A9A5A5"/>
<path d="M30.12 31.6201L24.75 40.4501L25.58 41.6701H25.77L31.05 32.9801L30.12 31.6201Z" fill="#A9A5A5"/>
<path d="M3.55023 3.94043H2.24023V6.09043L3.55023 3.94043Z" fill="#A9A5A5"/>
<path d="M12.9202 23.39V22.79L2.24023 40.36V41.67H3.20023L14.3002 23.39H12.9202Z" fill="#A9A5A5"/>
<path d="M35.8391 39.9596L34.9091 38.5996L33.0391 41.6696H34.7991L35.8391 39.9596Z" fill="#A9A5A5"/>
<path d="M36.2294 17.0001C36.1898 16.1998 36.0861 15.4039 35.9194 14.6201L22.3594 37.0001L23.2894 38.3601L36.2294 17.0001Z" fill="#A9A5A5"/>
<path d="M12.9205 40.5404V37.6504L10.4805 41.6704H12.2305L12.9205 40.5404Z" fill="#A9A5A5"/>
<path d="M34.91 11.7503C34.7024 11.3165 34.4686 10.8957 34.21 10.4903C34.16 10.4103 34.1 10.3503 34.05 10.2803L20 33.4603L20.93 34.8203L34.91 11.7503Z" fill="#A9A5A5"/>
<path d="M33.4393 36.4704L32.5093 35.1104L28.5293 41.6703H30.2793L33.4393 36.4704Z" fill="#A9A5A5"/>
<path d="M14.7402 12.35H16.5002L21.5502 4C21.0002 4 20.4302 4 19.8402 4L14.7402 12.35Z" fill="#A9A5A5"/>
<path d="M12.9209 33.1096V31.6396H13.8109L18.8209 23.3896H17.0609L5.96094 41.6696H7.72094L12.9209 33.1096Z" fill="#A9A5A5"/>
<path d="M19.2402 12.3698C19.7936 12.3872 20.345 12.444 20.8902 12.5398L25.6502 4.69984C25.1502 4.56984 24.6502 4.43984 24.1202 4.33984L19.2402 12.3698Z" fill="#A9A5A5"/>
<path d="M12.9202 18.2504V15.3604L2.24023 32.9304V35.8204L12.9202 18.2504Z" fill="#A9A5A5"/>
<path d="M64.8105 26.5204H66.5605L69.4605 21.7504V18.8604L64.8105 26.5204Z" fill="#A9A5A5"/>
<path d="M66.9008 18.54H65.1408L60.3008 26.52H62.0508L66.9008 18.54Z" fill="#A9A5A5"/>
<path d="M55.7793 26.52H57.5393L62.3793 18.54H60.6293L55.7793 26.52Z" fill="#A9A5A5"/>
<path d="M69.4603 26.5198V26.2998L69.3203 26.5198H69.4603Z" fill="#A9A5A5"/>
<path d="M52.7009 26.52H53.0209L57.8709 18.54H56.1109L42.1309 41.57V41.67H43.8309L52.7009 27.06V26.52Z" fill="#A9A5A5"/>
<path d="M48.6909 3.94043H46.9309L42.1309 11.8404V14.7304L48.6909 3.94043Z" fill="#A9A5A5"/>
<path d="M69 12.1802H70.76L71.72 10.5902V7.7002L69 12.1802Z" fill="#A9A5A5"/>
<path d="M52.7009 12.2004V12.1804L57.7109 3.94043H55.9609L42.1309 26.7004V29.5904L52.7009 12.2004Z" fill="#A9A5A5"/>
<path d="M53.2009 3.94043H51.4509L42.1309 19.2704V22.1604L53.2009 3.94043Z" fill="#A9A5A5"/>
<path d="M44.1709 3.94043H42.4209L42.1309 4.41043V7.30043L44.1709 3.94043Z" fill="#A9A5A5"/>
<path d="M57.8596 33.4199H56.0996L51.0996 41.6699H52.8496L57.8596 33.4199Z" fill="#A9A5A5"/>
<path d="M62.3694 33.4199H60.6194L55.6094 41.6699H57.3694L62.3694 33.4199Z" fill="#A9A5A5"/>
<path d="M66.8891 33.4199H65.1291L60.1191 41.6699H61.8791L66.8891 33.4199Z" fill="#A9A5A5"/>
<path d="M72.4204 39.1703V36.2803L69.1504 41.6703H70.9104L72.4204 39.1703Z" fill="#A9A5A5"/>
<path d="M64.4902 12.1804H66.2502L71.2502 3.94043H69.5002L64.4902 12.1804Z" fill="#A9A5A5"/>
<path d="M71.4006 33.4199H69.6406L64.6406 41.6699H66.3906L71.4006 33.4199Z" fill="#A9A5A5"/>
<path d="M53.3501 33.4196H52.7001V31.5996L46.5801 41.6696H48.3401L53.3501 33.4196Z" fill="#A9A5A5"/>
<path d="M55.4609 12.1804H57.2209L62.2309 3.94043H60.4709L55.4609 12.1804Z" fill="#A9A5A5"/>
<path d="M59.9805 12.1804H61.7305L66.7405 3.94043H64.9805L59.9805 12.1804Z" fill="#A9A5A5"/>
<path d="M53.3609 18.5402H52.7009V16.7402L42.1309 34.1302V37.0202L53.3609 18.5402Z" fill="#A9A5A5"/>
<path d="M85.1495 25.6504L90.0095 17.6504C89.5475 17.5083 89.0935 17.3414 88.6495 17.1504H88.5795L83.6895 25.2204C84.1495 25.3304 84.6295 25.4904 85.1495 25.6504Z" fill="#A9A5A5"/>
<path d="M101.341 20.6703L100.191 20.2803L95.3008 28.3503L96.0608 28.6503C96.2719 28.7468 96.4729 28.864 96.6608 29.0003L101.661 20.8003L101.341 20.6703Z" fill="#A9A5A5"/>
<path d="M93.92 18.64C93.37 18.53 92.85 18.41 92.37 18.29L87.5 26.29L89.03 26.67L93.92 18.64Z" fill="#A9A5A5"/>
<path d="M97.8592 19.5804L96.3392 19.1904L91.4492 27.1904C91.9992 27.3204 92.4492 27.4504 92.9692 27.5804L97.8592 19.5804Z" fill="#A9A5A5"/>
<path d="M86.9995 15.2105C86.994 15.1005 86.994 14.9904 86.9995 14.8805C87.0042 14.3794 87.1418 13.8886 87.3983 13.4581C87.6549 13.0276 88.0211 12.673 88.4595 12.4305C88.5901 12.3519 88.7273 12.285 88.8695 12.2305L94.3395 3.23047C93.9395 3.23047 93.5495 3.23047 93.1495 3.23047H92.5895L80.2695 23.3605C80.6673 23.6646 81.0849 23.9419 81.5195 24.1905L86.9995 15.2105Z" fill="#A9A5A5"/>
<path d="M103.73 21.8799L97.7303 31.8799C97.626 32.1814 97.459 32.4575 97.2403 32.6899L91.3203 42.4399H91.6603C92.1603 42.4399 92.6603 42.4399 93.1003 42.3899L105 22.7799C104.595 22.4552 104.171 22.1547 103.73 21.8799V21.8799Z" fill="#A9A5A5"/>
<path d="M83.8792 4.80012C83.1911 5.0888 82.5229 5.42287 81.8792 5.80012L76.3692 14.8901C76.3692 15.0601 76.3692 15.2201 76.3692 15.4001C76.3678 16.1102 76.4247 16.8193 76.5392 17.5201L84.3792 4.62012C84.2192 4.68012 83.9992 4.73012 83.8792 4.80012Z" fill="#A9A5A5"/>
<path d="M87.7193 3.65988L77.5293 20.4399C77.7778 20.8802 78.0728 21.2925 78.4093 21.6699L78.4893 21.7499L89.6393 3.37988C88.9993 3.45988 88.3293 3.53988 87.7193 3.65988Z" fill="#A9A5A5"/>
<path d="M107.52 26.0003C107.288 25.4783 106.996 24.985 106.65 24.5303L96 42.0903C96.6731 41.9917 97.3407 41.8581 98 41.6903L107.52 26.0003Z" fill="#A9A5A5"/>
<path d="M85.1299 33.1099C84.6399 32.9599 84.1299 32.7999 83.7199 32.6299L79.1699 40.0999C79.6299 40.2899 80.0999 40.4799 80.5999 40.6499L85.1299 33.1099Z" fill="#A9A5A5"/>
<path d="M93.6097 34C93.0497 34.06 92.4597 34.09 91.7897 34.1L86.9297 42.1C87.4797 42.18 88.0297 42.22 88.5897 42.27L93.6097 34Z" fill="#A9A5A5"/>
<path d="M89.1306 34C88.6006 33.94 88.0706 33.85 87.5306 33.75L82.8906 41.38C83.4106 41.51 83.8906 41.63 84.4406 41.73L89.1306 34Z" fill="#A9A5A5"/>
<path d="M108.11 32.4402C108.251 31.7155 108.321 30.9787 108.32 30.2402C108.32 29.9002 108.32 29.5669 108.32 29.2402L101.52 40.4402C102.535 39.9467 103.491 39.3395 104.37 38.6302L108.11 32.4402Z" fill="#A9A5A5"/>
<path d="M96.3203 11.8002C96.8303 11.8902 97.3203 12.0002 97.8703 12.1402L102.45 4.59016C101.97 4.43016 101.45 4.29016 100.95 4.16016L96.3203 11.8002Z" fill="#A9A5A5"/>
<path d="M100.17 12.8804C100.64 13.0604 101.11 13.2504 101.57 13.4604L106.05 6.09043C105.61 5.86043 105.16 5.64043 104.7 5.44043L100.17 12.8804Z" fill="#A9A5A5"/>
<path d="M81.4907 31.6797C81.0307 31.4597 80.5907 31.2197 80.1607 30.9697L75.7207 38.2797C76.1335 38.5649 76.5607 38.8286 77.0007 39.0697L81.4907 31.6797Z" fill="#A9A5A5"/>
<path d="M92 11.5199C92.34 11.5199 92.67 11.5199 93 11.5199H93.72L98.49 3.64992C97.96 3.55992 97.42 3.47992 96.88 3.41992L92 11.5199Z" fill="#A9A5A5"/>
<path d="M123.9 13.8604V12.3504H124.82L129.93 3.94043H128.17L113.23 28.5404V31.4304L123.9 13.8604Z" fill="#A9A5A5"/>
<path d="M140.359 6.16016L135.359 14.4102C135.723 14.8762 135.997 15.405 136.169 15.9702L141.659 6.97016C141.239 6.66016 140.809 6.40016 140.359 6.16016Z" fill="#A9A5A5"/>
<path d="M125.42 3.94043H123.66L113.23 21.1104V24.0004L125.42 3.94043Z" fill="#A9A5A5"/>
<path d="M120.9 3.94043H119.15L113.23 13.6804V16.5704L120.9 3.94043Z" fill="#A9A5A5"/>
<path d="M132 12.5597C132.511 12.6507 133.011 12.7982 133.49 12.9997L138.23 5.18973C137.76 5.01973 137.23 4.85973 136.76 4.71973L132 12.5597Z" fill="#A9A5A5"/>
<path d="M147.241 17.8999C147.241 17.6499 147.241 17.4099 147.241 17.1699L139.381 30.1099C140.345 29.6664 141.26 29.1234 142.111 28.4899L147.111 20.3299C147.216 19.5244 147.259 18.712 147.241 17.8999V17.8999Z" fill="#A9A5A5"/>
<path d="M116.39 3.94043H114.63L113.23 6.25043V9.14043L116.39 3.94043Z" fill="#A9A5A5"/>
<path d="M126.539 31.8005L131.749 23.2305C131.138 23.3377 130.519 23.3913 129.899 23.3905L124.789 31.8005H126.539Z" fill="#A9A5A5"/>
<path d="M143.491 8.4502L129.301 31.8002H130.481H131.071L144.531 9.6202C144.208 9.20933 143.861 8.81859 143.491 8.4502Z" fill="#A9A5A5"/>
<path d="M123.901 40.7002L123.311 41.6702H123.901V40.7002Z" fill="#A9A5A5"/>
<path d="M146.63 13.5998C146.443 12.997 146.213 12.4088 145.94 11.8398L134 31.5598C134.672 31.4777 135.34 31.3608 136 31.2098L146.63 13.5998Z" fill="#A9A5A5"/>
<path d="M127.58 12.3503H129.33L134.27 4.22027C133.73 4.15027 133.19 4.07027 132.63 4.03027L127.58 12.3503Z" fill="#A9A5A5"/>
<path d="M123.901 36.1598V33.2598L118.801 41.6698H120.551L123.901 36.1598Z" fill="#A9A5A5"/>
<path d="M123.9 21.2904V18.4004L113.23 35.9704V38.8704L123.9 21.2904Z" fill="#A9A5A5"/>
<path d="M127.139 23.3896H125.379L114.279 41.6696H116.039L127.139 23.3896Z" fill="#A9A5A5"/>
<path d="M166.809 32.2397C166.402 31.9952 166.012 31.7247 165.639 31.4297L160.689 39.5797L161.229 39.8897C161.489 40.0297 161.749 40.1497 162.019 40.2797L166.879 32.2797L166.809 32.2397Z" fill="#A9A5A5"/>
<path d="M187.901 9.63965L181.801 19.6396C181.979 20.4119 182.09 21.1982 182.131 21.9896L188.921 10.8096C188.591 10.4296 188.261 9.99965 187.901 9.63965Z" fill="#A9A5A5"/>
<path d="M181.59 5.16016L176.73 13.1602C176.87 13.2302 177.02 13.2902 177.16 13.3702C177.454 13.5615 177.735 13.772 178 14.0002L182.93 5.88016L182.73 5.77016C182.36 5.52016 182 5.33016 181.59 5.16016Z" fill="#A9A5A5"/>
<path d="M172.881 12.0796C173.423 12.1133 173.962 12.1936 174.491 12.3196L179.361 4.31965C178.871 4.15965 178.361 4.00965 177.861 3.88965L172.881 12.0796Z" fill="#A9A5A5"/>
<path d="M160 6.41016C158.798 7.14889 157.682 8.01743 156.67 9.00016L151.85 17.0002C151.446 18.3517 151.191 19.7433 151.09 21.1502L160 6.41016Z" fill="#A9A5A5"/>
<path d="M171 3.20996C170.38 3.20996 169.77 3.24996 169.17 3.32996L152.58 30.64C152.815 31.1835 153.079 31.7143 153.37 32.23L171 3.20996Z" fill="#A9A5A5"/>
<path d="M166.07 3.87988C165.343 4.06018 164.625 4.27713 163.92 4.52988L151.18 25.5299C151.277 26.274 151.418 27.0119 151.6 27.7399L166.07 3.87988Z" fill="#A9A5A5"/>
<path d="M179.75 15.62C180.099 16.0403 180.414 16.4884 180.69 16.96L186.14 7.96004C185.76 7.64004 185.36 7.33004 184.94 7.04004L179.75 15.62Z" fill="#A9A5A5"/>
<path d="M191.19 14.5402C190.94 14.0102 190.67 13.5402 190.38 12.9902L172.51 42.4102C173.12 42.4102 173.73 42.4102 174.32 42.3102L191.19 14.5402Z" fill="#A9A5A5"/>
<path d="M192.689 19.5004C192.577 18.7787 192.424 18.0642 192.229 17.3604L177.359 41.8503C178.072 41.6935 178.777 41.4999 179.469 41.2704L192.689 19.5004Z" fill="#A9A5A5"/>
<path d="M175.47 33C174.803 33.2392 174.113 33.4068 173.41 33.5L168.16 42.15C168.7 42.23 169.25 42.29 169.8 42.34L175.47 33Z" fill="#A9A5A5"/>
<path d="M167.91 12.8302C168.594 12.5425 169.309 12.3344 170.04 12.2102L175.38 3.41023C174.84 3.34023 174.29 3.28023 173.73 3.24023L167.91 12.8302Z" fill="#A9A5A5"/>
<path d="M192.46 27.3102C192.726 26.11 192.883 24.8884 192.93 23.6602L183.24 39.6002C184.303 38.9939 185.307 38.291 186.24 37.5002L192.46 27.3102Z" fill="#A9A5A5"/>
<path d="M162.051 25.3599C161.889 24.543 161.806 23.7126 161.801 22.8799L154.801 34.4199C155.121 34.8499 155.461 35.2599 155.801 35.6599L162.051 25.3599Z" fill="#A9A5A5"/>
<path d="M170.65 33.5004C170.12 33.4386 169.595 33.335 169.08 33.1904L164.23 41.1904C164.71 41.3604 165.23 41.5104 165.71 41.6404L170.65 33.5004Z" fill="#A9A5A5"/>
<path d="M164 29.67C163.703 29.2787 163.432 28.8678 163.19 28.44C163.19 28.37 163.19 28.31 163.11 28.25L157.57 37.35C157.95 37.68 158.35 38 158.76 38.3L164 29.67Z" fill="#A9A5A5"/>
<path d="M210.881 23.8196L211.891 25.0396L217.361 16.0296L216.351 14.8096L210.881 23.8196Z" fill="#A9A5A5"/>
<path d="M219.97 19.1802L218.96 17.9502L213.49 26.9602L214.5 28.1802L219.97 19.1802Z" fill="#A9A5A5"/>
<path d="M224 5.11043L224.71 3.94043H224V5.11043Z" fill="#A9A5A5"/>
<path d="M209.551 6.59988L208.541 5.37988L198.561 21.8099V24.6999L209.551 6.59988Z" fill="#A9A5A5"/>
<path d="M224 19.9704L233.74 3.94043H231.98L224 17.0804V19.9704Z" fill="#A9A5A5"/>
<path d="M224 9.65043V12.5404L229.22 3.94043H227.47L224 9.65043Z" fill="#A9A5A5"/>
<path d="M202.141 3.94043H200.391L198.561 6.95043V9.84043L202.141 3.94043Z" fill="#A9A5A5"/>
<path d="M206.661 3.94043H204.901L198.561 14.3804V17.2704L206.661 3.94043Z" fill="#A9A5A5"/>
<path d="M212.161 9.73953L211.141 8.51953L198.561 29.2495V32.1395L212.161 9.73953Z" fill="#A9A5A5"/>
<path d="M234.459 10.18V7.29004L218.689 33.25L219.709 34.47L234.459 10.18Z" fill="#A9A5A5"/>
<path d="M209.011 22.3499V21.5599L209.291 21.8899L214.761 12.8899L213.751 11.6699L198.561 36.6799V39.5699L209.011 22.3499Z" fill="#A9A5A5"/>
<path d="M234.46 25.0502V22.1602L223.9 39.5302L224.91 40.7602L234.46 25.0502Z" fill="#A9A5A5"/>
<path d="M234.461 39.9095V37.0195L231.631 41.6695H233.391L234.461 39.9095Z" fill="#A9A5A5"/>
<path d="M234.461 17.6097V14.7197L221.301 36.3897L222.311 37.6097L234.461 17.6097Z" fill="#A9A5A5"/>
<path d="M234.459 32.4798V29.5898L227.119 41.6698H228.879L234.459 32.4798Z" fill="#A9A5A5"/>
<path d="M222.57 22.3196L221.56 21.0996L216.09 30.0996L217.1 31.3296L222.57 22.3196Z" fill="#A9A5A5"/>
<path d="M209.009 29.7796V26.8896L200.039 41.6696H201.789L209.009 29.7796Z" fill="#A9A5A5"/>
<path d="M209.011 37.2103V34.3203L204.551 41.6703H206.311L209.011 37.2103Z" fill="#A9A5A5"/>
<path d="M278.871 3.94043H277.121L276.881 4.33043V7.22043L278.871 3.94043Z" fill="#A9A5A5"/>
<path d="M287.551 4.51043V3.94043H286.141L276.881 19.1904V22.0804L287.551 4.51043Z" fill="#A9A5A5"/>
<path d="M283.381 3.94043H281.631L276.881 11.7604V14.6504L283.381 3.94043Z" fill="#A9A5A5"/>
<path d="M287.551 23.9102L276.881 41.4902V41.6702H278.521L287.551 26.8002V23.9102Z" fill="#A9A5A5"/>
<path d="M287.551 41.6703V38.7803L285.801 41.6703H287.551Z" fill="#A9A5A5"/>
<path d="M287.549 34.2298V31.3398L281.279 41.6698H283.039L287.549 34.2298Z" fill="#A9A5A5"/>
<path d="M287.551 19.3705V16.4805L276.881 34.0505V36.9405L287.551 19.3705Z" fill="#A9A5A5"/>
<path d="M287.551 11.9398V9.0498L276.881 26.6198V29.5098L287.551 11.9398Z" fill="#A9A5A5"/>
<path d="M243.391 7.45031L240.391 12.3203C240.107 13.3289 239.965 14.3724 239.971 15.4203C239.971 15.5803 239.971 15.7303 239.971 15.8803L246.391 5.32031C245.296 5.88588 244.286 6.60293 243.391 7.45031V7.45031Z" fill="#A9A5A5"/>
<path d="M256.721 3.17969C256.111 3.17969 255.541 3.17969 254.971 3.24969L243.131 22.7497C243.51 23.0816 243.907 23.3921 244.321 23.6797L256.761 3.17969H256.721Z" fill="#A9A5A5"/>
<path d="M262.86 20L258 28C258.547 28.1733 259.027 28.3433 259.44 28.51L264.35 20.43L262.86 20Z" fill="#A9A5A5"/>
<path d="M252.301 17.1403C251.971 16.9965 251.664 16.8044 251.391 16.5703L246.391 24.7903C246.581 24.8703 246.761 24.9703 246.951 25.0403L247.811 25.3303L252.691 17.3303L252.301 17.1403Z" fill="#A9A5A5"/>
<path d="M252 3.54004C251.3 3.66004 250.63 3.81004 250 3.97004L240.66 19.35C240.872 19.8984 241.143 20.4217 241.47 20.91L252 3.54004Z" fill="#A9A5A5"/>
<path d="M271.71 27.7002L263.58 41.0802C263.86 40.9802 264.16 40.9002 264.43 40.7802C264.98 40.5402 265.5 40.2702 266 39.9902L272 30.1602C271.994 29.332 271.897 28.507 271.71 27.7002V27.7002Z" fill="#A9A5A5"/>
<path d="M243 30.46L242.57 31.17L239.4 38.27C239.54 38.37 239.7 38.45 239.84 38.54L244.28 31.23C243.8 31 243.37 30.73 243 30.46Z" fill="#A9A5A5"/>
<path d="M266.53 21.3701L261.24 30.0701C261.383 30.384 261.458 30.7249 261.46 31.0701C261.46 32.3501 260.66 33.2301 259.04 33.7101L253.77 42.4001C254.27 42.4001 254.77 42.4001 255.26 42.4001H255.5L267.8 22.1501C267.392 21.8657 266.968 21.6052 266.53 21.3701V21.3701Z" fill="#A9A5A5"/>
<path d="M250.151 33.4805L245.551 41.0505C245.831 41.1305 246.081 41.2205 246.371 41.2905L247.061 41.4505L251.711 33.8005C251.191 33.7105 250.671 33.6005 250.151 33.4805Z" fill="#A9A5A5"/>
<path d="M262.859 12.54C263.339 12.7 263.859 12.87 264.299 13.06L268.809 5.64004C268.359 5.43004 267.899 5.22004 267.419 5.04004L262.859 12.54Z" fill="#A9A5A5"/>
<path d="M256.54 18.41C255.99 18.29 255.48 18.16 255.01 18.04L250.15 26.04L251.66 26.43L256.54 18.41Z" fill="#A9A5A5"/>
<path d="M247.809 32.7802C247.319 32.6102 246.809 32.4302 246.389 32.2402L241.869 39.6802C242.309 39.8902 242.779 40.0902 243.259 40.2802L247.809 32.7802Z" fill="#A9A5A5"/>
<path d="M254.381 11.6503C254.991 11.5652 255.605 11.5151 256.221 11.5003L261.091 3.50031C260.544 3.42031 259.994 3.36031 259.441 3.32031L254.381 11.6503Z" fill="#A9A5A5"/>
<path d="M270.609 24.9998C270.401 24.6628 270.164 24.3449 269.899 24.0498C269.809 23.9398 269.699 23.8598 269.609 23.7598L258.359 42.2598C259.009 42.1898 259.649 42.1198 260.259 42.0098L270.609 24.9998Z" fill="#A9A5A5"/>
<path d="M256 34.0996H255.28C254.94 34.0996 254.6 34.0996 254.28 34.0996L249.5 41.9596C250.04 42.0496 250.57 42.1296 251.11 42.1996L256 34.0996Z" fill="#A9A5A5"/>
<path d="M263.58 3.91992L258.9 11.6299C259.43 11.6999 259.96 11.7799 260.5 11.8899L265.11 4.29992C264.76 4.19992 264.41 4.09992 264.05 4.01992L263.58 3.91992Z" fill="#A9A5A5"/>
<path d="M260.5 19.32L259 19L254.08 27L255.61 27.36L260.5 19.32Z" fill="#A9A5A5"/>
<path d="M266.461 14.0601L267.121 14.3901L269.001 9.87012L266.461 14.0601Z" fill="#A9A5A5"/>
<path d="M325.199 21.3701C326.29 20.6629 327.212 19.724 327.899 18.6201C328.6 17.4834 329.028 16.1998 329.149 14.8701L325.199 21.3701Z" fill="#A9A5A5"/>
<path d="M317.48 26.6596C317.973 26.7845 318.442 26.987 318.87 27.2596L328.77 10.9996C328.584 10.407 328.325 9.83945 328 9.30957L317.48 26.6596Z" fill="#A9A5A5"/>
<path d="M310.42 26.3098L315 18.7598C314.385 18.8584 313.763 18.9119 313.14 18.9198L308.65 26.3098H310.42Z" fill="#A9A5A5"/>
<path d="M325.23 6.46973L313.18 26.3097H314.93L326.42 7.38973C326.104 7.10525 325.77 6.84138 325.42 6.59973L325.23 6.46973Z" fill="#A9A5A5"/>
<path d="M317 12.5196C317.43 12.8066 317.776 13.2037 318 13.6696L323.05 5.35961C322.59 5.16961 322.11 5.00961 321.6 4.84961L317 12.5196Z" fill="#A9A5A5"/>
<path d="M296.93 3.94043H295.17L295.15 3.97043V6.86043L296.93 3.94043Z" fill="#A9A5A5"/>
<path d="M305.71 26.3099H305.91L310.39 18.9199H308.64L295.15 41.1299V41.6699H296.58L305.71 26.6199V26.3099Z" fill="#A9A5A5"/>
<path d="M305.95 3.94043H304.2L295.15 18.8304V21.7204L305.95 3.94043Z" fill="#A9A5A5"/>
<path d="M301.44 3.94043H299.68L295.15 11.4004V14.2904L301.44 3.94043Z" fill="#A9A5A5"/>
<path d="M305.71 11.7604V11.6404H305.78L310.46 3.94043H308.71L295.15 26.2604V29.1504L305.71 11.7604Z" fill="#A9A5A5"/>
<path d="M326.049 22.8597C325.61 22.6165 325.156 22.4027 324.689 22.2197L320.219 29.5797C320.229 29.7629 320.229 29.9465 320.219 30.1297C320.258 30.8841 320.038 31.6291 319.596 32.2418C319.155 32.8545 318.517 33.2982 317.789 33.4997L312.789 41.6697H314.539L326.049 22.8597Z" fill="#A9A5A5"/>
<path d="M329.06 25.3497C328.735 24.9473 328.381 24.5696 328 24.2197L317.43 41.6197C318.06 41.6197 318.68 41.5397 319.27 41.4797L329.06 25.3497Z" fill="#A9A5A5"/>
<path d="M313.061 11.6398C313.623 11.6444 314.184 11.6878 314.741 11.7698L319.271 4.29984C318.751 4.21318 318.211 4.14318 317.651 4.08984L313.061 11.6398Z" fill="#A9A5A5"/>
<path d="M314.8 34H313L308.32 41.71H310.08L314.8 34Z" fill="#A9A5A5"/>
<path d="M329.42 36.7298C329.68 36.3691 329.911 35.9879 330.11 35.5898L329.42 36.7298Z" fill="#A9A5A5"/>
<path d="M330.94 29.6797C330.832 28.9967 330.654 28.3266 330.41 27.6797L322.34 40.9997C323.075 40.8273 323.796 40.6034 324.5 40.3297L330.94 29.6797Z" fill="#A9A5A5"/>
<path d="M313.219 3.94043L308.539 11.6404H310.299L314.999 4.00043H313.249L313.219 3.94043Z" fill="#A9A5A5"/>
<path d="M310.28 33.96H308.53L303.85 41.67H305.6L310.28 33.96Z" fill="#A9A5A5"/>
<path d="M305.88 18.9198H305.71V16.2998L295.15 33.6998V36.5798L305.88 18.9198Z" fill="#A9A5A5"/>
<path d="M305.77 33.9602H305.71V31.1602L299.33 41.6702H301.09L305.77 33.9602Z" fill="#A9A5A5"/>
<path d="M342.06 3.94043H340.3L336.6 10.0304V12.9204L342.06 3.94043Z" fill="#A9A5A5"/>
<path d="M346.57 3.94043H344.82L336.6 17.4604V20.3504L346.57 3.94043Z" fill="#A9A5A5"/>
<path d="M347.28 22.1797L336.6 39.7597V41.6697H337.2L347.28 25.0697V22.1797Z" fill="#A9A5A5"/>
<path d="M337.55 3.94043H336.6V5.49043L337.55 3.94043Z" fill="#A9A5A5"/>
<path d="M347.28 10.2103V7.32031L336.6 24.8903V27.7803L347.28 10.2103Z" fill="#A9A5A5"/>
<path d="M347.28 17.64V14.75L336.6 32.33V35.22L347.28 17.64Z" fill="#A9A5A5"/>
<path d="M347.281 39.9398V37.0498L344.471 41.6698H346.221L347.281 39.9398Z" fill="#A9A5A5"/>
<path d="M347.281 32.5101V29.6201L339.961 41.6701H341.711L347.281 32.5101Z" fill="#A9A5A5"/>
<path d="M365.551 9.84996V6.95996L354.881 24.53V27.42L365.551 9.84996Z" fill="#A9A5A5"/>
<path d="M365.551 17.2796V14.3896L354.881 31.9696V34.8496L365.551 17.2796Z" fill="#A9A5A5"/>
<path d="M364.631 3.94043H362.871L354.881 17.1004V19.9904L364.631 3.94043Z" fill="#A9A5A5"/>
<path d="M360.111 3.94043H358.361L354.881 9.67043V12.5604L360.111 3.94043Z" fill="#A9A5A5"/>
<path d="M365.551 21.8203L354.881 39.4003V41.6703H355.251L365.551 24.7103V21.8203Z" fill="#A9A5A5"/>
<path d="M355.601 3.94043H354.881V5.13043L355.601 3.94043Z" fill="#A9A5A5"/>
<path d="M365.55 32.1498V29.2598L358.01 41.6698H359.76L365.55 32.1498Z" fill="#A9A5A5"/>
<path d="M383.55 39.6595V36.7695L380.58 41.6695H382.33L383.55 39.6595Z" fill="#A9A5A5"/>
<path d="M382.961 33.21H381.201L376.061 41.67H377.821L382.961 33.21Z" fill="#A9A5A5"/>
<path d="M373.929 33.21H372.179L367.039 41.67H368.789L373.929 33.21Z" fill="#A9A5A5"/>
<path d="M378.441 33.21H376.691L371.551 41.67H373.301L378.441 33.21Z" fill="#A9A5A5"/>
<path d="M369.42 33.21H367.66L362.52 41.67H364.28L369.42 33.21Z" fill="#A9A5A5"/>
<path d="M398.43 7.72984V4.83984L387.76 22.4198V25.2998L398.43 7.72984Z" fill="#A9A5A5"/>
<path d="M391.71 3.94043H389.95L387.76 7.55043V10.4404L391.71 3.94043Z" fill="#A9A5A5"/>
<path d="M396.22 3.94043H394.46L387.76 14.9804V17.8704L396.22 3.94043Z" fill="#A9A5A5"/>
<path d="M398.43 15.1595V12.2695L387.76 29.8495V32.7395L398.43 15.1595Z" fill="#A9A5A5"/>
<path d="M398.43 22.5902V19.7002L387.76 37.2802V40.1702L398.43 22.5902Z" fill="#A9A5A5"/>
<path d="M398.429 37.4603V34.5703L394.119 41.6703H395.869L398.429 37.4603Z" fill="#A9A5A5"/>
<path d="M398.43 30.0296V27.1396L389.6 41.6696H391.36L398.43 30.0296Z" fill="#A9A5A5"/>
<path d="M436.271 9.41992L434.461 12.3999H436.211L436.271 12.3099V9.41992Z" fill="#A9A5A5"/>
<path d="M425.43 12.4004H427.19L432.33 3.94043H430.57L425.43 12.4004Z" fill="#A9A5A5"/>
<path d="M439.27 11.9204L440.14 13.3704L445.81 4.03043L445.75 3.94043H444.11L439.27 11.9204Z" fill="#A9A5A5"/>
<path d="M437.029 8.18043L437.899 9.63043L441.359 3.94043H439.599L437.029 8.18043Z" fill="#A9A5A5"/>
<path d="M435.089 3.94043L429.949 12.4004H431.699L436.839 3.94043H436.269H435.089Z" fill="#A9A5A5"/>
<path d="M427.811 3.94043H426.061L414.061 23.6904V26.5804L427.811 3.94043Z" fill="#A9A5A5"/>
<path d="M405.251 3.94043H403.491L402.471 5.62043V8.51043L405.251 3.94043Z" fill="#A9A5A5"/>
<path d="M471.191 3.94043L448.881 40.6804V41.6704H450.031L472.951 3.94043H471.191Z" fill="#A9A5A5"/>
<path d="M414.271 3.94043H412.521L407.381 12.4004H409.131L414.271 3.94043Z" fill="#A9A5A5"/>
<path d="M409.759 3.94043H407.999L402.869 12.4004H404.619L409.759 3.94043Z" fill="#A9A5A5"/>
<path d="M418.791 3.94043H417.031L411.891 12.4004H413.651L418.791 3.94043Z" fill="#A9A5A5"/>
<path d="M423.301 3.94043H421.551L414.061 16.2604V19.1504L423.301 3.94043Z" fill="#A9A5A5"/>
<path d="M448.88 28.7004L463.92 3.94043H463.65L454.7 18.9204L453.89 17.5604L448.23 26.8904L448.88 27.9804V28.7004Z" fill="#A9A5A5"/>
<path d="M468.441 3.94043H466.681L448.881 33.2404V36.1304L468.441 3.94043Z" fill="#A9A5A5"/>
<path d="M452.52 15.2703L451.65 13.8203L445.99 23.1403L446.86 24.6003L452.52 15.2703Z" fill="#A9A5A5"/>
<path d="M459.551 40.8497V37.9697L457.311 41.6697H459.061L459.551 40.8497Z" fill="#A9A5A5"/>
<path d="M459.549 33.4203V30.5303L452.789 41.6703H454.549L459.549 33.4203Z" fill="#A9A5A5"/>
<path d="M450.29 11.5303L449.42 10.0703L443.75 19.4003L444.62 20.8603L450.29 11.5303Z" fill="#A9A5A5"/>
<path d="M424.731 23.8705V20.9805L414.061 38.5605V41.4505L424.731 23.8705Z" fill="#A9A5A5"/>
<path d="M424.73 31.2999V28.4199L416.68 41.6699H418.44L424.73 31.2999Z" fill="#A9A5A5"/>
<path d="M448.05 7.78031L447.18 6.32031L441.51 15.6603L442.38 17.1103L448.05 7.78031Z" fill="#A9A5A5"/>
<path d="M424.731 16.4398V13.5498L414.061 31.1298V34.0198L424.731 16.4398Z" fill="#A9A5A5"/>
<path d="M424.729 38.7396V35.8496L421.199 41.6696H422.949L424.729 38.7396Z" fill="#A9A5A5"/>
</svg>
