<svg width="252" height="45" viewBox="0 0 252 45" fill="none" xmlns="http://www.w3.org/2000/svg">
<path d="M27.0809 19.9996C26.6109 19.8496 26.0809 19.7096 25.5909 19.5596L20.7109 27.5596C21.2509 27.6996 21.7109 27.8496 22.2009 27.9896L27.0809 19.9996Z" fill="#A9A5A5"/>
<path d="M33.7808 6.12012L29.3008 13.4901C29.7508 13.6901 30.2108 13.9101 30.6608 14.1501L32.6608 10.9001L34.4908 6.48012C34.2508 6.35012 34.0008 6.24012 33.7808 6.12012Z" fill="#A9A5A5"/>
<path d="M25.5996 12.1604C26.0896 12.2904 26.5996 12.4404 27.0796 12.6004L31.6296 5.12035C31.1596 4.94035 30.6796 4.77035 30.1796 4.61035L25.5996 12.1604Z" fill="#A9A5A5"/>
<path d="M14.3709 26.1097L19.2409 18.1097C18.6809 17.9597 18.2409 17.8197 17.7409 17.6797L12.8809 25.6797C13.3609 25.8197 13.8509 25.9997 14.3709 26.1097Z" fill="#A9A5A5"/>
<path d="M21.4707 11.5204C22.0207 11.5204 22.5807 11.5904 23.1407 11.6704L27.8107 4.00043C27.2907 3.89043 26.8107 3.78043 26.2507 3.69043L21.4707 11.5204Z" fill="#A9A5A5"/>
<path d="M14.29 3.94043C13.5529 4.12045 12.828 4.34759 12.12 4.62043L4.25 17.6204C4.35564 18.3061 4.5402 18.9772 4.8 19.6204L14.29 3.94043Z" fill="#A9A5A5"/>
<path d="M21.9098 18.7202L21.6498 18.6602L16.7598 26.7102L18.1298 27.0202H18.2998L23.1898 19.0202L21.9098 18.7202Z" fill="#A9A5A5"/>
<path d="M17.3809 3.38977L6.21094 21.7898C6.55753 22.1665 6.92476 22.5237 7.31094 22.8598L19.2209 3.25977C18.5909 3.28977 18.0009 3.32977 17.3809 3.38977Z" fill="#A9A5A5"/>
<path d="M29.3594 20.8301L24.3594 29.0201C24.8195 29.3128 25.1708 29.7484 25.3594 30.2601L30.6894 21.4701C30.2595 21.2299 29.8153 21.0161 29.3594 20.8301V20.8301Z" fill="#A9A5A5"/>
<path d="M7.86984 7.08008C6.09677 8.58484 4.85838 10.6231 4.33984 12.8901L7.86984 7.08008Z" fill="#A9A5A5"/>
<path d="M16.5391 12.2205C17.204 11.9175 17.9128 11.7217 18.6391 11.6405L23.6391 3.34047C23.0791 3.34047 22.5191 3.25047 21.9491 3.23047L16.5391 12.2205Z" fill="#A9A5A5"/>
<path d="M33.7891 23.8696C33.4382 23.4933 33.0641 23.1392 32.6691 22.8096L20.7891 42.3796C21.4191 42.3796 22.0291 42.3096 22.6191 42.2396L33.7891 23.8696Z" fill="#A9A5A5"/>
<path d="M35.8209 28C35.6987 27.3136 35.5008 26.6429 35.2309 26L25.7109 41.7C26.4509 41.5103 27.1789 41.2765 27.8909 41L35.8209 28Z" fill="#A9A5A5"/>
<path d="M18.5399 34.0997C17.9899 34.0997 17.4299 34.0397 16.8699 33.9697L12.1699 41.6997C12.6899 41.8097 13.2199 41.8997 13.7499 41.9897L18.5399 34.0997Z" fill="#A9A5A5"/>
<path d="M34.1394 36.3995C34.9455 35.2296 35.5099 33.9105 35.7994 32.5195L32.1094 38.5995C32.885 37.9641 33.5682 37.2236 34.1394 36.3995V36.3995Z" fill="#A9A5A5"/>
<path d="M23.3496 33.6104C22.7006 33.824 22.0298 33.9649 21.3496 34.0303L16.3496 42.3004C16.9096 42.3504 17.4796 42.3804 18.0496 42.4004L23.3496 33.6104Z" fill="#A9A5A5"/>
<path d="M7.15078 30.5599L6.92078 30.4199L6.05078 32.4199L7.15078 30.5599Z" fill="#A9A5A5"/>
<path d="M15.57 16.6995C15.3353 16.532 15.1365 16.3191 14.9854 16.0735C14.8342 15.8279 14.7338 15.5546 14.69 15.2695L9.25 24.2695C9.68946 24.5141 10.1437 24.7312 10.61 24.9195L15.57 16.6995Z" fill="#A9A5A5"/>
<path d="M10.6005 32.32C10.1205 32.13 9.66047 31.92 9.21047 31.71L4.73047 39.1C5.15047 39.33 5.60047 39.56 6.07047 39.77L10.6005 32.32Z" fill="#A9A5A5"/>
<path d="M14.3691 33.5399C13.8691 33.4199 13.3691 33.2799 12.8591 33.1299L8.28906 40.6599C8.75906 40.8199 9.28906 40.9699 9.76906 41.1099L14.3691 33.5399Z" fill="#A9A5A5"/>
<path d="M57 12.4998C57.6536 12.3099 58.323 12.1794 59 12.1098L64.18 3.56984C63.65 3.47984 63.12 3.39984 62.57 3.33984L57 12.4998Z" fill="#A9A5A5"/>
<path d="M61.7207 12.1299C62.2478 12.1987 62.7691 12.3057 63.2807 12.4499L68.0507 4.60988C67.5707 4.42988 67.0807 4.26988 66.5807 4.12988L61.7207 12.1299Z" fill="#A9A5A5"/>
<path d="M65.4902 13.3504C65.931 13.5919 66.3553 13.8625 66.7602 14.1604L71.5002 6.35035C71.0802 6.08035 70.6502 5.84035 70.2002 5.61035L65.4902 13.3504Z" fill="#A9A5A5"/>
<path d="M55.1098 3.62012C54.4349 3.74746 53.7672 3.91103 53.1098 4.11012L39.3398 26.6901C39.4699 27.3884 39.6368 28.0794 39.8398 28.7601L55.1098 3.62012Z" fill="#A9A5A5"/>
<path d="M73.4208 7.74023L68.5508 15.7402C68.7608 15.9702 68.9708 16.1902 69.1808 16.4402L70.7308 15.0302L74.5608 8.73023C74.2008 8.39023 73.8108 8.07023 73.4208 7.74023Z" fill="#A9A5A5"/>
<path d="M51.0899 17.1802C51.5295 16.3788 52.0818 15.6446 52.7299 15.0002L59.8799 3.2002H59.7499C59.1799 3.2002 58.6299 3.2002 58.0899 3.2002L40.9199 31.5202C41.1599 32.0102 41.4099 32.5202 41.6899 32.9502L41.7499 33.0502L50.4199 18.7702C50.6018 18.2237 50.8258 17.6921 51.0899 17.1802V17.1802Z" fill="#A9A5A5"/>
<path d="M50.2905 26.42C50.0749 25.7124 49.9275 24.9857 49.8505 24.25L43.2305 35.15C43.5638 35.55 43.9138 35.94 44.2805 36.32L50.2905 26.42Z" fill="#A9A5A5"/>
<path d="M49.43 5.54004L49.1 5.70004C48.2395 6.15876 47.414 6.68017 46.63 7.26004L39.27 19.38C39.0925 20.4846 39.0022 21.6013 39 22.72L49.43 5.54004Z" fill="#A9A5A5"/>
<path d="M70.4704 30.3496L69.3404 29.3496L61.4004 42.3796C62.0404 42.3796 62.6604 42.2896 63.2704 42.2096L70.4704 30.3496Z" fill="#A9A5A5"/>
<path d="M73.3799 33L72.2499 32L66.4199 41.59C67.1776 41.377 67.9222 41.1199 68.6499 40.82L73.3799 33Z" fill="#A9A5A5"/>
<path d="M76.0004 35.3198L75.1904 34.5898L72.9004 38.3698C74.0539 37.483 75.0949 36.4588 76.0004 35.3198V35.3198Z" fill="#A9A5A5"/>
<path d="M55.5602 32.5999C55.3038 32.4976 55.0534 32.3807 54.8102 32.2499C54.6102 32.1399 54.4302 31.9999 54.2402 31.8799L49.2402 40.0299C49.6902 40.2599 50.1502 40.4699 50.6102 40.6699L55.5602 32.5999Z" fill="#A9A5A5"/>
<path d="M52.4295 30.3303C52.0573 29.9283 51.7226 29.4931 51.4295 29.0303L46.0195 37.9303C46.4095 38.2403 46.8195 38.5403 47.2395 38.8203L52.4295 30.3303Z" fill="#A9A5A5"/>
<path d="M59.4999 33.5496C58.9526 33.5205 58.408 33.4537 57.8699 33.3496L52.9199 41.4896C53.4199 41.6396 53.9199 41.7596 54.4399 41.8796L59.4999 33.5496Z" fill="#A9A5A5"/>
<path d="M64.49 32.7598C63.8013 33.0482 63.084 33.2628 62.35 33.3998L57 42.2898C57.5467 42.3498 58.1067 42.3898 58.68 42.4098L64.49 32.7598Z" fill="#A9A5A5"/>
<path d="M81.9909 3.9502H80.7109V6.0502L81.9909 3.9502Z" fill="#A9A5A5"/>
<path d="M86.5009 3.9502H84.7509L80.7109 10.5902V13.4802L86.5009 3.9502Z" fill="#A9A5A5"/>
<path d="M91.3909 22.7402L80.7109 40.3102V41.6802H81.6409L91.3909 25.6302V22.7402Z" fill="#A9A5A5"/>
<path d="M91.0109 3.9502H89.2609L80.7109 18.0202V20.9102L91.0109 3.9502Z" fill="#A9A5A5"/>
<path d="M91.3902 40.4996V37.5996L88.9102 41.6796H90.6702L91.3902 40.4996Z" fill="#A9A5A5"/>
<path d="M91.3904 33.0599V30.1699L84.4004 41.6799H86.1504L91.3904 33.0599Z" fill="#A9A5A5"/>
<path d="M91.3909 18.1996V15.3096L80.7109 32.8796V35.7696L91.3909 18.1996Z" fill="#A9A5A5"/>
<path d="M91.3909 10.7699V7.87988L80.7109 25.4499V28.3399L91.3909 10.7699Z" fill="#A9A5A5"/>
<path d="M111.65 26.5396H113.4L118.25 18.5596H116.49L111.65 26.5396Z" fill="#A9A5A5"/>
<path d="M120.359 12.2002H122.109L127.119 3.9502H125.369L120.359 12.2002Z" fill="#A9A5A5"/>
<path d="M124.869 12.1998H126.629L128.579 8.97984V6.08984L124.869 12.1998Z" fill="#A9A5A5"/>
<path d="M111.33 12.2002H113.09L118.09 3.9502H116.34L111.33 12.2002Z" fill="#A9A5A5"/>
<path d="M115.84 12.2002H117.6L122.61 3.9502H120.85L115.84 12.2002Z" fill="#A9A5A5"/>
<path d="M126.309 26.5397V24.6797L125.189 26.5397H126.309Z" fill="#A9A5A5"/>
<path d="M111.98 18.5596L98.9902 39.9496V41.6796H99.6902L113.74 18.5596H111.98Z" fill="#A9A5A5"/>
<path d="M122.76 18.5596H121.01L116.16 26.5396H117.92L122.76 18.5596Z" fill="#A9A5A5"/>
<path d="M100.04 3.9502H98.9902V5.6902L100.04 3.9502Z" fill="#A9A5A5"/>
<path d="M125.52 18.5596L120.68 26.5396H122.43L126.31 20.1396V18.5596H125.52Z" fill="#A9A5A5"/>
<path d="M113.731 33.4404H111.971L106.961 41.6804H108.721L113.731 33.4404Z" fill="#A9A5A5"/>
<path d="M127.27 33.4404H125.51L120.5 41.6804H122.26L127.27 33.4404Z" fill="#A9A5A5"/>
<path d="M118.24 33.4404H116.49L111.48 41.6804H113.23L118.24 33.4404Z" fill="#A9A5A5"/>
<path d="M122.75 33.4404H121L115.99 41.6804H117.75L122.75 33.4404Z" fill="#A9A5A5"/>
<path d="M129.28 37.5599V34.6699L125.02 41.6799H126.77L129.28 37.5599Z" fill="#A9A5A5"/>
<path d="M109.07 3.9502H107.31L98.9902 17.6602V20.5502L109.07 3.9502Z" fill="#A9A5A5"/>
<path d="M113.58 3.9502H111.83L98.9902 25.0902V27.9802L113.58 3.9502Z" fill="#A9A5A5"/>
<path d="M104.56 3.9502H102.8L98.9902 10.2302V13.1202L104.56 3.9502Z" fill="#A9A5A5"/>
<path d="M109.549 32.8802V29.9902L102.449 41.6802H104.209L109.549 32.8802Z" fill="#A9A5A5"/>
<path d="M109.55 18.0199V15.1299L98.9902 32.5199V35.4099L109.55 18.0199Z" fill="#A9A5A5"/>
<path d="M140.661 3.9502H138.911L135.211 10.0402V12.9302L140.661 3.9502Z" fill="#A9A5A5"/>
<path d="M148.609 25.1299L149.619 26.3499L155.089 17.3499L154.079 16.1299L148.609 25.1299Z" fill="#A9A5A5"/>
<path d="M160.65 5.3002V8.2002L163.23 3.9502H161.47L160.65 5.3002Z" fill="#A9A5A5"/>
<path d="M146.01 21.9905L147.02 23.2105L152.49 14.2005L151.48 12.9805L146.01 21.9905Z" fill="#A9A5A5"/>
<path d="M157.701 20.4895L156.681 19.2695L151.221 28.2695L152.231 29.4995L157.701 20.4895Z" fill="#A9A5A5"/>
<path d="M160.65 12.7402V15.6302L167.74 3.9502H165.99L160.65 12.7402Z" fill="#A9A5A5"/>
<path d="M145.671 22.5498L135.211 39.7698V41.6798H135.801L145.671 25.4398V22.5498Z" fill="#A9A5A5"/>
<path d="M171.111 25.2402L161.631 40.8502L162.321 41.6802H162.881L171.111 28.1402V25.2402Z" fill="#A9A5A5"/>
<path d="M160.65 23.0602L171.11 5.8402V3.9502H170.5L160.65 20.1702V23.0602Z" fill="#A9A5A5"/>
<path d="M136.151 3.9502H135.211V5.5002L136.151 3.9502Z" fill="#A9A5A5"/>
<path d="M171.109 20.6996V17.8096L159.029 37.6996L160.039 38.9296L171.109 20.6996Z" fill="#A9A5A5"/>
<path d="M160.3 23.6402L159.29 22.4102L153.82 31.4202L154.83 32.6402L160.3 23.6402Z" fill="#A9A5A5"/>
<path d="M171.11 13.2699V10.3799L156.42 34.5599L157.44 35.7799L171.11 13.2699Z" fill="#A9A5A5"/>
<path d="M171.11 40.1104L170.15 41.6804H171.11V40.1104Z" fill="#A9A5A5"/>
<path d="M171.111 35.5697V32.6797L165.641 41.6797H167.391L171.111 35.5697Z" fill="#A9A5A5"/>
<path d="M149.881 11.0598L148.871 9.83984L135.211 32.3298V35.2198L149.881 11.0598Z" fill="#A9A5A5"/>
<path d="M147.281 7.92043L146.271 6.69043L135.211 24.9004V27.7904L147.281 7.92043Z" fill="#A9A5A5"/>
<path d="M145.67 40.3002V37.4102L143.07 41.6802H144.83L145.67 40.3002Z" fill="#A9A5A5"/>
<path d="M144.681 4.7702L144.001 3.9502H143.421L135.211 17.4702V20.3602L144.681 4.7702Z" fill="#A9A5A5"/>
<path d="M145.671 32.8705V29.9805L138.561 41.6805H140.311L145.671 32.8705Z" fill="#A9A5A5"/>
<path d="M206.121 4.75L201.381 12.56C201.863 12.7154 202.334 12.9025 202.791 13.12L207.491 5.39C207.261 5.27 207.041 5.14 206.791 5.03L206.121 4.75Z" fill="#A9A5A5"/>
<path d="M204.779 14.3903C205.184 14.6984 205.568 15.0324 205.929 15.3903L210.769 7.39027C210.379 7.08027 209.959 6.80027 209.539 6.53027L204.779 14.3903Z" fill="#A9A5A5"/>
<path d="M190.08 4.33008C189.292 4.58737 188.521 4.89124 187.77 5.24008L176.77 23.4201C176.789 24.2702 176.859 25.1184 176.98 25.9601L190.08 4.33008Z" fill="#A9A5A5"/>
<path d="M195.221 3.2998C194.581 3.3498 193.941 3.4298 193.321 3.5298L177.711 29.2398C177.911 29.8376 178.142 30.425 178.401 30.9998L195.221 3.2998Z" fill="#A9A5A5"/>
<path d="M202.801 32.5097L196.801 42.4197H197.491C197.851 42.4197 198.211 42.4197 198.561 42.4197L206.001 30.2197C205.071 31.1587 203.989 31.933 202.801 32.5097V32.5097Z" fill="#A9A5A5"/>
<path d="M183.26 8.12988C181.742 9.43169 180.442 10.9677 179.41 12.6799C178.419 14.3299 177.694 16.1251 177.26 17.9999L183.26 8.12988Z" fill="#A9A5A5"/>
<path d="M188.82 28.4504C188.554 27.9531 188.33 27.4347 188.15 26.9004L182.27 36.5904C182.63 36.9504 183.01 37.3004 183.4 37.5904L188.89 28.5404C188.89 28.5404 188.84 28.4904 188.82 28.4504Z" fill="#A9A5A5"/>
<path d="M209.43 14.17L213.33 10.64L213.59 10.2C213.26 9.79004 212.91 9.41004 212.59 9.04004L209.43 14.17Z" fill="#A9A5A5"/>
<path d="M195.08 33.2495C194.583 33.1258 194.095 32.9654 193.62 32.7695L188.73 40.7695C189.2 40.9595 189.73 41.1395 190.17 41.2995L195.08 33.2495Z" fill="#A9A5A5"/>
<path d="M209.61 31.6299L208.48 30.6299L201.48 42.1599C202.16 42.0599 202.83 41.9299 203.48 41.7699L209.61 31.6299Z" fill="#A9A5A5"/>
<path d="M199.441 33.5C198.967 33.5639 198.489 33.5973 198.011 33.6H197.641L192.551 42C193.081 42.1 193.611 42.19 194.151 42.26L199.441 33.5Z" fill="#A9A5A5"/>
<path d="M212.52 34.2598L211.39 33.2598L207 40.5098C207.929 40.0835 208.822 39.5818 209.67 39.0098L212.52 34.2598Z" fill="#A9A5A5"/>
<path d="M191.561 31.6104C191.15 31.3101 190.765 30.9756 190.411 30.6104L185.301 39.0004C185.721 39.2704 186.151 39.5304 186.591 39.7704L191.561 31.6104Z" fill="#A9A5A5"/>
<path d="M191.4 14.13C191.762 13.8526 192.143 13.6019 192.54 13.38C193.013 13.1237 193.505 12.903 194.01 12.72L199.74 3.28996C199.18 3.28996 198.61 3.21996 198.03 3.20996L191.4 14.13Z" fill="#A9A5A5"/>
<path d="M197.15 12.0804C197.44 12.0804 197.71 12.0804 198.01 12.0804C198.31 12.0804 198.61 12.0804 198.91 12.1304L203.82 4.00039C203.32 3.87039 202.82 3.75039 202.28 3.65039L197.15 12.0804Z" fill="#A9A5A5"/>
<path d="M187.529 23.3998C187.529 23.1998 187.529 23.0198 187.529 22.8198C187.528 21.9026 187.622 20.9877 187.809 20.0898L179.699 33.3998C179.989 33.8598 180.309 34.3098 180.639 34.7398L187.529 23.3998Z" fill="#A9A5A5"/>
<path d="M233.189 12.2002H234.949L239.959 3.9502H238.199L233.189 12.2002Z" fill="#A9A5A5"/>
<path d="M226.419 3.9502H224.659L218.439 14.2002V17.0902L226.419 3.9502Z" fill="#A9A5A5"/>
<path d="M247.231 3.9502L242.221 12.2002H243.971L248.031 5.5202V3.9502H247.231Z" fill="#A9A5A5"/>
<path d="M221.899 3.9502H220.149L218.439 6.7702V9.6602L221.899 3.9502Z" fill="#A9A5A5"/>
<path d="M237.711 12.2002H239.461L244.471 3.9502H242.721L237.711 12.2002Z" fill="#A9A5A5"/>
<path d="M242.539 26.5405H244.289L245.759 24.1105V21.2305L242.539 26.5405Z" fill="#A9A5A5"/>
<path d="M238.029 26.5396H239.779L244.629 18.5596H242.869L238.029 26.5396Z" fill="#A9A5A5"/>
<path d="M233.51 26.5396H235.27L240.11 18.5596H238.36L233.51 26.5396Z" fill="#A9A5A5"/>
<path d="M246.73 12.1996H248.03V10.0596L246.73 12.1996Z" fill="#A9A5A5"/>
<path d="M248.731 41.5296V38.6396L246.881 41.6796H248.631L248.731 41.5296Z" fill="#A9A5A5"/>
<path d="M235.59 33.4404H233.84L228.83 41.6804H230.58L235.59 33.4404Z" fill="#A9A5A5"/>
<path d="M244.62 33.4404H242.86L237.85 41.6804H239.61L244.62 33.4404Z" fill="#A9A5A5"/>
<path d="M240.1 33.4404H238.35L233.34 41.6804H235.09L240.1 33.4404Z" fill="#A9A5A5"/>
<path d="M248.729 34.0904V33.4404H247.379L242.369 41.6804H244.119L248.729 34.0904Z" fill="#A9A5A5"/>
<path d="M231.089 18.5596H229.329L218.439 36.4996V39.3896L231.089 18.5596Z" fill="#A9A5A5"/>
<path d="M230.929 3.9502H229.179L218.439 21.6302V24.5202L230.929 3.9502Z" fill="#A9A5A5"/>
<path d="M228.999 14.5602V12.2002H230.429L235.439 3.9502H233.689L218.439 29.0702V31.9502L228.999 14.5602Z" fill="#A9A5A5"/>
<path d="M229.001 29.4196V26.5396H230.751L235.601 18.5596H233.841L219.801 41.6796H221.561L229.001 29.4196Z" fill="#A9A5A5"/>
<path d="M231.081 33.4404H229.321L224.311 41.6804H226.071L231.081 33.4404Z" fill="#A9A5A5"/>
</svg>
