<svg width="252" height="45" viewBox="0 0 252 45" fill="none" xmlns="http://www.w3.org/2000/svg">
<path d="M26.0199 31.0501H26.02L26.0199 31.044C26.0121 30.4089 25.8062 29.7921 25.431 29.2796C25.0586 28.7711 24.538 28.3906 23.9408 28.1901C22.0911 27.4605 20.1797 26.8983 18.2296 26.5102C15.8401 26.0134 13.488 25.3517 11.1899 24.5299C9.37932 23.8696 7.76375 22.7648 6.49164 21.3171C5.13707 19.6545 4.44832 17.5479 4.55925 15.406L4.55992 15.3931L4.55992 15.3803C4.56044 13.277 5.20548 11.2244 6.40813 9.4989C7.76891 7.60295 9.64494 6.13707 11.8137 5.27514C14.6593 4.15678 17.7005 3.62114 20.757 3.69998L20.7645 3.70017L20.772 3.70014C23.2 3.69026 25.6214 3.95454 27.9901 4.48793L27.9922 4.4884C30.0309 4.93819 31.9954 5.67289 33.8278 6.67027L30.9319 13.6716C27.7971 11.9889 24.3054 11.0722 20.743 11.0005C19.0526 10.8792 17.3611 11.2231 15.8522 11.995L15.8441 11.9992L15.8361 12.0036C15.3224 12.2905 14.8938 12.7085 14.5941 13.2149C14.2944 13.7213 14.1343 14.298 14.1299 14.8865L14.1299 14.8946L14.1301 14.9028C14.1456 15.5183 14.354 16.1134 14.7258 16.6041C15.0942 17.0903 15.6046 17.4497 16.1861 17.6328C18.0101 18.3294 19.8941 18.8577 21.8145 19.211C24.2139 19.7029 26.5755 20.3645 28.8812 21.1908L28.8825 21.1913C30.6944 21.8351 32.3214 22.9119 33.6221 24.3279C34.9762 25.9828 35.6484 28.0921 35.5011 30.2257L35.4998 30.2453L35.4999 30.2649C35.5199 32.3526 34.8918 34.395 33.7022 36.1107C32.3271 38.0031 30.4415 39.4649 28.2661 40.3252L28.2627 40.3265C25.4191 41.4748 22.3692 42.0241 19.3036 41.9403L19.3036 41.9401L19.2895 41.9401C16.3393 41.9428 13.401 41.5685 10.5457 40.8262L10.4199 41.3101L10.5339 40.8233C8.23789 40.2858 6.04759 39.3724 4.05129 38.1209L7.14278 31.1695C8.86566 32.2182 10.7186 33.0383 12.6549 33.6087C14.8289 34.2856 17.0929 34.63 19.3699 34.6301C21.4455 34.6301 23.0767 34.3729 24.2063 33.8072C24.7782 33.5208 25.237 33.1476 25.5518 32.6747C25.8686 32.1987 26.0199 31.6508 26.0199 31.0501Z" stroke="#A9A5A5"/>
<path d="M75.3131 10.258L69.2662 15.7349C67.5722 13.7392 65.2628 12.3542 62.6934 11.8035C59.9478 11.215 57.0826 11.6172 54.6051 12.9389L54.6051 12.9388L54.5968 12.9434C52.9324 13.8721 51.5718 15.2619 50.6787 16.9457L50.6787 16.9457L50.6768 16.9495C49.7356 18.7609 49.2625 20.779 49.3004 22.8199C49.2611 24.8581 49.7345 26.8735 50.6771 28.6812L50.6783 28.6835C51.5687 30.3699 52.9305 31.761 54.5976 32.6871L54.6003 32.6886C56.3506 33.6469 58.32 34.1333 60.3151 34.1C62.1141 34.0963 63.8881 33.6781 65.4994 32.8779C66.9494 32.1578 68.2325 31.1457 69.2693 29.9074L75.312 35.3716C73.5743 37.4362 71.3812 39.0728 68.9027 40.1508C66.0228 41.3775 62.9178 41.987 59.788 41.9401L59.7799 41.9399L59.7718 41.9401C56.1418 42.0031 52.5535 41.1599 49.3315 39.4866C46.3425 37.9288 43.8457 35.5702 42.1203 32.6747C40.3529 29.698 39.4459 26.2893 39.5004 22.8279L39.5005 22.82L39.5004 22.8121C39.4455 19.34 40.3559 15.9208 42.1301 12.9357C43.8553 10.0403 46.3518 7.68182 49.3406 6.12391C52.5532 4.46688 56.1271 3.63393 59.7413 3.69993L59.7504 3.70009L59.7594 3.69993C62.8872 3.64368 65.9921 4.2432 68.8742 5.45987C71.3675 6.53553 73.5722 8.17957 75.3131 10.258Z" stroke="#A9A5A5"/>
<path d="M81.2109 4.5H90.8909V41.18H81.2109V4.5Z" stroke="#A9A5A5"/>
<path d="M109.551 33.96L128.78 33.9405V41.18H99.5V4.5H128.09V11.7H109.59H109.09V12.2V18.56V19.06H109.59H125.85V26.06H109.55H109.05V26.56V33.46V33.9605L109.551 33.96Z" stroke="#A9A5A5"/>
<path d="M161.151 24.11V4.5H170.611V41.18H162.556L146.056 21.261L145.171 20.1926V21.58V41.18H135.711V4.5H143.766L160.266 24.4289L161.151 25.4979V24.11Z" stroke="#A9A5A5"/>
<path d="M197.452 41.9405C193.835 41.9971 190.261 41.154 187.051 39.4872C184.065 37.9236 181.57 35.566 179.839 32.6743C178.065 29.6931 177.154 26.2772 177.209 22.8084L177.21 22.8005L177.209 22.7926C177.154 19.3206 178.065 15.9016 179.839 12.9166C181.57 10.025 184.065 7.66742 187.051 6.10386C190.264 4.43851 193.842 3.5988 197.461 3.66039L197.469 3.66052L197.477 3.66041C200.608 3.61535 203.713 4.22835 206.592 5.45973C209.072 6.53103 211.266 8.16475 213.001 10.229L206.959 15.7016C205.925 14.4594 204.643 13.444 203.193 12.7221C201.581 11.9197 199.805 11.5016 198.004 11.5005C196.01 11.4641 194.041 11.9469 192.29 12.9015L192.29 12.9014L192.286 12.9038C190.621 13.8325 189.261 15.2224 188.368 16.9062L188.366 16.9089C187.42 18.7189 186.947 20.7385 186.989 22.7803C186.945 24.8194 187.419 26.8364 188.367 28.6427L188.367 28.6439C189.257 30.33 190.619 31.7207 192.285 32.6468C194.031 33.6233 196.003 34.1246 198.003 34.1005C199.801 34.0969 201.574 33.6786 203.184 32.8781C204.632 32.158 205.914 31.1461 206.949 29.9081L212.991 35.372C211.253 37.4367 209.06 39.0733 206.582 40.1513C203.702 41.3791 200.597 41.9887 197.467 41.9405L197.459 41.9404L197.452 41.9405Z" stroke="#A9A5A5"/>
<path d="M229 33.96L248.229 33.9405V41.18H218.939V4.5H247.499V11.7H228.999H228.499V12.2V18.56V19.06H228.999H245.259V26.06H228.999H228.499V26.56V33.46V33.9605L229 33.96Z" stroke="#A9A5A5"/>
</svg>
