<svg width="252" height="45" viewBox="0 0 252 45" fill="none" xmlns="http://www.w3.org/2000/svg">
<path d="M10.4199 41.3101C7.92916 40.727 5.55994 39.7117 3.41992 38.3101L6.91992 30.4401C8.74165 31.6126 10.7217 32.5184 12.7999 33.1301C14.927 33.7929 17.142 34.13 19.3699 34.1301C23.4699 34.1301 25.5199 33.1035 25.5199 31.0501C25.5134 30.5192 25.3413 30.0034 25.0275 29.575C24.7138 29.1465 24.2742 28.8267 23.7699 28.6601C21.9435 27.9389 20.0559 27.3833 18.1299 27.0001C15.7166 26.4985 13.3409 25.8302 11.0199 25.0001C9.12715 24.3101 7.43859 23.1545 6.10992 21.6401C4.67314 19.8803 3.94241 17.6489 4.05992 15.3801C4.06046 13.1735 4.73756 11.0201 5.99992 9.21014C7.41681 7.23489 9.37083 5.70777 11.6299 4.81014C14.5381 3.66706 17.6462 3.11957 20.7699 3.20014C23.2356 3.19012 25.6945 3.45848 28.0999 4.00014C30.3311 4.49238 32.4752 5.31833 34.4599 6.45014L31.1799 14.3801C27.9883 12.562 24.3923 11.5719 20.7199 11.5001C19.1164 11.3827 17.5113 11.7079 16.0799 12.4401C15.6433 12.684 15.2791 13.0392 15.0244 13.4695C14.7697 13.8999 14.6336 14.3901 14.6299 14.8901C14.6428 15.401 14.8158 15.8949 15.1244 16.3021C15.433 16.7094 15.8616 17.0095 16.3499 17.1601C18.1516 17.8492 20.0127 18.3714 21.9099 18.7201C24.3343 19.2169 26.7203 19.8852 29.0499 20.7201C30.943 21.3928 32.6426 22.519 33.9999 24.0001C35.4408 25.7553 36.1563 27.9947 35.9999 30.2601C36.0209 32.4531 35.3605 34.5986 34.1099 36.4001C32.6787 38.3715 30.7154 39.8943 28.4499 40.7901C25.5425 41.9641 22.4242 42.5258 19.2899 42.4401C16.2972 42.4428 13.3164 42.0631 10.4199 41.3101V41.3101Z" fill="#A9A5A5"/>
<path d="M49.1005 39.93C46.029 38.3292 43.4633 35.9055 41.6905 32.93C39.8757 29.8738 38.9445 26.374 39.0005 22.82C38.9441 19.2552 39.8788 15.7448 41.7005 12.68C43.4733 9.7045 46.039 7.28083 49.1105 5.68001C52.3969 3.98469 56.0531 3.1325 59.7505 3.20001C62.9487 3.14249 66.1236 3.75566 69.0705 5.00001C71.7837 6.17019 74.1647 7.99457 76.0005 10.31L69.2105 16.46C67.5646 14.3325 65.2188 12.8561 62.5887 12.2923C59.9585 11.7286 57.2137 12.1139 54.8405 13.38C53.2602 14.2618 51.9684 15.5814 51.1205 17.18C50.2163 18.9203 49.7625 20.8593 49.8005 22.82C49.7612 24.7777 50.2151 26.7138 51.1205 28.45C51.9656 30.0507 53.2581 31.371 54.8405 32.25C56.5157 33.1672 58.4008 33.6325 60.3105 33.6C62.0339 33.597 63.7334 33.1966 65.277 32.4301C66.8205 31.6635 68.1666 30.5513 69.2105 29.18L76.0005 35.32C74.1673 37.6207 71.7982 39.437 69.1005 40.61C66.1558 41.8646 62.9809 42.4881 59.7805 42.44C56.0671 42.5045 52.3963 41.6418 49.1005 39.93V39.93Z" fill="#A9A5A5"/>
<path d="M80.7109 4H91.3909V41.68H80.7109V4Z" fill="#A9A5A5"/>
<path d="M129.28 33.44V41.68H99V4H128.59V12.2H109.59V18.56H126.35V26.56H109.55V33.46L129.28 33.44Z" fill="#A9A5A5"/>
<path d="M171.111 4V41.68H162.321L145.671 21.58V41.68H135.211V4H144.001L160.651 24.11V4H171.111Z" fill="#A9A5A5"/>
<path d="M186.819 39.9305C183.752 38.3241 181.188 35.9017 179.409 32.9305C177.588 29.8694 176.653 26.3621 176.709 22.8005C176.653 19.2356 177.588 15.7252 179.409 12.6605C181.188 9.68924 183.752 7.26686 186.819 5.66046C190.107 3.95659 193.767 3.09746 197.469 3.16046C200.671 3.11439 203.846 3.74125 206.789 5.00046C209.489 6.16637 211.859 7.97991 213.689 10.2805L206.899 16.4305C205.859 15.0545 204.514 13.9383 202.97 13.1697C201.426 12.401 199.724 12.0008 197.999 12.0005C196.091 11.9649 194.206 12.4267 192.529 13.3405C190.949 14.2222 189.657 15.5418 188.809 17.1405C187.901 18.879 187.447 20.8192 187.489 22.7805C187.445 24.7386 187.9 26.6759 188.809 28.4105C189.655 30.0112 190.947 31.3315 192.529 32.2105C194.2 33.1447 196.086 33.624 197.999 33.6005C199.721 33.5974 201.42 33.197 202.961 32.4304C204.503 31.6637 205.848 30.5516 206.889 29.1805L213.679 35.3205C211.846 37.6211 209.477 39.4374 206.779 40.6105C203.835 41.8662 200.66 42.4897 197.459 42.4405C193.76 42.4983 190.103 41.6358 186.819 39.9305V39.9305Z" fill="#A9A5A5"/>
<path d="M248.729 33.44V41.68H218.439V4H247.999V12.2H228.999V18.56H245.759V26.56H228.999V33.46L248.729 33.44Z" fill="#A9A5A5"/>
</svg>
