<svg width="194" height="45" viewBox="0 0 194 45" fill="none" xmlns="http://www.w3.org/2000/svg">
<path d="M26.5407 40.3398L25.7207 41.6798H26.5407V40.3398Z" fill="#A9A5A5"/>
<path d="M14.2906 3.9502H12.5306L7.39062 12.4102H9.15062L14.2906 3.9502Z" fill="#A9A5A5"/>
<path d="M29.9609 12.4102H31.7109L36.8509 3.9502H35.1009L29.9609 12.4102Z" fill="#A9A5A5"/>
<path d="M34.4707 12.4102H36.2307L38.0707 9.38023V6.49023L34.4707 12.4102Z" fill="#A9A5A5"/>
<path d="M8.01953 3.9502L4.26953 10.1102V12.4102H4.62953L9.76953 3.9502H8.01953Z" fill="#A9A5A5"/>
<path d="M18.8004 3.9502H17.0404L11.9004 12.4102H13.6604L18.8004 3.9502Z" fill="#A9A5A5"/>
<path d="M5.25953 3.9502H4.26953V5.5702L5.25953 3.9502Z" fill="#A9A5A5"/>
<path d="M26.5392 28.3705V25.4805L16.6992 41.6805H18.4492L26.5392 28.3705Z" fill="#A9A5A5"/>
<path d="M26.5409 35.8002V32.9102L21.2109 41.6802H22.9609L26.5409 35.8002Z" fill="#A9A5A5"/>
<path d="M26.5394 20.9398V18.0498L15.8594 35.6198V38.5098L26.5394 20.9398Z" fill="#A9A5A5"/>
<path d="M27.8294 3.9502H26.0694L15.8594 20.7602V23.6502L27.8294 3.9502Z" fill="#A9A5A5"/>
<path d="M23.3094 3.9502H21.5594L15.8594 13.3302V16.2202L23.3094 3.9502Z" fill="#A9A5A5"/>
<path d="M26.5394 13.5102V12.4102H27.1994L32.3394 3.9502H30.5794L15.8594 28.1902V31.0802L26.5394 13.5102Z" fill="#A9A5A5"/>
<path d="M45.8805 3.9502H44.1205L42.0605 7.3502V10.2402L45.8805 3.9502Z" fill="#A9A5A5"/>
<path d="M57.0703 12.3596H58.8203L63.7103 4.35965C63.1803 4.26965 62.6403 4.19965 62.0903 4.13965L57.0703 12.3596Z" fill="#A9A5A5"/>
<path d="M50.3905 3.9502H48.6405L42.0605 14.7802V17.6702L50.3905 3.9502Z" fill="#A9A5A5"/>
<path d="M54.9105 3.9502H53.1505L42.0605 22.2102V25.1002L54.9105 3.9502Z" fill="#A9A5A5"/>
<path d="M61.3809 12.6899C61.8771 12.8169 62.3545 13.0085 62.8009 13.2599L67.5609 5.40988C67.0909 5.21988 66.6309 5.02988 66.1309 4.87988L61.3809 12.6899Z" fill="#A9A5A5"/>
<path d="M52.7305 15V12.4H54.3105L59.4205 4H57.6605L42.0605 29.7V32.59L52.7305 15Z" fill="#A9A5A5"/>
<path d="M59.4102 23.3696L54.4102 31.6596H56.1602L61.3602 23.0996C60.7198 23.2493 60.0671 23.3397 59.4102 23.3696V23.3696Z" fill="#A9A5A5"/>
<path d="M69.2109 29.53C70.3611 28.9239 71.4185 28.1561 72.3509 27.25L75.4909 22.08C75.8588 20.8362 76.0507 19.547 76.0609 18.25L69.2109 29.53Z" fill="#A9A5A5"/>
<path d="M69.6893 6.44043L64.5293 14.9404C64.8633 15.4922 65.0875 16.1035 65.1893 16.7404L70.9393 7.28043C70.5384 6.97761 70.1211 6.69718 69.6893 6.44043V6.44043Z" fill="#A9A5A5"/>
<path d="M75.6591 14.3605C75.5087 13.7178 75.3047 13.089 75.0491 12.4805L61.1191 35.4205L62.0491 36.7805L75.6591 14.3605Z" fill="#A9A5A5"/>
<path d="M72.1998 34.9401L71.2698 33.5801L66.3398 41.6801H68.0998L72.1998 34.9401Z" fill="#A9A5A5"/>
<path d="M74.5894 38.4203L73.6594 37.0703L70.8594 41.6803H72.6094L74.5894 38.4203Z" fill="#A9A5A5"/>
<path d="M52.7305 22.39V19.5L42.0605 37.08V39.97L52.7305 22.39Z" fill="#A9A5A5"/>
<path d="M76.0491 40.5596L75.3691 41.6796H76.8291L76.0491 40.5596Z" fill="#A9A5A5"/>
<path d="M69.7998 31.4498L68.8698 30.0898L63.5098 38.9198L64.4398 40.2798L69.7998 31.4498Z" fill="#A9A5A5"/>
<path d="M56.6293 23.4102H54.8693L43.7793 41.6802H45.5293L56.6293 23.4102Z" fill="#A9A5A5"/>
<path d="M52.7291 37.2601V34.3701L48.2891 41.6801H50.0391L52.7291 37.2601Z" fill="#A9A5A5"/>
<path d="M73.7305 10.1104C73.4201 9.6758 73.0863 9.25851 72.7305 8.86035L58.7305 31.9204L59.6605 33.2803L73.7305 10.1104Z" fill="#A9A5A5"/>
<path d="M81.9891 3.9502H81.6191V4.5502L81.9891 3.9502Z" fill="#A9A5A5"/>
<path d="M92.3005 16.6996V13.8096L82.2305 30.3896C82.3795 31.0672 82.5698 31.7352 82.8005 32.3896L92.3005 16.6996Z" fill="#A9A5A5"/>
<path d="M91.0091 3.9502H89.2591L81.6191 16.5202V19.4102L91.0091 3.9502Z" fill="#A9A5A5"/>
<path d="M106.58 5.1502V8.0402L109.07 3.9502H107.31L106.58 5.1502Z" fill="#A9A5A5"/>
<path d="M106.58 12.5902V15.4802L113.58 3.9502H111.83L106.58 12.5902Z" fill="#A9A5A5"/>
<path d="M92.2991 6.37988L81.6191 23.9999V24.9099C81.6191 25.5599 81.6191 26.1799 81.6891 26.7899L92.2991 9.26988V6.37988Z" fill="#A9A5A5"/>
<path d="M106.58 22.9102L117.09 5.6002V3.9502H116.34L106.58 20.0202V22.9102Z" fill="#A9A5A5"/>
<path d="M86.4991 3.9502H84.7491L81.6191 9.0902V11.9802L86.4991 3.9502Z" fill="#A9A5A5"/>
<path d="M92.3 24.1302V21.2402L84 34.8902C84.2765 35.3674 84.5803 35.8282 84.91 36.2702L92.3 24.1302Z" fill="#A9A5A5"/>
<path d="M117.09 12.9996V10.1396L106.25 27.9996C106.114 28.899 105.801 29.7625 105.329 30.54C104.857 31.3176 104.235 31.9939 103.5 32.5296L97.5 42.3696C98.06 42.3696 98.63 42.4296 99.22 42.4296L117.09 12.9996Z" fill="#A9A5A5"/>
<path d="M116.86 28.2698C117.006 27.1891 117.083 26.1002 117.09 25.0098L107.32 41.0898C108.184 40.7648 109.018 40.3632 109.81 39.8898L116.86 28.2698Z" fill="#A9A5A5"/>
<path d="M104 42.0003L117.09 20.4403V17.5703L102.09 42.2903C102.74 42.2303 103.38 42.1303 104 42.0003Z" fill="#A9A5A5"/>
<path d="M93.2703 30.0001C92.9997 29.3964 92.7919 28.7664 92.6503 28.1201L86.5703 38.1201C86.9376 38.4753 87.3249 38.8092 87.7303 39.1201L93.2703 30.0001Z" fill="#A9A5A5"/>
<path d="M95.9995 32.88C95.5534 32.6408 95.1399 32.3451 94.7695 32L89.7695 40.29C90.1989 40.5519 90.643 40.789 91.0995 41L95.9995 32.88Z" fill="#A9A5A5"/>
<path d="M100.109 33.57C99.8991 33.57 99.6891 33.57 99.4691 33.57C99.1014 33.5679 98.7342 33.5445 98.3691 33.5L93.3691 41.71C93.8691 41.84 94.3691 41.94 94.9291 42.03L100.109 33.57Z" fill="#A9A5A5"/>
<path d="M131.851 25.8899L136.711 17.8899C136.161 17.7299 135.711 17.5699 135.251 17.4199L130.381 25.4199L131.851 25.8899Z" fill="#A9A5A5"/>
<path d="M140.651 18.8302L140.161 18.7202L139.101 18.4902L134.221 26.4902L135.761 26.8502L140.651 18.8302Z" fill="#A9A5A5"/>
<path d="M144.57 19.8104L143.06 19.4004L138.18 27.4004L139.69 27.8104L144.57 19.8104Z" fill="#A9A5A5"/>
<path d="M146.85 13.17C147.3 13.36 147.76 13.57 148.22 13.79L152.68 6.46C152.25 6.21 151.81 5.98 151.35 5.75L146.85 13.17Z" fill="#A9A5A5"/>
<path d="M134.66 3.51957L124 21.1496C124.13 21.3396 124.27 21.5096 124.42 21.6896C124.57 21.8696 124.84 22.1096 125.05 22.3096L136.6 3.30957C135.89 3.33957 135.27 3.42957 134.66 3.51957Z" fill="#A9A5A5"/>
<path d="M131.46 4.23047C130.9 4.41047 130.35 4.59047 129.84 4.81047L129.17 5.13047L122.35 16.3505C122.399 17.1148 122.526 17.8721 122.73 18.6105L131.46 4.23047Z" fill="#A9A5A5"/>
<path d="M147.31 20.69L146.88 20.54L142 28.64H142.06C142.509 28.8278 142.909 29.115 143.23 29.48L148.33 21.09C148 21 147.64 20.81 147.31 20.69Z" fill="#A9A5A5"/>
<path d="M133.27 16.1198C133.015 15.7609 132.882 15.3298 132.89 14.8898C132.894 14.3897 133.03 13.8995 133.284 13.4692C133.539 13.0388 133.903 12.6836 134.34 12.4398C134.819 12.1599 135.339 11.9542 135.88 11.8298L141.08 3.25977C140.51 3.25977 139.93 3.25977 139.36 3.25977L126.84 23.8198C127.261 24.0936 127.698 24.3407 128.15 24.5598L133.27 16.1198Z" fill="#A9A5A5"/>
<path d="M138.83 11.5H139C139.52 11.5 140 11.5 140.56 11.57L145.28 3.81004C144.747 3.71004 144.217 3.62004 143.69 3.54004L138.83 11.5Z" fill="#A9A5A5"/>
<path d="M153.81 26.89C153.629 26.3032 153.381 25.7394 153.07 25.21L142.91 41.94C143.608 41.8053 144.299 41.6351 144.98 41.43L153.81 26.89Z" fill="#A9A5A5"/>
<path d="M151.469 23.3096C151.105 22.9515 150.717 22.6174 150.309 22.3096L138.109 42.3996C138.729 42.3996 139.329 42.3996 139.909 42.3296L151.469 23.3096Z" fill="#A9A5A5"/>
<path d="M140.531 33.9004C139.909 34.0085 139.281 34.0753 138.651 34.1004L133.721 42.2204C134.271 42.2804 134.821 42.3404 135.381 42.3704L140.531 33.9004Z" fill="#A9A5A5"/>
<path d="M152.4 36.3999C153.568 34.7127 154.218 32.7212 154.27 30.6699L148.76 39.7399C150.198 38.8996 151.439 37.7607 152.4 36.3999Z" fill="#A9A5A5"/>
<path d="M143.07 12.0002C143.57 12.1102 144.07 12.2402 144.58 12.4002L149.14 4.88016C148.66 4.71016 148.14 4.55016 147.67 4.41016L143.07 12.0002Z" fill="#A9A5A5"/>
<path d="M128.13 32.0001C127.66 31.7901 127.21 31.5701 126.78 31.3301L122.32 38.6701C122.73 38.9301 123.17 39.1701 123.63 39.4101L128.13 32.0001Z" fill="#A9A5A5"/>
<path d="M131.851 33.3299L131.051 33.1099L130.361 32.8799L125.811 40.3799C126.271 40.5599 126.811 40.7199 127.261 40.8799L131.851 33.3299Z" fill="#A9A5A5"/>
<path d="M135.911 34.0604C135.371 34.0604 134.831 33.9504 134.281 33.8604L129.631 41.5204C130.141 41.6404 130.631 41.7603 131.181 41.8503L135.911 34.0604Z" fill="#A9A5A5"/>
<path d="M178.9 12.4102H180.66L185.8 3.9502H184.04L178.9 12.4102Z" fill="#A9A5A5"/>
<path d="M163.23 3.9502H161.47L156.33 12.4102H158.09L163.23 3.9502Z" fill="#A9A5A5"/>
<path d="M158.72 3.9502H156.96L155.09 7.0202V9.9102L158.72 3.9502Z" fill="#A9A5A5"/>
<path d="M188.55 3.9502L183.41 12.4102H185.17L188.89 6.2902V3.9502H188.55Z" fill="#A9A5A5"/>
<path d="M177.36 22.3896L166.68 39.9596V41.6796H167.39L177.36 25.2796V22.3896Z" fill="#A9A5A5"/>
<path d="M188.89 12.4101V10.8301L187.93 12.4101H188.89Z" fill="#A9A5A5"/>
<path d="M167.74 3.9502H165.99L160.85 12.4102H162.6L167.74 3.9502Z" fill="#A9A5A5"/>
<path d="M177.36 32.7103V29.8203L170.15 41.6803H171.91L177.36 32.7103Z" fill="#A9A5A5"/>
<path d="M177.36 17.85V14.96L166.68 32.53V35.42L177.36 17.85Z" fill="#A9A5A5"/>
<path d="M177.36 40.14V37.25L174.66 41.68H176.42L177.36 40.14Z" fill="#A9A5A5"/>
<path d="M166.679 13.1302L172.259 3.9502H170.499L165.359 12.4102H166.679V13.1302Z" fill="#A9A5A5"/>
<path d="M176.77 3.9502H175.01L166.68 17.6702V20.5602L176.77 3.9502Z" fill="#A9A5A5"/>
<path d="M181.28 3.9502H179.53L166.68 25.1002V27.9902L181.28 3.9502Z" fill="#A9A5A5"/>
</svg>
