<svg width="194" height="45" viewBox="0 0 194 45" fill="none" xmlns="http://www.w3.org/2000/svg">
<path d="M16.3595 12.41V11.91H15.8595H4.76953V4.5H37.5695V11.96H26.5395H26.0395V12.46V41.18H16.3595V12.41Z" stroke="#A9A5A5"/>
<path d="M58.964 31.3785L58.8151 31.1598H58.5505H52.7305H52.2305V31.6598V41.1598H42.5605V4.49975H59.3105V4.49988L59.322 4.49962C62.3014 4.43158 65.2613 4.9976 68.0055 6.16015L68.0085 6.16141C70.3182 7.12211 72.2797 8.76473 73.631 10.8698C74.9823 12.9749 75.659 15.4422 75.5709 17.9421L75.5703 17.9566L75.5707 17.9712C75.6258 20.3872 74.9894 22.7686 73.7364 24.8349C72.4543 26.8296 70.6313 28.4185 68.4802 29.4162L67.9436 29.665L68.2783 30.1527L75.8809 41.2298H65.6651L58.964 31.3785ZM63.6205 13.8198L63.9215 13.4204C62.3964 12.2712 60.5053 11.7165 58.6015 11.8598H52.7305H52.2305V12.3598V23.4098V23.9098H52.7305H58.6416C60.5386 24.0514 62.4239 23.5098 63.9568 22.3826L63.9766 22.3679L63.995 22.3515C64.617 21.7918 65.1049 21.0992 65.4226 20.3251C65.7367 19.5595 65.8763 18.7335 65.8312 17.9074C65.8687 17.0758 65.7216 16.2462 65.4004 15.4781C65.0758 14.7015 64.5814 14.0074 63.9536 13.4468L63.6205 13.8198Z" stroke="#A9A5A5"/>
<path d="M107.079 24.5384V4.5H116.589V24.86C116.589 30.3729 115.064 34.5626 112.078 37.5038C109.09 40.4472 104.874 41.9466 99.3597 41.94H99.3591C93.8443 41.94 89.6281 40.4406 86.6396 37.5034C83.6471 34.5622 82.1191 30.3726 82.1191 24.86V4.5H91.7991V24.54C91.7991 27.6125 92.4048 30.0092 93.6996 31.6453C95.012 33.3037 96.9669 34.1 99.4691 34.1C101.971 34.1 103.922 33.3037 105.225 31.6437C106.51 30.0067 107.099 27.6098 107.079 24.5384Z" stroke="#A9A5A5"/>
<path d="M128.807 40.8267L128.807 40.8265L128.794 40.8235C126.499 40.2838 124.309 39.3705 122.312 38.1209L125.412 31.1697C127.131 32.2183 128.981 33.0385 130.915 33.6088C133.092 34.2857 135.359 34.63 137.64 34.6302H137.64C139.714 34.6302 141.343 34.3801 142.47 33.8176C143.042 33.5327 143.5 33.1597 143.814 32.6847C144.13 32.2068 144.28 31.6558 144.28 31.0502H144.28L144.28 31.0416C144.269 30.4032 144.057 29.7845 143.675 29.2732C143.296 28.7672 142.769 28.3918 142.168 28.199C140.33 27.4676 138.429 26.9024 136.49 26.5104C134.098 26.0121 131.742 25.3504 129.44 24.5299C127.633 23.8681 126.02 22.7633 124.751 21.3169C123.393 19.6569 122.703 17.5492 122.819 15.4071L122.82 15.3909L122.82 15.3747C122.796 13.2608 123.425 11.1911 124.619 9.44704C125.977 7.55013 127.853 6.0846 130.022 5.22584C132.877 4.12183 135.924 3.60292 138.984 3.69996L138.992 3.70021L139 3.70021C141.429 3.70053 143.85 3.97471 146.218 4.51756L146.218 4.51758L146.222 4.51847C148.261 4.96821 150.225 5.70284 152.057 6.7001L149.153 13.7004C146.039 12.0169 142.568 11.0907 139.024 11.0007C137.333 10.8791 135.641 11.2229 134.132 11.9951L134.124 11.9992L134.116 12.0037C133.602 12.2906 133.174 12.7085 132.874 13.2149C132.574 13.7213 132.414 14.2981 132.41 14.8865L132.41 14.8947L132.41 14.9028C132.425 15.5183 132.634 16.1134 133.006 16.6042C133.374 17.0903 133.884 17.4497 134.466 17.6329C136.287 18.3284 138.167 18.8567 140.084 19.211C142.486 19.7015 144.851 20.3628 147.159 21.19C148.96 21.8578 150.571 22.9553 151.851 24.3871C153.22 26.0299 153.92 28.1286 153.81 30.2646L153.81 30.2798L153.81 30.295C153.83 32.3825 153.202 34.4249 152.012 36.1404C150.634 38.0309 148.749 39.4923 146.575 40.3555L146.573 40.3565C143.729 41.504 140.679 42.0534 137.613 41.9704L137.613 41.9702L137.6 41.9702C134.632 41.9674 131.677 41.5831 128.807 40.8267Z" stroke="#A9A5A5"/>
<path d="M167.18 12.41V11.91H166.68H155.59V4.5H188.39V11.96H177.36H176.86V12.46V41.18H167.18V12.41Z" stroke="#A9A5A5"/>
</svg>
