<svg width="194" height="45" viewBox="0 0 194 45" fill="none" xmlns="http://www.w3.org/2000/svg">
<path d="M15.8595 12.41H4.26953V4H38.0695V12.46H26.5395V41.68H15.8595V12.41Z" fill="#A9A5A5"/>
<path d="M58.5505 31.6598H52.7305V41.6598H42.0605V3.99975H59.3105C62.3609 3.9301 65.3911 4.50957 68.2005 5.69975C70.6041 6.69954 72.6454 8.40898 74.0517 10.5997C75.458 12.7904 76.1623 15.3581 76.0705 17.9598C76.1279 20.4732 75.4652 22.9506 74.1605 25.0998C72.827 27.1768 70.9297 28.8313 68.6905 29.8698L76.8305 41.7298H65.4005L58.5505 31.6598ZM63.6205 13.8198C62.1876 12.7399 60.4095 12.2207 58.6205 12.3598H52.7305V23.4098H58.6605C60.4447 23.5473 62.219 23.0399 63.6605 21.9798C64.2267 21.4703 64.6709 20.8399 64.96 20.1353C65.2491 19.4307 65.3758 18.67 65.3305 17.9098C65.3688 17.1436 65.235 16.3786 64.9391 15.6709C64.6433 14.9632 64.1927 14.3307 63.6205 13.8198V13.8198Z" fill="#A9A5A5"/>
<path d="M86.2891 37.86C83.1758 34.8 81.6191 30.4667 81.6191 24.86V4H92.2991V24.54C92.2991 30.58 94.6891 33.6 99.4691 33.6C104.249 33.6 106.619 30.58 106.579 24.54V4H117.089V24.86C117.089 30.4667 115.536 34.8 112.429 37.86C109.322 40.92 104.966 42.4467 99.3591 42.44C93.7525 42.44 89.3958 40.9133 86.2891 37.86Z" fill="#A9A5A5"/>
<path d="M128.68 41.3102C126.19 40.7248 123.821 39.7095 121.68 38.3102L125.19 30.4402C127.008 31.6126 128.985 32.5185 131.06 33.1302C133.19 33.7929 135.409 34.13 137.64 34.1302C141.74 34.1302 143.78 33.1302 143.78 31.0502C143.77 30.5168 143.594 29.9999 143.274 29.5727C142.955 29.1455 142.509 28.8297 142 28.6702C140.184 27.9464 138.306 27.3875 136.39 27.0002C133.973 26.497 131.595 25.8288 129.27 25.0002C127.381 24.3086 125.696 23.1532 124.37 21.6402C122.929 19.8828 122.197 17.6497 122.32 15.3802C122.295 13.1619 122.955 10.9899 124.21 9.16021C125.624 7.18259 127.579 5.65487 129.84 4.76021C132.758 3.63154 135.873 3.10103 139 3.20021C141.466 3.20053 143.925 3.47896 146.33 4.03021C148.561 4.52244 150.705 5.3484 152.69 6.48021L149.4 14.4102C146.229 12.5912 142.654 11.5911 139 11.5002C137.396 11.3828 135.791 11.7079 134.36 12.4402C133.923 12.6841 133.559 13.0392 133.304 13.4696C133.049 13.9 132.913 14.3901 132.91 14.8902C132.923 15.401 133.096 15.8949 133.404 16.3022C133.713 16.7095 134.141 17.0096 134.63 17.1602C136.428 17.8482 138.286 18.3704 140.18 18.7202C142.608 19.2157 144.997 19.884 147.33 20.7202C149.211 21.4173 150.893 22.5639 152.23 24.0602C153.683 25.8007 154.426 28.0257 154.31 30.2902C154.331 32.4832 153.67 34.6286 152.42 36.4302C150.986 38.3993 149.023 39.9215 146.76 40.8202C143.852 41.9934 140.734 42.555 137.6 42.4702C134.589 42.4674 131.591 42.0775 128.68 41.3102Z" fill="#A9A5A5"/>
<path d="M166.68 12.41H155.09V4H188.89V12.46H177.36V41.68H166.68V12.41Z" fill="#A9A5A5"/>
</svg>
